<?xml version="1.0" encoding="utf-8"?>
<!-- Generator: Adobe Illustrator 15.0.2, SVG Export Plug-In . SVG Version: 6.00 Build 0)  -->
<!DOCTYPE svg PUBLIC "-//W3C//DTD SVG 1.1//EN" "http://www.w3.org/Graphics/SVG/1.1/DTD/svg11.dtd">
<svg version="1.1" id="Layer_1" xmlns="http://www.w3.org/2000/svg" xmlns:xlink="http://www.w3.org/1999/xlink" x="0px" y="0px"
	 width="960px" height="35px" viewBox="0 0 960 35" enable-background="new 0 0 960 35" xml:space="preserve">
<g>
	<path fill="#646464" d="M431.58,22.919c-0.266-1.004-0.641-1.947-1.126-2.826s-1.063-1.711-1.735-2.496
		c-0.671-0.784-1.412-1.549-2.225-2.298l-2.252-2.032c-0.417-0.368-0.787-0.736-1.107-1.104c-0.322-0.368-0.596-0.755-0.821-1.159
		c-0.226-0.403-0.396-0.828-0.508-1.274c-0.113-0.445-0.169-0.936-0.169-1.47c0-0.368,0.042-0.723,0.127-1.061
		c0.084-0.339,0.211-0.639,0.381-0.9c0.169-0.262,0.381-0.47,0.635-0.624s0.549-0.231,0.888-0.231c0.396,0,0.72,0.119,0.974,0.356
		c0.057,0.053,0.1,0.121,0.15,0.181c0.948-0.206,1.999,0.185,2.492,1.066c0.424,0.76,0.756,1.569,1.064,2.383
		c0.072,0.191,0.097,0.388,0.102,0.584l3.477-0.507l0.018-0.767c0-1.128-0.203-2.194-0.609-3.199
		c-0.406-1.004-0.962-1.88-1.667-2.629c-0.706-0.749-1.529-1.343-2.472-1.782c-0.941-0.439-1.949-0.659-3.021-0.659
		c-1.286,0-2.457,0.195-3.512,0.588c-1.056,0.392-1.958,0.953-2.708,1.685c-0.75,0.73-1.334,1.619-1.752,2.664
		c-0.417,1.046-0.626,2.217-0.626,3.512c0,1.247,0.155,2.335,0.466,3.262s0.702,1.744,1.176,2.451
		c0.475,0.707,0.999,1.33,1.574,1.871s1.134,1.048,1.676,1.525l1.912,1.711c2.403,2.232,3.605,4.467,3.605,6.701
		c0,1.639-0.609,2.459-1.828,2.459c-0.531-0.035-0.951-0.23-1.262-0.588c-0.31-0.355-0.547-0.82-0.71-1.391
		c-0.164-0.57-0.269-1.215-0.313-1.934s-0.067-1.459-0.067-2.219l-6.245,1.266c0.057,1.307,0.265,2.551,0.626,3.734
		c0.36,1.182,0.894,2.229,1.6,3.137c0.705,0.908,1.582,1.631,2.632,2.166c1.049,0.535,2.29,0.801,3.723,0.801
		c1.084,0,2.102-0.189,3.055-0.57c0.954-0.379,1.783-0.908,2.488-1.586s1.264-1.484,1.676-2.424
		c0.412-0.938,0.617-1.967,0.617-3.084C431.976,25.019,431.843,23.923,431.58,22.919z"/>
	<path fill="#646464" d="M434.431,1.128h6.16v21.798c0,0.832,0.018,1.607,0.051,2.326s0.135,1.344,0.305,1.871
		c0.17,0.529,0.434,0.945,0.795,1.248s0.875,0.455,1.541,0.455c0.722,0,1.289-0.178,1.701-0.535
		c0.411-0.357,0.695-0.986,0.854-1.889c0.136-0.82,0.203-2.592,0.203-5.312V1.128h6.161v20.16c0,1.033-0.034,2.061-0.102,3.082
		c-0.067,1.023-0.209,1.996-0.423,2.924c-0.215,0.928-0.52,1.791-0.914,2.594c-0.396,0.801-0.922,1.494-1.582,2.076
		s-1.471,1.039-2.43,1.373c-0.959,0.332-2.104,0.498-3.436,0.498c-1.286,0-2.4-0.158-3.342-0.473
		c-0.943-0.314-1.744-0.75-2.404-1.309s-1.192-1.229-1.599-2.006s-0.726-1.631-0.956-2.559c-0.232-0.926-0.387-1.916-0.466-2.967
		c-0.079-1.053-0.118-2.131-0.118-3.234V1.128z"/>
	<path fill="#646464" d="M472.68,11.199c0-1.545-0.149-2.971-0.448-4.277c-0.299-1.308-0.785-2.437-1.456-3.387
		s-1.552-1.693-2.64-2.229c-1.09-0.534-2.424-0.802-4.003-0.802c-5.89,0-8.835,3.791-8.835,11.372v10.623
		c0,1.01,0.06,1.994,0.178,2.949c0.119,0.957,0.316,1.857,0.593,2.701s0.64,1.613,1.091,2.309s1.005,1.291,1.659,1.791
		c0.654,0.498,1.419,0.889,2.294,1.168c0.873,0.279,1.881,0.418,3.021,0.418c1.116,0,2.104-0.143,2.962-0.428
		s1.596-0.68,2.217-1.186c0.621-0.504,1.143-1.105,1.565-1.799c0.423-0.695,0.765-1.457,1.024-2.283
		c0.26-0.824,0.445-1.695,0.559-2.611c0.112-0.914,0.18-1.846,0.203-2.797l0.017-2.709h-6.025v3.297
		c0,0.654-0.028,1.307-0.085,1.961c-0.057,0.652-0.175,1.244-0.355,1.773c-0.18,0.529-0.434,0.957-0.762,1.283
		c-0.326,0.326-0.767,0.49-1.319,0.49c-1.783,0-2.675-1.574-2.675-4.725V10.254c0-3.161,0.892-4.741,2.675-4.741
		c0.553,0.035,0.995,0.211,1.329,0.525c0.229,0.218,0.405,0.497,0.557,0.805c0.879,0.124,1.6,0.781,1.911,1.668
		c0.583,1.659,0.245,3.429,0.75,5.083c0.038,0.127,0.056,0.247,0.073,0.367h3.927V11.199z"/>
	<path fill="#646464" d="M492.262,12.662c0.105,0.042,0.201,0.092,0.287,0.148v-1.611c0-1.545-0.148-2.971-0.447-4.277
		c-0.299-1.308-0.785-2.437-1.455-3.387c-0.672-0.95-1.553-1.693-2.641-2.229c-1.09-0.534-2.424-0.802-4.004-0.802
		c-5.889,0-8.834,3.791-8.834,11.372v10.623c0,1.01,0.06,1.994,0.178,2.949c0.119,0.957,0.316,1.857,0.593,2.701
		s0.64,1.613,1.091,2.309s1.005,1.291,1.659,1.791c0.654,0.498,1.419,0.889,2.294,1.168c0.873,0.279,1.881,0.418,3.02,0.418
		c1.117,0,2.105-0.143,2.963-0.428s1.596-0.68,2.217-1.186c0.621-0.504,1.143-1.105,1.566-1.799
		c0.422-0.695,0.764-1.457,1.023-2.283c0.26-0.824,0.445-1.695,0.559-2.611c0.111-0.914,0.18-1.846,0.203-2.797l0.016-2.709h-6.023
		v3.297c0,0.654-0.029,1.307-0.086,1.961c-0.057,0.652-0.174,1.244-0.355,1.773c-0.18,0.529-0.434,0.957-0.762,1.283
		c-0.326,0.326-0.768,0.49-1.32,0.49c-1.781,0-2.674-1.574-2.674-4.725V10.254c0-3.161,0.893-4.741,2.674-4.741
		c0.553,0.035,0.996,0.211,1.33,0.525c0.332,0.315,0.584,0.726,0.752,1.23c0.016,0.048,0.025,0.104,0.041,0.153
		c0.883-0.019,1.814,0.466,2.178,1.282c0.02,0.004,0.039,0.007,0.057,0.011c0.23,0.016,0.459,0.023,0.689,0.024
		c1.91,0.011,2.748,2.059,1.945,3.465C491.428,12.344,491.854,12.5,492.262,12.662z"/>
	<path fill="#646464" d="M495.426,1.128h12.711v4.456h-6.549v8.733h4.637v4.564h-4.637v9.873h6.549v4.457h-12.711V1.128z"/>
	<path fill="#646464" d="M525.645,22.919c-0.264-1.004-0.641-1.947-1.125-2.826s-1.062-1.711-1.734-2.496
		c-0.672-0.784-1.414-1.549-2.227-2.298l-1.537-1.388c-0.357-0.099-0.688-0.279-0.932-0.581c-0.191-0.236-0.342-0.491-0.494-0.746
		c-0.137-0.141-0.273-0.281-0.396-0.422c-0.32-0.368-0.594-0.755-0.82-1.159c-0.225-0.403-0.395-0.828-0.508-1.274
		c-0.113-0.445-0.168-0.936-0.168-1.47c0-0.368,0.041-0.723,0.127-1.061c0.084-0.339,0.211-0.639,0.379-0.9
		c0.17-0.262,0.381-0.47,0.635-0.624s0.551-0.231,0.889-0.231c0.396,0,0.721,0.119,0.975,0.356c0.25,0.233,0.443,0.529,0.584,0.885
		c1.098,0.129,2.143,1.106,2.057,2.271c-0.018,0.213-0.029,0.427-0.018,0.641c0.002,0.066,0.008,0.132,0.014,0.198
		c0.002,0.009,0.002,0.011,0.004,0.02c0.018,0.077,0.082,0.244,0.121,0.351l4.523-0.658l0.018-0.767
		c0-1.128-0.203-2.194-0.609-3.199c-0.406-1.004-0.963-1.88-1.668-2.629s-1.529-1.343-2.471-1.782s-1.949-0.659-3.021-0.659
		c-1.285,0-2.457,0.195-3.512,0.588c-1.055,0.392-1.957,0.953-2.707,1.685c-0.75,0.73-1.334,1.619-1.752,2.664
		c-0.418,1.046-0.627,2.217-0.627,3.512c0,1.247,0.156,2.335,0.467,3.262c0.309,0.927,0.701,1.744,1.176,2.451
		s0.998,1.33,1.574,1.871c0.574,0.541,1.133,1.048,1.676,1.525l1.912,1.711c2.402,2.232,3.605,4.467,3.605,6.701
		c0,1.639-0.609,2.459-1.828,2.459c-0.531-0.035-0.951-0.23-1.262-0.588c-0.311-0.355-0.547-0.82-0.711-1.391
		s-0.268-1.215-0.312-1.934s-0.068-1.459-0.068-2.219l-6.244,1.266c0.057,1.307,0.264,2.551,0.625,3.734
		c0.361,1.182,0.895,2.229,1.6,3.137s1.582,1.631,2.633,2.166c1.049,0.535,2.289,0.801,3.723,0.801c1.084,0,2.102-0.189,3.055-0.57
		c0.953-0.379,1.783-0.908,2.488-1.586s1.264-1.484,1.676-2.424c0.412-0.938,0.617-1.967,0.617-3.084
		C526.043,25.019,525.91,23.923,525.645,22.919z"/>
	<path fill="#646464" d="M543.805,22.919c-0.264-1.004-0.641-1.947-1.125-2.826s-1.062-1.711-1.734-2.496
		c-0.672-0.784-1.414-1.549-2.227-2.298l-2.25-2.032c-0.418-0.368-0.787-0.736-1.109-1.104c-0.32-0.368-0.594-0.755-0.82-1.159
		c-0.225-0.403-0.395-0.828-0.508-1.274c-0.113-0.445-0.168-0.936-0.168-1.47c0-0.368,0.041-0.723,0.127-1.061
		c0.084-0.339,0.211-0.639,0.379-0.9c0.17-0.262,0.381-0.47,0.635-0.624s0.551-0.231,0.889-0.231c0.396,0,0.721,0.119,0.975,0.356
		s0.451,0.538,0.592,0.9c0.029,0.078,0.051,0.165,0.078,0.247c1.08-0.149,2.354,0.509,2.561,1.648
		c0.02,0.11,0.053,0.218,0.084,0.325c0.002,0.003,0.002,0.003,0.004,0.006c0.074,0.125,0.49,0.689,0.072,0.154
		c0.236,0.302,0.422,0.592,0.539,0.914l3.355-0.488l0.018-0.767c0-1.128-0.203-2.194-0.609-3.199
		c-0.406-1.004-0.963-1.88-1.668-2.629s-1.529-1.343-2.471-1.782s-1.949-0.659-3.021-0.659c-1.285,0-2.457,0.195-3.512,0.588
		c-1.055,0.392-1.957,0.953-2.707,1.685c-0.75,0.73-1.334,1.619-1.752,2.664c-0.418,1.046-0.627,2.217-0.627,3.512
		c0,1.247,0.156,2.335,0.467,3.262c0.309,0.927,0.701,1.744,1.176,2.451s0.998,1.33,1.574,1.871
		c0.574,0.541,1.133,1.048,1.676,1.525l1.912,1.711c2.402,2.232,3.605,4.467,3.605,6.701c0,1.639-0.609,2.459-1.828,2.459
		c-0.531-0.035-0.951-0.23-1.262-0.588c-0.311-0.355-0.547-0.82-0.711-1.391s-0.268-1.215-0.312-1.934s-0.068-1.459-0.068-2.219
		l-6.244,1.266c0.057,1.307,0.264,2.551,0.625,3.734c0.361,1.182,0.895,2.229,1.6,3.137s1.582,1.631,2.633,2.166
		c1.049,0.535,2.289,0.801,3.723,0.801c1.084,0,2.102-0.189,3.055-0.57c0.953-0.379,1.783-0.908,2.488-1.586
		s1.264-1.484,1.676-2.424c0.412-0.938,0.617-1.967,0.617-3.084C544.203,25.019,544.07,23.923,543.805,22.919z"/>
	<path fill="#828282" d="M421.803,23.425c0,0.762,0.022,1.502,0.067,2.221s0.149,1.363,0.313,1.934c0.163,0.57,0.4,1.033,0.71,1.391
		c0.311,0.355,0.73,0.553,1.262,0.588c1.219,0,1.828-0.82,1.828-2.461c0-2.232-1.202-4.467-3.605-6.701l-1.912-1.711
		c-0.542-0.475-1.101-0.982-1.676-1.524c-0.575-0.541-1.1-1.164-1.574-1.871c-0.474-0.707-0.865-1.524-1.176-2.451
		s-0.466-2.015-0.466-3.262c0-1.295,0.209-2.466,0.626-3.512c0.418-1.045,1.002-1.934,1.752-2.664
		c0.75-0.731,1.652-1.293,2.708-1.685c1.055-0.393,2.226-0.588,3.512-0.588c1.071,0,2.079,0.22,3.021,0.659
		c0.942,0.439,1.766,1.033,2.472,1.782c0.705,0.749,1.261,1.625,1.667,2.629c0.406,1.005,0.609,2.071,0.609,3.199l-0.018,0.767
		l-6.363,0.927c0-0.071,0.003-0.16,0.009-0.268c0.005-0.106,0.011-0.223,0.017-0.347c0.006-0.125,0.012-0.247,0.018-0.366
		c0.006-0.118,0.008-0.226,0.008-0.32c0-0.393-0.027-0.805-0.084-1.239c-0.057-0.434-0.156-0.831-0.297-1.193
		s-0.338-0.663-0.592-0.9s-0.578-0.356-0.974-0.356c-0.339,0-0.634,0.077-0.888,0.231s-0.466,0.362-0.635,0.624
		c-0.17,0.262-0.297,0.562-0.381,0.9c-0.085,0.338-0.127,0.692-0.127,1.061c0,0.534,0.056,1.024,0.169,1.47
		c0.112,0.446,0.282,0.871,0.508,1.274c0.226,0.404,0.499,0.791,0.821,1.159c0.32,0.368,0.69,0.736,1.107,1.104l2.252,2.032
		c0.812,0.749,1.554,1.515,2.225,2.299c0.672,0.785,1.25,1.615,1.735,2.496c0.485,0.879,0.86,1.82,1.126,2.824
		c0.264,1.004,0.396,2.1,0.396,3.289c0,1.117-0.205,2.145-0.617,3.084c-0.412,0.938-0.971,1.746-1.676,2.424
		c-0.705,0.676-1.534,1.205-2.488,1.586c-0.953,0.381-1.971,0.57-3.055,0.57c-1.433,0-2.674-0.268-3.723-0.803
		c-1.05-0.535-1.927-1.256-2.632-2.166c-0.706-0.908-1.239-1.953-1.6-3.137c-0.361-1.182-0.569-2.426-0.626-3.734L421.803,23.425z"
		/>
	<path fill="#828282" d="M434.429,1.788h6.16v21.799c0,0.832,0.018,1.607,0.051,2.326s0.135,1.342,0.305,1.871
		s0.434,0.943,0.795,1.248c0.361,0.303,0.875,0.453,1.541,0.453c0.722,0,1.289-0.178,1.701-0.533
		c0.411-0.357,0.695-0.986,0.854-1.891c0.136-0.82,0.203-2.59,0.203-5.311V1.788h6.161v20.159c0,1.033-0.034,2.062-0.102,3.084
		s-0.209,1.996-0.423,2.922c-0.215,0.928-0.52,1.793-0.914,2.594c-0.396,0.803-0.922,1.494-1.582,2.076
		c-0.66,0.584-1.471,1.041-2.43,1.373s-2.104,0.5-3.436,0.5c-1.286,0-2.4-0.158-3.342-0.473c-0.943-0.314-1.744-0.752-2.404-1.311
		s-1.192-1.227-1.599-2.006c-0.406-0.777-0.726-1.631-0.956-2.557c-0.232-0.928-0.387-1.916-0.466-2.969
		c-0.079-1.051-0.118-2.129-0.118-3.234V1.788z"/>
	<path fill="#828282" d="M455.296,12.536c0-7.581,2.945-11.372,8.835-11.372c1.579,0,2.913,0.268,4.003,0.802
		c1.088,0.535,1.969,1.278,2.64,2.229s1.157,2.079,1.456,3.387c0.299,1.307,0.448,2.732,0.448,4.277v2.763h-6.06v-2.959
		c0-0.688-0.025-1.357-0.076-2.005s-0.16-1.224-0.33-1.729c-0.169-0.505-0.42-0.915-0.752-1.23c-0.334-0.314-0.776-0.49-1.329-0.525
		c-1.783,0-2.675,1.58-2.675,4.741v13.849c0,3.148,0.892,4.723,2.675,4.723c0.553,0,0.993-0.162,1.319-0.49
		c0.328-0.326,0.582-0.754,0.762-1.283c0.181-0.527,0.299-1.119,0.355-1.773c0.057-0.652,0.085-1.307,0.085-1.961v-3.297h6.025
		l-0.017,2.709c-0.023,0.951-0.091,1.885-0.203,2.799c-0.113,0.916-0.299,1.785-0.559,2.611s-0.602,1.586-1.024,2.281
		s-0.944,1.295-1.565,1.801c-0.621,0.504-1.359,0.9-2.217,1.186s-1.846,0.428-2.962,0.428c-1.14,0-2.147-0.141-3.021-0.42
		c-0.875-0.279-1.64-0.668-2.294-1.168c-0.654-0.498-1.208-1.096-1.659-1.791s-0.814-1.463-1.091-2.307s-0.474-1.744-0.593-2.701
		c-0.118-0.957-0.178-1.939-0.178-2.949V12.536z"/>
	<path fill="#828282" d="M475.166,12.536c0-7.581,2.945-11.372,8.834-11.372c1.58,0,2.914,0.268,4.004,0.802
		c1.088,0.535,1.969,1.278,2.641,2.229c0.67,0.95,1.156,2.079,1.455,3.387c0.299,1.307,0.447,2.732,0.447,4.277v2.763h-6.059v-2.959
		c0-0.688-0.025-1.357-0.076-2.005s-0.16-1.224-0.33-1.729c-0.168-0.505-0.42-0.915-0.752-1.23c-0.334-0.314-0.777-0.49-1.33-0.525
		c-1.781,0-2.674,1.58-2.674,4.741v13.849c0,3.148,0.893,4.723,2.674,4.723c0.553,0,0.994-0.162,1.32-0.49
		c0.328-0.326,0.582-0.754,0.762-1.283c0.182-0.527,0.299-1.119,0.355-1.773c0.057-0.652,0.086-1.307,0.086-1.961v-3.297h6.023
		l-0.016,2.709c-0.023,0.951-0.092,1.885-0.203,2.799c-0.113,0.916-0.299,1.785-0.559,2.611s-0.602,1.586-1.023,2.281
		c-0.424,0.695-0.945,1.295-1.566,1.801c-0.621,0.504-1.359,0.9-2.217,1.186s-1.846,0.428-2.963,0.428
		c-1.139,0-2.146-0.141-3.02-0.42c-0.875-0.279-1.64-0.668-2.294-1.168c-0.654-0.498-1.208-1.096-1.659-1.791
		s-0.814-1.463-1.091-2.307s-0.474-1.744-0.593-2.701c-0.118-0.957-0.178-1.939-0.178-2.949V12.536z"/>
	<path fill="#828282" d="M495.424,1.788h12.711v4.456h-6.549v8.733h4.637v4.563h-4.637v9.875h6.549v4.455h-12.711V1.788z"/>
	<path fill="#828282" d="M515.869,23.425c0,0.762,0.023,1.502,0.068,2.221s0.148,1.363,0.312,1.934s0.4,1.033,0.711,1.391
		c0.311,0.355,0.73,0.553,1.262,0.588c1.219,0,1.828-0.82,1.828-2.461c0-2.232-1.203-4.467-3.605-6.701l-1.912-1.711
		c-0.543-0.475-1.102-0.982-1.676-1.524c-0.576-0.541-1.1-1.164-1.574-1.871s-0.867-1.524-1.176-2.451
		c-0.311-0.927-0.467-2.015-0.467-3.262c0-1.295,0.209-2.466,0.627-3.512c0.418-1.045,1.002-1.934,1.752-2.664
		c0.75-0.731,1.652-1.293,2.707-1.685c1.055-0.393,2.227-0.588,3.512-0.588c1.072,0,2.08,0.22,3.021,0.659s1.766,1.033,2.471,1.782
		s1.262,1.625,1.668,2.629c0.406,1.005,0.609,2.071,0.609,3.199l-0.018,0.767l-6.363,0.927c0-0.071,0.002-0.16,0.008-0.268
		c0.006-0.106,0.012-0.223,0.018-0.347c0.006-0.125,0.012-0.247,0.018-0.366c0.004-0.118,0.008-0.226,0.008-0.32
		c0-0.393-0.029-0.805-0.084-1.239c-0.057-0.434-0.156-0.831-0.297-1.193s-0.338-0.663-0.592-0.9s-0.578-0.356-0.975-0.356
		c-0.338,0-0.635,0.077-0.889,0.231s-0.465,0.362-0.635,0.624c-0.168,0.262-0.295,0.562-0.379,0.9
		c-0.086,0.338-0.127,0.692-0.127,1.061c0,0.534,0.055,1.024,0.168,1.47c0.113,0.446,0.283,0.871,0.508,1.274
		c0.227,0.404,0.5,0.791,0.82,1.159c0.322,0.368,0.691,0.736,1.109,1.104l2.25,2.032c0.812,0.749,1.555,1.515,2.227,2.299
		c0.672,0.785,1.25,1.615,1.734,2.496c0.484,0.879,0.861,1.82,1.125,2.824c0.266,1.004,0.398,2.1,0.398,3.289
		c0,1.117-0.205,2.145-0.617,3.084c-0.412,0.938-0.971,1.746-1.676,2.424c-0.705,0.676-1.535,1.205-2.488,1.586
		s-1.971,0.57-3.055,0.57c-1.434,0-2.674-0.268-3.723-0.803c-1.051-0.535-1.928-1.256-2.633-2.166
		c-0.705-0.908-1.238-1.953-1.6-3.137c-0.361-1.182-0.568-2.426-0.625-3.734L515.869,23.425z"/>
	<path fill="#828282" d="M534.029,23.425c0,0.762,0.023,1.502,0.068,2.221s0.148,1.363,0.312,1.934s0.4,1.033,0.711,1.391
		c0.311,0.355,0.73,0.553,1.262,0.588c1.219,0,1.828-0.82,1.828-2.461c0-2.232-1.203-4.467-3.605-6.701l-1.912-1.711
		c-0.543-0.475-1.102-0.982-1.676-1.524c-0.576-0.541-1.1-1.164-1.574-1.871s-0.867-1.524-1.176-2.451
		c-0.311-0.927-0.467-2.015-0.467-3.262c0-1.295,0.209-2.466,0.627-3.512c0.418-1.045,1.002-1.934,1.752-2.664
		c0.75-0.731,1.652-1.293,2.707-1.685c1.055-0.393,2.227-0.588,3.512-0.588c1.072,0,2.08,0.22,3.021,0.659s1.766,1.033,2.471,1.782
		s1.262,1.625,1.668,2.629c0.406,1.005,0.609,2.071,0.609,3.199l-0.018,0.767l-6.363,0.927c0-0.071,0.002-0.16,0.008-0.268
		c0.006-0.106,0.012-0.223,0.018-0.347c0.006-0.125,0.012-0.247,0.018-0.366c0.004-0.118,0.008-0.226,0.008-0.32
		c0-0.393-0.029-0.805-0.084-1.239c-0.057-0.434-0.156-0.831-0.297-1.193s-0.338-0.663-0.592-0.9s-0.578-0.356-0.975-0.356
		c-0.338,0-0.635,0.077-0.889,0.231s-0.465,0.362-0.635,0.624c-0.168,0.262-0.295,0.562-0.379,0.9
		c-0.086,0.338-0.127,0.692-0.127,1.061c0,0.534,0.055,1.024,0.168,1.47c0.113,0.446,0.283,0.871,0.508,1.274
		c0.227,0.404,0.5,0.791,0.82,1.159c0.322,0.368,0.691,0.736,1.109,1.104l2.25,2.032c0.812,0.749,1.555,1.515,2.227,2.299
		c0.672,0.785,1.25,1.615,1.734,2.496c0.484,0.879,0.861,1.82,1.125,2.824c0.266,1.004,0.398,2.1,0.398,3.289
		c0,1.117-0.205,2.145-0.617,3.084c-0.412,0.938-0.971,1.746-1.676,2.424c-0.705,0.676-1.535,1.205-2.488,1.586
		s-1.971,0.57-3.055,0.57c-1.434,0-2.674-0.268-3.723-0.803c-1.051-0.535-1.928-1.256-2.633-2.166
		c-0.705-0.908-1.238-1.953-1.6-3.137c-0.361-1.182-0.568-2.426-0.625-3.734L534.029,23.425z"/>
</g>
<g>
	<line fill="none" stroke="#D7D7D7" stroke-miterlimit="10" x1="555.041" y1="17.592" x2="960" y2="17.592"/>
	<line fill="none" stroke="#B8B8B8" stroke-miterlimit="10" x1="555.041" y1="16.592" x2="960" y2="16.592"/>
</g>
<g>
	<line fill="none" stroke="#D7D7D7" stroke-miterlimit="10" x1="0.167" y1="17.592" x2="405.874" y2="17.592"/>
	<line fill="none" stroke="#B8B8B8" stroke-miterlimit="10" x1="0.167" y1="16.592" x2="405.874" y2="16.592"/>
</g>
</svg>
