<?xml version="1.0" encoding="utf-8"?>
<!-- Generator: Adobe Illustrator 15.0.2, SVG Export Plug-In . SVG Version: 6.00 Build 0)  -->
<!DOCTYPE svg PUBLIC "-//W3C//DTD SVG 1.1//EN" "http://www.w3.org/Graphics/SVG/1.1/DTD/svg11.dtd">
<svg version="1.1" id="Layer_1" xmlns="http://www.w3.org/2000/svg" xmlns:xlink="http://www.w3.org/1999/xlink" x="0px" y="0px"
	 width="270px" height="60px" viewBox="0 0 270 60" enable-background="new 0 0 270 60" xml:space="preserve">
<g>
	<path fill="#A82C4E" d="M0,58c0,1.104,0.896,2,2,2h266c1.104,0,2-0.896,2-2V2c0-1.104-0.896-2-2-2H2C0.896,0,0,0.896,0,2V58z"/>
</g>
<g>
	<path fill="#FFFFFF" stroke="#FFFFFF" stroke-linecap="round" stroke-linejoin="round" stroke-miterlimit="10" d="M74.795,37.877
		c-1.082,0-2.08-0.188-2.996-0.562c-0.917-0.375-1.707-0.909-2.371-1.602c-0.663-0.692-1.179-1.522-1.547-2.489
		c-0.367-0.966-0.552-2.041-0.552-3.224s0.188-2.258,0.563-3.225c0.375-0.966,0.891-1.796,1.547-2.489
		c0.656-0.691,1.442-1.226,2.359-1.602c0.916-0.375,1.914-0.562,2.996-0.562c1.645,0,3.08,0.297,4.307,0.888l-0.303,2.64
		c-1.428-0.591-2.763-0.887-4.004-0.887c-0.721,0-1.355,0.127-1.904,0.381c-0.549,0.253-1.01,0.607-1.385,1.064
		s-0.66,1.007-0.854,1.651c-0.194,0.646-0.292,1.358-0.292,2.141s0.098,1.495,0.292,2.14c0.194,0.646,0.479,1.195,0.854,1.652
		s0.836,0.812,1.385,1.064c0.549,0.254,1.184,0.381,1.904,0.381c1.241,0,2.576-0.296,4.004-0.888l0.303,2.64
		C77.875,37.581,76.439,37.877,74.795,37.877z"/>
	<path fill="#FFFFFF" stroke="#FFFFFF" stroke-linecap="round" stroke-linejoin="round" stroke-miterlimit="10" d="M94.229,35.713
		c-1.386,1.442-3.175,2.164-5.367,2.164c-1.082,0-2.081-0.188-2.997-0.562s-1.707-0.909-2.37-1.602s-1.179-1.522-1.548-2.489
		c-0.367-0.966-0.551-2.041-0.551-3.224s0.188-2.258,0.562-3.225c0.375-0.966,0.891-1.796,1.547-2.489
		c0.656-0.691,1.443-1.226,2.359-1.602c0.916-0.375,1.915-0.562,2.997-0.562s2.081,0.191,2.997,0.574s1.706,0.92,2.37,1.611
		c0.663,0.693,1.179,1.523,1.548,2.489c0.367,0.967,0.551,2.034,0.551,3.203C96.328,32.366,95.629,34.271,94.229,35.713z
		 M92.152,26.197c-0.766-0.956-1.861-1.435-3.29-1.435c-0.722,0-1.356,0.127-1.904,0.381c-0.549,0.253-1.011,0.607-1.386,1.064
		s-0.66,1.007-0.854,1.651c-0.195,0.646-0.293,1.358-0.293,2.141s0.098,1.495,0.293,2.14c0.193,0.646,0.479,1.195,0.854,1.652
		s0.837,0.812,1.386,1.064c0.548,0.254,1.183,0.381,1.904,0.381s1.356-0.127,1.904-0.381c0.548-0.253,1.01-0.607,1.386-1.064
		c0.375-0.457,0.66-1.007,0.854-1.652c0.195-0.645,0.293-1.357,0.293-2.14C93.299,28.435,92.916,27.167,92.152,26.197z"/>
	<path fill="#FFFFFF" stroke="#FFFFFF" stroke-linecap="round" stroke-linejoin="round" stroke-miterlimit="10" d="M111.802,37.574
		h-2.272l-6.925-10.388v10.388h-2.771V22.425h2.727l6.471,9.782v-9.782h2.771V37.574z"/>
	<path fill="#FFFFFF" stroke="#FFFFFF" stroke-linecap="round" stroke-linejoin="round" stroke-miterlimit="10" d="M126.215,25.108
		h-4.285v12.466h-2.771V25.108h-4.284v-2.684h11.34V25.108z"/>
	<path fill="#FFFFFF" stroke="#FFFFFF" stroke-linecap="round" stroke-linejoin="round" stroke-miterlimit="10" d="M139.935,37.574
		h-2.879l-1.298-3.657h-5.043l-1.298,3.657h-2.879l5.389-15.149h2.619L139.935,37.574z M134.806,31.233l-1.58-4.437l-1.558,4.437
		H134.806z"/>
	<path fill="#FFFFFF" stroke="#FFFFFF" stroke-linecap="round" stroke-linejoin="round" stroke-miterlimit="10" d="M149.067,37.877
		c-1.082,0-2.081-0.188-2.997-0.562c-0.917-0.375-1.706-0.909-2.37-1.602s-1.18-1.522-1.547-2.489
		c-0.368-0.966-0.552-2.041-0.552-3.224s0.187-2.258,0.562-3.225c0.375-0.966,0.891-1.796,1.547-2.489
		c0.656-0.691,1.442-1.226,2.359-1.602c0.916-0.375,1.915-0.562,2.997-0.562c1.645,0,3.08,0.297,4.307,0.888l-0.303,2.64
		c-1.429-0.591-2.764-0.887-4.004-0.887c-0.722,0-1.356,0.127-1.904,0.381c-0.549,0.253-1.01,0.607-1.385,1.064
		c-0.376,0.457-0.66,1.007-0.855,1.651c-0.194,0.646-0.292,1.358-0.292,2.141s0.098,1.495,0.292,2.14
		c0.195,0.646,0.479,1.195,0.855,1.652c0.375,0.457,0.836,0.812,1.385,1.064c0.548,0.254,1.183,0.381,1.904,0.381
		c1.24,0,2.575-0.296,4.004-0.888l0.303,2.64C152.147,37.581,150.712,37.877,149.067,37.877z"/>
	<path fill="#FFFFFF" stroke="#FFFFFF" stroke-linecap="round" stroke-linejoin="round" stroke-miterlimit="10" d="M166.771,25.108
		h-4.285v12.466h-2.771V25.108h-4.285v-2.684h11.341V25.108z"/>
	<path fill="#FFFFFF" stroke="#FFFFFF" stroke-linecap="round" stroke-linejoin="round" stroke-miterlimit="10" d="M175.62,31.082
		v-8.657h2.771v7.74c0,0.809,0.057,1.527,0.173,2.156c0.115,0.629,0.307,1.16,0.573,1.594s0.624,0.762,1.071,0.986
		c0.447,0.224,1.01,0.336,1.688,0.336c0.663,0,1.223-0.112,1.677-0.336c0.454-0.225,0.815-0.553,1.082-0.986
		s0.458-0.965,0.573-1.594s0.174-1.348,0.174-2.156v-7.74h2.77v8.657c0,2.12-0.526,3.784-1.58,4.988
		c-1.053,1.204-2.618,1.807-4.695,1.807c-2.078,0-3.644-0.603-4.696-1.807C176.146,34.866,175.62,33.202,175.62,31.082z"/>
	<path fill="#FFFFFF" stroke="#FFFFFF" stroke-linecap="round" stroke-linejoin="round" stroke-miterlimit="10" d="M196.807,37.877
		c-1.082,0-2.07-0.108-2.965-0.324c-0.895-0.217-1.58-0.476-2.056-0.779l0.324-3.159c0.462,0.453,1.107,0.837,1.937,1.151
		c0.83,0.314,1.771,0.472,2.824,0.472c1.804,0,2.705-0.551,2.705-1.652c0-0.318-0.075-0.605-0.227-0.859s-0.347-0.475-0.585-0.662
		c-0.237-0.189-0.497-0.348-0.778-0.479s-0.56-0.239-0.833-0.326l-2.035-0.718l-0.865-0.368c-0.909-0.375-1.572-0.822-1.991-1.342
		c-0.418-0.52-0.649-1.24-0.692-2.164c0-0.576,0.108-1.137,0.325-1.678c0.216-0.541,0.548-1.023,0.995-1.449s1.017-0.769,1.71-1.027
		c0.692-0.26,1.507-0.391,2.445-0.391c0.476,0,0.955,0.037,1.438,0.108c0.483,0.073,0.941,0.163,1.375,0.271
		c0.433,0.108,0.822,0.234,1.168,0.379c0.347,0.145,0.628,0.281,0.845,0.411l-0.282,2.835c-1.674-0.908-3.152-1.363-4.436-1.363
		c-0.376,0-0.729,0.029-1.061,0.086c-0.332,0.059-0.625,0.152-0.877,0.281c-0.253,0.131-0.454,0.297-0.605,0.498
		c-0.151,0.203-0.228,0.447-0.228,0.736c0,0.375,0.09,0.668,0.271,0.877s0.447,0.393,0.801,0.551
		c0.354,0.159,0.797,0.322,1.331,0.487c0.533,0.166,1.154,0.386,1.861,0.66l1.168,0.454c0.304,0.115,0.62,0.281,0.952,0.498
		s0.639,0.483,0.92,0.801s0.516,0.689,0.703,1.114c0.188,0.426,0.281,0.905,0.281,1.439c0,0.462-0.058,0.96-0.173,1.493
		s-0.375,1.035-0.779,1.504c-0.403,0.469-0.995,0.859-1.774,1.169S198.119,37.877,196.807,37.877z"/>
</g>
</svg>
