<?xml version="1.0" encoding="utf-8"?>
<!-- Generator: Adobe Illustrator 15.0.2, SVG Export Plug-In . SVG Version: 6.00 Build 0)  -->
<!DOCTYPE svg PUBLIC "-//W3C//DTD SVG 1.1//EN" "http://www.w3.org/Graphics/SVG/1.1/DTD/svg11.dtd">
<svg version="1.1" id="Layer_1" xmlns="http://www.w3.org/2000/svg" xmlns:xlink="http://www.w3.org/1999/xlink" x="0px" y="0px"
	 width="181px" height="115px" viewBox="0 0 181 115" enable-background="new 0 0 181 115" xml:space="preserve">
<path fill="none" stroke="#BF2C54" stroke-linecap="round" stroke-linejoin="round" stroke-miterlimit="10" d="M120.763,9.812
	c-0.199-5.591-0.908-8.594-2.406-8.594c-5.671,0-17.722,15.82-104.293,14.116H4.107c68.743,5.381,116.605-5.127,116.605-5.127
	L120.763,9.812z"/>
<path fill="none" stroke="#BF2C54" stroke-linecap="round" stroke-linejoin="round" stroke-miterlimit="10" d="M152.677,13.637
	c-0.089-7.461-0.778-12.418-2.457-12.418c-6.304,0-31.483,20.778-144.748,14.296c-0.485-0.027-0.92-0.048-1.366-0.18
	C105.63,25.161,151.842,13.901,152.677,13.637z"/>
<path fill="none" stroke="#BF2C54" stroke-linecap="round" stroke-linejoin="round" stroke-miterlimit="10" d="M42.693,38.064
	c-7.737-0.189-10.441,7.16-10.177,9.608h19.858C52.595,46.022,51.072,38.333,42.693,38.064L42.693,38.064z"/>
<line fill="none" stroke="#BF2C54" stroke-linecap="round" stroke-linejoin="round" stroke-miterlimit="10" x1="157.885" y1="45.011" x2="157.983" y2="71.072"/>
<path fill="none" stroke="#BF2C54" stroke-linecap="round" stroke-linejoin="round" stroke-miterlimit="10" d="M157.983,71.072
	h-10.419l-0.04-22.237c-0.184-4.966-2.156-9.554-6.985-10c-4.832-0.445-10.379,1.095-10.436,12.139
	c0.005,2.968-0.007,20.097-0.007,20.097l-10.527-0.008l-0.003-38.001l10.509,0.021c0,0-0.007,3.299,0.019,3.338
	c3.479-3.766,9.68-4.598,13.012-4.594c5.689,0.229,13.712,1.37,14.78,13.184L157.983,71.072L157.983,71.072z"/>
<path fill="none" stroke="#BF2C54" stroke-linecap="round" stroke-linejoin="round" stroke-miterlimit="10" d="M110.691,58.649
	c-1.3,3.558-6.601,12.484-21.167,12.484c-14.564,0-20.103-8.45-21.62-13.016c-1.641-4.804-2.495-14.249,5.177-20.842
	c2.589-1.843,8.714,5.09,7.71,5.804c-4.059,3.843-4.245,11.165-1.78,14.667c1.391,2.13,3.794,5.483,10.572,5.548
	c6.778,0.063,10.211-5.228,10.761-7.099c1.849-5.793,0.443-9.623-2.323-12.917c-1.479-0.913,5.159-8.598,7.662-5.859
	C111.906,42.366,112.997,52.343,110.691,58.649L110.691,58.649z"/>
<path fill="none" stroke="#BF2C54" stroke-linecap="round" stroke-linejoin="round" stroke-miterlimit="10" d="M62.11,52.715
	c0,0-22.123-0.009-29.921,0c-0.054,2.167,0.628,11.87,9.847,12.213c5.537,0,8.282-2.626,9.908-6.887l9.34-0.01
	c-0.283,0.694-1.118,3.062-2.807,5.769c-2.711,4.19-5.898,7.196-17.125,7.329c-12.935-0.094-17.42-7.914-18.419-10.165
	c-1.959-3.969-2.297-8.293-1.608-13.043c0.66-4.561,4.854-16.056,20.863-15.675C46.543,32.562,62.291,32.701,62.11,52.715
	L62.11,52.715z"/>
<path fill="none" stroke="#BF2C54" stroke-linecap="round" stroke-linejoin="round" stroke-miterlimit="10" d="M85.038,33.032
	c0.467-3.297,9.94-2.222,9.604-0.976c0.014,1.34-3.115,5.135,0.014,15.464c-1.734,3.254-8.676,1.97-9.53,0.942
	C83.902,44.24,83.248,37.106,85.038,33.032L85.038,33.032z"/>
<path fill="none" stroke="#BF2C54" stroke-linecap="round" stroke-linejoin="round" stroke-miterlimit="10" d="M177.531,7.153
	c-6.791,0-34.991,20.516-172.438,8.732c-0.725-0.063-0.986-0.362-0.986-0.551c0,0-5.174,82.158-2.731,82.158
	c2.731,0,27.065-11.933,88.587-11.933c61.522,0,84.893,3.409,84.893,3.409S184.358,7.153,177.531,7.153L177.531,7.153z"/>
<g>
	<path fill="none" stroke="#BF2C54" stroke-width="0.8" stroke-miterlimit="10" d="M21.192,96.766h1.565v2.157
		c1.087-1.657,2.482-2.486,4.186-2.486c0.903,0,1.711,0.262,2.424,0.786c0.714,0.524,1.192,1.264,1.438,2.216
		c0.505-0.969,1.15-1.712,1.931-2.228c0.782-0.515,1.683-0.774,2.703-0.774c1.019,0,1.941,0.403,2.769,1.209
		c0.827,0.805,1.242,2.395,1.242,4.769v6.798H37.84v-6.798c0-1.141-0.068-1.98-0.207-2.519c-0.138-0.538-0.437-0.991-0.897-1.36
		c-0.458-0.365-1.069-0.549-1.828-0.549c-0.76,0-1.467,0.256-2.126,0.772c-0.659,0.513-1.111,1.171-1.357,1.969
		c-0.244,0.797-0.367,2.001-0.367,3.61v4.874h-1.542v-6.375c0-1.329-0.069-2.278-0.207-2.849c-0.138-0.568-0.445-1.046-0.919-1.429
		c-0.476-0.382-1.057-0.573-1.748-0.573c-0.692,0-1.338,0.206-1.943,0.62c-0.607,0.414-1.082,0.98-1.426,1.698
		c-0.345,0.72-0.516,1.93-0.516,3.632v5.275h-1.565V96.766L21.192,96.766L21.192,96.766z"/>
	<path fill="none" stroke="#BF2C54" stroke-width="0.8" stroke-miterlimit="10" d="M53.04,105.18l1.334,0.702
		c-1.319,2.501-3.268,3.752-5.84,3.752c-1.839,0-3.358-0.646-4.555-1.935c-1.194-1.288-1.792-2.84-1.792-4.651
		s0.601-3.368,1.806-4.667c1.201-1.294,2.69-1.944,4.459-1.944c1.771,0,3.257,0.603,4.461,1.806
		c1.203,1.205,1.829,2.842,1.875,4.921H43.795c0.046,1.5,0.511,2.707,1.392,3.621c0.883,0.915,1.951,1.373,3.207,1.373
		C50.465,108.157,52.013,107.163,53.04,105.18L53.04,105.18L53.04,105.18z M53.04,101.782c-0.214-1.189-0.75-2.117-1.61-2.789
		c-0.857-0.674-1.846-1.007-2.966-1.007c-2.299,0-3.802,1.264-4.506,3.796H53.04L53.04,101.782L53.04,101.782z"/>
	<path fill="none" stroke="#BF2C54" stroke-width="0.8" stroke-miterlimit="10" d="M69.897,91.963v17.249h-1.542v-2.133
		c-1.395,1.701-2.992,2.555-4.794,2.555c-1.8,0-3.316-0.649-4.541-1.946c-1.228-1.297-1.841-2.851-1.841-4.663
		c0-1.811,0.622-3.364,1.864-4.653c1.24-1.289,2.727-1.935,4.46-1.935c1.992,0,3.61,0.867,4.852,2.603v-7.076H69.897L69.897,91.963
		L69.897,91.963z M68.445,103.071c0-1.421-0.459-2.626-1.378-3.61c-0.92-0.982-2.07-1.475-3.45-1.475
		c-1.38,0-2.534,0.502-3.461,1.512c-0.928,1.008-1.391,2.194-1.391,3.562c0,1.366,0.475,2.556,1.426,3.571
		c0.95,1.018,2.072,1.525,3.369,1.525c1.294,0,2.433-0.482,3.415-1.44C67.957,105.755,68.445,104.538,68.445,103.071L68.445,103.071
		L68.445,103.071z"/>
	<path fill="none" stroke="#BF2C54" stroke-width="0.8" stroke-miterlimit="10" d="M72.724,93.298c0-0.359,0.127-0.671,0.379-0.937
		c0.252-0.267,0.56-0.398,0.921-0.398c0.357,0,0.666,0.128,0.918,0.387c0.254,0.258,0.379,0.57,0.379,0.936
		c0,0.368-0.125,0.679-0.379,0.938c-0.252,0.257-0.561,0.388-0.918,0.388c-0.361,0-0.669-0.134-0.921-0.4
		C72.851,93.943,72.724,93.644,72.724,93.298L72.724,93.298L72.724,93.298z M73.231,96.766h1.584v12.446h-1.584V96.766
		L73.231,96.766L73.231,96.766z"/>
	<path fill="none" stroke="#BF2C54" stroke-width="0.8" stroke-miterlimit="10" d="M90.222,96.766v12.446h-1.541v-2.133
		c-1.394,1.701-2.988,2.555-4.782,2.555s-3.307-0.65-4.541-1.959c-1.235-1.303-1.851-2.859-1.851-4.663
		c0-1.806,0.619-3.352,1.861-4.641c1.242-1.289,2.729-1.935,4.461-1.935c1.994,0,3.61,0.867,4.851,2.603v-2.273H90.222
		L90.222,96.766L90.222,96.766z M88.775,103.048c0-1.423-0.467-2.622-1.405-3.6c-0.934-0.975-2.08-1.462-3.435-1.462
		c-1.357,0-2.503,0.502-3.438,1.512c-0.936,1.008-1.403,2.199-1.403,3.573c0,1.375,0.476,2.567,1.424,3.573
		c0.951,1.006,2.089,1.513,3.417,1.513c1.324,0,2.463-0.487,3.414-1.454C88.3,105.735,88.775,104.516,88.775,103.048L88.775,103.048
		L88.775,103.048z"/>
	<path fill="none" stroke="#BF2C54" stroke-width="0.8" stroke-miterlimit="10" d="M104.458,96.766h1.588v9.608
		c0,1.702-0.148,2.954-0.438,3.751c-0.292,0.795-0.712,1.463-1.266,1.992c-0.551,0.531-1.217,0.937-2,1.219
		c-0.781,0.283-1.639,0.42-2.574,0.42c-3.191,0-5.29-1.297-6.3-3.888h1.698c0.89,1.624,2.399,2.436,4.532,2.436
		c1.026,0,1.919-0.201,2.678-0.609c0.758-0.406,1.296-0.926,1.609-1.558c0.316-0.632,0.473-1.621,0.473-2.965v-0.54
		c-0.629,0.799-1.372,1.39-2.231,1.782c-0.858,0.39-1.763,0.587-2.714,0.587c-1.778,0-3.256-0.618-4.435-1.853
		c-1.183-1.233-1.774-2.688-1.774-4.361c0-1.733,0.629-3.225,1.887-4.476c1.257-1.25,2.778-1.875,4.565-1.875
		c1.783,0,3.354,0.829,4.702,2.486V96.766L104.458,96.766L104.458,96.766z M104.527,102.787c0-1.356-0.454-2.499-1.357-3.42
		c-0.905-0.921-2.023-1.381-3.358-1.381c-1.411,0-2.582,0.495-3.518,1.488c-0.934,0.99-1.402,2.129-1.402,3.406
		c0,1.283,0.452,2.374,1.355,3.271c0.906,0.897,2.062,1.348,3.473,1.348s2.562-0.438,3.461-1.313
		C104.077,105.31,104.527,104.182,104.527,102.787L104.527,102.787L104.527,102.787z"/>
	<path fill="none" stroke="#BF2C54" stroke-width="0.8" stroke-miterlimit="10" d="M108.641,96.766h1.61v1.805
		c0.43-0.735,0.846-1.271,1.252-1.614c0.408-0.347,0.859-0.52,1.358-0.52s1,0.144,1.505,0.423l-0.826,1.361
		c-0.23-0.143-0.469-0.212-0.713-0.212c-0.476,0-0.924,0.247-1.344,0.75c-0.425,0.5-0.735,1.144-0.933,1.934
		c-0.2,0.788-0.3,2.222-0.3,4.3v4.22h-1.61V96.766L108.641,96.766L108.641,96.766z"/>
	<path fill="none" stroke="#BF2C54" stroke-width="0.8" stroke-miterlimit="10" d="M115.587,103.071c0-1.826,0.614-3.392,1.85-4.69
		c1.234-1.294,2.736-1.944,4.507-1.944c1.772,0,3.272,0.65,4.507,1.944c1.234,1.299,1.853,2.855,1.853,4.667
		s-0.611,3.363-1.829,4.651c-1.219,1.288-2.727,1.935-4.518,1.935c-1.794,0-3.305-0.646-4.53-1.935
		C116.197,106.411,115.587,104.865,115.587,103.071L115.587,103.071L115.587,103.071z M126.715,103.094
		c0-1.375-0.472-2.567-1.414-3.576c-0.942-1.006-2.063-1.509-3.357-1.509c-1.295,0-2.41,0.503-3.346,1.509
		c-0.935,1.009-1.402,2.21-1.402,3.602c0,1.39,0.451,2.57,1.357,3.537c0.903,0.969,2.025,1.454,3.368,1.454
		c1.34,0,2.476-0.49,3.402-1.466C126.252,105.668,126.715,104.485,126.715,103.094L126.715,103.094L126.715,103.094z"/>
	<path fill="none" stroke="#BF2C54" stroke-width="0.8" stroke-miterlimit="10" d="M141.708,109.212h-1.588v-2.228
		c-1.256,1.703-2.781,2.555-4.575,2.555c-0.919,0-1.746-0.252-2.485-0.763c-0.733-0.506-1.254-1.17-1.561-1.992
		c-0.307-0.819-0.46-2.026-0.46-3.621v-6.397h1.563v5.93c0,1.454,0.065,2.437,0.194,2.954c0.131,0.514,0.331,0.952,0.598,1.312
		c0.269,0.357,0.61,0.631,1.024,0.818c0.414,0.188,0.914,0.282,1.505,0.282s1.171-0.147,1.737-0.445
		c0.567-0.298,1.049-0.711,1.449-1.243c0.397-0.53,0.666-1.077,0.805-1.638c0.138-0.564,0.205-1.696,0.205-3.401v-4.569h1.588
		V109.212L141.708,109.212L141.708,109.212z"/>
	<path fill="none" stroke="#BF2C54" stroke-width="0.8" stroke-miterlimit="10" d="M145.227,96.766h1.562v2.273
		c1.241-1.735,2.86-2.603,4.852-2.603c1.716,0,3.198,0.646,4.438,1.935c1.244,1.289,1.864,2.843,1.864,4.653
		c0,1.812-0.612,3.366-1.84,4.663c-1.226,1.297-2.698,1.946-4.415,1.946c-1.87,0-3.504-0.854-4.898-2.555v6.677h-1.562V96.766
		L145.227,96.766L145.227,96.766z M156.38,103.048c0-1.391-0.472-2.583-1.417-3.573c-0.94-0.993-2.095-1.488-3.46-1.488
		c-1.364,0-2.511,0.487-3.438,1.462c-0.928,0.978-1.391,2.184-1.391,3.623c0,1.438,0.476,2.646,1.426,3.62
		c0.949,0.975,2.087,1.466,3.414,1.466c1.326,0,2.467-0.498,3.427-1.487C155.9,105.676,156.38,104.469,156.38,103.048
		L156.38,103.048L156.38,103.048z"/>
</g>
</svg>
