<?xml version="1.0" encoding="utf-8"?>
<!-- Generator: Adobe Illustrator 15.0.2, SVG Export Plug-In . SVG Version: 6.00 Build 0)  -->
<!DOCTYPE svg PUBLIC "-//W3C//DTD SVG 1.1//EN" "http://www.w3.org/Graphics/SVG/1.1/DTD/svg11.dtd">
<svg version="1.1" id="Layer_1" xmlns="http://www.w3.org/2000/svg" xmlns:xlink="http://www.w3.org/1999/xlink" x="0px" y="0px"
	 width="150px" height="46px" viewBox="0 0 150 46" enable-background="new 0 0 150 46" xml:space="preserve">
<rect x="0" y="2" fill="#E6E6E6" width="148" height="44"/>
<g>
	<path fill="#BEBEBE" d="M25.226,28.45c0,1.805-0.649,3.227-1.948,4.266s-3.106,1.559-5.421,1.559c-2.133,0-4.02-0.401-5.66-1.203
		v-3.938c1.349,0.602,2.49,1.025,3.425,1.271c0.934,0.246,1.789,0.369,2.563,0.369c0.93,0,1.643-0.178,2.14-0.533
		c0.497-0.355,0.745-0.884,0.745-1.586c0-0.392-0.109-0.74-0.328-1.046c-0.219-0.305-0.54-0.599-0.964-0.882
		c-0.424-0.282-1.288-0.733-2.591-1.354c-1.222-0.574-2.138-1.125-2.748-1.654c-0.611-0.528-1.099-1.144-1.463-1.846
		c-0.365-0.702-0.547-1.522-0.547-2.461c0-1.768,0.599-3.158,1.798-4.17c1.198-1.012,2.855-1.518,4.97-1.518
		c1.039,0,2.03,0.123,2.974,0.369s1.93,0.593,2.96,1.039l-1.367,3.295c-1.066-0.438-1.948-0.743-2.646-0.916
		c-0.697-0.173-1.383-0.26-2.058-0.26c-0.802,0-1.417,0.187-1.846,0.561c-0.429,0.374-0.643,0.861-0.643,1.463
		c0,0.374,0.086,0.7,0.26,0.978c0.173,0.278,0.449,0.547,0.827,0.807c0.378,0.26,1.273,0.727,2.687,1.401
		c1.868,0.894,3.149,1.789,3.842,2.687C24.879,26.046,25.226,27.147,25.226,28.45z"/>
	<path fill="#BEBEBE" d="M40.36,34.001H28.849V14.013H40.36v3.473h-7.273v4.389h6.768v3.473h-6.768v5.154h7.273V34.001z"/>
	<path fill="#BEBEBE" d="M48.769,26.331v7.67H44.53V14.013h5.824c2.716,0,4.726,0.495,6.029,1.483
		c1.304,0.989,1.955,2.491,1.955,4.505c0,1.176-0.323,2.222-0.971,3.138s-1.563,1.634-2.748,2.153
		c3.008,4.494,4.968,7.396,5.879,8.709h-4.703l-4.771-7.67H48.769z M48.769,22.886h1.367c1.34,0,2.329-0.223,2.967-0.67
		c0.638-0.446,0.957-1.148,0.957-2.105c0-0.948-0.326-1.622-0.978-2.023c-0.652-0.401-1.661-0.602-3.028-0.602h-1.285V22.886z"/>
	<path fill="#BEBEBE" d="M74.417,14.013h4.279l-6.795,19.988H67.28l-6.781-19.988h4.279l3.76,11.895
		c0.21,0.702,0.426,1.52,0.649,2.454c0.224,0.935,0.362,1.584,0.417,1.948c0.101-0.838,0.442-2.306,1.025-4.402L74.417,14.013z"/>
	<path fill="#BEBEBE" d="M81.212,34.001V14.013h4.238v19.988H81.212z"/>
	<path fill="#BEBEBE" d="M98.972,17.253c-1.595,0-2.83,0.6-3.705,1.798c-0.875,1.199-1.312,2.869-1.312,5.011
		c0,4.457,1.673,6.686,5.018,6.686c1.403,0,3.104-0.351,5.1-1.053v3.555c-1.641,0.684-3.473,1.025-5.496,1.025
		c-2.907,0-5.132-0.882-6.672-2.646s-2.311-4.295-2.311-7.595c0-2.078,0.378-3.898,1.135-5.462c0.757-1.563,1.844-2.762,3.261-3.596
		s3.078-1.251,4.983-1.251c1.941,0,3.892,0.47,5.852,1.408l-1.367,3.445c-0.747-0.355-1.499-0.665-2.256-0.93
		C100.443,17.385,99.701,17.253,98.972,17.253z"/>
	<path fill="#BEBEBE" d="M119.835,34.001h-11.512V14.013h11.512v3.473h-7.273v4.389h6.768v3.473h-6.768v5.154h7.273V34.001z"/>
	<path fill="#BEBEBE" d="M135.804,28.45c0,1.805-0.649,3.227-1.948,4.266s-3.105,1.559-5.421,1.559c-2.133,0-4.02-0.401-5.66-1.203
		v-3.938c1.349,0.602,2.49,1.025,3.425,1.271s1.789,0.369,2.563,0.369c0.93,0,1.643-0.178,2.14-0.533s0.745-0.884,0.745-1.586
		c0-0.392-0.109-0.74-0.328-1.046c-0.219-0.305-0.54-0.599-0.964-0.882c-0.424-0.282-1.287-0.733-2.591-1.354
		c-1.222-0.574-2.138-1.125-2.748-1.654c-0.61-0.528-1.099-1.144-1.463-1.846c-0.364-0.702-0.547-1.522-0.547-2.461
		c0-1.768,0.6-3.158,1.798-4.17s2.855-1.518,4.97-1.518c1.039,0,2.03,0.123,2.974,0.369s1.93,0.593,2.96,1.039l-1.367,3.295
		c-1.066-0.438-1.948-0.743-2.646-0.916c-0.697-0.173-1.383-0.26-2.058-0.26c-0.802,0-1.417,0.187-1.846,0.561
		c-0.429,0.374-0.643,0.861-0.643,1.463c0,0.374,0.087,0.7,0.26,0.978c0.173,0.278,0.449,0.547,0.827,0.807s1.273,0.727,2.687,1.401
		c1.868,0.894,3.149,1.789,3.842,2.687C135.457,26.046,135.804,27.147,135.804,28.45z"/>
</g>
</svg>
