<?xml version="1.0" encoding="utf-8"?>
<!-- Generator: Adobe Illustrator 15.0.2, SVG Export Plug-In . SVG Version: 6.00 Build 0)  -->
<!DOCTYPE svg PUBLIC "-//W3C//DTD SVG 1.1//EN" "http://www.w3.org/Graphics/SVG/1.1/DTD/svg11.dtd">
<svg version="1.1" id="Layer_1" xmlns="http://www.w3.org/2000/svg" xmlns:xlink="http://www.w3.org/1999/xlink" x="0px" y="0px"
	 width="181px" height="115px" viewBox="0 0 181 115" enable-background="new 0 0 181 115" xml:space="preserve">
<g>
	<path fill="#FFFFFF" d="M9.223,88.216c0,0,144.121-16.893,160.452-6.85c2.275,0.229,1.364-52.504,0-55.244
		c-1.366-2.739-24.353-6.265-36.642-4.615c-12.29,1.648-103.099,2.562-108.334,3.703c-5.234,1.142-10.697,11.554-11.151,12.283
		C13.092,38.222,9.223,88.216,9.223,88.216L9.223,88.216z"/>
	<path fill="#811E39" d="M92.413,21.236c0.263-0.014,0.526-0.021,0.791-0.022c8.146-0.018,16.286-0.509,24.382-1.407
		c1.099-0.122,2.197-0.244,3.294-0.362c0.257-10.892-0.288-18.794-2.409-18.794c-5.671,0-17.723,15.82-104.293,14.117
		c0,0-9.794-0.312-9.957,0c-0.028,0.507,0.066,1.843,0.216,3.565c2.968-0.192,6.116,0.154,8.756,1.427
		c0.028,0.015,0.054,0.031,0.082,0.045c0.416,0.084,0.831,0.171,1.249,0.248c5.752,0.514,11.523,0.274,17.295,0.41
		c6.642,0.156,13.258,0.823,19.905,0.958c13.297,0.273,26.592-0.197,39.889-0.208C91.88,21.214,92.148,21.223,92.413,21.236
		L92.413,21.236z"/>
	<path fill="#992544" d="M92.413,21.236c0.263-0.014,0.526-0.021,0.791-0.022c8.146-0.018,16.286-0.509,24.382-1.407
		c3.863-0.43,7.717-0.875,11.6-1.107c3.26-0.195,6.562-0.189,9.819-0.477c4.558-0.749,9.196-1.658,13.781-1.147
		c0.124-9.648-0.488-16.425-2.452-16.425c-6.304,0-31.483,20.778-144.748,14.296c-0.485-0.027-0.92-0.048-1.366-0.18
		c0.426,1.014,2.301,2.4,2.729,3.415c0.014,0.042,0.024,0.083,0.038,0.125c2.161,0.104,4.313,0.541,6.205,1.452
		c0.028,0.015,0.054,0.031,0.082,0.045c0.416,0.084,0.831,0.171,1.249,0.248c5.752,0.514,11.523,0.274,17.295,0.41
		c6.642,0.156,13.258,0.823,19.905,0.958c13.297,0.273,26.592-0.197,39.889-0.208C91.88,21.214,92.148,21.223,92.413,21.236
		L92.413,21.236z"/>
	<g>
		<defs>
			<rect id="SVGID_1_" x="0.833" y="0.65" width="179.278" height="113.699"/>
		</defs>
		<clipPath id="SVGID_2_">
			<use xlink:href="#SVGID_1_"  overflow="visible"/>
		</clipPath>
		<path clip-path="url(#SVGID_2_)" fill="#BF2C54" d="M42.806,37.497c-7.737-0.189-10.44,7.16-10.177,9.608h19.858
			C52.707,45.455,51.185,37.765,42.806,37.497L42.806,37.497z"/>
		<path clip-path="url(#SVGID_2_)" fill="#BF2C54" d="M157.999,44.443l0.098,26.062 M158.096,70.505h-10.419l-0.041-22.238
			c-0.183-4.964-2.155-9.553-6.985-9.999c-4.831-0.446-10.379,1.096-10.435,12.139c0.005,2.968-0.007,20.097-0.007,20.097
			l-10.527-0.008l-0.003-38.001l10.509,0.021c0,0-0.008,3.299,0.019,3.338c3.479-3.766,9.68-4.598,13.012-4.594
			c5.689,0.229,13.711,1.37,14.78,13.184L158.096,70.505L158.096,70.505z M110.804,58.083c-1.3,3.557-6.601,12.484-21.167,12.484
			c-14.564,0-20.104-8.451-21.62-13.018c-1.641-4.802-2.495-14.249,5.177-20.841c2.589-1.844,8.714,5.09,7.71,5.804
			c-4.059,3.842-4.244,11.165-1.78,14.667c1.39,2.131,3.793,5.485,10.573,5.549c6.778,0.062,10.211-5.229,10.761-7.1
			c1.849-5.792,0.443-9.622-2.323-12.916c-1.479-0.914,5.159-8.599,7.662-5.86C112.018,41.799,113.11,51.776,110.804,58.083
			L110.804,58.083z M62.223,52.147c0,0-22.122-0.009-29.921,0c-0.055,2.168,0.628,11.869,9.847,12.213
			c5.537,0,8.282-2.626,9.908-6.888l9.34-0.009c-0.284,0.694-1.118,3.062-2.807,5.768c-2.712,4.191-5.898,7.197-17.126,7.331
			c-12.935-0.096-17.419-7.914-18.418-10.166c-1.959-3.969-2.297-8.294-1.608-13.044c0.66-4.56,4.854-16.056,20.862-15.674
			C46.657,31.995,62.403,32.134,62.223,52.147L62.223,52.147z M85.151,32.464c0.466-3.297,9.94-2.222,9.604-0.976
			c0.014,1.34-3.115,5.136,0.014,15.465c-1.734,3.255-8.677,1.97-9.53,0.941C84.014,43.673,83.361,36.538,85.151,32.464
			L85.151,32.464z M177.643,6.586c-6.79,0-34.99,20.516-172.437,8.731c-0.725-0.063-0.986-0.361-0.986-0.55
			c0,0-5.174,82.159-2.731,82.159c2.731,0,27.064-11.933,88.587-11.933s84.893,3.408,84.893,3.408S184.47,6.586,177.643,6.586
			L177.643,6.586z"/>
	</g>
	<g>
		<defs>
			<rect id="SVGID_3_" x="0.833" y="0.65" width="179.278" height="113.699"/>
		</defs>
		<clipPath id="SVGID_4_">
			<use xlink:href="#SVGID_3_"  overflow="visible"/>
		</clipPath>
	</g>
	<g>
		<defs>
			<rect id="SVGID_5_" x="0.833" y="0.65" width="179.278" height="113.699"/>
		</defs>
		<clipPath id="SVGID_6_">
			<use xlink:href="#SVGID_5_"  overflow="visible"/>
		</clipPath>
	</g>
	<g>
		<defs>
			<rect id="SVGID_7_" x="0.833" y="0.65" width="179.278" height="113.699"/>
		</defs>
		<clipPath id="SVGID_8_">
			<use xlink:href="#SVGID_7_"  overflow="visible"/>
		</clipPath>
	</g>
	<g>
		<defs>
			<rect id="SVGID_9_" x="0.833" y="0.65" width="179.278" height="113.699"/>
		</defs>
		<clipPath id="SVGID_10_">
			<use xlink:href="#SVGID_9_"  overflow="visible"/>
		</clipPath>
	</g>
	<g>
		<defs>
			<rect id="SVGID_11_" x="0.833" y="0.65" width="179.278" height="113.699"/>
		</defs>
		<clipPath id="SVGID_12_">
			<use xlink:href="#SVGID_11_"  overflow="visible"/>
		</clipPath>
	</g>
	<g>
		<defs>
			<rect id="SVGID_13_" x="0.833" y="0.65" width="179.278" height="113.699"/>
		</defs>
		<clipPath id="SVGID_14_">
			<use xlink:href="#SVGID_13_"  overflow="visible"/>
		</clipPath>
	</g>
	<g>
		<defs>
			<rect id="SVGID_15_" x="0.833" y="0.65" width="179.278" height="113.699"/>
		</defs>
		<clipPath id="SVGID_16_">
			<use xlink:href="#SVGID_15_"  overflow="visible"/>
		</clipPath>
	</g>
	<g>
		<defs>
			<rect id="SVGID_17_" x="0.833" y="0.65" width="179.278" height="113.699"/>
		</defs>
		<clipPath id="SVGID_18_">
			<use xlink:href="#SVGID_17_"  overflow="visible"/>
		</clipPath>
	</g>
	<g>
		<defs>
			<rect id="SVGID_19_" x="0.833" y="0.65" width="179.278" height="113.699"/>
		</defs>
		<clipPath id="SVGID_20_">
			<use xlink:href="#SVGID_19_"  overflow="visible"/>
		</clipPath>
	</g>
	<g>
		<path fill="#505250" stroke="#505250" stroke-width="1.2" stroke-miterlimit="10" d="M21.192,96.967h1.565v2.119
			c1.087-1.627,2.482-2.443,4.186-2.443c0.903,0,1.711,0.258,2.424,0.773c0.714,0.516,1.192,1.242,1.438,2.177
			c0.505-0.952,1.15-1.682,1.931-2.189c0.782-0.505,1.683-0.761,2.703-0.761c1.019,0,1.941,0.397,2.769,1.188
			c0.827,0.79,1.242,2.353,1.242,4.687v6.681H37.84v-6.681c0-1.122-0.068-1.946-0.207-2.476c-0.138-0.529-0.437-0.975-0.897-1.336
			c-0.458-0.359-1.069-0.54-1.828-0.54c-0.76,0-1.467,0.252-2.126,0.76c-0.659,0.504-1.111,1.149-1.357,1.933
			c-0.244,0.783-0.367,1.967-0.367,3.55v4.79h-1.542v-6.266c0-1.307-0.069-2.238-0.207-2.8c-0.138-0.559-0.445-1.027-0.919-1.402
			c-0.476-0.376-1.057-0.564-1.748-0.564c-0.692,0-1.338,0.202-1.943,0.609c-0.607,0.407-1.082,0.964-1.426,1.67
			c-0.345,0.706-0.516,1.896-0.516,3.568v5.185h-1.565V96.967L21.192,96.967L21.192,96.967z"/>
		<path fill="#505250" stroke="#505250" stroke-width="1.2" stroke-miterlimit="10" d="M53.04,105.234l1.334,0.69
			c-1.319,2.458-3.268,3.687-5.84,3.687c-1.839,0-3.358-0.634-4.555-1.899c-1.194-1.267-1.792-2.791-1.792-4.572
			c0-1.78,0.601-3.31,1.806-4.586c1.201-1.271,2.69-1.911,4.459-1.911c1.771,0,3.257,0.592,4.461,1.775
			c1.203,1.184,1.829,2.793,1.875,4.836H43.795c0.046,1.474,0.511,2.659,1.392,3.559c0.883,0.899,1.951,1.349,3.207,1.349
			C50.465,108.161,52.013,107.186,53.04,105.234L53.04,105.234L53.04,105.234z M53.04,101.896c-0.214-1.168-0.75-2.081-1.61-2.741
			c-0.857-0.662-1.846-0.989-2.966-0.989c-2.299,0-3.802,1.242-4.506,3.73H53.04L53.04,101.896L53.04,101.896z"/>
		<path fill="#505250" stroke="#505250" stroke-width="1.2" stroke-miterlimit="10" d="M69.897,92.247v16.951h-1.542v-2.096
			c-1.395,1.671-2.992,2.509-4.794,2.509c-1.8,0-3.316-0.637-4.541-1.912c-1.228-1.273-1.841-2.801-1.841-4.582
			c0-1.779,0.622-3.307,1.864-4.573c1.24-1.267,2.727-1.901,4.46-1.901c1.992,0,3.61,0.852,4.852,2.559v-6.954H69.897L69.897,92.247
			L69.897,92.247z M68.445,103.163c0-1.396-0.459-2.581-1.378-3.548c-0.92-0.965-2.07-1.449-3.45-1.449
			c-1.38,0-2.534,0.494-3.461,1.485c-0.928,0.989-1.391,2.156-1.391,3.501c0,1.344,0.475,2.513,1.426,3.511
			c0.95,0.999,2.072,1.498,3.369,1.498c1.294,0,2.433-0.474,3.415-1.416C67.957,105.801,68.445,104.604,68.445,103.163
			L68.445,103.163L68.445,103.163z"/>
		<path fill="#505250" stroke="#505250" stroke-width="1.2" stroke-miterlimit="10" d="M72.724,93.559
			c0-0.353,0.127-0.659,0.379-0.921c0.252-0.261,0.56-0.391,0.921-0.391c0.357,0,0.666,0.126,0.918,0.38
			c0.254,0.253,0.379,0.56,0.379,0.919c0,0.362-0.125,0.668-0.379,0.922c-0.252,0.253-0.561,0.382-0.918,0.382
			c-0.361,0-0.669-0.132-0.921-0.394C72.851,94.192,72.724,93.899,72.724,93.559L72.724,93.559L72.724,93.559z M73.231,96.967h1.584
			v12.231h-1.584V96.967L73.231,96.967L73.231,96.967z"/>
		<path fill="#505250" stroke="#505250" stroke-width="1.2" stroke-miterlimit="10" d="M90.222,96.967v12.231h-1.541v-2.096
			c-1.394,1.671-2.988,2.509-4.782,2.509c-1.793,0-3.307-0.638-4.541-1.924c-1.234-1.28-1.851-2.811-1.851-4.583
			c0-1.775,0.619-3.294,1.862-4.561c1.242-1.267,2.728-1.901,4.46-1.901c1.994,0,3.611,0.852,4.852,2.559v-2.234H90.222
			L90.222,96.967L90.222,96.967z M88.775,103.14c0-1.396-0.467-2.577-1.405-3.537c-0.934-0.958-2.08-1.437-3.436-1.437
			c-1.356,0-2.503,0.494-3.438,1.485c-0.936,0.989-1.402,2.161-1.402,3.512c0,1.352,0.475,2.522,1.424,3.512
			c0.951,0.988,2.089,1.486,3.416,1.486c1.324,0,2.464-0.479,3.414-1.428C88.3,105.781,88.775,104.582,88.775,103.14L88.775,103.14
			L88.775,103.14z"/>
		<path fill="#505250" stroke="#505250" stroke-width="1.2" stroke-miterlimit="10" d="M104.458,96.967h1.588v9.442
			c0,1.673-0.148,2.902-0.438,3.687c-0.292,0.781-0.712,1.437-1.266,1.957c-0.551,0.521-1.217,0.92-2,1.197
			c-0.781,0.278-1.639,0.414-2.574,0.414c-3.191,0-5.29-1.274-6.3-3.822h1.698c0.89,1.597,2.399,2.394,4.532,2.394
			c1.026,0,1.919-0.197,2.678-0.597c0.758-0.401,1.296-0.911,1.609-1.532c0.316-0.62,0.473-1.593,0.473-2.914v-0.529
			c-0.629,0.784-1.372,1.365-2.231,1.751c-0.858,0.383-1.763,0.576-2.714,0.576c-1.778,0-3.256-0.607-4.435-1.82
			c-1.183-1.212-1.774-2.642-1.774-4.286c0-1.703,0.629-3.168,1.887-4.397c1.257-1.229,2.778-1.844,4.565-1.844
			c1.783,0,3.354,0.816,4.702,2.443V96.967L104.458,96.967L104.458,96.967z M104.527,102.884c0-1.334-0.454-2.455-1.357-3.361
			c-0.905-0.905-2.023-1.356-3.358-1.356c-1.411,0-2.582,0.487-3.518,1.462c-0.934,0.974-1.402,2.094-1.402,3.349
			c0,1.261,0.452,2.332,1.355,3.215c0.906,0.882,2.062,1.324,3.473,1.324s2.562-0.431,3.461-1.291
			C104.077,105.362,104.527,104.254,104.527,102.884L104.527,102.884L104.527,102.884z"/>
		<path fill="#505250" stroke="#505250" stroke-width="1.2" stroke-miterlimit="10" d="M108.641,96.967h1.61v1.774
			c0.43-0.725,0.846-1.252,1.252-1.588c0.408-0.34,0.859-0.511,1.358-0.511s1,0.141,1.505,0.416l-0.826,1.337
			c-0.23-0.14-0.469-0.207-0.713-0.207c-0.476,0-0.924,0.244-1.344,0.737c-0.425,0.491-0.735,1.123-0.933,1.899
			c-0.2,0.774-0.3,2.184-0.3,4.227v4.146h-1.61V96.967L108.641,96.967L108.641,96.967z"/>
		<path fill="#505250" stroke="#505250" stroke-width="1.2" stroke-miterlimit="10" d="M115.587,103.163
			c0-1.795,0.614-3.333,1.85-4.609c1.234-1.271,2.736-1.911,4.507-1.911c1.772,0,3.272,0.64,4.507,1.911
			c1.234,1.276,1.853,2.806,1.853,4.586c0,1.781-0.611,3.306-1.829,4.572c-1.219,1.266-2.727,1.899-4.518,1.899
			c-1.794,0-3.305-0.634-4.53-1.899C116.197,106.445,115.587,104.927,115.587,103.163L115.587,103.163L115.587,103.163z
			 M126.715,103.187c0-1.353-0.472-2.523-1.414-3.515c-0.942-0.989-2.063-1.483-3.357-1.483c-1.295,0-2.41,0.494-3.346,1.483
			c-0.935,0.991-1.402,2.17-1.402,3.538c0,1.366,0.451,2.526,1.357,3.476c0.903,0.952,2.025,1.43,3.368,1.43
			c1.34,0,2.476-0.481,3.402-1.44C126.252,105.716,126.715,104.553,126.715,103.187L126.715,103.187L126.715,103.187z"/>
		<path fill="#505250" stroke="#505250" stroke-width="1.2" stroke-miterlimit="10" d="M141.708,109.198h-1.588v-2.189
			c-1.256,1.674-2.781,2.511-4.575,2.511c-0.919,0-1.746-0.248-2.485-0.75c-0.733-0.497-1.254-1.149-1.561-1.957
			c-0.307-0.806-0.46-1.991-0.46-3.559v-6.287h1.563v5.827c0,1.429,0.065,2.395,0.194,2.902c0.131,0.506,0.331,0.935,0.598,1.29
			c0.269,0.353,0.61,0.62,1.024,0.806c0.414,0.184,0.914,0.276,1.505,0.276s1.171-0.146,1.737-0.438
			c0.567-0.291,1.049-0.698,1.449-1.221c0.397-0.521,0.666-1.06,0.805-1.609c0.138-0.555,0.205-1.668,0.205-3.342v-4.491h1.588
			V109.198L141.708,109.198L141.708,109.198z"/>
		<path fill="#505250" stroke="#505250" stroke-width="1.2" stroke-miterlimit="10" d="M145.227,96.967h1.562v2.234
			c1.241-1.707,2.86-2.559,4.852-2.559c1.716,0,3.198,0.635,4.438,1.901c1.244,1.267,1.864,2.794,1.864,4.573
			c0,1.781-0.612,3.309-1.84,4.582c-1.226,1.275-2.698,1.912-4.415,1.912c-1.87,0-3.504-0.838-4.898-2.509v6.562h-1.562V96.967
			L145.227,96.967L145.227,96.967z M156.38,103.14c0-1.366-0.472-2.538-1.417-3.512c-0.94-0.975-2.095-1.462-3.46-1.462
			c-1.364,0-2.511,0.479-3.438,1.437c-0.928,0.96-1.391,2.147-1.391,3.561s0.476,2.6,1.426,3.559
			c0.949,0.957,2.087,1.439,3.414,1.439c1.326,0,2.467-0.489,3.427-1.462C155.9,105.724,156.38,104.537,156.38,103.14L156.38,103.14
			L156.38,103.14z"/>
	</g>
	<g>
		<defs>
			<rect id="SVGID_21_" x="0.833" y="0.65" width="179.278" height="113.699"/>
		</defs>
		<clipPath id="SVGID_22_">
			<use xlink:href="#SVGID_21_"  overflow="visible"/>
		</clipPath>
	</g>
</g>
</svg>
