<?xml version="1.0" encoding="utf-8"?>
<!-- Generator: Adobe Illustrator 15.0.2, SVG Export Plug-In . SVG Version: 6.00 Build 0)  -->
<!DOCTYPE svg PUBLIC "-//W3C//DTD SVG 1.1//EN" "http://www.w3.org/Graphics/SVG/1.1/DTD/svg11.dtd">
<svg version="1.1" id="Layer_1" xmlns="http://www.w3.org/2000/svg" xmlns:xlink="http://www.w3.org/1999/xlink" x="0px" y="0px"
	 width="150px" height="46px" viewBox="0 0 150 46" enable-background="new 0 0 150 46" xml:space="preserve">
<rect y="2" fill="#A5A5A5" width="148" height="44"/>
<rect x="2" fill="#E2E2E2" width="148" height="44"/>
<g>
	<path fill="#787878" d="M20.232,15.267c-1.595,0-2.83,0.6-3.705,1.798c-0.875,1.199-1.312,2.869-1.312,5.011
		c0,4.457,1.672,6.686,5.018,6.686c1.403,0,3.104-0.351,5.1-1.053v3.555c-1.641,0.684-3.473,1.025-5.496,1.025
		c-2.908,0-5.132-0.882-6.672-2.646c-1.541-1.764-2.311-4.295-2.311-7.595c0-2.078,0.378-3.898,1.135-5.462
		c0.756-1.563,1.843-2.762,3.261-3.596c1.417-0.834,3.078-1.251,4.983-1.251c1.941,0,3.892,0.47,5.852,1.408l-1.367,3.445
		c-0.748-0.355-1.5-0.665-2.256-0.93C21.704,15.399,20.961,15.267,20.232,15.267z"/>
	<path fill="#787878" d="M47.726,21.993c0,3.309-0.82,5.852-2.461,7.629s-3.992,2.666-7.055,2.666s-5.414-0.889-7.055-2.666
		s-2.461-4.329-2.461-7.656c0-3.327,0.822-5.867,2.468-7.622c1.645-1.754,4.003-2.632,7.075-2.632c3.071,0,5.421,0.884,7.048,2.652
		C46.913,16.133,47.726,18.676,47.726,21.993z M33.138,21.993c0,2.233,0.424,3.915,1.271,5.045c0.848,1.13,2.114,1.695,3.801,1.695
		c3.381,0,5.072-2.247,5.072-6.74c0-4.502-1.682-6.754-5.045-6.754c-1.687,0-2.958,0.567-3.814,1.702
		C33.566,18.076,33.138,19.76,33.138,21.993z"/>
	<path fill="#787878" d="M69.601,32.015h-5.387l-8.695-15.121h-0.123c0.173,2.671,0.26,4.576,0.26,5.715v9.406h-3.787V12.026h5.346
		l8.682,14.971h0.096c-0.137-2.598-0.205-4.434-0.205-5.51v-9.461h3.814V32.015z"/>
	<path fill="#787878" d="M82.344,32.015h-4.239V15.554h-5.428v-3.527h15.094v3.527h-5.428V32.015z"/>
	<path fill="#787878" d="M103.084,32.015l-1.449-4.758h-7.287l-1.449,4.758h-4.566l7.055-20.07h5.182l7.082,20.07H103.084z
		 M100.623,23.702c-1.34-4.311-2.094-6.749-2.264-7.314c-0.168-0.565-0.289-1.012-0.361-1.34c-0.301,1.167-1.162,4.052-2.584,8.654
		H100.623z"/>
	<path fill="#787878" d="M118.656,15.267c-1.596,0-2.83,0.6-3.705,1.798c-0.875,1.199-1.312,2.869-1.312,5.011
		c0,4.457,1.672,6.686,5.018,6.686c1.402,0,3.104-0.351,5.1-1.053v3.555c-1.641,0.684-3.473,1.025-5.496,1.025
		c-2.908,0-5.133-0.882-6.672-2.646c-1.541-1.764-2.311-4.295-2.311-7.595c0-2.078,0.377-3.898,1.135-5.462
		c0.756-1.563,1.844-2.762,3.26-3.596c1.418-0.834,3.078-1.251,4.984-1.251c1.941,0,3.891,0.47,5.852,1.408l-1.367,3.445
		c-0.748-0.355-1.5-0.665-2.256-0.93C120.127,15.399,119.385,15.267,118.656,15.267z"/>
	<path fill="#787878" d="M135.719,32.015h-4.238V15.554h-5.428v-3.527h15.094v3.527h-5.428V32.015z"/>
</g>
</svg>
