<?xml version="1.0" encoding="utf-8"?>
<!-- Generator: Adobe Illustrator 15.0.2, SVG Export Plug-In . SVG Version: 6.00 Build 0)  -->
<!DOCTYPE svg PUBLIC "-//W3C//DTD SVG 1.1//EN" "http://www.w3.org/Graphics/SVG/1.1/DTD/svg11.dtd">
<svg version="1.1" id="Layer_1" xmlns="http://www.w3.org/2000/svg" xmlns:xlink="http://www.w3.org/1999/xlink" x="0px" y="0px"
	 width="150px" height="46px" viewBox="0 0 150 46" enable-background="new 0 0 150 46" xml:space="preserve">
<rect x="0" y="2" fill="#A5A5A5" width="148" height="44"/>
<g>
	<path fill="#787878" d="M28.828,28.45c0,1.805-0.649,3.227-1.948,4.266s-3.106,1.559-5.421,1.559c-2.133,0-4.02-0.401-5.66-1.203
		v-3.938c1.349,0.602,2.49,1.025,3.425,1.271c0.934,0.246,1.789,0.369,2.563,0.369c0.93,0,1.643-0.178,2.14-0.533
		c0.497-0.355,0.745-0.884,0.745-1.586c0-0.392-0.109-0.74-0.328-1.046c-0.219-0.305-0.54-0.599-0.964-0.882
		c-0.424-0.282-1.288-0.733-2.591-1.354c-1.222-0.574-2.138-1.125-2.748-1.654c-0.611-0.528-1.099-1.144-1.463-1.846
		c-0.365-0.702-0.547-1.522-0.547-2.461c0-1.768,0.599-3.158,1.798-4.17c1.198-1.012,2.855-1.518,4.97-1.518
		c1.039,0,2.03,0.123,2.974,0.369s1.93,0.593,2.96,1.039l-1.367,3.295c-1.066-0.438-1.948-0.743-2.646-0.916
		c-0.697-0.173-1.383-0.26-2.058-0.26c-0.802,0-1.417,0.187-1.846,0.561c-0.429,0.374-0.643,0.861-0.643,1.463
		c0,0.374,0.086,0.7,0.26,0.978c0.173,0.278,0.449,0.547,0.827,0.807c0.378,0.26,1.273,0.727,2.687,1.401
		c1.868,0.894,3.149,1.789,3.842,2.687C28.481,26.046,28.828,27.147,28.828,28.45z"/>
	<path fill="#787878" d="M48.721,14.013v12.934c0,1.477-0.331,2.771-0.991,3.883c-0.661,1.112-1.616,1.964-2.864,2.557
		c-1.249,0.593-2.726,0.889-4.43,0.889c-2.57,0-4.566-0.658-5.988-1.976c-1.422-1.317-2.133-3.119-2.133-5.407V14.013h4.225v12.236
		c0,1.541,0.31,2.671,0.93,3.391c0.62,0.72,1.645,1.08,3.076,1.08c1.385,0,2.39-0.362,3.015-1.087
		c0.624-0.725,0.937-1.861,0.937-3.411V14.013H48.721z"/>
	<path fill="#787878" d="M62.105,17.253c-1.595,0-2.83,0.6-3.705,1.798c-0.875,1.199-1.312,2.869-1.312,5.011
		c0,4.457,1.672,6.686,5.018,6.686c1.403,0,3.104-0.351,5.1-1.053v3.555c-1.641,0.684-3.473,1.025-5.496,1.025
		c-2.908,0-5.132-0.882-6.672-2.646c-1.541-1.764-2.311-4.295-2.311-7.595c0-2.078,0.378-3.898,1.135-5.462
		c0.756-1.563,1.843-2.762,3.261-3.596c1.417-0.834,3.078-1.251,4.983-1.251c1.941,0,3.892,0.47,5.852,1.408l-1.367,3.445
		c-0.748-0.355-1.5-0.665-2.256-0.93C63.577,17.385,62.834,17.253,62.105,17.253z"/>
	<path fill="#787878" d="M79.947,17.253c-1.596,0-2.83,0.6-3.705,1.798c-0.875,1.199-1.312,2.869-1.312,5.011
		c0,4.457,1.672,6.686,5.018,6.686c1.404,0,3.104-0.351,5.1-1.053v3.555c-1.641,0.684-3.473,1.025-5.496,1.025
		c-2.908,0-5.132-0.882-6.672-2.646c-1.541-1.764-2.311-4.295-2.311-7.595c0-2.078,0.378-3.898,1.135-5.462
		c0.756-1.563,1.844-2.762,3.262-3.596c1.416-0.834,3.078-1.251,4.982-1.251c1.941,0,3.893,0.47,5.852,1.408l-1.367,3.445
		c-0.748-0.355-1.5-0.665-2.256-0.93C81.42,17.385,80.676,17.253,79.947,17.253z"/>
	<path fill="#787878" d="M100.811,34.001H89.299V14.013h11.512v3.473h-7.273v4.389h6.768v3.473h-6.768v5.154h7.273V34.001z"/>
	<path fill="#787878" d="M116.779,28.45c0,1.805-0.648,3.227-1.947,4.266s-3.105,1.559-5.422,1.559c-2.133,0-4.02-0.401-5.66-1.203
		v-3.938c1.35,0.602,2.49,1.025,3.426,1.271c0.934,0.246,1.787,0.369,2.562,0.369c0.93,0,1.643-0.178,2.141-0.533
		c0.496-0.355,0.744-0.884,0.744-1.586c0-0.392-0.109-0.74-0.328-1.046c-0.219-0.305-0.539-0.599-0.963-0.882
		c-0.424-0.282-1.287-0.733-2.592-1.354c-1.221-0.574-2.137-1.125-2.748-1.654c-0.611-0.528-1.098-1.144-1.463-1.846
		c-0.365-0.702-0.547-1.522-0.547-2.461c0-1.768,0.6-3.158,1.799-4.17c1.197-1.012,2.854-1.518,4.969-1.518
		c1.039,0,2.031,0.123,2.975,0.369s1.93,0.593,2.959,1.039l-1.367,3.295c-1.066-0.438-1.947-0.743-2.645-0.916
		c-0.697-0.173-1.383-0.26-2.059-0.26c-0.803,0-1.418,0.187-1.846,0.561c-0.428,0.374-0.643,0.861-0.643,1.463
		c0,0.374,0.086,0.7,0.26,0.978c0.174,0.278,0.449,0.547,0.828,0.807c0.377,0.26,1.273,0.727,2.686,1.401
		c1.869,0.894,3.15,1.789,3.842,2.687C116.434,26.046,116.779,27.147,116.779,28.45z"/>
	<path fill="#787878" d="M132.201,28.45c0,1.805-0.648,3.227-1.947,4.266s-3.105,1.559-5.422,1.559c-2.133,0-4.02-0.401-5.66-1.203
		v-3.938c1.35,0.602,2.49,1.025,3.426,1.271c0.934,0.246,1.789,0.369,2.562,0.369c0.93,0,1.643-0.178,2.141-0.533
		c0.496-0.355,0.744-0.884,0.744-1.586c0-0.392-0.109-0.74-0.328-1.046c-0.219-0.305-0.539-0.599-0.963-0.882
		c-0.424-0.282-1.287-0.733-2.592-1.354c-1.221-0.574-2.137-1.125-2.748-1.654c-0.609-0.528-1.098-1.144-1.463-1.846
		c-0.363-0.702-0.547-1.522-0.547-2.461c0-1.768,0.6-3.158,1.799-4.17c1.197-1.012,2.855-1.518,4.969-1.518
		c1.039,0,2.031,0.123,2.975,0.369s1.93,0.593,2.959,1.039l-1.367,3.295c-1.066-0.438-1.947-0.743-2.645-0.916
		c-0.697-0.173-1.383-0.26-2.059-0.26c-0.801,0-1.416,0.187-1.846,0.561c-0.428,0.374-0.643,0.861-0.643,1.463
		c0,0.374,0.088,0.7,0.26,0.978c0.174,0.278,0.449,0.547,0.828,0.807c0.377,0.26,1.273,0.727,2.686,1.401
		c1.869,0.894,3.15,1.789,3.842,2.687C131.855,26.046,132.201,27.147,132.201,28.45z"/>
</g>
</svg>
