<?xml version="1.0" encoding="utf-8"?>
<!-- Generator: Adobe Illustrator 15.0.2, SVG Export Plug-In . SVG Version: 6.00 Build 0)  -->
<!DOCTYPE svg PUBLIC "-//W3C//DTD SVG 1.1//EN" "http://www.w3.org/Graphics/SVG/1.1/DTD/svg11.dtd">
<svg version="1.1" id="Layer_1" xmlns="http://www.w3.org/2000/svg" xmlns:xlink="http://www.w3.org/1999/xlink" x="0px" y="0px"
	 width="60px" height="50px" viewBox="0 0 60 50" enable-background="new 0 0 60 50" xml:space="preserve">
<g>
	<polyline fill="#A5A5A5" points="60,0 60,36.084 35.001,50 25.001,50 0,36.084 0,0 	"/>
	<polyline fill="#F0F0F0" points="59,0 59,35.5 34.937,49 25.001,48.984 1.001,35.465 1,0 	"/>
	<g>
		<g>
			<polyline fill="#646464" points="26.007,14.009 34.013,14.009 34.013,21.015 41.013,21.015 41.013,28.988 34.065,28.988 
				34.065,36.01 26.007,36.01 26.007,29.004 18.985,29.004 18.985,20.995 26.007,20.995 26.007,14.009 			"/>
			<polyline fill="#FFFFFF" points="34.065,37.99 26.007,37.99 26.007,30.984 18.985,30.984 18.985,22.974 26.007,22.974 
				26.007,15.989 34.013,15.989 34.013,22.996 41.013,22.996 41.013,30.969 34.065,30.969 34.065,37.99 			"/>
		</g>
		<g>
			<polyline fill="#A92C4F" points="26.007,14.925 34.013,14.925 34.013,21.931 41.013,21.931 41.013,29.906 34.065,29.906 
				34.065,36.928 26.007,36.928 26.007,29.922 18.985,29.922 18.985,21.912 26.007,21.912 26.007,14.925 			"/>
			<polyline fill="#A92C4F" points="34.065,36.928 26.007,36.928 26.007,29.922 18.985,29.922 18.985,21.912 26.007,21.912 
				26.007,14.925 34.013,14.925 34.013,21.931 41.013,21.931 41.013,29.906 34.065,29.906 34.065,36.928 			"/>
		</g>
	</g>
</g>
</svg>
