<?xml version="1.0" encoding="utf-8"?>
<!-- Generator: Adobe Illustrator 15.0.2, SVG Export Plug-In . SVG Version: 6.00 Build 0)  -->
<!DOCTYPE svg PUBLIC "-//W3C//DTD SVG 1.1//EN" "http://www.w3.org/Graphics/SVG/1.1/DTD/svg11.dtd">
<svg version="1.1" id="Layer_1" xmlns="http://www.w3.org/2000/svg" xmlns:xlink="http://www.w3.org/1999/xlink" x="0px" y="0px"
	 width="60px" height="54px" viewBox="0 0 60 54" enable-background="new 0 0 60 54" xml:space="preserve">
<g>
	<polyline fill="#A5A5A5" points="60,0 60,40.08 35.059,54 24.996,54 0,40.08 0,0 	"/>
	<polyline fill="#EBEBEB" points="59,0 59,39.496 34.996,53 24.995,52.984 1.002,39.461 1,0 	"/>
	<g>
		<g>
			<polyline fill="#646464" points="26.007,18.895 34.013,18.895 34.013,25.901 41.014,25.901 41.014,33.873 34.065,33.873 
				34.065,40.895 26.007,40.895 26.007,33.889 18.986,33.889 18.986,25.88 26.007,25.88 26.007,18.895 			"/>
			<polyline fill="#FFFFFF" points="34.065,42 26.007,42 26.007,34.994 18.986,34.994 18.986,26.985 26.007,26.985 26.007,20 
				34.013,20 34.013,27.005 41.014,27.005 41.014,34.979 34.065,34.979 34.065,42 			"/>
		</g>
		<g>
			<polyline fill="#A92C4F" points="26.007,19.468 34.013,19.468 34.013,26.474 41.014,26.474 41.014,34.447 34.065,34.447 
				34.065,41.469 26.007,41.469 26.007,34.463 18.986,34.463 18.986,26.453 26.007,26.453 26.007,19.468 			"/>
			<polyline fill="#A92C4F" points="34.065,41.469 26.007,41.469 26.007,34.463 18.986,34.463 18.986,26.453 26.007,26.453 
				26.007,19.468 34.013,19.468 34.013,26.474 41.014,26.474 41.014,34.447 34.065,34.447 34.065,41.469 			"/>
		</g>
	</g>
</g>
</svg>
