<?xml version="1.0" encoding="utf-8"?>
<!-- Generator: Adobe Illustrator 15.0.2, SVG Export Plug-In . SVG Version: 6.00 Build 0)  -->
<!DOCTYPE svg PUBLIC "-//W3C//DTD SVG 1.1//EN" "http://www.w3.org/Graphics/SVG/1.1/DTD/svg11.dtd">
<svg version="1.1" id="Layer_1" xmlns="http://www.w3.org/2000/svg" xmlns:xlink="http://www.w3.org/1999/xlink" x="0px" y="0px"
	 width="100px" height="60px" viewBox="0 0 100 60" enable-background="new 0 0 100 60" xml:space="preserve">
<g>
	<g>
		<path fill="#787878" d="M31.715,2.209c-0.272-0.539,4.851-0.705,9.238-2.166c1.113-0.498-2.141,3.419-2.688,8.334
			C36.881,7.712,33.479,2.399,31.715,2.209z"/>
		<path fill="#787878" d="M29.96,36.927c-0.257-0.113-20.646-8.313,6.188-31.188l-1.273-1.426c0,0-29.733,22.614-5.671,33.739
			C29.204,38.052,30.623,37.545,29.96,36.927z"/>
	</g>
	<g>
		<path fill="#787878" d="M10.662,46.613c-0.114-0.425-0.349-0.81-0.707-1.154c-0.473-0.149-0.971-0.168-1.493-0.055
			c-1.156,0.241-2.16,0.883-3.011,1.926c-0.852,1.044-1.651,2.152-2.4,3.325c0.021-0.055,0.027-0.12,0.018-0.195l0.079-0.359
			c-0.056-0.199-0.086-0.324-0.093-0.375c0.02-0.055,0.113-0.104,0.276-0.15c-0.079-0.377-0.093-0.691-0.041-0.943
			c0.05-0.25,0.073-0.4,0.067-0.452c-0.105-0.412-0.52-0.53-1.209-0.39c-0.156,0.401-0.375,0.773-0.645,1.125
			c0.019,0.032,0.029,0.061,0.053,0.095C0.768,54.53,0.25,58.052,0,59.573c0.211,0.309,0.428,0.45,0.651,0.424
			c0.112-0.014,0.229-0.079,0.356-0.197c0.035-0.031,0.076-0.028,0.117-0.027c0.129-0.195,0.254-0.393,0.377-0.59
			c-0.067-0.104-0.098-0.23-0.047-0.373c0.119-0.337,0.26-0.664,0.379-1c0.018-0.051,0.06-0.074,0.09-0.113
			c-0.01-0.043-0.019-0.1-0.027-0.131c0.328-1.355,0.591-2.252,0.787-2.688c0.094-0.139,0.181-0.447,0.258-0.92
			c0.082-0.654,0.219-1.006,0.41-1.057c0.121-0.58,0.433-1.212,0.936-1.891c0.435-0.568,0.881-1.137,1.344-1.709
			c0.981-1.33,2.129-2.266,3.443-2.809c0.215,0.129,0.385,0.432,0.504,0.906c0.199,0.855,0.351,1.353,0.455,1.495l0.576-0.146
			C10.676,47.554,10.693,46.841,10.662,46.613z"/>
		<path fill="#787878" d="M19.289,54.386l-0.111,0.13c-0.129,0.093-0.168,0.228-0.115,0.401c-2.025,1.789-3.699,2.814-5.023,3.074
			c-0.749,0.115-1.504,0.076-2.266-0.116c-0.654-0.232-1.127-0.589-1.417-1.07c-0.249-0.382-0.479-1.04-0.689-1.97
			c0.325-4.115,1.995-7.501,5.009-10.156c0.107-0.039,0.422-0.127,0.94-0.267c0.435-0.13,0.815-0.097,1.138,0.097
			c0.324,0.193,0.513,0.494,0.566,0.9c-0.012,0.336-0.01,0.658,0.003,0.967c-0.276,1.529-1.665,3.425-4.165,5.683
			c-0.149,0.147-0.592,0.329-1.327,0.546c-0.437,0.129-0.613,0.382-0.534,0.76c-0.287,0.602-0.372,1.141-0.251,1.616
			c0.027,0.204,0.189,0.571,0.487,1.104c0.556,0.554,1.362,0.767,2.422,0.642l0.151-0.135c0.446-0.054,1.04-0.266,1.782-0.639
			c0.722-0.524,1.881-1.281,3.475-2.271c0.041,0.1,0.067,0.186,0.077,0.262C19.461,54.095,19.41,54.243,19.289,54.386z
			 M15.752,46.37c-0.094-0.066-0.202-0.131-0.324-0.193c-1.365,1.014-2.458,2.562-3.283,4.648c0.141-0.018,0.286-0.086,0.439-0.207
			c0.617-0.668,1.236-1.334,1.854-2.002C15.142,47.733,15.579,46.984,15.752,46.37z"/>
		<path fill="#787878" d="M29.703,53.925c-0.018-0.127-0.048-0.252-0.092-0.377c-0.113,0.014-0.402,0.179-0.87,0.491
			c-0.544,0.374-0.87,0.581-0.978,0.62c-0.588-0.369-0.961-1.15-1.121-2.344c-0.123-0.914,0.187-2.834,0.926-5.762
			c0.011-0.13,0.047-0.393,0.107-0.787c0.07-0.318,0.095-0.565,0.07-0.744c-0.041-0.304-0.203-0.568-0.488-0.793
			c-0.481,0.213-0.762,0.439-0.844,0.682c-0.488,2.69-0.844,4.371-1.064,5.041c-0.392,1.725-0.936,2.951-1.631,3.679
			c-0.55,1.175-1.283,1.933-2.199,2.274c-0.401-0.029-0.707-0.406-0.916-1.129c-0.271-2.445,0.827-5.338,3.295-8.676
			c0.172-0.201,0.297-0.332,0.373-0.393c0.356-0.508,0.619-0.758,0.791-0.752c0.01,0.076-0.048,0.174-0.174,0.291
			c0.041,0.099,0.066,0.186,0.078,0.262c0.001,0.013-0.003,0.018-0.002,0.028c0.172-0.007,0.344,0.058,0.44,0.228
			c0.009,0.017,0.019,0.033,0.026,0.05c0.004,0.009,0.003,0.018,0.007,0.026c0.013,0.029,0.062,0.146,0.071,0.17
			c0.006,0.013,0.01,0.025,0.015,0.037c0.144,0.133,0.194,0.326,0.214,0.553c0.14-0.257,0.252-0.49,0.303-0.678
			c0.076-0.705,0.098-1.173,0.066-1.401c-0.092-0.686-0.457-0.99-1.098-0.914l-0.67,0.079c-2.648,2.199-4.298,4.576-4.946,7.131
			c-0.265,0.986-0.275,2.381-0.034,4.184c0.141,1.043,0.622,1.783,1.446,2.227c0.935,0.018,1.765-0.338,2.488-1.068
			c0.146-0.174,0.657-0.904,1.532-2.195c0.059-0.188,0.186-0.41,0.377-0.664c0.038,0.279,0.187,0.648,0.445,1.107
			c0.26,0.459,0.418,0.789,0.473,0.989c0.865,0.335,1.478,0.469,1.837,0.401c0.648-0.439,1.118-0.74,1.407-0.904
			C29.655,54.73,29.768,54.407,29.703,53.925z"/>
		<path fill="#787878" d="M38.439,51.464c-0.677,0.988-1.336,1.975-1.979,2.959c-0.89,1.095-1.895,1.707-3.017,1.834
			c-0.48,0.056-0.988,0.031-1.525-0.074c-0.849-0.481-1.34-1.198-1.475-2.149c-0.088-0.624-0.072-1.331,0.045-2.118
			c0.014-0.828,0.26-2.443,0.737-4.844c0.091-0.508,0.41-1.262,0.952-2.262l0.97-1.809c0.494-0.885,1.175-1.377,2.039-1.476
			c0.513-0.059,1.269,0.325,2.265,1.151c0.061,0.213,0.204,0.417,0.427,0.612c0.074-1.327,0.37-3.284,0.886-5.87
			c-0.025-0.188,0.156-0.979,0.547-2.369c0.151-0.319,0.402-0.499,0.756-0.539c0.577-0.066,1.013,0.132,1.306,0.594
			c0.427,2.348,0.376,5.122-0.151,8.32c-0.148,0.816-0.516,1.904-1.105,3.266c-0.348,0.783-0.453,1.649-0.321,2.598
			c0.138,0.976,0.485,1.832,1.046,2.566c0.365,0.289,0.74,0.41,1.127,0.367c0.191-0.022,0.377-0.1,0.554-0.229
			c0.429-0.187,0.854-0.526,1.273-1.017c0.304-0.392,0.622-0.801,0.952-1.225c0.193-0.243,0.607-0.552,1.238-0.928
			c0.099,0.237,0.162,0.451,0.188,0.641c-0.037,0.197-0.193,0.712-0.467,1.543c-0.844,0.953-1.353,1.508-1.525,1.666
			c-0.665,0.6-1.352,0.939-2.056,1.02c-0.321,0.037-0.666,0.021-1.033-0.047C40.027,53.27,39.144,52.544,38.439,51.464z
			 M37.699,46.54c-0.096-0.211-0.087-0.736,0.023-1.576c-0.501-0.082-0.959-0.332-1.377-0.754l-0.286-0.299
			c-0.196-0.227-0.412-0.382-0.651-0.465c-0.837,1.006-1.59,2.377-2.257,4.108l0.008,0.413c-0.331,0.424-0.582,1.419-0.754,2.984
			c-0.011,1.547,0.001,2.442,0.036,2.688c0.049,0.354,0.145,0.687,0.287,1.002c0.051,0.133,0.27,0.176,0.653,0.133
			c1.663-0.908,3.112-2.771,4.346-5.59c-0.066-0.24-0.056-0.863,0.032-1.866C37.771,47.18,37.752,46.919,37.699,46.54z"/>
		<path fill="#787878" d="M71.098,49.194c-0.176-1.033-0.197-2.873-0.066-5.544c0.008-0.312,0.218-1.403,0.631-3.274
			c0.252-1.277,0.262-2.38,0.03-3.305c-0.235-0.406-0.575-0.578-1.019-0.514c-0.84,0.611-1.409,1.055-1.707,1.33
			c-0.194,0.21-0.833,0.922-1.918,2.139c-0.555,0.624-1.263,1.761-2.122,3.41c-0.86,1.651-1.628,2.861-2.301,3.631
			c-0.052,0.033-0.093,0.039-0.126,0.018c0.219-2.206,0.415-3.838,0.587-4.899c-0.071-0.273-0.118-0.655-0.138-1.145
			c-0.041-0.616-0.076-1.012-0.104-1.188c-0.152-0.962-0.653-1.524-1.504-1.688c-1.354,1.125-2.645,2.578-3.867,4.359
			c-1.504,2.156-2.611,3.777-3.318,4.861c-0.116-0.371-0.142-0.93-0.074-1.678c0.065-0.747,0.072-1.285,0.02-1.614
			c0.344-1.058,0.447-2.019,0.311-2.879c-0.039-0.253-0.102-0.478-0.173-0.691c-0.124,0.001-0.249-0.01-0.376-0.034
			c-0.033-0.007-0.05-0.012-0.069-0.016c-0.02,0.001-0.037,0.002-0.071,0.002c-0.047-0.001-0.093,0.002-0.139,0.004
			c-0.041,0.01-0.137,0.028-0.186,0.041c-0.009,0.004-0.005,0.002-0.016,0.008c-0.03,0.018-0.048,0.027-0.064,0.035
			c-0.01,0.01-0.014,0.016-0.026,0.03c-0.007,0.009-0.005,0.005-0.011,0.013c-0.025,0.043-0.041,0.065-0.053,0.078
			c-0.004,0.02-0.006,0.035-0.014,0.064c-0.031,0.156-0.041,0.18-0.029,0.068c-0.052,0.422-0.232,0.803-0.529,1.053
			c0.037,1.031-0.133,2.572-0.514,4.641c-0.386,2.049-0.554,3.678-0.504,4.887c0.215,0.099,0.434,0.131,0.654,0.1
			c0.084-0.012,0.223-0.031,0.418-0.06c0.082-0.011,0.15-0.021,0.207-0.03c0.027-0.004,0.12-0.094,0.275-0.272
			c0.158-0.178,0.254-0.243,0.289-0.196c0.297-0.819,0.902-1.746,1.817-2.784c1.029-1.208,1.764-2.22,2.203-3.033
			c0.392-0.393,0.937-1.169,1.633-2.331c0.625-1.072,1.19-1.801,1.7-2.185c0.059,0.2,0.107,0.412,0.143,0.64
			c0.017,0.102,0.064,0.314,0.145,0.641c0.078,0.324,0.135,0.589,0.168,0.79c0.023,0.334,0.002,0.647-0.064,0.942
			c-0.204,1.219-0.314,2.037-0.334,2.453c0.01,1.32,0.043,2.156,0.1,2.511c0.016,0.102,0.016,0.374,0.002,0.815
			c-0.01,0.312,0.029,0.553,0.113,0.721c0.457,0.013,1.072-0.399,1.85-1.234c0.223-0.214,0.631-0.777,1.225-1.69
			c1.234-1.886,2.181-3.353,2.838-4.405c0.33-0.436,0.801-1.137,1.415-2.105c0.292-0.481,0.663-0.923,1.11-1.324
			c0.056-0.008,0.124-0.107,0.208-0.301c0.083-0.193,0.161-0.321,0.237-0.384l0.084-0.011c-0.079,0.605-0.293,1.799-0.648,3.58
			c-0.268,1.49-0.426,2.69-0.477,3.605c0.048,0.304,0.09,0.744,0.125,1.322c0.036,0.576,0.078,1.018,0.126,1.321
			c0.1,0.629,0.321,1.134,0.636,1.542C70.225,49.703,70.645,49.421,71.098,49.194z"/>
		<path fill="#787878" d="M82.24,39.177c-0.272-1.721-1.037-2.867-2.293-3.438c-0.262-0.041-0.6-0.03-1.018,0.028
			c-0.249,0.037-0.525,0.09-0.826,0.158c-0.135,0.227-0.18,0.389-0.137,0.484c-0.55,0.648-0.969,0.968-1.254,0.957
			c-0.753,0.263-1.267,0.699-1.539,1.307c-0.357,0.26-0.676,0.667-0.957,1.225c-0.269,0.635-0.496,1.08-0.681,1.34
			c-0.302,1.156-0.532,2.031-0.692,2.623c-0.241,0.992-0.34,1.9-0.293,2.721c0.525,1.35,1.367,2.186,2.528,2.512
			c0.456,0.014,0.905-0.025,1.345-0.115c1.586-0.382,2.711-1.178,3.371-2.385c0.773-0.861,1.293-1.518,1.562-1.971
			c0.047-0.059,0.135-0.316,0.26-0.775c0.09-0.323,0.24-0.551,0.445-0.686c0.196-1.27,0.293-2.144,0.288-2.623
			C82.346,40.062,82.309,39.606,82.24,39.177z M75.85,47.507c-0.647,0.042-1.088-0.051-1.322-0.277
			c-0.104-0.295-0.18-0.595-0.228-0.898c-0.096-0.607-0.071-1.258,0.075-1.951c0.014-0.262,0.291-1.207,0.828-2.838
			c0.174-0.153,0.457-0.518,0.848-1.092c0.129-0.195,0.249-0.354,0.364-0.493c0.001-0.009-0.002-0.015-0.001-0.022
			c0.126-0.678,0.553-1.168,1.107-1.483c-0.018-0.078-0.016-0.166,0.027-0.267c0.082-0.197,0.188-0.318,0.327-0.394l-0.132-0.106
			l1.736-0.871c0.504,0.137,0.842,0.476,1.014,1.021c0.172,0.544,0.354,1.166,0.551,1.861C80.615,43.616,78.884,46.219,75.85,47.507
			z"/>
		<path fill="#787878" d="M92.549,34.594c0.037,0.142,0.069,0.261,0.103,0.38c0.393-0.355,0.679-0.786,0.917-1.285
			c-0.131-0.384-0.354-0.734-0.689-1.045c-0.477-0.138-0.975-0.145-1.494-0.018c-1.15,0.268-2.14,0.934-2.965,1.996
			c-0.826,1.062-1.598,2.189-2.318,3.381c0.02-0.055,0.024-0.121,0.012-0.197l0.071-0.359c-0.061-0.198-0.095-0.322-0.103-0.373
			c0.02-0.055,0.111-0.106,0.273-0.156c-0.088-0.376-0.109-0.689-0.064-0.941s0.064-0.404,0.057-0.455
			c-0.018-0.062-0.059-0.1-0.09-0.148c-0.072,0.156-0.164,0.305-0.295,0.434c-0.182,0.18-0.391,0.338-0.611,0.467
			c-0.061,0.036-0.398,0.24-0.284,0.148c-0.165,0.133-0.352,0.136-0.512,0.078c-0.647,5.475-1.079,8.976-1.29,10.492
			c0.22,0.303,0.439,0.439,0.662,0.408c0.111-0.017,0.227-0.085,0.35-0.206c0.1-0.092,0.219-0.056,0.359,0.104
			c0.424-0.19,0.648-0.559,0.676-1.107c-0.072-0.636-0.139-1.053-0.198-1.252c0.295-1.363,0.535-2.264,0.722-2.705
			c0.091-0.143,0.17-0.451,0.236-0.927c0.066-0.655,0.194-1.011,0.385-1.065c0.105-0.584,0.402-1.223,0.89-1.913
			c0.419-0.577,0.853-1.156,1.3-1.739c0.951-1.352,2.075-2.316,3.377-2.891C92.24,33.823,92.417,34.121,92.549,34.594z"/>
		<path fill="#787878" d="M99.991,43.332c-0.063-0.048-0.104-0.079,0.001-0.021V43.31c-0.047-0.027-0.074-0.045-0.086-0.056
			c-0.018-0.005-0.027-0.007-0.053-0.014c-0.104-0.03-0.209-0.054-0.316-0.074c-0.041,0.003-0.236-0.009-0.259-0.009
			c-0.481,0.332-0.89,0.625-1.2,0.861c-0.732,0.389-1.322,0.615-1.766,0.68l-0.148,0.139c-1.056,0.15-1.867-0.045-2.436-0.584
			c-0.312-0.525-0.481-0.889-0.514-1.092c-0.133-0.473-0.062-1.014,0.211-1.622c-0.088-0.375,0.084-0.634,0.518-0.772
			c0.729-0.234,1.167-0.426,1.313-0.578c2.444-2.316,3.786-4.242,4.026-5.779c-0.021-0.307-0.03-0.629-0.025-0.967
			c-0.064-0.403-0.26-0.699-0.588-0.886c-0.329-0.186-0.709-0.208-1.141-0.069c-0.516,0.15-0.828,0.248-0.935,0.289
			c-2.948,2.727-4.535,6.15-4.761,10.271c0.23,0.925,0.477,1.576,0.734,1.953c0.302,0.475,0.784,0.819,1.443,1.036
			c0.766,0.175,1.521,0.195,2.268,0.063c1.031-0.229,2.27-0.938,3.708-2.113c0.003-0.01,0.009-0.02,0.013-0.03
			c-0.005-0.047-0.015-0.091-0.015-0.14C99.984,43.655,99.99,43.494,99.991,43.332z M97.383,34.255
			c0.123,0.061,0.232,0.123,0.328,0.186c-0.158,0.619-0.577,1.378-1.258,2.277c-0.602,0.683-1.205,1.363-1.806,2.045
			c-0.151,0.125-0.296,0.197-0.435,0.217C94.987,36.876,96.043,35.302,97.383,34.255z"/>
	</g>
</g>
</svg>
