<?xml version="1.0" encoding="utf-8"?>
<!-- Generator: Adobe Illustrator 15.0.2, SVG Export Plug-In . SVG Version: 6.00 Build 0)  -->
<!DOCTYPE svg PUBLIC "-//W3C//DTD SVG 1.1//EN" "http://www.w3.org/Graphics/SVG/1.1/DTD/svg11.dtd">
<svg version="1.1" id="Layer_1" xmlns="http://www.w3.org/2000/svg" xmlns:xlink="http://www.w3.org/1999/xlink" x="0px" y="0px"
	 width="270px" height="60px" viewBox="0 0 270 60" enable-background="new 0 0 270 60" xml:space="preserve">
<g>
	<path fill="#474747" d="M0,58c0,1.104,0.896,2,2,2h266c1.104,0,2-0.896,2-2V2c0-1.104-0.896-2-2-2H2C0.896,0,0,0.896,0,2V58z"/>
</g>
<g>
	<path fill="#FFFFFF" stroke="#FFFFFF" stroke-linejoin="round" stroke-miterlimit="10" d="M31.521,37.278
		c-1,0-1.914-0.101-2.74-0.3c-0.827-0.2-1.46-0.44-1.9-0.721l0.3-2.92c0.427,0.419,1.023,0.773,1.79,1.064s1.637,0.436,2.61,0.436
		c1.667,0,2.5-0.509,2.5-1.527c0-0.294-0.07-0.559-0.21-0.793c-0.14-0.234-0.32-0.438-0.54-0.613c-0.22-0.174-0.46-0.321-0.72-0.441
		c-0.26-0.121-0.517-0.221-0.77-0.302l-1.88-0.663l-0.8-0.34c-0.84-0.347-1.454-0.76-1.84-1.24c-0.387-0.479-0.6-1.146-0.64-2
		c0-0.533,0.1-1.05,0.3-1.55c0.2-0.5,0.506-0.946,0.92-1.34c0.413-0.394,0.94-0.71,1.58-0.95s1.393-0.36,2.26-0.36
		c0.44,0,0.883,0.034,1.33,0.101s0.87,0.149,1.27,0.25c0.4,0.1,0.76,0.217,1.08,0.35c0.32,0.134,0.58,0.26,0.78,0.38l-0.26,2.62
		c-1.547-0.84-2.914-1.26-4.1-1.26c-0.347,0-0.673,0.026-0.98,0.08c-0.307,0.053-0.577,0.14-0.81,0.26s-0.42,0.273-0.56,0.46
		c-0.14,0.187-0.21,0.413-0.21,0.68c0,0.348,0.083,0.617,0.25,0.811s0.413,0.363,0.74,0.51c0.327,0.146,0.736,0.297,1.23,0.45
		c0.493,0.153,1.066,0.356,1.72,0.609l1.08,0.421c0.28,0.106,0.573,0.26,0.88,0.46c0.307,0.199,0.59,0.446,0.85,0.739
		c0.26,0.294,0.477,0.638,0.65,1.03c0.173,0.394,0.26,0.837,0.26,1.33c0,0.427-0.053,0.887-0.16,1.38s-0.347,0.957-0.72,1.39
		c-0.374,0.434-0.92,0.794-1.64,1.08C33.701,37.135,32.734,37.278,31.521,37.278z"/>
	<path fill="#FFFFFF" stroke="#FFFFFF" stroke-linejoin="round" stroke-miterlimit="10" d="M49.221,36.998h-9.16v-14h8.96v2.48
		h-6.34v2.979h4.92v2.48h-4.92v3.579h6.54V36.998z"/>
	<path fill="#FFFFFF" stroke="#FFFFFF" stroke-linejoin="round" stroke-miterlimit="10" d="M63.48,36.998h-2.1l-6.4-9.6v9.6h-2.56
		v-14h2.52l5.98,9.04v-9.04h2.56V36.998z"/>
	<path fill="#FFFFFF" stroke="#FFFFFF" stroke-linejoin="round" stroke-miterlimit="10" d="M72.8,36.998h-5.239v-14H72.8
		c1.013,0,1.943,0.163,2.79,0.49c0.847,0.326,1.573,0.793,2.18,1.399c0.607,0.607,1.08,1.341,1.42,2.2
		c0.34,0.86,0.511,1.83,0.511,2.91s-0.171,2.054-0.511,2.92c-0.34,0.867-0.812,1.6-1.42,2.2c-0.606,0.6-1.333,1.063-2.18,1.39
		C74.743,36.835,73.812,36.998,72.8,36.998z M72.8,25.438h-2.68v9.119h2.68c1.333,0,2.351-0.398,3.05-1.195
		c0.7-0.797,1.051-1.918,1.051-3.364s-0.351-2.567-1.051-3.364C75.15,25.837,74.133,25.438,72.8,25.438z"/>
	<path fill="#FFFFFF" stroke="#FFFFFF" stroke-linejoin="round" stroke-miterlimit="10" d="M99.02,22.998l-4.84,7.8v6.2h-2.56v-6.2
		l-4.841-7.8H89.5l3.4,5.52l3.399-5.52H99.02z"/>
	<path fill="#FFFFFF" stroke="#FFFFFF" stroke-linejoin="round" stroke-miterlimit="10" d="M111.92,35.278
		c-1.28,1.333-2.934,2-4.96,2c-1,0-1.923-0.174-2.771-0.521c-0.847-0.347-1.576-0.84-2.189-1.479c-0.613-0.641-1.09-1.407-1.43-2.3
		c-0.34-0.894-0.51-1.887-0.51-2.98c0-1.093,0.172-2.087,0.52-2.98c0.346-0.893,0.822-1.659,1.43-2.3
		c0.606-0.64,1.333-1.133,2.18-1.479c0.848-0.347,1.771-0.521,2.771-0.521s1.923,0.177,2.771,0.53
		c0.846,0.354,1.576,0.85,2.189,1.49c0.613,0.64,1.09,1.406,1.43,2.3s0.51,1.88,0.51,2.96
		C113.859,32.185,113.213,33.945,111.92,35.278z M110,26.483c-0.707-0.884-1.721-1.325-3.04-1.325c-0.667,0-1.253,0.117-1.761,0.352
		c-0.506,0.234-0.933,0.562-1.279,0.984c-0.348,0.422-0.609,0.93-0.79,1.525c-0.181,0.597-0.271,1.256-0.271,1.979
		s0.09,1.383,0.271,1.979s0.442,1.104,0.79,1.526c0.347,0.422,0.773,0.749,1.279,0.983c0.508,0.234,1.094,0.352,1.761,0.352
		s1.253-0.117,1.76-0.352s0.933-0.562,1.28-0.983c0.346-0.422,0.609-0.931,0.79-1.526c0.18-0.596,0.271-1.256,0.271-1.979
		C111.061,28.552,110.707,27.381,110,26.483z"/>
	<path fill="#FFFFFF" stroke="#FFFFFF" stroke-linejoin="round" stroke-miterlimit="10" d="M116.939,30.998v-8h2.561v7.152
		c0,0.748,0.053,1.412,0.16,1.993c0.105,0.581,0.283,1.072,0.529,1.473s0.576,0.705,0.99,0.911c0.413,0.207,0.934,0.311,1.561,0.311
		c0.612,0,1.129-0.104,1.549-0.311c0.42-0.206,0.754-0.511,1-0.911c0.247-0.4,0.424-0.892,0.53-1.473s0.16-1.245,0.16-1.993v-7.152
		h2.56v8c0,1.96-0.486,3.497-1.459,4.61c-0.975,1.113-2.42,1.67-4.34,1.67c-1.921,0-3.367-0.557-4.341-1.67
		S116.939,32.958,116.939,30.998z"/>
	<path fill="#FFFFFF" stroke="#FFFFFF" stroke-linejoin="round" stroke-miterlimit="10" d="M143.179,36.998h-2.659l-2.899-5.2
		h-2.601v5.2h-2.561v-14h5.12c3.213,0,4.82,1.347,4.82,4.04c0,1-0.207,1.813-0.62,2.44c-0.413,0.626-1,1.173-1.76,1.64
		L143.179,36.998z M136.999,25.138h-1.979v4.261h1.88c1.08,0,1.82-0.184,2.221-0.551c0.399-0.366,0.6-0.909,0.6-1.63
		c0-0.706-0.193-1.229-0.58-1.569C138.753,25.308,138.04,25.138,136.999,25.138z"/>
	<path fill="#FFFFFF" stroke="#FFFFFF" stroke-linejoin="round" stroke-miterlimit="10" d="M165.719,36.998h-2.659l-1.201-9.38
		l-3.58,6.439l-3.6-6.42l-1.199,9.36h-2.66l1.939-14h2.1l3.42,6.38l3.4-6.38h2.1L165.719,36.998z"/>
	<path fill="#FFFFFF" stroke="#FFFFFF" stroke-linejoin="round" stroke-miterlimit="10" d="M178.199,36.998h-9.16v-14h8.96v2.48
		h-6.34v2.979h4.92v2.48h-4.92v3.579h6.54V36.998z"/>
	<path fill="#FFFFFF" stroke="#FFFFFF" stroke-linejoin="round" stroke-miterlimit="10" d="M185.459,37.278
		c-1,0-1.913-0.101-2.74-0.3c-0.827-0.2-1.46-0.44-1.899-0.721l0.299-2.92c0.428,0.419,1.023,0.773,1.791,1.064
		c0.766,0.291,1.637,0.436,2.609,0.436c1.667,0,2.5-0.509,2.5-1.527c0-0.294-0.07-0.559-0.209-0.793
		c-0.141-0.234-0.32-0.438-0.541-0.613c-0.22-0.174-0.459-0.321-0.72-0.441c-0.26-0.121-0.517-0.221-0.771-0.302l-1.879-0.663
		l-0.801-0.34c-0.84-0.347-1.453-0.76-1.84-1.24c-0.387-0.479-0.6-1.146-0.641-2c0-0.533,0.101-1.05,0.301-1.55
		c0.199-0.5,0.506-0.946,0.92-1.34c0.413-0.394,0.939-0.71,1.58-0.95s1.393-0.36,2.26-0.36c0.439,0,0.883,0.034,1.33,0.101
		s0.87,0.149,1.27,0.25c0.4,0.1,0.761,0.217,1.08,0.35c0.32,0.134,0.58,0.26,0.78,0.38l-0.26,2.62
		c-1.547-0.84-2.913-1.26-4.101-1.26c-0.346,0-0.673,0.026-0.979,0.08c-0.307,0.053-0.577,0.14-0.81,0.26
		c-0.234,0.12-0.42,0.273-0.561,0.46c-0.14,0.187-0.21,0.413-0.21,0.68c0,0.348,0.083,0.617,0.25,0.811s0.413,0.363,0.74,0.51
		s0.736,0.297,1.229,0.45c0.494,0.153,1.066,0.356,1.721,0.609l1.08,0.421c0.279,0.106,0.572,0.26,0.879,0.46
		c0.307,0.199,0.591,0.446,0.851,0.739c0.261,0.294,0.477,0.638,0.649,1.03c0.174,0.394,0.261,0.837,0.261,1.33
		c0,0.427-0.054,0.887-0.16,1.38s-0.347,0.957-0.72,1.39c-0.373,0.434-0.92,0.794-1.641,1.08
		C187.639,37.135,186.672,37.278,185.459,37.278z"/>
	<path fill="#FFFFFF" stroke="#FFFFFF" stroke-linejoin="round" stroke-miterlimit="10" d="M198.06,37.278
		c-1,0-1.914-0.101-2.74-0.3c-0.827-0.2-1.461-0.44-1.9-0.721l0.3-2.92c0.427,0.419,1.023,0.773,1.79,1.064s1.637,0.436,2.61,0.436
		c1.667,0,2.5-0.509,2.5-1.527c0-0.294-0.07-0.559-0.21-0.793c-0.141-0.234-0.32-0.438-0.54-0.613
		c-0.22-0.174-0.46-0.321-0.72-0.441c-0.26-0.121-0.518-0.221-0.771-0.302l-1.88-0.663l-0.8-0.34
		c-0.841-0.347-1.454-0.76-1.841-1.24c-0.387-0.479-0.6-1.146-0.64-2c0-0.533,0.101-1.05,0.3-1.55c0.2-0.5,0.507-0.946,0.92-1.34
		c0.414-0.394,0.94-0.71,1.58-0.95c0.641-0.24,1.394-0.36,2.26-0.36c0.44,0,0.884,0.034,1.33,0.101
		c0.447,0.066,0.871,0.149,1.271,0.25c0.399,0.1,0.761,0.217,1.08,0.35c0.319,0.134,0.58,0.26,0.78,0.38l-0.26,2.62
		c-1.547-0.84-2.914-1.26-4.101-1.26c-0.347,0-0.673,0.026-0.979,0.08c-0.307,0.053-0.577,0.14-0.811,0.26s-0.42,0.273-0.561,0.46
		c-0.139,0.187-0.209,0.413-0.209,0.68c0,0.348,0.083,0.617,0.25,0.811c0.166,0.193,0.412,0.363,0.74,0.51
		c0.326,0.146,0.736,0.297,1.229,0.45s1.066,0.356,1.72,0.609l1.08,0.421c0.28,0.106,0.573,0.26,0.88,0.46
		c0.307,0.199,0.591,0.446,0.851,0.739c0.26,0.294,0.477,0.638,0.649,1.03c0.173,0.394,0.261,0.837,0.261,1.33
		c0,0.427-0.054,0.887-0.16,1.38c-0.107,0.493-0.348,0.957-0.721,1.39c-0.373,0.434-0.92,0.794-1.64,1.08
		C200.239,37.135,199.272,37.278,198.06,37.278z"/>
	<path fill="#FFFFFF" stroke="#FFFFFF" stroke-linejoin="round" stroke-miterlimit="10" d="M217.499,36.998h-2.66l-1.199-3.38
		h-4.661l-1.2,3.38h-2.66l4.98-14h2.42L217.499,36.998z M212.759,31.138l-1.46-4.1l-1.44,4.1H212.759z"/>
	<path fill="#FFFFFF" stroke="#FFFFFF" stroke-linejoin="round" stroke-miterlimit="10" d="M225.878,37.278
		c-0.986,0-1.9-0.174-2.74-0.521s-1.562-0.84-2.17-1.479c-0.605-0.641-1.08-1.41-1.42-2.311c-0.34-0.899-0.51-1.896-0.51-2.989
		c0-1.08,0.17-2.067,0.51-2.961c0.34-0.893,0.816-1.656,1.43-2.289c0.613-0.634,1.352-1.127,2.211-1.48s1.803-0.53,2.83-0.53
		c0.332,0,0.697,0.021,1.09,0.061s0.779,0.097,1.16,0.17c0.379,0.073,0.74,0.16,1.08,0.26s0.629,0.21,0.869,0.33l-0.279,2.44
		c-1.279-0.547-2.566-0.82-3.859-0.82c-0.707,0-1.324,0.114-1.852,0.342c-0.525,0.228-0.967,0.552-1.318,0.974
		c-0.354,0.422-0.621,0.924-0.801,1.506c-0.18,0.583-0.27,1.235-0.27,1.958c0,0.75,0.092,1.426,0.279,2.028s0.467,1.115,0.84,1.537
		s0.83,0.749,1.371,0.983c0.539,0.234,1.162,0.352,1.869,0.352c0.547,0,1.188-0.073,1.92-0.222v-2.519h-1.539v-2.119h4.1v6.239
		c-0.24,0.147-0.555,0.284-0.939,0.41c-0.389,0.127-0.805,0.24-1.25,0.34c-0.447,0.101-0.9,0.177-1.361,0.23
		C226.669,37.251,226.251,37.278,225.878,37.278z"/>
	<path fill="#FFFFFF" stroke="#FFFFFF" stroke-linejoin="round" stroke-miterlimit="10" d="M243.319,36.998h-9.16v-14h8.959v2.48
		h-6.34v2.979h4.92v2.48h-4.92v3.579h6.541V36.998z"/>
</g>
</svg>
