<?xml version="1.0" encoding="utf-8"?>
<!-- Generator: Adobe Illustrator 15.0.2, SVG Export Plug-In . SVG Version: 6.00 Build 0)  -->
<!DOCTYPE svg PUBLIC "-//W3C//DTD SVG 1.1//EN" "http://www.w3.org/Graphics/SVG/1.1/DTD/svg11.dtd">
<svg version="1.1" id="Layer_1" xmlns="http://www.w3.org/2000/svg" xmlns:xlink="http://www.w3.org/1999/xlink" x="0px" y="0px"
	 width="60px" height="54px" viewBox="0 0 60 54" enable-background="new 0 0 60 54" xml:space="preserve">
<g>
	<g>
		<g>
			<polyline fill="#A5A5A5" points="0,54 0,13.92 24.999,0 34.999,0 60,13.92 60,54 			"/>
			<polyline fill="#EBEBEB" points="1,54 1,14.504 25.062,1 34.999,1.016 58.998,14.539 59,54 			"/>
		</g>
	</g>
	<g>
		<g>
			<g>
				<g>
					<path fill="#A5A5A5" d="M22.74,36.883h-1.55v-1.516h5.207v1.516h-1.521V45.4H22.74V36.883z"/>
					<path fill="#A5A5A5" d="M26.884,38.729c0-2.371,1.029-3.557,3.088-3.557c2.062,0,3.094,1.186,3.094,3.557v3.322
						c0,0.484-0.053,0.939-0.156,1.369s-0.275,0.805-0.516,1.129c-0.241,0.322-0.559,0.578-0.955,0.766
						c-0.395,0.188-0.884,0.281-1.467,0.281s-1.071-0.09-1.465-0.273c-0.393-0.182-0.71-0.43-0.951-0.746
						c-0.24-0.316-0.412-0.686-0.516-1.109s-0.156-0.879-0.156-1.365V38.729z M30.929,38.221c0-0.988-0.319-1.482-0.957-1.482
						c-0.195,0-0.355,0.047-0.479,0.137c-0.123,0.092-0.221,0.207-0.291,0.35c-0.07,0.141-0.117,0.299-0.143,0.477
						c-0.025,0.176-0.039,0.35-0.039,0.52v4.338c0,0.984,0.317,1.477,0.951,1.477c0.638,0,0.957-0.492,0.957-1.477V38.221z"/>
					<path fill="#A5A5A5" d="M34.187,35.367h2.553c0.458,0,0.854,0.062,1.186,0.184c0.333,0.123,0.607,0.305,0.822,0.545
						c0.215,0.238,0.374,0.537,0.476,0.891c0.102,0.355,0.152,0.764,0.152,1.225c0,0.576-0.069,1.051-0.208,1.424
						s-0.34,0.668-0.602,0.887c-0.262,0.217-0.582,0.369-0.957,0.453c-0.375,0.086-0.801,0.131-1.273,0.135h-0.012V45.4h-2.137
						V35.367z M36.411,39.676c0.23,0,0.41-0.029,0.537-0.092c0.127-0.061,0.22-0.152,0.279-0.275
						c0.059-0.123,0.094-0.279,0.105-0.469s0.018-0.412,0.018-0.668c0-0.227-0.01-0.426-0.027-0.598
						c-0.018-0.17-0.057-0.312-0.117-0.426s-0.151-0.197-0.272-0.254c-0.122-0.055-0.286-0.084-0.493-0.084h-0.117v2.865H36.411z"/>
				</g>
				<g>
					<path fill="#8C8C8C" d="M22.74,37.078h-1.55v-1.516h5.207v1.516h-1.521v8.518H22.74V37.078z"/>
					<path fill="#8C8C8C" d="M26.884,38.924c0-2.371,1.029-3.557,3.088-3.557c2.062,0,3.094,1.186,3.094,3.557v3.322
						c0,0.482-0.053,0.939-0.156,1.369c-0.104,0.428-0.275,0.805-0.516,1.129c-0.241,0.322-0.559,0.578-0.955,0.766
						c-0.395,0.188-0.884,0.281-1.467,0.281s-1.071-0.09-1.465-0.273c-0.393-0.182-0.71-0.43-0.951-0.746
						c-0.24-0.316-0.412-0.686-0.516-1.109s-0.156-0.879-0.156-1.365V38.924z M30.929,38.416c0-0.988-0.319-1.482-0.957-1.482
						c-0.195,0-0.355,0.045-0.479,0.137s-0.221,0.207-0.291,0.348c-0.07,0.143-0.117,0.301-0.143,0.477
						c-0.025,0.178-0.039,0.352-0.039,0.521v4.338c0,0.984,0.317,1.477,0.951,1.477c0.638,0,0.957-0.492,0.957-1.477V38.416z"/>
					<path fill="#787878" d="M34.187,35.562h2.553c0.458,0,0.854,0.061,1.186,0.184c0.333,0.123,0.607,0.305,0.822,0.543
						c0.215,0.24,0.374,0.537,0.476,0.893s0.152,0.764,0.152,1.225c0,0.576-0.069,1.051-0.208,1.424s-0.34,0.668-0.602,0.887
						c-0.262,0.217-0.582,0.367-0.957,0.453s-0.801,0.131-1.273,0.135h-0.012v4.291h-2.137V35.562z M36.411,39.871
						c0.23,0,0.41-0.029,0.537-0.092c0.127-0.061,0.22-0.152,0.279-0.275c0.059-0.123,0.094-0.279,0.105-0.469
						s0.018-0.412,0.018-0.668c0-0.227-0.01-0.426-0.027-0.598c-0.018-0.17-0.057-0.312-0.117-0.426s-0.151-0.197-0.272-0.254
						c-0.122-0.057-0.286-0.084-0.493-0.084h-0.117v2.865H36.411z"/>
				</g>
				<g>
					<path fill="#C8C8C8" d="M22.74,37.991h-1.55v-1.516h5.207v1.516h-1.521v8.518H22.74V37.991z"/>
					<path fill="#C8C8C8" d="M26.884,39.837c0-2.371,1.029-3.557,3.088-3.557c2.062,0,3.094,1.186,3.094,3.557v3.322
						c0,0.482-0.053,0.939-0.156,1.369c-0.104,0.428-0.275,0.805-0.516,1.129c-0.241,0.322-0.559,0.578-0.955,0.766
						c-0.395,0.188-0.884,0.281-1.467,0.281s-1.071-0.092-1.465-0.273c-0.393-0.182-0.71-0.43-0.951-0.746
						c-0.24-0.316-0.412-0.686-0.516-1.109s-0.156-0.879-0.156-1.365V39.837z M30.929,39.329c0-0.988-0.319-1.482-0.957-1.482
						c-0.195,0-0.355,0.045-0.479,0.137s-0.221,0.207-0.291,0.348c-0.07,0.143-0.117,0.301-0.143,0.477
						c-0.025,0.178-0.039,0.352-0.039,0.521v4.338c0,0.984,0.317,1.477,0.951,1.477c0.638,0,0.957-0.492,0.957-1.477V39.329z"/>
					<path fill="#C8C8C8" d="M34.187,36.476h2.553c0.458,0,0.854,0.061,1.186,0.184c0.333,0.123,0.607,0.305,0.822,0.543
						c0.215,0.24,0.374,0.537,0.476,0.893s0.152,0.764,0.152,1.223c0,0.576-0.069,1.051-0.208,1.426
						c-0.139,0.373-0.34,0.668-0.602,0.885c-0.262,0.219-0.582,0.369-0.957,0.455s-0.801,0.131-1.273,0.135h-0.012v4.291h-2.137
						V36.476z M36.411,40.784c0.23,0,0.41-0.031,0.537-0.092s0.22-0.152,0.279-0.275c0.059-0.123,0.094-0.279,0.105-0.469
						s0.018-0.412,0.018-0.67c0-0.227-0.01-0.424-0.027-0.596c-0.018-0.17-0.057-0.312-0.117-0.426s-0.151-0.199-0.272-0.254
						c-0.122-0.057-0.286-0.084-0.493-0.084h-0.117v2.865H36.411z"/>
				</g>
			</g>
		</g>
		<g>
			<g>
				<polygon fill="#646464" points="18.991,26.988 29.749,11.995 30.22,11.995 41.019,26.973 				"/>
			</g>
		</g>
		<g>
			<g>
				<polygon fill="#FFFFFF" points="19.005,28.477 29.749,13.477 30.22,13.477 41.005,28.461 				"/>
			</g>
		</g>
		<g>
			<g>
				<polygon fill="#A92C4F" points="18.991,28.473 29.749,13.48 30.22,13.48 41.019,28.457 				"/>
			</g>
		</g>
	</g>
</g>
</svg>
