<?xml version="1.0" encoding="utf-8"?>
<!-- Generator: Adobe Illustrator 15.0.2, SVG Export Plug-In . SVG Version: 6.00 Build 0)  -->
<!DOCTYPE svg PUBLIC "-//W3C//DTD SVG 1.1//EN" "http://www.w3.org/Graphics/SVG/1.1/DTD/svg11.dtd">
<svg version="1.1" id="Layer_1" xmlns="http://www.w3.org/2000/svg" xmlns:xlink="http://www.w3.org/1999/xlink" x="0px" y="0px"
	 width="60px" height="54px" viewBox="0 0 60 54" enable-background="new 0 0 60 54" xml:space="preserve">
<g>
	<g>
		<polyline fill="#A5A5A5" points="0,54 0,17.917 24.999,4 34.999,4 60,17.917 60,54 		"/>
		<polyline fill="#F0F0F0" points="1,54 1,18.5 25.063,5 34.999,5.016 58.999,18.535 59,54 		"/>
	</g>
	<g>
		<g>
			<g>
				<g>
					<path fill="#A5A5A5" d="M22.735,40.404h-1.55v-1.516h5.207v1.516h-1.521v8.518h-2.136V40.404z"/>
					<path fill="#A5A5A5" d="M26.879,42.25c0-2.371,1.029-3.557,3.088-3.557c2.062,0,3.094,1.186,3.094,3.557v3.322
						c0,0.482-0.053,0.939-0.156,1.367c-0.104,0.43-0.275,0.807-0.516,1.129c-0.241,0.324-0.559,0.58-0.955,0.768
						c-0.395,0.188-0.884,0.281-1.467,0.281s-1.071-0.092-1.465-0.273c-0.393-0.182-0.71-0.432-0.951-0.746
						c-0.24-0.316-0.412-0.686-0.516-1.109s-0.156-0.879-0.156-1.367V42.25z M30.924,41.742c0-0.988-0.319-1.482-0.957-1.482
						c-0.195,0-0.355,0.045-0.479,0.137c-0.123,0.09-0.221,0.207-0.291,0.348s-0.117,0.301-0.143,0.477s-0.039,0.35-0.039,0.521
						v4.336c0,0.986,0.317,1.479,0.951,1.479c0.638,0,0.957-0.492,0.957-1.479V41.742z"/>
					<path fill="#A5A5A5" d="M34.182,38.889h2.553c0.458,0,0.854,0.061,1.186,0.184c0.333,0.123,0.607,0.303,0.822,0.543
						s0.374,0.537,0.476,0.893c0.102,0.354,0.152,0.762,0.152,1.223c0,0.576-0.069,1.051-0.208,1.424
						c-0.139,0.375-0.34,0.67-0.602,0.887c-0.262,0.219-0.582,0.369-0.957,0.455s-0.801,0.129-1.273,0.133h-0.012v4.293h-2.137
						V38.889z M36.406,43.197c0.23,0,0.41-0.031,0.537-0.092c0.127-0.062,0.22-0.154,0.279-0.277
						c0.059-0.121,0.094-0.277,0.105-0.467s0.018-0.412,0.018-0.67c0-0.227-0.01-0.426-0.027-0.596
						c-0.018-0.172-0.057-0.312-0.117-0.426c-0.061-0.115-0.151-0.199-0.272-0.254c-0.122-0.057-0.286-0.084-0.493-0.084h-0.117
						v2.865H36.406z"/>
				</g>
				<g>
					<path fill="#8C8C8C" d="M22.735,40.6h-1.55v-1.516h5.207V40.6h-1.521v8.518h-2.136V40.6z"/>
					<path fill="#8C8C8C" d="M26.879,42.445c0-2.371,1.029-3.557,3.088-3.557c2.062,0,3.094,1.186,3.094,3.557v3.322
						c0,0.482-0.053,0.938-0.156,1.367s-0.275,0.807-0.516,1.129c-0.241,0.324-0.559,0.58-0.955,0.768
						c-0.395,0.188-0.884,0.281-1.467,0.281s-1.071-0.092-1.465-0.273c-0.393-0.182-0.71-0.432-0.951-0.748
						c-0.24-0.314-0.412-0.686-0.516-1.109c-0.104-0.422-0.156-0.877-0.156-1.365V42.445z M30.924,41.938
						c0-0.988-0.319-1.482-0.957-1.482c-0.195,0-0.355,0.045-0.479,0.137c-0.123,0.09-0.221,0.207-0.291,0.348
						s-0.117,0.301-0.143,0.477s-0.039,0.35-0.039,0.521v4.336c0,0.984,0.317,1.479,0.951,1.479c0.638,0,0.957-0.494,0.957-1.479
						V41.938z"/>
					<path fill="#787878" d="M34.182,39.084h2.553c0.458,0,0.854,0.061,1.186,0.184c0.333,0.123,0.607,0.303,0.822,0.543
						s0.374,0.537,0.476,0.893c0.102,0.354,0.152,0.762,0.152,1.223c0,0.576-0.069,1.051-0.208,1.424
						c-0.139,0.375-0.34,0.67-0.602,0.887s-0.582,0.369-0.957,0.455c-0.375,0.084-0.801,0.129-1.273,0.133h-0.012v4.293h-2.137
						V39.084z M36.406,43.393c0.23,0,0.41-0.031,0.537-0.092c0.127-0.062,0.22-0.154,0.279-0.277
						c0.059-0.121,0.094-0.277,0.105-0.467s0.018-0.414,0.018-0.67c0-0.227-0.01-0.426-0.027-0.596
						c-0.018-0.172-0.057-0.314-0.117-0.428s-0.151-0.197-0.272-0.252c-0.122-0.057-0.286-0.084-0.493-0.084h-0.117v2.865H36.406z"
						/>
				</g>
				<g>
					<path fill="#C8C8C8" d="M22.735,40.908h-1.55v-1.518h5.207v1.518h-1.521v8.518h-2.136V40.908z"/>
					<path fill="#C8C8C8" d="M26.879,42.752c0-2.371,1.029-3.555,3.088-3.555c2.062,0,3.094,1.184,3.094,3.555v3.322
						c0,0.484-0.053,0.939-0.156,1.369s-0.275,0.807-0.516,1.129c-0.241,0.324-0.559,0.578-0.955,0.766
						c-0.395,0.189-0.884,0.283-1.467,0.283s-1.071-0.092-1.465-0.273c-0.393-0.182-0.71-0.432-0.951-0.748
						c-0.24-0.314-0.412-0.686-0.516-1.109s-0.156-0.879-0.156-1.365V42.752z M30.924,42.246c0-0.988-0.319-1.482-0.957-1.482
						c-0.195,0-0.355,0.045-0.479,0.135c-0.123,0.092-0.221,0.209-0.291,0.35s-0.117,0.299-0.143,0.477
						c-0.025,0.176-0.039,0.35-0.039,0.521v4.336c0,0.984,0.317,1.477,0.951,1.477c0.638,0,0.957-0.492,0.957-1.477V42.246z"/>
					<path fill="#C8C8C8" d="M34.182,39.391h2.553c0.458,0,0.854,0.062,1.186,0.186c0.333,0.121,0.607,0.303,0.822,0.543
						s0.374,0.537,0.476,0.893c0.102,0.354,0.152,0.762,0.152,1.223c0,0.576-0.069,1.051-0.208,1.424s-0.34,0.67-0.602,0.887
						S37.979,44.914,37.604,45c-0.375,0.084-0.801,0.129-1.273,0.133h-0.012v4.293h-2.137V39.391z M36.406,43.701
						c0.23,0,0.41-0.031,0.537-0.092c0.127-0.062,0.22-0.154,0.279-0.277c0.059-0.123,0.094-0.277,0.105-0.469
						c0.012-0.189,0.018-0.412,0.018-0.668c0-0.227-0.01-0.426-0.027-0.596c-0.018-0.172-0.057-0.314-0.117-0.428
						s-0.151-0.197-0.272-0.254c-0.122-0.055-0.286-0.082-0.493-0.082h-0.117v2.865H36.406z"/>
				</g>
			</g>
		</g>
		<g>
			<g>
				<polygon fill="#646464" points="18.986,30.994 29.744,16 30.215,16 41.014,30.979 				"/>
			</g>
		</g>
		<g>
			<g>
				<polygon fill="#FFFFFF" points="19,32.996 29.744,17.996 30.215,17.996 41,32.98 				"/>
			</g>
		</g>
		<g>
			<g>
				<polygon fill="#A92C4F" points="18.986,31.994 29.744,17 30.215,17 41.014,31.979 				"/>
			</g>
		</g>
	</g>
</g>
</svg>
