<?xml version="1.0" encoding="utf-8"?>
<!-- Generator: Adobe Illustrator 15.0.2, SVG Export Plug-In . SVG Version: 6.00 Build 0)  -->
<!DOCTYPE svg PUBLIC "-//W3C//DTD SVG 1.1//EN" "http://www.w3.org/Graphics/SVG/1.1/DTD/svg11.dtd">
<svg version="1.1" id="Layer_1" xmlns="http://www.w3.org/2000/svg" xmlns:xlink="http://www.w3.org/1999/xlink" x="0px" y="0px"
	 width="60px" height="54px" viewBox="0 0 60 54" enable-background="new 0 0 60 54" xml:space="preserve">
<g>
	<g>
		<polyline fill="#A5A5A5" points="60,0 60,40.08 35.059,54 24.997,54 0,40.08 0,0 		"/>
		<polyline fill="#F0F0F0" points="59,0 59,39.496 34.996,53 24.996,52.984 1.002,39.461 1,0 		"/>
	</g>
	<g>
		<g>
			<polyline fill="#FFFFFF" points="25.095,42.01 19.397,36.311 19.397,35.268 24.351,31.357 30.014,25.694 35.66,31.369 
				40.559,35.262 40.609,36.32 34.973,41.957 30.06,37.045 25.095,42.01 			"/>
			<polyline fill="#646464" points="34.953,18.506 40.613,24.167 40.615,25.372 35.66,29.121 30.061,34.795 24.351,29.107 
				19.386,25.348 19.386,24.143 25.049,18.48 30.014,23.446 34.953,18.506 			"/>
		</g>
		<g>
			<polyline fill="#A92C4F" points="34.953,19.711 40.615,25.372 35.66,30.326 40.611,35.275 34.973,40.914 30.061,36 
				25.096,40.965 19.397,35.268 24.352,30.314 19.386,25.348 25.049,19.686 30.014,24.651 34.953,19.711 			"/>
			<polyline fill="#A92C4F" points="25.096,40.965 19.397,35.268 24.352,30.314 19.386,25.348 25.049,19.686 30.014,24.651 
				34.953,19.711 40.615,25.372 35.66,30.326 40.611,35.275 34.973,40.914 30.061,36 25.096,40.965 			"/>
		</g>
	</g>
</g>
</svg>
