<?xml version="1.0" encoding="utf-8"?>
<!-- Generator: Adobe Illustrator 15.0.2, SVG Export Plug-In . SVG Version: 6.00 Build 0)  -->
<!DOCTYPE svg PUBLIC "-//W3C//DTD SVG 1.1//EN" "http://www.w3.org/Graphics/SVG/1.1/DTD/svg11.dtd">
<svg version="1.1" id="Layer_1" xmlns="http://www.w3.org/2000/svg" xmlns:xlink="http://www.w3.org/1999/xlink" x="0px" y="0px"
	 width="60px" height="54px" viewBox="0 0 60 54" enable-background="new 0 0 60 54" xml:space="preserve">
<g>
	<g>
		<polyline fill="#A5A5A5" points="59.921,0 59.921,36.084 34.922,50 24.922,50 -0.079,36.084 -0.079,0 		"/>
		<polyline fill="#EBEBEB" points="58.921,0 58.921,35.5 34.857,49 24.922,48.984 0.922,35.465 0.921,0 		"/>
	</g>
	<g>
		<g>
			<polyline fill="#FFFFFF" points="24.937,37.99 19.238,32.291 19.239,31.727 24.192,27.338 29.855,21.674 35.502,27.35 
				40.4,31.736 40.451,32.301 34.814,37.938 29.901,33.025 24.937,37.99 			"/>
			<polyline fill="#646464" points="34.795,15.799 40.455,21.46 40.456,21.832 35.502,26.414 29.902,32.09 24.192,26.402 
				19.228,21.808 19.228,21.437 24.891,15.773 29.855,20.739 34.795,15.799 			"/>
		</g>
		<g>
			<polyline fill="#A92C4F" points="34.795,16.171 40.456,21.832 35.502,26.785 40.452,31.736 34.814,37.373 29.902,32.461 
				24.937,37.426 19.239,31.727 24.193,26.773 19.228,21.808 24.891,16.146 29.855,21.111 34.795,16.171 			"/>
			<polyline fill="#A92C4F" points="24.937,37.426 19.239,31.727 24.193,26.773 19.228,21.808 24.891,16.146 29.855,21.111 
				34.795,16.171 40.456,21.832 35.502,26.785 40.452,31.736 34.814,37.373 29.902,32.461 24.937,37.426 			"/>
		</g>
	</g>
</g>
</svg>
