<?xml version="1.0" encoding="utf-8"?>
<!-- Generator: Adobe Illustrator 15.0.2, SVG Export Plug-In . SVG Version: 6.00 Build 0)  -->
<!DOCTYPE svg PUBLIC "-//W3C//DTD SVG 1.1//EN" "http://www.w3.org/Graphics/SVG/1.1/DTD/svg11.dtd">
<svg version="1.1" id="Layer_1" xmlns="http://www.w3.org/2000/svg" xmlns:xlink="http://www.w3.org/1999/xlink" x="0px" y="0px"
	 width="270px" height="250px" viewBox="0 0 270 250" enable-background="new 0 0 270 250" xml:space="preserve">
<g>
	<path opacity="0.1" fill="#A5A5A5" d="M269.934,236.031c0.148-5.098-60.893-1.412-136.471-3.611
		C57.886,230.22,0.255,237.904,0.106,243.001c-0.148,5.1,59.514,4.473,135.091,6.672
		C210.775,251.875,269.785,241.13,269.934,236.031z"/>
	<g>
		<linearGradient id="SVGID_1_" gradientUnits="userSpaceOnUse" x1="60.0669" y1="222.3208" x2="60.0669" y2="2.0039">
			<stop  offset="0.5059" style="stop-color:#828282"/>
			<stop  offset="0.6235" style="stop-color:#646464"/>
		</linearGradient>
		<polygon fill="url(#SVGID_1_)" points="23.388,222.321 96.724,222.321 96.735,80.113 120.068,80.113 60.066,2.004 0.065,80.102 
			23.399,80.121 		"/>
		<linearGradient id="SVGID_2_" gradientUnits="userSpaceOnUse" x1="63.0659" y1="222.3208" x2="63.0659" y2="2.273737e-13">
			<stop  offset="0.5059" style="stop-color:#BF2C54"/>
			<stop  offset="0.6235" style="stop-color:#961E3C"/>
		</linearGradient>
		<polygon fill="url(#SVGID_2_)" points="26.388,222.321 99.75,222.321 99.735,78.109 123.068,78.109 63.066,0 3.064,78.098 
			26.398,78.117 		"/>
		<g>
			<g>
				<path fill="#828282" d="M36.261,56.318v-2.096c2.734-0.547,3.494-2.734,3.494-2.734h1.975v22.33h-3.281V56.318H36.261z"/>
				<path fill="#828282" d="M48.383,68.956H43.31V66.07l4.8-14.583h3.281V66.07h1.519v2.886h-1.519v4.861h-3.008V68.956z
					 M46.105,66.07h2.278v-6.987v-0.668h-0.182l-0.182,0.668L46.105,66.07z"/>
				<path fill="#828282" d="M58.472,74.06c-4.405,0-4.375-4.831-4.375-4.831V56.075c0,0-0.03-4.831,4.375-4.831
					c4.405,0,4.375,4.831,4.375,4.831v13.155C62.846,69.229,62.876,74.06,58.472,74.06z M58.472,54.434
					c-1.155,0-1.094,1.641-1.094,1.641v13.155c0,0-0.061,1.641,1.094,1.641c1.154,0,1.094-1.641,1.094-1.641V56.075
					C59.565,56.075,59.626,54.434,58.472,54.434z"/>
				<path fill="#828282" d="M69.228,74.06c-4.405,0-4.375-4.831-4.375-4.831V56.075c0,0-0.03-4.831,4.375-4.831
					c4.405,0,4.375,4.831,4.375,4.831v13.155C73.603,69.229,73.633,74.06,69.228,74.06z M69.228,54.434
					c-1.155,0-1.094,1.641-1.094,1.641v13.155c0,0-0.061,1.641,1.094,1.641c1.154,0,1.094-1.641,1.094-1.641V56.075
					C70.322,56.075,70.382,54.434,69.228,54.434z"/>
				<path fill="#828282" d="M77.797,62.91c-2.4,0-2.37-2.612-2.37-2.612v-6.471c0,0-0.03-2.583,2.37-2.583
					c2.339,0,2.339,2.583,2.339,2.583v6.471C80.136,60.298,80.136,62.91,77.797,62.91z M76.946,73.817l8.203-22.33h1.944
					l-8.112,22.33H76.946z M77.797,53.006c-0.607,0-0.547,0.82-0.547,0.82v6.471c0,0-0.061,0.82,0.547,0.82
					c0.547,0,0.517-0.82,0.517-0.82v-6.471C78.313,53.827,78.344,53.006,77.797,53.006z M86.334,74.06c-2.4,0-2.37-2.583-2.37-2.583
					v-6.471c0,0-0.03-2.613,2.37-2.613c2.339,0,2.339,2.613,2.339,2.613v6.471C88.673,71.478,88.673,74.06,86.334,74.06z
					 M86.334,64.187c-0.607,0-0.547,0.82-0.547,0.82v6.471c0,0-0.061,0.851,0.547,0.851c0.547,0,0.517-0.851,0.517-0.851v-6.471
					C86.851,65.007,86.881,64.187,86.334,64.187z"/>
			</g>
			<g>
				<path fill="#FFFFFF" d="M36.877,55.859v-2.096c2.734-0.547,3.494-2.734,3.494-2.734h1.975v22.33h-3.281V55.859H36.877z"/>
				<path fill="#FFFFFF" d="M49,68.498h-5.073v-2.886l4.8-14.583h3.281v14.583h1.519v2.886h-1.519v4.861H49V68.498z M46.721,65.611
					H49v-6.987v-0.668h-0.182l-0.182,0.668L46.721,65.611z"/>
				<path fill="#FFFFFF" d="M59.088,73.602c-4.405,0-4.375-4.831-4.375-4.831V55.616c0,0-0.03-4.831,4.375-4.831
					c4.405,0,4.375,4.831,4.375,4.831v13.155C63.462,68.771,63.493,73.602,59.088,73.602z M59.088,53.976
					c-1.155,0-1.094,1.641-1.094,1.641v13.155c0,0-0.061,1.641,1.094,1.641c1.154,0,1.094-1.641,1.094-1.641V55.616
					C60.182,55.616,60.242,53.976,59.088,53.976z"/>
				<path fill="#FFFFFF" d="M69.844,73.602c-4.405,0-4.375-4.831-4.375-4.831V55.616c0,0-0.03-4.831,4.375-4.831
					c4.405,0,4.375,4.831,4.375,4.831v13.155C74.219,68.771,74.249,73.602,69.844,73.602z M69.844,53.976
					c-1.155,0-1.094,1.641-1.094,1.641v13.155c0,0-0.061,1.641,1.094,1.641c1.154,0,1.094-1.641,1.094-1.641V55.616
					C70.938,55.616,70.999,53.976,69.844,53.976z"/>
				<path fill="#FFFFFF" d="M78.413,62.452c-2.4,0-2.37-2.612-2.37-2.612v-6.471c0,0-0.03-2.583,2.37-2.583
					c2.339,0,2.339,2.583,2.339,2.583v6.471C80.752,59.839,80.752,62.452,78.413,62.452z M77.562,73.358l8.203-22.33h1.944
					l-8.112,22.33H77.562z M78.413,52.548c-0.607,0-0.547,0.82-0.547,0.82v6.471c0,0-0.061,0.82,0.547,0.82
					c0.547,0,0.517-0.82,0.517-0.82v-6.471C78.93,53.368,78.96,52.548,78.413,52.548z M86.95,73.602c-2.4,0-2.37-2.583-2.37-2.583
					v-6.471c0,0-0.03-2.613,2.37-2.613c2.339,0,2.339,2.613,2.339,2.613v6.471C89.29,71.019,89.29,73.602,86.95,73.602z
					 M86.95,63.728c-0.607,0-0.546,0.82-0.546,0.82v6.471c0,0-0.061,0.851,0.546,0.851c0.547,0,0.517-0.851,0.517-0.851v-6.471
					C87.467,64.548,87.497,63.728,86.95,63.728z"/>
			</g>
		</g>
	</g>
	<g>
		<g>
			<path fill="#5E5E5E" d="M104.289,113.357h4.66v23.045h-4.66V113.357z"/>
			<path fill="#5E5E5E" d="M111.522,119.605h4.314v1.268c0.41-0.47,0.902-0.846,1.479-1.127c0.576-0.282,1.176-0.423,1.799-0.423
				c0.469,0,0.888,0.111,1.255,0.333c0.367,0.223,0.676,0.506,0.928,0.852c0.251,0.346,0.443,0.734,0.576,1.165
				c0.132,0.431,0.198,0.852,0.198,1.261v13.469h-4.314v-12.713c0-0.743-0.239-1.114-0.717-1.114c-0.102,0-0.211,0.025-0.326,0.077
				c-0.115,0.051-0.216,0.115-0.301,0.192l-0.269,0.256c-0.051,0.051-0.089,0.092-0.115,0.121c-0.025,0.03-0.089,0.104-0.192,0.225
				v12.956h-4.314V119.605z"/>
			<path fill="#5E5E5E" d="M124.184,124.957c0-1.775,0.422-3.16,1.268-4.155c0.845-0.994,2.134-1.491,3.866-1.491
				c1.741,0,3.032,0.495,3.872,1.485c0.842,0.99,1.262,2.377,1.262,4.161v1.459h-4.237v-1.907c0-0.666-0.058-1.154-0.173-1.466
				s-0.356-0.468-0.724-0.468c-0.546,0-0.819,0.423-0.819,1.268v8.271c0,0.939,0.273,1.408,0.819,1.408
				c0.205,0,0.369-0.042,0.493-0.128c0.124-0.085,0.213-0.23,0.269-0.436c0.056-0.204,0.092-0.416,0.109-0.634
				c0.017-0.217,0.026-0.522,0.026-0.915v-1.779h4.237v2.496c0,0.922-0.238,1.743-0.717,2.465s-1.105,1.266-1.883,1.632
				c-0.775,0.367-1.621,0.551-2.534,0.551c-1.408,0-2.616-0.429-3.623-1.286c-1.007-0.858-1.511-1.979-1.511-3.361V124.957z"/>
			<path fill="#5E5E5E" d="M136.27,119.605h4.289v1.446c0.657-1.066,1.426-1.601,2.305-1.601c0.247,0,0.636,0.043,1.165,0.128
				l-0.256,3.637c-0.785-0.086-1.259-0.128-1.421-0.128c-0.589,0-1.035,0.181-1.338,0.544c-0.304,0.362-0.455,0.881-0.455,1.556
				v11.215h-4.289V119.605z"/>
			<path fill="#5E5E5E" d="M145.207,124.957c0-0.888,0.104-1.682,0.313-2.382c0.209-0.699,0.526-1.291,0.953-1.773
				c0.427-0.481,0.961-0.851,1.601-1.107c0.641-0.256,1.396-0.384,2.267-0.384c0.87,0,1.628,0.126,2.272,0.378
				s1.178,0.619,1.6,1.101c0.423,0.482,0.738,1.074,0.948,1.773c0.209,0.7,0.313,1.498,0.313,2.395v3.456h-5.953v3.7
				c0,0.939,0.272,1.408,0.819,1.408c0.597,0,0.896-0.503,0.896-1.511v-1.83h4.238v1.882c0,0.699-0.137,1.338-0.41,1.914
				s-0.645,1.071-1.113,1.484c-0.47,0.414-1.016,0.736-1.639,0.967s-1.28,0.346-1.972,0.346s-1.349-0.115-1.972-0.346
				s-1.17-0.553-1.639-0.967c-0.47-0.413-0.841-0.91-1.114-1.491c-0.273-0.58-0.409-1.216-0.409-1.907V124.957z M151.198,126.147
				v-2.305c0-0.845-0.286-1.268-0.857-1.268c-0.547,0-0.819,0.423-0.819,1.268v2.305H151.198z"/>
			<path fill="#5E5E5E" d="M163.758,134.673c-0.248,0.777-0.653,1.321-1.217,1.633s-1.263,0.467-2.1,0.467
				c-0.614,0-1.152-0.119-1.613-0.358c-0.461-0.238-0.821-0.561-1.082-0.967c-0.26-0.405-0.452-0.84-0.576-1.306
				c-0.123-0.465-0.186-0.954-0.186-1.466c0-0.58,0.06-1.118,0.18-1.613c0.119-0.495,0.271-0.933,0.454-1.312
				c0.184-0.379,0.439-0.744,0.769-1.095c0.328-0.35,0.648-0.646,0.96-0.89s0.711-0.494,1.197-0.755s0.922-0.479,1.306-0.653
				s0.866-0.382,1.447-0.621v-1.408c0-0.589-0.073-1.028-0.218-1.318c-0.146-0.29-0.393-0.436-0.743-0.436
				c-0.238,0-0.433,0.05-0.582,0.147c-0.149,0.099-0.254,0.245-0.313,0.441c-0.061,0.196-0.099,0.374-0.115,0.531
				c-0.018,0.158-0.026,0.369-0.026,0.634v0.947h-4.187c0-1.92,0.482-3.395,1.447-4.423c0.964-1.028,2.364-1.543,4.199-1.543
				c1.28,0,2.402,0.466,3.367,1.396c0.964,0.931,1.446,2.036,1.446,3.316v7.938c0,1.374,0.184,2.854,0.551,4.442h-3.943
				L163.758,134.673z M163.297,128.515c-1.408,1.136-2.113,2.391-2.113,3.765c0,0.341,0.066,0.634,0.199,0.877
				c0.132,0.243,0.355,0.364,0.672,0.364c0.179,0,0.356-0.058,0.531-0.173s0.301-0.215,0.378-0.301
				c0.076-0.085,0.191-0.226,0.346-0.422L163.297,128.515z"/>
			<path fill="#5E5E5E" d="M172.693,131.191l0.205,0.602c0.068,0.197,0.151,0.401,0.249,0.615c0.099,0.213,0.216,0.409,0.353,0.589
				c0.137,0.179,0.29,0.326,0.461,0.441s0.367,0.173,0.589,0.173c0.538,0,0.807-0.315,0.807-0.947c0-0.333-0.088-0.653-0.263-0.96
				c-0.175-0.308-0.393-0.603-0.652-0.884c-0.261-0.281-0.54-0.548-0.839-0.8s-0.568-0.484-0.807-0.698l-0.704-0.602
				c-0.461-0.393-0.873-0.781-1.235-1.165c-0.363-0.384-0.671-0.774-0.922-1.172c-0.252-0.396-0.444-0.807-0.576-1.229
				c-0.133-0.423-0.198-0.868-0.198-1.338c0-0.743,0.151-1.394,0.454-1.952c0.303-0.56,0.704-1.029,1.203-1.408
				c0.5-0.38,1.076-0.664,1.729-0.852c0.653-0.188,1.325-0.282,2.017-0.282c0.648,0,1.248,0.133,1.799,0.397s1.046,0.614,1.485,1.05
				c0.439,0.435,0.817,0.935,1.133,1.498c0.315,0.562,0.559,1.139,0.729,1.728l-3.098,1.063l-0.257-0.628
				c-0.222-0.537-0.488-0.981-0.8-1.331c-0.312-0.351-0.685-0.547-1.12-0.589c-0.299,0-0.531,0.106-0.698,0.319
				c-0.166,0.214-0.249,0.457-0.249,0.73c0,0.384,0.207,0.805,0.621,1.261c0.413,0.457,0.983,0.992,1.709,1.606l0.794,0.704
				c0.4,0.358,0.782,0.732,1.146,1.12c0.362,0.389,0.683,0.794,0.96,1.217s0.497,0.854,0.659,1.293s0.243,0.89,0.243,1.351
				c0,0.666-0.128,1.285-0.384,1.856c-0.256,0.572-0.605,1.064-1.05,1.479c-0.443,0.414-0.962,0.738-1.556,0.974
				c-0.593,0.234-1.223,0.352-1.888,0.352c-0.649,0-1.26-0.106-1.831-0.32c-0.572-0.213-1.088-0.514-1.549-0.902
				c-0.461-0.388-0.86-0.852-1.197-1.389c-0.338-0.538-0.596-1.136-0.774-1.793L172.693,131.191z"/>
			<path fill="#5E5E5E" d="M180.926,124.957c0-0.888,0.104-1.682,0.313-2.382c0.209-0.699,0.526-1.291,0.953-1.773
				c0.427-0.481,0.961-0.851,1.601-1.107c0.641-0.256,1.396-0.384,2.267-0.384c0.87,0,1.628,0.126,2.272,0.378
				s1.178,0.619,1.6,1.101c0.423,0.482,0.738,1.074,0.948,1.773c0.209,0.7,0.313,1.498,0.313,2.395v3.456h-5.953v3.7
				c0,0.939,0.272,1.408,0.819,1.408c0.597,0,0.896-0.503,0.896-1.511v-1.83h4.238v1.882c0,0.699-0.137,1.338-0.41,1.914
				s-0.645,1.071-1.113,1.484c-0.47,0.414-1.016,0.736-1.639,0.967s-1.28,0.346-1.972,0.346s-1.349-0.115-1.972-0.346
				s-1.17-0.553-1.639-0.967c-0.47-0.413-0.841-0.91-1.114-1.491c-0.273-0.58-0.409-1.216-0.409-1.907V124.957z M186.917,126.147
				v-2.305c0-0.845-0.286-1.268-0.857-1.268c-0.547,0-0.819,0.423-0.819,1.268v2.305H186.917z"/>
			<path fill="#5E5E5E" d="M196.75,114.112h4.314v4.033h-4.314V114.112z M196.75,119.605h4.314v16.797h-4.314V119.605z"/>
			<path fill="#5E5E5E" d="M203.496,119.605h4.314v1.268c0.41-0.47,0.903-0.846,1.479-1.127c0.576-0.282,1.175-0.423,1.799-0.423
				c0.469,0,0.887,0.111,1.254,0.333c0.367,0.223,0.677,0.506,0.929,0.852s0.443,0.734,0.576,1.165
				c0.132,0.431,0.198,0.852,0.198,1.261v13.469h-4.314v-12.713c0-0.743-0.239-1.114-0.717-1.114c-0.103,0-0.212,0.025-0.327,0.077
				c-0.115,0.051-0.215,0.115-0.301,0.192l-0.269,0.256c-0.051,0.051-0.09,0.092-0.115,0.121c-0.025,0.03-0.09,0.104-0.192,0.225
				v12.956h-4.314V119.605z"/>
			<path fill="#5E5E5E" d="M222.676,131.191l0.205,0.602c0.068,0.197,0.151,0.401,0.249,0.615c0.099,0.213,0.216,0.409,0.353,0.589
				c0.137,0.179,0.29,0.326,0.461,0.441s0.367,0.173,0.589,0.173c0.538,0,0.807-0.315,0.807-0.947c0-0.333-0.088-0.653-0.263-0.96
				c-0.175-0.308-0.393-0.603-0.652-0.884c-0.261-0.281-0.54-0.548-0.839-0.8s-0.568-0.484-0.807-0.698l-0.704-0.602
				c-0.461-0.393-0.873-0.781-1.235-1.165c-0.363-0.384-0.671-0.774-0.922-1.172c-0.252-0.396-0.444-0.807-0.576-1.229
				c-0.133-0.423-0.198-0.868-0.198-1.338c0-0.743,0.151-1.394,0.454-1.952c0.303-0.56,0.704-1.029,1.203-1.408
				c0.5-0.38,1.076-0.664,1.729-0.852c0.653-0.188,1.325-0.282,2.017-0.282c0.648,0,1.248,0.133,1.799,0.397s1.046,0.614,1.485,1.05
				c0.439,0.435,0.817,0.935,1.133,1.498c0.315,0.562,0.559,1.139,0.729,1.728l-3.098,1.063l-0.257-0.628
				c-0.222-0.537-0.488-0.981-0.8-1.331c-0.312-0.351-0.685-0.547-1.12-0.589c-0.299,0-0.531,0.106-0.698,0.319
				c-0.166,0.214-0.249,0.457-0.249,0.73c0,0.384,0.207,0.805,0.621,1.261c0.413,0.457,0.983,0.992,1.709,1.606l0.794,0.704
				c0.4,0.358,0.782,0.732,1.146,1.12c0.362,0.389,0.683,0.794,0.96,1.217s0.497,0.854,0.659,1.293s0.243,0.89,0.243,1.351
				c0,0.666-0.128,1.285-0.384,1.856c-0.256,0.572-0.605,1.064-1.05,1.479c-0.443,0.414-0.962,0.738-1.556,0.974
				c-0.593,0.234-1.223,0.352-1.888,0.352c-0.649,0-1.26-0.106-1.831-0.32c-0.572-0.213-1.088-0.514-1.549-0.902
				c-0.461-0.388-0.86-0.852-1.197-1.389c-0.338-0.538-0.596-1.136-0.774-1.793L222.676,131.191z"/>
			<path fill="#5E5E5E" d="M231.139,114.112h4.314v4.033h-4.314V114.112z M231.139,119.605h4.314v16.797h-4.314V119.605z"/>
			<path fill="#5E5E5E" d="M238.18,122.485h-1.229v-2.88h1.229v-5.403h4.314v5.403h2.074v2.88h-2.074v9.219
				c0,0.461,0.085,0.805,0.256,1.03c0.171,0.227,0.474,0.339,0.909,0.339c0.495,0,0.913-0.025,1.255-0.076l-0.256,3.341
				c-0.563,0.171-1.388,0.257-2.472,0.257c-0.503,0-0.958-0.061-1.363-0.18s-0.747-0.279-1.024-0.48
				c-0.277-0.2-0.517-0.454-0.717-0.762c-0.2-0.307-0.358-0.62-0.474-0.94s-0.205-0.693-0.269-1.12
				c-0.064-0.427-0.107-0.824-0.128-1.19c-0.021-0.367-0.032-0.786-0.032-1.255V122.485z"/>
			<path fill="#5E5E5E" d="M246.232,124.957c0-0.888,0.104-1.682,0.313-2.382c0.209-0.699,0.526-1.291,0.953-1.773
				c0.427-0.481,0.961-0.851,1.601-1.107c0.641-0.256,1.396-0.384,2.267-0.384c0.87,0,1.628,0.126,2.272,0.378
				s1.178,0.619,1.6,1.101c0.423,0.482,0.738,1.074,0.948,1.773c0.209,0.7,0.313,1.498,0.313,2.395v3.456h-5.953v3.7
				c0,0.939,0.272,1.408,0.819,1.408c0.597,0,0.896-0.503,0.896-1.511v-1.83h4.238v1.882c0,0.699-0.137,1.338-0.41,1.914
				s-0.645,1.071-1.113,1.484c-0.47,0.414-1.016,0.736-1.639,0.967s-1.28,0.346-1.972,0.346s-1.349-0.115-1.972-0.346
				s-1.17-0.553-1.639-0.967c-0.47-0.413-0.841-0.91-1.114-1.491c-0.273-0.58-0.409-1.216-0.409-1.907V124.957z M252.224,126.147
				v-2.305c0-0.845-0.286-1.268-0.857-1.268c-0.547,0-0.819,0.423-0.819,1.268v2.305H252.224z"/>
			<path fill="#5E5E5E" d="M104.417,150.647h-1.229v-2.88h1.229v-5.403h4.314v5.403h2.074v2.88h-2.074v9.219
				c0,0.461,0.085,0.805,0.256,1.03c0.171,0.227,0.474,0.339,0.909,0.339c0.495,0,0.913-0.025,1.254-0.076l-0.256,3.341
				c-0.563,0.171-1.387,0.257-2.471,0.257c-0.504,0-0.958-0.061-1.364-0.18s-0.747-0.279-1.024-0.48
				c-0.278-0.2-0.517-0.454-0.717-0.762c-0.201-0.307-0.358-0.62-0.474-0.94s-0.205-0.693-0.269-1.12
				c-0.064-0.427-0.106-0.824-0.128-1.19c-0.021-0.367-0.032-0.786-0.032-1.255V150.647z"/>
			<path fill="#5E5E5E" d="M112.674,147.767h4.289v1.446c0.657-1.066,1.425-1.601,2.305-1.601c0.248,0,0.636,0.043,1.165,0.128
				l-0.256,3.637c-0.786-0.086-1.259-0.128-1.421-0.128c-0.589,0-1.035,0.181-1.338,0.544c-0.303,0.362-0.455,0.881-0.455,1.556
				v11.215h-4.289V147.767z"/>
			<path fill="#5E5E5E" d="M128.127,162.835c-0.248,0.777-0.653,1.321-1.216,1.633c-0.563,0.312-1.263,0.467-2.1,0.467
				c-0.614,0-1.152-0.119-1.613-0.358c-0.46-0.238-0.821-0.561-1.082-0.967c-0.261-0.405-0.453-0.84-0.576-1.306
				c-0.124-0.465-0.186-0.954-0.186-1.466c0-0.58,0.06-1.118,0.179-1.613c0.119-0.495,0.271-0.933,0.455-1.312
				c0.183-0.379,0.439-0.744,0.768-1.095c0.329-0.35,0.648-0.646,0.96-0.89s0.711-0.494,1.197-0.755s0.922-0.479,1.306-0.653
				c0.384-0.175,0.866-0.382,1.447-0.621v-1.408c0-0.589-0.073-1.028-0.218-1.318s-0.393-0.436-0.742-0.436
				c-0.239,0-0.434,0.05-0.583,0.147c-0.149,0.099-0.254,0.245-0.314,0.441s-0.098,0.374-0.115,0.531
				c-0.017,0.158-0.025,0.369-0.025,0.634v0.947h-4.187c0-1.92,0.482-3.395,1.447-4.423c0.964-1.028,2.364-1.543,4.199-1.543
				c1.28,0,2.402,0.466,3.367,1.396c0.964,0.931,1.446,2.036,1.446,3.316v7.938c0,1.374,0.184,2.854,0.551,4.442h-3.943
				L128.127,162.835z M127.666,156.677c-1.408,1.136-2.112,2.391-2.112,3.765c0,0.341,0.066,0.634,0.198,0.877
				s0.356,0.364,0.672,0.364c0.179,0,0.356-0.058,0.531-0.173s0.301-0.215,0.377-0.301c0.077-0.085,0.192-0.226,0.346-0.422
				L127.666,156.677z"/>
			<path fill="#5E5E5E" d="M134.913,150.647h-0.974v-2.88h0.974v-0.026c0.008-0.452,0.029-0.874,0.063-1.267
				s0.096-0.812,0.186-1.255c0.09-0.444,0.222-0.826,0.397-1.146c0.175-0.319,0.395-0.616,0.659-0.89
				c0.265-0.272,0.602-0.479,1.011-0.621c0.41-0.141,0.88-0.211,1.409-0.211c0.811,0,1.715,0.06,2.714,0.18v3.226l-1.127-0.076
				c-0.358,0-0.614,0.101-0.768,0.301c-0.154,0.2-0.23,0.565-0.23,1.095v0.691h2.087v2.88h-2.087v13.917h-4.314V150.647z"/>
			<path fill="#5E5E5E" d="M143.196,150.647h-0.974v-2.88h0.974v-0.026c0.008-0.452,0.029-0.874,0.063-1.267
				s0.096-0.812,0.186-1.255c0.09-0.444,0.222-0.826,0.397-1.146c0.175-0.319,0.395-0.616,0.659-0.89
				c0.265-0.272,0.602-0.479,1.011-0.621c0.41-0.141,0.88-0.211,1.409-0.211c0.811,0,1.715,0.06,2.714,0.18v3.226l-1.127-0.076
				c-0.358,0-0.614,0.101-0.768,0.301c-0.154,0.2-0.23,0.565-0.23,1.095v0.691h2.087v2.88h-2.087v13.917h-4.314V150.647z"/>
			<path fill="#5E5E5E" d="M150.903,142.274h4.314v4.033h-4.314V142.274z M150.903,147.767h4.314v16.797h-4.314V147.767z"/>
			<path fill="#5E5E5E" d="M157.445,153.119c0-1.775,0.422-3.16,1.267-4.155c0.846-0.994,2.134-1.491,3.867-1.491
				c1.741,0,3.032,0.495,3.872,1.485c0.841,0.99,1.262,2.377,1.262,4.161v1.459h-4.238v-1.907c0-0.666-0.058-1.154-0.173-1.466
				s-0.356-0.468-0.723-0.468c-0.547,0-0.819,0.423-0.819,1.268v8.271c0,0.939,0.272,1.408,0.819,1.408
				c0.204,0,0.369-0.042,0.492-0.128c0.124-0.085,0.214-0.23,0.27-0.436c0.055-0.204,0.092-0.416,0.108-0.634
				c0.018-0.217,0.025-0.522,0.025-0.915v-1.779h4.238v2.496c0,0.922-0.239,1.743-0.717,2.465c-0.479,0.722-1.105,1.266-1.883,1.632
				c-0.776,0.367-1.621,0.551-2.534,0.551c-1.408,0-2.616-0.429-3.623-1.286c-1.008-0.858-1.511-1.979-1.511-3.361V153.119z"/>
			<path fill="#5E5E5E" d="M172.232,147.767h3.598l1.331,10.396l1.383-10.396h3.252l1.255,10.601l1.459-10.601h3.329l-2.471,16.797
				h-3.713l-1.575-9.871l-1.689,9.871h-3.713L172.232,147.767z"/>
			<path fill="#5E5E5E" d="M189.414,142.274h4.314v4.033h-4.314V142.274z M189.414,147.767h4.314v16.797h-4.314V147.767z"/>
			<path fill="#5E5E5E" d="M196.455,150.647h-1.229v-2.88h1.229v-5.403h4.314v5.403h2.074v2.88h-2.074v9.219
				c0,0.461,0.085,0.805,0.256,1.03c0.171,0.227,0.474,0.339,0.909,0.339c0.495,0,0.913-0.025,1.255-0.076l-0.256,3.341
				c-0.563,0.171-1.388,0.257-2.472,0.257c-0.503,0-0.958-0.061-1.363-0.18s-0.747-0.279-1.024-0.48
				c-0.277-0.2-0.517-0.454-0.717-0.762c-0.2-0.307-0.358-0.62-0.474-0.94s-0.205-0.693-0.269-1.12
				c-0.064-0.427-0.107-0.824-0.128-1.19c-0.021-0.367-0.032-0.786-0.032-1.255V150.647z"/>
			<path fill="#5E5E5E" d="M204.712,141.519h4.314v7.528c0.419-0.47,0.916-0.85,1.492-1.14s1.171-0.436,1.786-0.436
				c0.589,0,1.115,0.188,1.581,0.563c0.465,0.376,0.811,0.837,1.037,1.383c0.226,0.546,0.339,1.109,0.339,1.689v13.456h-4.314
				v-12.329c0-0.034,0.002-0.108,0.006-0.224c0.005-0.115,0.005-0.209,0-0.282c-0.004-0.072-0.008-0.166-0.013-0.281
				c-0.004-0.115-0.019-0.207-0.045-0.275c-0.025-0.068-0.06-0.141-0.102-0.218c-0.043-0.077-0.101-0.132-0.173-0.166
				c-0.073-0.034-0.16-0.052-0.263-0.052c-0.171,0-0.354,0.068-0.551,0.205s-0.337,0.252-0.423,0.346
				c-0.085,0.094-0.204,0.23-0.358,0.409v12.867h-4.314V141.519z"/>
			<path fill="#5E5E5E" d="M217.605,142.274h4.314v4.033h-4.314V142.274z M217.605,147.767h4.314v16.797h-4.314V147.767z"/>
			<path fill="#5E5E5E" d="M224.352,147.767h4.314v1.268c0.41-0.47,0.903-0.846,1.479-1.127c0.576-0.282,1.175-0.423,1.799-0.423
				c0.469,0,0.887,0.111,1.254,0.333c0.367,0.223,0.677,0.506,0.929,0.852s0.443,0.734,0.576,1.165
				c0.132,0.431,0.198,0.852,0.198,1.261v13.469h-4.314v-12.713c0-0.743-0.239-1.114-0.717-1.114c-0.103,0-0.212,0.025-0.327,0.077
				c-0.115,0.051-0.215,0.115-0.301,0.192l-0.269,0.256c-0.051,0.051-0.09,0.092-0.115,0.121c-0.025,0.03-0.09,0.104-0.192,0.225
				v12.956h-4.314V147.767z"/>
			<path fill="#5E5E5E" d="M104.417,178.809h-1.229v-2.88h1.229v-5.403h4.314v5.403h2.074v2.88h-2.074v9.219
				c0,0.461,0.085,0.805,0.256,1.03c0.171,0.227,0.474,0.339,0.909,0.339c0.495,0,0.913-0.025,1.254-0.076l-0.256,3.341
				c-0.563,0.171-1.387,0.257-2.471,0.257c-0.504,0-0.958-0.061-1.364-0.18s-0.747-0.279-1.024-0.48
				c-0.278-0.2-0.517-0.454-0.717-0.762c-0.201-0.307-0.358-0.62-0.474-0.94s-0.205-0.693-0.269-1.12
				c-0.064-0.427-0.106-0.824-0.128-1.19c-0.021-0.367-0.032-0.786-0.032-1.255V178.809z"/>
			<path fill="#5E5E5E" d="M112.674,169.681h4.314v7.528c0.418-0.47,0.916-0.85,1.491-1.14c0.576-0.29,1.172-0.436,1.786-0.436
				c0.589,0,1.116,0.188,1.581,0.563c0.465,0.376,0.811,0.837,1.037,1.383s0.339,1.109,0.339,1.689v13.456h-4.314v-12.329
				c0-0.034,0.002-0.108,0.006-0.224s0.004-0.209,0-0.282c-0.004-0.072-0.009-0.166-0.013-0.281
				c-0.004-0.115-0.02-0.207-0.045-0.275c-0.026-0.068-0.06-0.141-0.103-0.218s-0.1-0.132-0.173-0.166s-0.16-0.052-0.262-0.052
				c-0.171,0-0.354,0.068-0.551,0.205s-0.337,0.252-0.422,0.346s-0.205,0.23-0.358,0.409v12.867h-4.314V169.681z"/>
			<path fill="#5E5E5E" d="M125.336,181.281c0-0.888,0.104-1.682,0.314-2.382c0.209-0.699,0.527-1.291,0.954-1.773
				c0.427-0.481,0.96-0.851,1.6-1.107c0.64-0.256,1.396-0.384,2.266-0.384c0.87,0,1.628,0.126,2.272,0.378s1.178,0.619,1.6,1.101
				c0.424,0.482,0.738,1.074,0.949,1.773c0.209,0.7,0.312,1.498,0.312,2.395v3.456h-5.953v3.7c0,0.939,0.273,1.408,0.819,1.408
				c0.598,0,0.896-0.503,0.896-1.511v-1.83h4.238v1.882c0,0.699-0.137,1.338-0.41,1.914s-0.645,1.071-1.113,1.484
				c-0.469,0.414-1.016,0.736-1.639,0.967s-1.28,0.346-1.972,0.346s-1.349-0.115-1.972-0.346s-1.169-0.553-1.639-0.967
				c-0.469-0.413-0.841-0.91-1.114-1.491c-0.273-0.58-0.41-1.216-0.41-1.907V181.281z M131.328,182.471v-2.305
				c0-0.845-0.287-1.268-0.858-1.268c-0.546,0-0.819,0.423-0.819,1.268v2.305H131.328z"/>
			<path fill="#5E5E5E" d="M141.737,178.809h-0.974v-2.88h0.974v-0.026c0.008-0.452,0.029-0.874,0.063-1.267
				s0.096-0.812,0.186-1.255c0.09-0.444,0.222-0.826,0.397-1.146c0.175-0.319,0.395-0.616,0.659-0.89
				c0.265-0.272,0.602-0.479,1.011-0.621c0.41-0.141,0.88-0.211,1.409-0.211c0.811,0,1.715,0.06,2.714,0.18v3.226l-1.127-0.076
				c-0.358,0-0.614,0.101-0.768,0.301c-0.154,0.2-0.23,0.565-0.23,1.095v0.691h2.087v2.88h-2.087v13.917h-4.314V178.809z"/>
			<path fill="#5E5E5E" d="M149.444,170.436h4.314v4.033h-4.314V170.436z M149.444,175.929h4.314v16.797h-4.314V175.929z"/>
			<path fill="#5E5E5E" d="M156.19,175.929h4.289v1.446c0.657-1.066,1.426-1.601,2.305-1.601c0.247,0,0.636,0.043,1.165,0.128
				l-0.256,3.637c-0.785-0.086-1.259-0.128-1.421-0.128c-0.589,0-1.035,0.181-1.338,0.544c-0.304,0.362-0.455,0.881-0.455,1.556
				v11.215h-4.289V175.929z"/>
			<path fill="#5E5E5E" d="M168.085,187.515l0.205,0.602c0.068,0.197,0.151,0.401,0.249,0.615c0.099,0.213,0.216,0.409,0.353,0.589
				c0.137,0.179,0.29,0.326,0.461,0.441s0.367,0.173,0.589,0.173c0.538,0,0.807-0.315,0.807-0.947c0-0.333-0.088-0.653-0.263-0.96
				c-0.175-0.308-0.393-0.603-0.652-0.884c-0.261-0.281-0.54-0.548-0.839-0.8s-0.568-0.484-0.807-0.698l-0.704-0.602
				c-0.461-0.393-0.873-0.781-1.235-1.165c-0.363-0.384-0.671-0.774-0.922-1.172c-0.252-0.396-0.444-0.807-0.576-1.229
				c-0.133-0.423-0.198-0.868-0.198-1.338c0-0.743,0.151-1.394,0.454-1.952c0.303-0.56,0.704-1.029,1.203-1.408
				c0.5-0.38,1.076-0.664,1.729-0.852c0.653-0.188,1.325-0.282,2.017-0.282c0.648,0,1.248,0.133,1.799,0.397s1.046,0.614,1.485,1.05
				c0.439,0.435,0.817,0.935,1.133,1.498c0.315,0.562,0.559,1.139,0.729,1.728l-3.098,1.063l-0.257-0.628
				c-0.222-0.537-0.488-0.981-0.8-1.331c-0.312-0.351-0.685-0.547-1.12-0.589c-0.299,0-0.531,0.106-0.698,0.319
				c-0.166,0.214-0.249,0.457-0.249,0.73c0,0.384,0.207,0.805,0.621,1.261c0.413,0.457,0.983,0.992,1.709,1.606l0.794,0.704
				c0.4,0.358,0.782,0.732,1.146,1.12c0.362,0.389,0.683,0.794,0.96,1.217s0.497,0.854,0.659,1.293s0.243,0.89,0.243,1.351
				c0,0.666-0.128,1.285-0.384,1.856c-0.256,0.572-0.605,1.064-1.05,1.479c-0.443,0.414-0.962,0.738-1.556,0.974
				c-0.593,0.234-1.223,0.352-1.888,0.352c-0.649,0-1.26-0.106-1.831-0.32c-0.572-0.213-1.088-0.514-1.549-0.902
				c-0.461-0.388-0.86-0.852-1.197-1.389c-0.338-0.538-0.596-1.136-0.774-1.793L168.085,187.515z"/>
			<path fill="#5E5E5E" d="M176.816,178.809h-1.229v-2.88h1.229v-5.403h4.314v5.403h2.074v2.88h-2.074v9.219
				c0,0.461,0.085,0.805,0.256,1.03c0.171,0.227,0.474,0.339,0.909,0.339c0.495,0,0.913-0.025,1.255-0.076l-0.256,3.341
				c-0.563,0.171-1.388,0.257-2.472,0.257c-0.503,0-0.958-0.061-1.363-0.18s-0.747-0.279-1.024-0.48
				c-0.277-0.2-0.517-0.454-0.717-0.762c-0.2-0.307-0.358-0.62-0.474-0.94s-0.205-0.693-0.269-1.12
				c-0.064-0.427-0.107-0.824-0.128-1.19c-0.021-0.367-0.032-0.786-0.032-1.255V178.809z"/>
			<path fill="#5E5E5E" d="M192.807,185.275v0.627c0,0.342,0.015,0.709,0.045,1.102s0.103,0.755,0.218,1.088s0.288,0.61,0.519,0.832
				c0.23,0.223,0.546,0.333,0.947,0.333c0.333-0.025,0.61-0.106,0.832-0.243s0.397-0.324,0.525-0.563
				c0.128-0.238,0.22-0.519,0.275-0.838c0.055-0.32,0.083-0.681,0.083-1.082v-0.589c0-1.127-0.252-1.961-0.756-2.503
				c-0.503-0.542-1.306-0.813-2.406-0.813v-4.48c0.067,0,0.13,0.002,0.186,0.006c0.055,0.005,0.112,0.007,0.173,0.007
				c0.443,0,0.84-0.041,1.19-0.122c0.35-0.081,0.645-0.22,0.884-0.416c0.238-0.196,0.42-0.456,0.544-0.781
				c0.123-0.324,0.186-0.733,0.186-1.229c0-0.315-0.021-0.623-0.064-0.922s-0.126-0.563-0.249-0.794
				c-0.124-0.23-0.299-0.416-0.525-0.557s-0.519-0.211-0.877-0.211c-0.333,0.025-0.61,0.115-0.832,0.269s-0.399,0.362-0.531,0.627
				c-0.133,0.265-0.227,0.581-0.282,0.947c-0.056,0.367-0.083,0.777-0.083,1.229v0.87h-4.468v-1.459c0-0.99,0.139-1.88,0.416-2.669
				c0.277-0.79,0.679-1.46,1.203-2.011c0.525-0.55,1.172-0.973,1.939-1.268c0.769-0.294,1.647-0.441,2.638-0.441
				c0.981,0,1.856,0.149,2.625,0.448c0.768,0.299,1.416,0.724,1.945,1.273c0.529,0.551,0.933,1.221,1.21,2.011
				c0.277,0.789,0.416,1.675,0.416,2.656c0,0.479-0.051,0.952-0.153,1.421c-0.103,0.47-0.252,0.916-0.448,1.338
				c-0.196,0.423-0.439,0.812-0.729,1.165c-0.29,0.354-0.623,0.651-0.999,0.89c0.393,0.299,0.736,0.651,1.031,1.057
				c0.294,0.405,0.537,0.845,0.729,1.318s0.335,0.976,0.429,1.505s0.141,1.075,0.141,1.639c0,1.05-0.11,2.017-0.333,2.899
				c-0.222,0.884-0.58,1.646-1.075,2.285c-0.495,0.641-1.135,1.142-1.92,1.505c-0.786,0.362-1.741,0.544-2.868,0.544
				c-1.195,0-2.185-0.18-2.97-0.538c-0.786-0.358-1.415-0.854-1.889-1.485c-0.474-0.631-0.809-1.382-1.005-2.253
				c-0.196-0.87-0.304-1.818-0.32-2.842l-0.013-0.781H192.807z"/>
			<path fill="#5E5E5E" d="M205.405,175.929h3.598l1.331,10.396l1.383-10.396h3.252l1.255,10.601l1.459-10.601h3.329l-2.471,16.797
				h-3.713l-1.575-9.871l-1.689,9.871h-3.713L205.405,175.929z"/>
			<path fill="#5E5E5E" d="M222.356,181.281c0-0.888,0.104-1.682,0.313-2.382c0.209-0.699,0.526-1.291,0.953-1.773
				c0.427-0.481,0.961-0.851,1.601-1.107c0.641-0.256,1.396-0.384,2.267-0.384c0.87,0,1.628,0.126,2.272,0.378
				s1.178,0.619,1.6,1.101c0.423,0.482,0.738,1.074,0.948,1.773c0.209,0.7,0.313,1.498,0.313,2.395v3.456h-5.953v3.7
				c0,0.939,0.272,1.408,0.819,1.408c0.597,0,0.896-0.503,0.896-1.511v-1.83h4.238v1.882c0,0.699-0.137,1.338-0.41,1.914
				s-0.645,1.071-1.113,1.484c-0.47,0.414-1.016,0.736-1.639,0.967s-1.28,0.346-1.972,0.346s-1.349-0.115-1.972-0.346
				s-1.17-0.553-1.639-0.967c-0.47-0.413-0.841-0.91-1.114-1.491c-0.273-0.58-0.409-1.216-0.409-1.907V181.281z M228.348,182.471
				v-2.305c0-0.845-0.286-1.268-0.857-1.268c-0.547,0-0.819,0.423-0.819,1.268v2.305H228.348z"/>
			<path fill="#5E5E5E" d="M234.391,181.281c0-0.888,0.104-1.682,0.313-2.382c0.209-0.699,0.526-1.291,0.953-1.773
				c0.427-0.481,0.961-0.851,1.601-1.107c0.641-0.256,1.396-0.384,2.267-0.384c0.87,0,1.628,0.126,2.272,0.378
				s1.178,0.619,1.6,1.101c0.423,0.482,0.738,1.074,0.948,1.773c0.209,0.7,0.313,1.498,0.313,2.395v3.456h-5.953v3.7
				c0,0.939,0.272,1.408,0.819,1.408c0.597,0,0.896-0.503,0.896-1.511v-1.83h4.238v1.882c0,0.699-0.137,1.338-0.41,1.914
				s-0.645,1.071-1.113,1.484c-0.47,0.414-1.016,0.736-1.639,0.967s-1.28,0.346-1.972,0.346s-1.349-0.115-1.972-0.346
				s-1.17-0.553-1.639-0.967c-0.47-0.413-0.841-0.91-1.114-1.491c-0.273-0.58-0.409-1.216-0.409-1.907V181.281z M240.382,182.471
				v-2.305c0-0.845-0.286-1.268-0.857-1.268c-0.547,0-0.819,0.423-0.819,1.268v2.305H240.382z"/>
			<path fill="#5E5E5E" d="M246.693,169.681h4.314v12.137l2.638-5.889h4.621l-4.109,7.144l4.097,9.653h-4.468l-2.202-7.451
				l-0.576,0.973v6.479h-4.314V169.681z"/>
			<path fill="#5E5E5E" d="M262.197,187.515l0.205,0.602c0.068,0.197,0.151,0.401,0.249,0.615c0.099,0.213,0.216,0.409,0.353,0.589
				c0.137,0.179,0.29,0.326,0.461,0.441s0.367,0.173,0.589,0.173c0.538,0,0.807-0.315,0.807-0.947c0-0.333-0.088-0.653-0.263-0.96
				c-0.175-0.308-0.393-0.603-0.652-0.884c-0.261-0.281-0.54-0.548-0.839-0.8s-0.568-0.484-0.807-0.698l-0.704-0.602
				c-0.461-0.393-0.873-0.781-1.235-1.165c-0.363-0.384-0.671-0.774-0.922-1.172c-0.252-0.396-0.444-0.807-0.576-1.229
				c-0.133-0.423-0.198-0.868-0.198-1.338c0-0.743,0.151-1.394,0.454-1.952c0.303-0.56,0.704-1.029,1.203-1.408
				c0.5-0.38,1.076-0.664,1.729-0.852c0.653-0.188,1.325-0.282,2.017-0.282c0.648,0,1.248,0.133,1.799,0.397s1.046,0.614,1.485,1.05
				c0.439,0.435,0.817,0.935,1.133,1.498c0.315,0.562,0.559,1.139,0.729,1.728l-3.098,1.063l-0.257-0.628
				c-0.222-0.537-0.488-0.981-0.8-1.331c-0.312-0.351-0.685-0.547-1.12-0.589c-0.299,0-0.531,0.106-0.698,0.319
				c-0.166,0.214-0.249,0.457-0.249,0.73c0,0.384,0.207,0.805,0.621,1.261c0.413,0.457,0.983,0.992,1.709,1.606l0.794,0.704
				c0.4,0.358,0.782,0.732,1.146,1.12c0.362,0.389,0.683,0.794,0.96,1.217s0.497,0.854,0.659,1.293s0.243,0.89,0.243,1.351
				c0,0.666-0.128,1.285-0.384,1.856c-0.256,0.572-0.605,1.064-1.05,1.479c-0.443,0.414-0.962,0.738-1.556,0.974
				c-0.593,0.234-1.223,0.352-1.888,0.352c-0.649,0-1.26-0.106-1.831-0.32c-0.572-0.213-1.088-0.514-1.549-0.902
				c-0.461-0.388-0.86-0.852-1.197-1.389c-0.338-0.538-0.596-1.136-0.774-1.793L262.197,187.515z"/>
			<path fill="#5E5E5E" d="M110.434,219.16c-0.248,0.777-0.653,1.321-1.216,1.633c-0.563,0.312-1.263,0.467-2.1,0.467
				c-0.614,0-1.152-0.119-1.613-0.358c-0.46-0.238-0.821-0.561-1.082-0.967c-0.261-0.405-0.453-0.84-0.576-1.306
				c-0.124-0.465-0.186-0.954-0.186-1.466c0-0.58,0.06-1.118,0.179-1.613c0.119-0.495,0.271-0.933,0.455-1.312
				c0.183-0.379,0.439-0.744,0.768-1.095c0.329-0.35,0.648-0.646,0.96-0.89s0.711-0.494,1.197-0.755s0.922-0.479,1.306-0.653
				c0.384-0.175,0.866-0.382,1.447-0.621v-1.408c0-0.589-0.073-1.028-0.218-1.318s-0.393-0.436-0.742-0.436
				c-0.239,0-0.434,0.05-0.583,0.147c-0.149,0.099-0.254,0.245-0.314,0.441s-0.098,0.374-0.115,0.531
				c-0.017,0.158-0.025,0.369-0.025,0.634v0.947h-4.187c0-1.92,0.482-3.395,1.447-4.423c0.964-1.028,2.364-1.543,4.199-1.543
				c1.28,0,2.402,0.466,3.367,1.396c0.964,0.931,1.447,2.036,1.447,3.316v7.938c0,1.374,0.183,2.854,0.55,4.442h-3.943
				L110.434,219.16z M109.973,213.001c-1.408,1.136-2.112,2.391-2.112,3.765c0,0.341,0.066,0.634,0.198,0.877
				s0.356,0.364,0.672,0.364c0.179,0,0.356-0.058,0.531-0.173s0.301-0.215,0.377-0.301c0.077-0.085,0.192-0.226,0.346-0.422
				L109.973,213.001z"/>
			<path fill="#5E5E5E" d="M117.219,206.971h-0.973v-2.88h0.973v-0.026c0.008-0.452,0.03-0.874,0.064-1.267s0.096-0.812,0.186-1.255
				c0.09-0.444,0.222-0.826,0.397-1.146c0.175-0.319,0.395-0.616,0.659-0.89c0.265-0.272,0.602-0.479,1.012-0.621
				c0.41-0.141,0.879-0.211,1.408-0.211c0.811,0,1.716,0.06,2.714,0.18v3.226l-1.127-0.076c-0.358,0-0.614,0.101-0.768,0.301
				s-0.23,0.565-0.23,1.095v0.691h2.087v2.88h-2.087v13.917h-4.314V206.971z"/>
			<path fill="#5E5E5E" d="M125.195,206.971h-1.229v-2.88h1.229v-5.403h4.314v5.403h2.074v2.88h-2.074v9.219
				c0,0.461,0.085,0.805,0.256,1.03c0.171,0.227,0.474,0.339,0.909,0.339c0.495,0,0.913-0.025,1.255-0.076l-0.256,3.341
				c-0.564,0.171-1.388,0.257-2.471,0.257c-0.504,0-0.958-0.061-1.364-0.18s-0.747-0.279-1.024-0.48
				c-0.278-0.2-0.517-0.454-0.717-0.762c-0.201-0.307-0.358-0.62-0.474-0.94s-0.205-0.693-0.269-1.12
				c-0.064-0.427-0.106-0.824-0.128-1.19c-0.021-0.367-0.032-0.786-0.032-1.255V206.971z"/>
			<path fill="#5E5E5E" d="M133.248,209.443c0-0.888,0.104-1.682,0.313-2.382c0.209-0.699,0.526-1.291,0.953-1.773
				c0.427-0.481,0.961-0.851,1.601-1.107c0.641-0.256,1.396-0.384,2.267-0.384c0.87,0,1.628,0.126,2.272,0.378
				s1.178,0.619,1.6,1.101c0.423,0.482,0.738,1.074,0.948,1.773c0.209,0.7,0.313,1.498,0.313,2.395v3.456h-5.953v3.7
				c0,0.939,0.272,1.408,0.819,1.408c0.597,0,0.896-0.503,0.896-1.511v-1.83h4.238v1.882c0,0.699-0.137,1.338-0.41,1.914
				s-0.645,1.071-1.113,1.484c-0.47,0.414-1.016,0.736-1.639,0.967s-1.28,0.346-1.972,0.346s-1.349-0.115-1.972-0.346
				s-1.17-0.553-1.639-0.967c-0.47-0.413-0.841-0.91-1.114-1.491c-0.273-0.58-0.409-1.216-0.409-1.907V209.443z M139.239,210.633
				v-2.305c0-0.845-0.286-1.268-0.857-1.268c-0.547,0-0.819,0.423-0.819,1.268v2.305H139.239z"/>
			<path fill="#5E5E5E" d="M145.486,204.091h4.289v1.446c0.657-1.066,1.426-1.601,2.305-1.601c0.247,0,0.636,0.043,1.165,0.128
				l-0.256,3.637c-0.785-0.086-1.259-0.128-1.421-0.128c-0.589,0-1.035,0.181-1.338,0.544c-0.304,0.362-0.455,0.881-0.455,1.556
				v11.215h-4.289V204.091z"/>
			<path fill="#5E5E5E" d="M158.214,197.843h4.314v23.045h-4.314V197.843z"/>
			<path fill="#5E5E5E" d="M171.272,219.16c-0.248,0.777-0.653,1.321-1.217,1.633s-1.263,0.467-2.1,0.467
				c-0.614,0-1.152-0.119-1.613-0.358c-0.461-0.238-0.821-0.561-1.082-0.967c-0.26-0.405-0.452-0.84-0.576-1.306
				c-0.123-0.465-0.186-0.954-0.186-1.466c0-0.58,0.06-1.118,0.18-1.613c0.119-0.495,0.271-0.933,0.454-1.312
				c0.184-0.379,0.439-0.744,0.769-1.095c0.328-0.35,0.648-0.646,0.96-0.89s0.711-0.494,1.197-0.755s0.922-0.479,1.306-0.653
				s0.866-0.382,1.447-0.621v-1.408c0-0.589-0.073-1.028-0.218-1.318c-0.146-0.29-0.393-0.436-0.743-0.436
				c-0.238,0-0.433,0.05-0.582,0.147c-0.149,0.099-0.254,0.245-0.313,0.441c-0.061,0.196-0.099,0.374-0.115,0.531
				c-0.018,0.158-0.026,0.369-0.026,0.634v0.947h-4.187c0-1.92,0.482-3.395,1.447-4.423c0.964-1.028,2.364-1.543,4.199-1.543
				c1.28,0,2.402,0.466,3.367,1.396c0.964,0.931,1.446,2.036,1.446,3.316v7.938c0,1.374,0.184,2.854,0.551,4.442h-3.943
				L171.272,219.16z M170.812,213.001c-1.408,1.136-2.113,2.391-2.113,3.765c0,0.341,0.066,0.634,0.199,0.877
				c0.132,0.243,0.355,0.364,0.672,0.364c0.179,0,0.356-0.058,0.531-0.173s0.301-0.215,0.378-0.301
				c0.076-0.085,0.191-0.226,0.346-0.422L170.812,213.001z"/>
			<path fill="#5E5E5E" d="M177.366,204.091h4.314v12.508c0,0.939,0.196,1.408,0.589,1.408c0.384,0,0.832-0.315,1.344-0.947v-12.969
				h4.314v16.797h-4.314v-1.446c-0.435,0.529-0.943,0.964-1.523,1.306c-0.58,0.341-1.169,0.512-1.767,0.512
				c-0.879,0-1.592-0.373-2.138-1.12c-0.547-0.747-0.819-1.577-0.819-2.49V204.091z"/>
			<path fill="#5E5E5E" d="M190.335,204.091h4.314v1.268c0.41-0.47,0.903-0.846,1.479-1.127c0.576-0.282,1.175-0.423,1.799-0.423
				c0.469,0,0.887,0.111,1.254,0.333c0.367,0.223,0.677,0.506,0.929,0.852s0.443,0.734,0.576,1.165
				c0.132,0.431,0.198,0.852,0.198,1.261v13.469h-4.314v-12.713c0-0.743-0.239-1.114-0.717-1.114c-0.103,0-0.212,0.025-0.327,0.077
				c-0.115,0.051-0.215,0.115-0.301,0.192l-0.269,0.256c-0.051,0.051-0.09,0.092-0.115,0.121c-0.025,0.03-0.09,0.104-0.192,0.225
				v12.956h-4.314V204.091z"/>
			<path fill="#5E5E5E" d="M202.998,209.443c0-1.775,0.422-3.16,1.267-4.155c0.846-0.994,2.134-1.491,3.867-1.491
				c1.741,0,3.032,0.495,3.872,1.485c0.841,0.99,1.262,2.377,1.262,4.161v1.459h-4.238v-1.907c0-0.666-0.058-1.154-0.173-1.466
				s-0.356-0.468-0.723-0.468c-0.547,0-0.819,0.423-0.819,1.268v8.271c0,0.939,0.272,1.408,0.819,1.408
				c0.204,0,0.369-0.042,0.492-0.128c0.124-0.085,0.214-0.23,0.27-0.436c0.055-0.204,0.092-0.416,0.108-0.634
				c0.018-0.217,0.025-0.522,0.025-0.915v-1.779h4.238v2.496c0,0.922-0.239,1.743-0.717,2.465c-0.479,0.722-1.105,1.266-1.883,1.632
				c-0.776,0.367-1.621,0.551-2.534,0.551c-1.408,0-2.616-0.429-3.623-1.286c-1.008-0.858-1.511-1.979-1.511-3.361V209.443z"/>
			<path fill="#5E5E5E" d="M215.083,197.843h4.314v7.528c0.419-0.47,0.916-0.85,1.492-1.14s1.171-0.436,1.786-0.436
				c0.589,0,1.115,0.188,1.581,0.563c0.465,0.376,0.811,0.837,1.037,1.383c0.226,0.546,0.339,1.109,0.339,1.689v13.456h-4.314
				v-12.329c0-0.034,0.002-0.108,0.006-0.224c0.005-0.115,0.005-0.209,0-0.282c-0.004-0.072-0.008-0.166-0.013-0.281
				c-0.004-0.115-0.019-0.207-0.045-0.275c-0.025-0.068-0.06-0.141-0.102-0.218c-0.043-0.077-0.101-0.132-0.173-0.166
				c-0.073-0.034-0.16-0.052-0.263-0.052c-0.171,0-0.354,0.068-0.551,0.205s-0.337,0.252-0.423,0.346
				c-0.085,0.094-0.204,0.23-0.358,0.409v12.867h-4.314V197.843z"/>
		</g>
		<g>
			<g>
				<path fill="#828282" d="M104.679,113.069h4.66v23.045h-4.66V113.069z"/>
				<path fill="#828282" d="M111.912,119.317h4.314v1.268c0.41-0.47,0.902-0.846,1.479-1.127c0.576-0.282,1.176-0.423,1.799-0.423
					c0.469,0,0.888,0.111,1.255,0.333c0.367,0.223,0.676,0.506,0.928,0.852c0.251,0.346,0.443,0.734,0.576,1.165
					c0.132,0.431,0.198,0.852,0.198,1.261v13.469h-4.314v-12.713c0-0.743-0.239-1.114-0.717-1.114c-0.102,0-0.211,0.025-0.326,0.077
					c-0.115,0.051-0.216,0.115-0.301,0.192l-0.269,0.256c-0.051,0.051-0.089,0.092-0.115,0.121c-0.025,0.03-0.089,0.104-0.192,0.225
					v12.956h-4.314V119.317z"/>
				<path fill="#828282" d="M124.574,124.668c0-1.775,0.422-3.16,1.268-4.155c0.845-0.994,2.134-1.491,3.866-1.491
					c1.742,0,3.033,0.495,3.873,1.485c0.841,0.99,1.262,2.377,1.262,4.161v1.459h-4.238v-1.907c0-0.666-0.058-1.154-0.173-1.466
					s-0.356-0.468-0.724-0.468c-0.546,0-0.819,0.423-0.819,1.268v8.271c0,0.939,0.273,1.408,0.819,1.408
					c0.205,0,0.369-0.042,0.493-0.128c0.124-0.085,0.213-0.23,0.269-0.436c0.056-0.204,0.092-0.416,0.109-0.634
					c0.017-0.217,0.026-0.522,0.026-0.915v-1.779h4.238v2.496c0,0.922-0.239,1.743-0.717,2.465
					c-0.479,0.722-1.105,1.266-1.883,1.632c-0.776,0.367-1.621,0.551-2.535,0.551c-1.408,0-2.616-0.429-3.623-1.286
					c-1.007-0.858-1.511-1.979-1.511-3.361V124.668z"/>
				<path fill="#828282" d="M136.659,119.317h4.289v1.446c0.657-1.066,1.426-1.601,2.305-1.601c0.247,0,0.636,0.043,1.165,0.128
					l-0.256,3.637c-0.785-0.086-1.259-0.128-1.421-0.128c-0.589,0-1.035,0.181-1.338,0.544c-0.304,0.362-0.455,0.881-0.455,1.556
					v11.215h-4.289V119.317z"/>
				<path fill="#828282" d="M145.597,124.668c0-0.888,0.104-1.682,0.313-2.382c0.209-0.699,0.526-1.291,0.953-1.773
					c0.427-0.481,0.961-0.851,1.601-1.107c0.641-0.256,1.396-0.384,2.267-0.384c0.87,0,1.628,0.126,2.272,0.378
					s1.178,0.619,1.6,1.101c0.423,0.482,0.738,1.074,0.948,1.773c0.209,0.7,0.313,1.498,0.313,2.395v3.456h-5.953v3.7
					c0,0.939,0.272,1.408,0.819,1.408c0.597,0,0.896-0.503,0.896-1.511v-1.83h4.238v1.882c0,0.699-0.137,1.338-0.41,1.914
					s-0.645,1.071-1.113,1.484c-0.47,0.414-1.016,0.736-1.639,0.967s-1.28,0.346-1.972,0.346s-1.349-0.115-1.972-0.346
					s-1.17-0.553-1.639-0.967c-0.47-0.413-0.841-0.91-1.114-1.491c-0.273-0.58-0.409-1.216-0.409-1.907V124.668z M151.588,125.859
					v-2.305c0-0.845-0.286-1.268-0.857-1.268c-0.547,0-0.819,0.423-0.819,1.268v2.305H151.588z"/>
				<path fill="#828282" d="M164.147,134.385c-0.248,0.777-0.653,1.321-1.217,1.633s-1.263,0.467-2.1,0.467
					c-0.614,0-1.152-0.119-1.613-0.358c-0.461-0.238-0.821-0.561-1.082-0.967c-0.26-0.405-0.452-0.84-0.576-1.306
					c-0.123-0.465-0.186-0.954-0.186-1.466c0-0.58,0.06-1.118,0.18-1.613c0.119-0.495,0.271-0.933,0.454-1.312
					c0.184-0.379,0.439-0.744,0.769-1.095c0.328-0.35,0.648-0.646,0.96-0.89s0.711-0.494,1.197-0.755s0.922-0.479,1.306-0.653
					s0.866-0.382,1.447-0.621v-1.408c0-0.589-0.073-1.028-0.218-1.318c-0.146-0.29-0.393-0.436-0.743-0.436
					c-0.238,0-0.433,0.05-0.582,0.147c-0.149,0.099-0.254,0.245-0.313,0.441c-0.061,0.196-0.099,0.374-0.115,0.531
					c-0.018,0.158-0.026,0.369-0.026,0.634v0.947h-4.187c0-1.92,0.482-3.395,1.447-4.423c0.964-1.028,2.364-1.543,4.199-1.543
					c1.28,0,2.402,0.466,3.367,1.396c0.964,0.931,1.446,2.036,1.446,3.316v7.938c0,1.374,0.184,2.854,0.551,4.442h-3.943
					L164.147,134.385z M163.687,128.227c-1.408,1.136-2.113,2.391-2.113,3.765c0,0.341,0.066,0.634,0.199,0.877
					c0.132,0.243,0.355,0.364,0.672,0.364c0.179,0,0.356-0.058,0.531-0.173s0.301-0.215,0.378-0.301
					c0.076-0.085,0.191-0.226,0.346-0.422L163.687,128.227z"/>
				<path fill="#828282" d="M173.083,130.903l0.205,0.602c0.068,0.197,0.151,0.401,0.249,0.615c0.099,0.213,0.216,0.409,0.353,0.589
					c0.137,0.179,0.29,0.326,0.461,0.441s0.367,0.173,0.589,0.173c0.538,0,0.807-0.315,0.807-0.947c0-0.333-0.088-0.653-0.263-0.96
					c-0.175-0.308-0.393-0.603-0.652-0.884c-0.261-0.281-0.54-0.548-0.839-0.8s-0.568-0.484-0.807-0.698l-0.704-0.602
					c-0.461-0.393-0.873-0.781-1.235-1.165c-0.363-0.384-0.671-0.774-0.922-1.172c-0.252-0.396-0.444-0.807-0.576-1.229
					c-0.133-0.423-0.198-0.868-0.198-1.338c0-0.743,0.151-1.394,0.454-1.952c0.303-0.56,0.704-1.029,1.203-1.408
					c0.5-0.38,1.076-0.664,1.729-0.852c0.653-0.188,1.325-0.282,2.017-0.282c0.648,0,1.248,0.133,1.799,0.397
					s1.046,0.614,1.485,1.05c0.439,0.435,0.817,0.935,1.133,1.498c0.315,0.562,0.559,1.139,0.729,1.728l-3.098,1.063l-0.257-0.628
					c-0.222-0.537-0.488-0.981-0.8-1.331c-0.312-0.351-0.685-0.547-1.12-0.589c-0.299,0-0.531,0.106-0.698,0.319
					c-0.166,0.214-0.249,0.457-0.249,0.73c0,0.384,0.207,0.805,0.621,1.261c0.413,0.457,0.983,0.992,1.709,1.606l0.794,0.704
					c0.4,0.358,0.782,0.732,1.146,1.12c0.362,0.389,0.683,0.794,0.96,1.217s0.497,0.854,0.659,1.293s0.243,0.89,0.243,1.351
					c0,0.666-0.128,1.285-0.384,1.856c-0.256,0.572-0.605,1.064-1.05,1.479c-0.443,0.414-0.962,0.738-1.556,0.974
					c-0.593,0.234-1.223,0.352-1.888,0.352c-0.649,0-1.26-0.106-1.831-0.32c-0.572-0.213-1.088-0.514-1.549-0.902
					c-0.461-0.388-0.86-0.852-1.197-1.389c-0.338-0.538-0.596-1.136-0.774-1.793L173.083,130.903z"/>
				<path fill="#828282" d="M181.316,124.668c0-0.888,0.104-1.682,0.313-2.382c0.209-0.699,0.526-1.291,0.953-1.773
					c0.427-0.481,0.961-0.851,1.601-1.107c0.641-0.256,1.396-0.384,2.267-0.384c0.87,0,1.628,0.126,2.272,0.378
					s1.178,0.619,1.6,1.101c0.423,0.482,0.738,1.074,0.948,1.773c0.209,0.7,0.313,1.498,0.313,2.395v3.456h-5.953v3.7
					c0,0.939,0.272,1.408,0.819,1.408c0.597,0,0.896-0.503,0.896-1.511v-1.83h4.238v1.882c0,0.699-0.137,1.338-0.41,1.914
					s-0.645,1.071-1.113,1.484c-0.47,0.414-1.016,0.736-1.639,0.967s-1.28,0.346-1.972,0.346s-1.349-0.115-1.972-0.346
					s-1.17-0.553-1.639-0.967c-0.47-0.413-0.841-0.91-1.114-1.491c-0.273-0.58-0.409-1.216-0.409-1.907V124.668z M187.308,125.859
					v-2.305c0-0.845-0.286-1.268-0.857-1.268c-0.547,0-0.819,0.423-0.819,1.268v2.305H187.308z"/>
				<path fill="#828282" d="M197.14,113.824h4.314v4.033h-4.314V113.824z M197.14,119.317h4.314v16.797h-4.314V119.317z"/>
				<path fill="#828282" d="M203.887,119.317h4.314v1.268c0.41-0.47,0.903-0.846,1.479-1.127c0.576-0.282,1.175-0.423,1.799-0.423
					c0.469,0,0.887,0.111,1.254,0.333c0.367,0.223,0.677,0.506,0.929,0.852s0.443,0.734,0.576,1.165
					c0.132,0.431,0.198,0.852,0.198,1.261v13.469h-4.314v-12.713c0-0.743-0.239-1.114-0.717-1.114c-0.103,0-0.212,0.025-0.327,0.077
					c-0.115,0.051-0.215,0.115-0.301,0.192l-0.269,0.256c-0.051,0.051-0.09,0.092-0.115,0.121c-0.025,0.03-0.09,0.104-0.192,0.225
					v12.956h-4.314V119.317z"/>
				<path fill="#828282" d="M223.065,130.903l0.205,0.602c0.068,0.197,0.151,0.401,0.249,0.615c0.099,0.213,0.216,0.409,0.353,0.589
					c0.137,0.179,0.29,0.326,0.461,0.441s0.367,0.173,0.589,0.173c0.538,0,0.807-0.315,0.807-0.947c0-0.333-0.088-0.653-0.263-0.96
					c-0.175-0.308-0.393-0.603-0.652-0.884c-0.261-0.281-0.54-0.548-0.839-0.8s-0.568-0.484-0.807-0.698l-0.704-0.602
					c-0.461-0.393-0.873-0.781-1.235-1.165c-0.363-0.384-0.671-0.774-0.922-1.172c-0.252-0.396-0.444-0.807-0.576-1.229
					c-0.133-0.423-0.198-0.868-0.198-1.338c0-0.743,0.151-1.394,0.454-1.952c0.303-0.56,0.704-1.029,1.203-1.408
					c0.5-0.38,1.076-0.664,1.729-0.852c0.653-0.188,1.325-0.282,2.017-0.282c0.648,0,1.248,0.133,1.799,0.397
					s1.046,0.614,1.485,1.05c0.439,0.435,0.817,0.935,1.133,1.498c0.315,0.562,0.559,1.139,0.729,1.728l-3.098,1.063l-0.257-0.628
					c-0.222-0.537-0.488-0.981-0.8-1.331c-0.312-0.351-0.685-0.547-1.12-0.589c-0.299,0-0.531,0.106-0.698,0.319
					c-0.166,0.214-0.249,0.457-0.249,0.73c0,0.384,0.207,0.805,0.621,1.261c0.413,0.457,0.983,0.992,1.709,1.606l0.794,0.704
					c0.4,0.358,0.782,0.732,1.146,1.12c0.362,0.389,0.683,0.794,0.96,1.217s0.497,0.854,0.659,1.293s0.243,0.89,0.243,1.351
					c0,0.666-0.128,1.285-0.384,1.856c-0.256,0.572-0.605,1.064-1.05,1.479c-0.443,0.414-0.962,0.738-1.556,0.974
					c-0.593,0.234-1.223,0.352-1.888,0.352c-0.649,0-1.26-0.106-1.831-0.32c-0.572-0.213-1.088-0.514-1.549-0.902
					c-0.461-0.388-0.86-0.852-1.197-1.389c-0.338-0.538-0.596-1.136-0.774-1.793L223.065,130.903z"/>
				<path fill="#828282" d="M231.528,113.824h4.314v4.033h-4.314V113.824z M231.528,119.317h4.314v16.797h-4.314V119.317z"/>
				<path fill="#828282" d="M238.569,122.197h-1.229v-2.88h1.229v-5.403h4.314v5.403h2.074v2.88h-2.074v9.219
					c0,0.461,0.085,0.805,0.256,1.03c0.171,0.227,0.474,0.339,0.909,0.339c0.495,0,0.913-0.025,1.255-0.076l-0.256,3.341
					c-0.563,0.171-1.388,0.257-2.472,0.257c-0.503,0-0.958-0.061-1.363-0.18s-0.747-0.279-1.024-0.48
					c-0.277-0.2-0.517-0.454-0.717-0.762c-0.2-0.307-0.358-0.62-0.474-0.94s-0.205-0.693-0.269-1.12
					c-0.064-0.427-0.107-0.824-0.128-1.19c-0.021-0.367-0.032-0.786-0.032-1.255V122.197z"/>
				<path fill="#828282" d="M246.623,124.668c0-0.888,0.104-1.682,0.313-2.382c0.209-0.699,0.526-1.291,0.953-1.773
					c0.427-0.481,0.961-0.851,1.601-1.107c0.641-0.256,1.396-0.384,2.267-0.384c0.87,0,1.628,0.126,2.272,0.378
					s1.178,0.619,1.6,1.101c0.423,0.482,0.738,1.074,0.948,1.773c0.209,0.7,0.313,1.498,0.313,2.395v3.456h-5.953v3.7
					c0,0.939,0.272,1.408,0.819,1.408c0.597,0,0.896-0.503,0.896-1.511v-1.83h4.238v1.882c0,0.699-0.137,1.338-0.41,1.914
					s-0.645,1.071-1.113,1.484c-0.47,0.414-1.016,0.736-1.639,0.967s-1.28,0.346-1.972,0.346s-1.349-0.115-1.972-0.346
					s-1.17-0.553-1.639-0.967c-0.47-0.413-0.841-0.91-1.114-1.491c-0.273-0.58-0.409-1.216-0.409-1.907V124.668z M252.614,125.859
					v-2.305c0-0.845-0.286-1.268-0.857-1.268c-0.547,0-0.819,0.423-0.819,1.268v2.305H252.614z"/>
				<path fill="#828282" d="M104.807,150.359h-1.229v-2.88h1.229v-5.403h4.314v5.403h2.074v2.88h-2.074v9.219
					c0,0.461,0.085,0.805,0.256,1.03c0.171,0.227,0.474,0.339,0.909,0.339c0.495,0,0.913-0.025,1.254-0.076l-0.256,3.341
					c-0.563,0.171-1.387,0.257-2.471,0.257c-0.504,0-0.958-0.061-1.364-0.18s-0.747-0.279-1.024-0.48
					c-0.278-0.2-0.517-0.454-0.717-0.762c-0.201-0.307-0.358-0.62-0.474-0.94s-0.205-0.693-0.269-1.12
					c-0.064-0.427-0.106-0.824-0.128-1.19c-0.021-0.367-0.032-0.786-0.032-1.255V150.359z"/>
				<path fill="#828282" d="M113.064,147.479h4.289v1.446c0.657-1.066,1.425-1.601,2.305-1.601c0.248,0,0.636,0.043,1.165,0.128
					l-0.256,3.637c-0.786-0.086-1.259-0.128-1.421-0.128c-0.589,0-1.035,0.181-1.338,0.544c-0.303,0.362-0.455,0.881-0.455,1.556
					v11.215h-4.289V147.479z"/>
				<path fill="#828282" d="M128.517,162.547c-0.248,0.777-0.653,1.321-1.216,1.633c-0.563,0.312-1.263,0.467-2.1,0.467
					c-0.614,0-1.152-0.119-1.613-0.358c-0.46-0.238-0.821-0.561-1.082-0.967c-0.261-0.405-0.453-0.84-0.576-1.306
					c-0.124-0.465-0.186-0.954-0.186-1.466c0-0.58,0.06-1.118,0.179-1.613c0.119-0.495,0.271-0.933,0.455-1.312
					c0.183-0.379,0.439-0.744,0.768-1.095c0.329-0.35,0.648-0.646,0.96-0.89s0.711-0.494,1.197-0.755s0.922-0.479,1.306-0.653
					c0.384-0.175,0.866-0.382,1.447-0.621v-1.408c0-0.589-0.073-1.028-0.218-1.318s-0.393-0.436-0.742-0.436
					c-0.239,0-0.434,0.05-0.583,0.147c-0.149,0.099-0.254,0.245-0.314,0.441s-0.098,0.374-0.115,0.531
					c-0.017,0.158-0.025,0.369-0.025,0.634v0.947h-4.187c0-1.92,0.482-3.395,1.447-4.423c0.964-1.028,2.364-1.543,4.199-1.543
					c1.28,0,2.402,0.466,3.367,1.396c0.964,0.931,1.446,2.036,1.446,3.316v7.938c0,1.374,0.184,2.854,0.551,4.442h-3.943
					L128.517,162.547z M128.056,156.389c-1.408,1.136-2.112,2.391-2.112,3.765c0,0.341,0.066,0.634,0.198,0.877
					s0.356,0.364,0.672,0.364c0.179,0,0.356-0.058,0.531-0.173s0.301-0.215,0.377-0.301c0.077-0.085,0.192-0.226,0.346-0.422
					L128.056,156.389z"/>
				<path fill="#828282" d="M135.303,150.359h-0.974v-2.88h0.974v-0.026c0.008-0.452,0.029-0.874,0.063-1.267
					s0.096-0.812,0.186-1.255c0.09-0.444,0.222-0.826,0.397-1.146c0.175-0.319,0.395-0.616,0.659-0.89
					c0.265-0.272,0.602-0.479,1.011-0.621c0.41-0.141,0.88-0.211,1.409-0.211c0.811,0,1.715,0.06,2.714,0.18v3.226l-1.127-0.076
					c-0.358,0-0.614,0.101-0.768,0.301c-0.154,0.2-0.23,0.565-0.23,1.095v0.691h2.087v2.88h-2.087v13.917h-4.314V150.359z"/>
				<path fill="#828282" d="M143.587,150.359h-0.974v-2.88h0.974v-0.026c0.008-0.452,0.029-0.874,0.063-1.267
					s0.096-0.812,0.186-1.255c0.09-0.444,0.222-0.826,0.397-1.146c0.175-0.319,0.395-0.616,0.659-0.89
					c0.265-0.272,0.602-0.479,1.011-0.621c0.41-0.141,0.88-0.211,1.409-0.211c0.811,0,1.715,0.06,2.714,0.18v3.226l-1.127-0.076
					c-0.358,0-0.614,0.101-0.768,0.301c-0.154,0.2-0.23,0.565-0.23,1.095v0.691h2.087v2.88h-2.087v13.917h-4.314V150.359z"/>
				<path fill="#828282" d="M151.294,141.986h4.314v4.033h-4.314V141.986z M151.294,147.479h4.314v16.797h-4.314V147.479z"/>
				<path fill="#828282" d="M157.836,152.831c0-1.775,0.422-3.16,1.267-4.155c0.846-0.994,2.134-1.491,3.867-1.491
					c1.741,0,3.032,0.495,3.872,1.485c0.841,0.99,1.262,2.377,1.262,4.161v1.459h-4.238v-1.907c0-0.666-0.058-1.154-0.173-1.466
					s-0.356-0.468-0.723-0.468c-0.547,0-0.819,0.423-0.819,1.268v8.271c0,0.939,0.272,1.408,0.819,1.408
					c0.204,0,0.369-0.042,0.492-0.128c0.124-0.085,0.214-0.23,0.27-0.436c0.055-0.204,0.092-0.416,0.108-0.634
					c0.018-0.217,0.025-0.522,0.025-0.915v-1.779h4.238V160c0,0.922-0.239,1.743-0.717,2.465c-0.479,0.722-1.105,1.266-1.883,1.632
					c-0.776,0.367-1.621,0.551-2.534,0.551c-1.408,0-2.616-0.429-3.623-1.286c-1.008-0.858-1.511-1.979-1.511-3.361V152.831z"/>
				<path fill="#828282" d="M172.622,147.479h3.598l1.331,10.396l1.383-10.396h3.252l1.255,10.601l1.459-10.601h3.329l-2.471,16.797
					h-3.713l-1.575-9.871l-1.689,9.871h-3.713L172.622,147.479z"/>
				<path fill="#828282" d="M189.804,141.986h4.314v4.033h-4.314V141.986z M189.804,147.479h4.314v16.797h-4.314V147.479z"/>
				<path fill="#828282" d="M196.846,150.359h-1.229v-2.88h1.229v-5.403h4.314v5.403h2.074v2.88h-2.074v9.219
					c0,0.461,0.085,0.805,0.256,1.03c0.171,0.227,0.474,0.339,0.909,0.339c0.495,0,0.913-0.025,1.255-0.076l-0.256,3.341
					c-0.563,0.171-1.388,0.257-2.472,0.257c-0.503,0-0.958-0.061-1.363-0.18s-0.747-0.279-1.024-0.48
					c-0.277-0.2-0.517-0.454-0.717-0.762c-0.2-0.307-0.358-0.62-0.474-0.94s-0.205-0.693-0.269-1.12
					c-0.064-0.427-0.107-0.824-0.128-1.19c-0.021-0.367-0.032-0.786-0.032-1.255V150.359z"/>
				<path fill="#828282" d="M205.103,141.231h4.314v7.528c0.419-0.47,0.916-0.85,1.492-1.14s1.171-0.436,1.786-0.436
					c0.589,0,1.115,0.188,1.581,0.563c0.465,0.376,0.811,0.837,1.037,1.383c0.226,0.546,0.339,1.109,0.339,1.689v13.456h-4.314
					v-12.329c0-0.034,0.002-0.108,0.006-0.224c0.005-0.115,0.005-0.209,0-0.282c-0.004-0.072-0.008-0.166-0.013-0.281
					c-0.004-0.115-0.019-0.207-0.045-0.275c-0.025-0.068-0.06-0.141-0.102-0.218c-0.043-0.077-0.101-0.132-0.173-0.166
					c-0.073-0.034-0.16-0.052-0.263-0.052c-0.171,0-0.354,0.068-0.551,0.205s-0.337,0.252-0.423,0.346
					c-0.085,0.094-0.204,0.23-0.358,0.409v12.867h-4.314V141.231z"/>
				<path fill="#828282" d="M217.996,141.986h4.314v4.033h-4.314V141.986z M217.996,147.479h4.314v16.797h-4.314V147.479z"/>
				<path fill="#828282" d="M224.742,147.479h4.314v1.268c0.41-0.47,0.903-0.846,1.479-1.127c0.576-0.282,1.175-0.423,1.799-0.423
					c0.469,0,0.887,0.111,1.254,0.333c0.367,0.223,0.677,0.506,0.929,0.852s0.443,0.734,0.576,1.165
					c0.132,0.431,0.198,0.852,0.198,1.261v13.469h-4.314v-12.713c0-0.743-0.239-1.114-0.717-1.114c-0.103,0-0.212,0.025-0.327,0.077
					c-0.115,0.051-0.215,0.115-0.301,0.192l-0.269,0.256c-0.051,0.051-0.09,0.092-0.115,0.121c-0.025,0.03-0.09,0.104-0.192,0.225
					v12.956h-4.314V147.479z"/>
				<path fill="#828282" d="M104.807,178.521h-1.229v-2.88h1.229v-5.403h4.314v5.403h2.074v2.88h-2.074v9.219
					c0,0.461,0.085,0.805,0.256,1.03c0.171,0.227,0.474,0.339,0.909,0.339c0.495,0,0.913-0.025,1.254-0.076l-0.256,3.341
					c-0.563,0.171-1.387,0.257-2.471,0.257c-0.504,0-0.958-0.061-1.364-0.18s-0.747-0.279-1.024-0.48
					c-0.278-0.2-0.517-0.454-0.717-0.762c-0.201-0.307-0.358-0.62-0.474-0.94s-0.205-0.693-0.269-1.12
					c-0.064-0.427-0.106-0.824-0.128-1.19c-0.021-0.367-0.032-0.786-0.032-1.255V178.521z"/>
				<path fill="#828282" d="M113.064,169.393h4.314v7.528c0.418-0.47,0.916-0.85,1.491-1.14c0.576-0.29,1.172-0.436,1.786-0.436
					c0.589,0,1.116,0.188,1.581,0.563c0.465,0.376,0.811,0.837,1.037,1.383s0.339,1.109,0.339,1.689v13.456h-4.314v-12.329
					c0-0.034,0.002-0.108,0.006-0.224s0.004-0.209,0-0.282c-0.004-0.072-0.009-0.166-0.013-0.281
					c-0.004-0.115-0.02-0.207-0.045-0.275c-0.026-0.068-0.06-0.141-0.103-0.218s-0.1-0.132-0.173-0.166s-0.16-0.052-0.262-0.052
					c-0.171,0-0.354,0.068-0.551,0.205s-0.337,0.252-0.422,0.346s-0.205,0.23-0.358,0.409v12.867h-4.314V169.393z"/>
				<path fill="#828282" d="M125.726,180.993c0-0.888,0.104-1.682,0.314-2.382c0.209-0.699,0.527-1.291,0.954-1.773
					c0.427-0.481,0.96-0.851,1.6-1.107c0.64-0.256,1.396-0.384,2.266-0.384s1.628,0.126,2.273,0.378s1.178,0.619,1.6,1.101
					c0.423,0.482,0.738,1.074,0.948,1.773c0.209,0.7,0.313,1.498,0.313,2.395v3.456h-5.954v3.7c0,0.939,0.273,1.408,0.819,1.408
					c0.597,0,0.896-0.503,0.896-1.511v-1.83h4.238v1.882c0,0.699-0.137,1.338-0.41,1.914s-0.645,1.071-1.113,1.484
					c-0.47,0.414-1.016,0.736-1.639,0.967s-1.281,0.346-1.972,0.346c-0.691,0-1.349-0.115-1.972-0.346s-1.169-0.553-1.639-0.967
					c-0.469-0.413-0.841-0.91-1.114-1.491c-0.273-0.58-0.41-1.216-0.41-1.907V180.993z M131.718,182.183v-2.305
					c0-0.845-0.286-1.268-0.858-1.268c-0.546,0-0.819,0.423-0.819,1.268v2.305H131.718z"/>
				<path fill="#828282" d="M142.127,178.521h-0.974v-2.88h0.974v-0.026c0.008-0.452,0.029-0.874,0.063-1.267
					s0.096-0.812,0.186-1.255c0.09-0.444,0.222-0.826,0.397-1.146c0.175-0.319,0.395-0.616,0.659-0.89
					c0.265-0.272,0.602-0.479,1.011-0.621c0.41-0.141,0.88-0.211,1.409-0.211c0.811,0,1.715,0.06,2.714,0.18v3.226l-1.127-0.076
					c-0.358,0-0.614,0.101-0.768,0.301c-0.154,0.2-0.23,0.565-0.23,1.095v0.691h2.087v2.88h-2.087v13.917h-4.314V178.521z"/>
				<path fill="#828282" d="M149.834,170.148h4.314v4.033h-4.314V170.148z M149.834,175.641h4.314v16.797h-4.314V175.641z"/>
				<path fill="#828282" d="M156.58,175.641h4.289v1.446c0.657-1.066,1.426-1.601,2.305-1.601c0.247,0,0.636,0.043,1.165,0.128
					l-0.256,3.637c-0.785-0.086-1.259-0.128-1.421-0.128c-0.589,0-1.035,0.181-1.338,0.544c-0.304,0.362-0.455,0.881-0.455,1.556
					v11.215h-4.289V175.641z"/>
				<path fill="#828282" d="M168.475,187.227l0.205,0.602c0.068,0.197,0.151,0.401,0.249,0.615c0.099,0.213,0.216,0.409,0.353,0.589
					c0.137,0.179,0.29,0.326,0.461,0.441s0.367,0.173,0.589,0.173c0.538,0,0.807-0.315,0.807-0.947c0-0.333-0.088-0.653-0.263-0.96
					c-0.175-0.308-0.393-0.603-0.652-0.884c-0.261-0.281-0.54-0.548-0.839-0.8s-0.568-0.484-0.807-0.698l-0.704-0.602
					c-0.461-0.393-0.873-0.781-1.235-1.165c-0.363-0.384-0.671-0.774-0.922-1.172c-0.252-0.396-0.444-0.807-0.576-1.229
					c-0.133-0.423-0.198-0.868-0.198-1.338c0-0.743,0.151-1.394,0.454-1.952c0.303-0.56,0.704-1.029,1.203-1.408
					c0.5-0.38,1.076-0.664,1.729-0.852c0.653-0.188,1.325-0.282,2.017-0.282c0.648,0,1.248,0.133,1.799,0.397
					s1.046,0.614,1.485,1.05c0.439,0.435,0.817,0.935,1.133,1.498c0.315,0.562,0.559,1.139,0.729,1.728l-3.098,1.063l-0.257-0.628
					c-0.222-0.537-0.488-0.981-0.8-1.331c-0.312-0.351-0.685-0.547-1.12-0.589c-0.299,0-0.531,0.106-0.698,0.319
					c-0.166,0.214-0.249,0.457-0.249,0.73c0,0.384,0.207,0.805,0.621,1.261c0.413,0.457,0.983,0.992,1.709,1.606l0.794,0.704
					c0.4,0.358,0.782,0.732,1.146,1.12c0.362,0.389,0.683,0.794,0.96,1.217s0.497,0.854,0.659,1.293s0.243,0.89,0.243,1.351
					c0,0.666-0.128,1.285-0.384,1.856c-0.256,0.572-0.605,1.064-1.05,1.479c-0.443,0.414-0.962,0.738-1.556,0.974
					c-0.593,0.234-1.223,0.352-1.888,0.352c-0.649,0-1.26-0.106-1.831-0.32c-0.572-0.213-1.088-0.514-1.549-0.902
					c-0.461-0.388-0.86-0.852-1.197-1.389c-0.338-0.538-0.596-1.136-0.774-1.793L168.475,187.227z"/>
				<path fill="#828282" d="M177.206,178.521h-1.229v-2.88h1.229v-5.403h4.314v5.403h2.074v2.88h-2.074v9.219
					c0,0.461,0.085,0.805,0.256,1.03c0.171,0.227,0.474,0.339,0.909,0.339c0.495,0,0.913-0.025,1.255-0.076l-0.256,3.341
					c-0.563,0.171-1.388,0.257-2.472,0.257c-0.503,0-0.958-0.061-1.363-0.18s-0.747-0.279-1.024-0.48
					c-0.277-0.2-0.517-0.454-0.717-0.762c-0.2-0.307-0.358-0.62-0.474-0.94s-0.205-0.693-0.269-1.12
					c-0.064-0.427-0.107-0.824-0.128-1.19c-0.021-0.367-0.032-0.786-0.032-1.255V178.521z"/>
				<path fill="#828282" d="M193.196,184.987v0.627c0,0.342,0.015,0.709,0.045,1.102s0.103,0.755,0.218,1.088
					s0.288,0.61,0.519,0.832c0.23,0.223,0.546,0.333,0.947,0.333c0.333-0.025,0.61-0.106,0.832-0.243s0.397-0.324,0.525-0.563
					c0.128-0.238,0.22-0.519,0.275-0.838c0.055-0.32,0.083-0.681,0.083-1.082v-0.589c0-1.127-0.252-1.961-0.756-2.503
					c-0.503-0.542-1.306-0.813-2.406-0.813v-4.48c0.067,0,0.13,0.002,0.186,0.006c0.055,0.005,0.112,0.007,0.173,0.007
					c0.443,0,0.84-0.041,1.19-0.122c0.35-0.081,0.645-0.22,0.884-0.416c0.238-0.196,0.42-0.456,0.544-0.781
					c0.123-0.324,0.186-0.733,0.186-1.229c0-0.315-0.021-0.623-0.064-0.922s-0.126-0.563-0.249-0.794
					c-0.124-0.23-0.299-0.416-0.525-0.557s-0.519-0.211-0.877-0.211c-0.333,0.025-0.61,0.115-0.832,0.269s-0.399,0.362-0.531,0.627
					c-0.133,0.265-0.227,0.581-0.282,0.947c-0.056,0.367-0.083,0.777-0.083,1.229v0.87h-4.468v-1.459c0-0.99,0.139-1.88,0.416-2.669
					c0.277-0.79,0.679-1.46,1.203-2.011c0.525-0.55,1.172-0.973,1.939-1.268c0.769-0.294,1.647-0.441,2.638-0.441
					c0.981,0,1.856,0.149,2.625,0.448c0.768,0.299,1.416,0.724,1.945,1.273c0.529,0.551,0.933,1.221,1.21,2.011
					c0.277,0.789,0.416,1.675,0.416,2.656c0,0.479-0.051,0.952-0.153,1.421c-0.103,0.47-0.252,0.916-0.448,1.338
					c-0.196,0.423-0.439,0.812-0.729,1.165c-0.29,0.354-0.623,0.651-0.999,0.89c0.393,0.299,0.736,0.651,1.031,1.057
					c0.294,0.405,0.537,0.845,0.729,1.318s0.335,0.976,0.429,1.505s0.141,1.075,0.141,1.639c0,1.05-0.11,2.017-0.333,2.899
					c-0.222,0.884-0.58,1.646-1.075,2.285c-0.495,0.641-1.135,1.142-1.92,1.505c-0.786,0.362-1.741,0.544-2.868,0.544
					c-1.195,0-2.185-0.18-2.97-0.538c-0.786-0.358-1.415-0.854-1.889-1.485c-0.474-0.631-0.809-1.382-1.005-2.253
					c-0.196-0.87-0.304-1.818-0.32-2.842l-0.013-0.781H193.196z"/>
				<path fill="#828282" d="M205.794,175.641h3.598l1.331,10.396l1.383-10.396h3.252l1.255,10.601l1.459-10.601h3.329l-2.471,16.797
					h-3.713l-1.575-9.871l-1.689,9.871h-3.713L205.794,175.641z"/>
				<path fill="#828282" d="M222.745,180.993c0-0.888,0.104-1.682,0.313-2.382c0.209-0.699,0.526-1.291,0.953-1.773
					c0.427-0.481,0.961-0.851,1.601-1.107c0.641-0.256,1.396-0.384,2.267-0.384c0.87,0,1.628,0.126,2.272,0.378
					s1.178,0.619,1.6,1.101c0.423,0.482,0.738,1.074,0.948,1.773c0.209,0.7,0.313,1.498,0.313,2.395v3.456h-5.953v3.7
					c0,0.939,0.272,1.408,0.819,1.408c0.597,0,0.896-0.503,0.896-1.511v-1.83h4.238v1.882c0,0.699-0.137,1.338-0.41,1.914
					s-0.645,1.071-1.113,1.484c-0.47,0.414-1.016,0.736-1.639,0.967s-1.28,0.346-1.972,0.346s-1.349-0.115-1.972-0.346
					s-1.17-0.553-1.639-0.967c-0.47-0.413-0.841-0.91-1.114-1.491c-0.273-0.58-0.409-1.216-0.409-1.907V180.993z M228.736,182.183
					v-2.305c0-0.845-0.286-1.268-0.857-1.268c-0.547,0-0.819,0.423-0.819,1.268v2.305H228.736z"/>
				<path fill="#828282" d="M234.78,180.993c0-0.888,0.104-1.682,0.313-2.382c0.209-0.699,0.526-1.291,0.953-1.773
					c0.427-0.481,0.961-0.851,1.601-1.107c0.641-0.256,1.396-0.384,2.267-0.384c0.87,0,1.628,0.126,2.272,0.378
					s1.178,0.619,1.6,1.101c0.423,0.482,0.738,1.074,0.948,1.773c0.209,0.7,0.313,1.498,0.313,2.395v3.456h-5.953v3.7
					c0,0.939,0.272,1.408,0.819,1.408c0.597,0,0.896-0.503,0.896-1.511v-1.83h4.238v1.882c0,0.699-0.137,1.338-0.41,1.914
					s-0.645,1.071-1.113,1.484c-0.47,0.414-1.016,0.736-1.639,0.967s-1.28,0.346-1.972,0.346s-1.349-0.115-1.972-0.346
					s-1.17-0.553-1.639-0.967c-0.47-0.413-0.841-0.91-1.114-1.491c-0.273-0.58-0.409-1.216-0.409-1.907V180.993z M240.771,182.183
					v-2.305c0-0.845-0.286-1.268-0.857-1.268c-0.547,0-0.819,0.423-0.819,1.268v2.305H240.771z"/>
				<path fill="#828282" d="M247.083,169.393h4.314v12.137l2.638-5.889h4.621l-4.109,7.144l4.097,9.653h-4.468l-2.202-7.451
					l-0.576,0.973v6.479h-4.314V169.393z"/>
				<path fill="#828282" d="M262.587,187.227l0.205,0.602c0.068,0.197,0.151,0.401,0.249,0.615c0.099,0.213,0.216,0.409,0.353,0.589
					c0.137,0.179,0.29,0.326,0.461,0.441s0.367,0.173,0.589,0.173c0.538,0,0.807-0.315,0.807-0.947c0-0.333-0.088-0.653-0.263-0.96
					c-0.175-0.308-0.393-0.603-0.652-0.884c-0.261-0.281-0.54-0.548-0.839-0.8s-0.568-0.484-0.807-0.698l-0.704-0.602
					c-0.461-0.393-0.873-0.781-1.235-1.165c-0.363-0.384-0.671-0.774-0.922-1.172c-0.252-0.396-0.444-0.807-0.576-1.229
					c-0.133-0.423-0.198-0.868-0.198-1.338c0-0.743,0.151-1.394,0.454-1.952c0.303-0.56,0.704-1.029,1.203-1.408
					c0.5-0.38,1.076-0.664,1.729-0.852c0.653-0.188,1.325-0.282,2.017-0.282c0.648,0,1.248,0.133,1.799,0.397
					s1.046,0.614,1.485,1.05c0.439,0.435,0.817,0.935,1.133,1.498c0.315,0.562,0.559,1.139,0.729,1.728l-3.098,1.063l-0.257-0.628
					c-0.222-0.537-0.488-0.981-0.8-1.331c-0.312-0.351-0.685-0.547-1.12-0.589c-0.299,0-0.531,0.106-0.698,0.319
					c-0.166,0.214-0.249,0.457-0.249,0.73c0,0.384,0.207,0.805,0.621,1.261c0.413,0.457,0.983,0.992,1.709,1.606l0.794,0.704
					c0.4,0.358,0.782,0.732,1.146,1.12c0.362,0.389,0.683,0.794,0.96,1.217s0.497,0.854,0.659,1.293s0.243,0.89,0.243,1.351
					c0,0.666-0.128,1.285-0.384,1.856c-0.256,0.572-0.605,1.064-1.05,1.479c-0.443,0.414-0.962,0.738-1.556,0.974
					c-0.593,0.234-1.223,0.352-1.888,0.352c-0.649,0-1.26-0.106-1.831-0.32c-0.572-0.213-1.088-0.514-1.549-0.902
					c-0.461-0.388-0.86-0.852-1.197-1.389c-0.338-0.538-0.596-1.136-0.774-1.793L262.587,187.227z"/>
				<path fill="#828282" d="M110.824,218.872c-0.248,0.777-0.653,1.321-1.216,1.633c-0.563,0.312-1.263,0.467-2.1,0.467
					c-0.614,0-1.152-0.119-1.613-0.358c-0.46-0.238-0.821-0.561-1.082-0.967c-0.261-0.405-0.453-0.84-0.576-1.306
					c-0.124-0.465-0.186-0.954-0.186-1.466c0-0.58,0.06-1.118,0.179-1.613c0.119-0.495,0.271-0.933,0.455-1.312
					c0.183-0.379,0.439-0.744,0.768-1.095c0.329-0.35,0.648-0.646,0.96-0.89s0.711-0.494,1.197-0.755s0.922-0.479,1.306-0.653
					c0.384-0.175,0.866-0.382,1.447-0.621v-1.408c0-0.589-0.073-1.028-0.218-1.318s-0.393-0.436-0.742-0.436
					c-0.239,0-0.434,0.05-0.583,0.147c-0.149,0.099-0.254,0.245-0.314,0.441s-0.098,0.374-0.115,0.531
					c-0.017,0.158-0.025,0.369-0.025,0.634v0.947h-4.187c0-1.92,0.482-3.395,1.447-4.423c0.964-1.028,2.364-1.543,4.199-1.543
					c1.28,0,2.402,0.466,3.367,1.396c0.964,0.931,1.447,2.036,1.447,3.316v7.938c0,1.374,0.183,2.854,0.55,4.442h-3.943
					L110.824,218.872z M110.363,212.713c-1.408,1.136-2.112,2.391-2.112,3.765c0,0.341,0.066,0.634,0.198,0.877
					s0.356,0.364,0.672,0.364c0.179,0,0.356-0.058,0.531-0.173s0.301-0.215,0.377-0.301c0.077-0.085,0.192-0.226,0.346-0.422
					L110.363,212.713z"/>
				<path fill="#828282" d="M117.609,206.683h-0.973v-2.88h0.973v-0.026c0.008-0.452,0.03-0.874,0.064-1.267
					s0.096-0.812,0.186-1.255c0.09-0.444,0.222-0.826,0.397-1.146c0.175-0.319,0.395-0.616,0.659-0.89
					c0.265-0.272,0.602-0.479,1.012-0.621c0.41-0.141,0.879-0.211,1.408-0.211c0.811,0,1.716,0.06,2.714,0.18v3.226l-1.127-0.076
					c-0.358,0-0.614,0.101-0.768,0.301s-0.23,0.565-0.23,1.095v0.691h2.087v2.88h-2.087V220.6h-4.314V206.683z"/>
				<path fill="#828282" d="M125.585,206.683h-1.229v-2.88h1.229V198.4h4.314v5.403h2.075v2.88H129.9v9.219
					c0,0.461,0.085,0.805,0.256,1.03c0.171,0.227,0.474,0.339,0.909,0.339c0.496,0,0.914-0.025,1.256-0.076l-0.256,3.341
					c-0.564,0.171-1.388,0.257-2.472,0.257c-0.504,0-0.958-0.061-1.364-0.18s-0.747-0.279-1.024-0.48
					c-0.278-0.2-0.517-0.454-0.717-0.762c-0.201-0.307-0.358-0.62-0.474-0.94s-0.205-0.693-0.269-1.12
					c-0.064-0.427-0.106-0.824-0.128-1.19c-0.021-0.367-0.032-0.786-0.032-1.255V206.683z"/>
				<path fill="#828282" d="M133.639,209.155c0-0.888,0.104-1.682,0.313-2.382c0.209-0.699,0.526-1.291,0.953-1.773
					c0.427-0.481,0.961-0.851,1.601-1.107c0.641-0.256,1.396-0.384,2.267-0.384c0.87,0,1.628,0.126,2.272,0.378
					s1.178,0.619,1.6,1.101c0.423,0.482,0.738,1.074,0.948,1.773c0.209,0.7,0.313,1.498,0.313,2.395v3.456h-5.953v3.7
					c0,0.939,0.272,1.408,0.819,1.408c0.597,0,0.896-0.503,0.896-1.511v-1.83h4.238v1.882c0,0.699-0.137,1.338-0.41,1.914
					s-0.645,1.071-1.113,1.484c-0.47,0.414-1.016,0.736-1.639,0.967s-1.28,0.346-1.972,0.346s-1.349-0.115-1.972-0.346
					s-1.17-0.553-1.639-0.967c-0.47-0.413-0.841-0.91-1.114-1.491c-0.273-0.58-0.409-1.216-0.409-1.907V209.155z M139.63,210.345
					v-2.305c0-0.845-0.286-1.268-0.857-1.268c-0.547,0-0.819,0.423-0.819,1.268v2.305H139.63z"/>
				<path fill="#828282" d="M145.877,203.803h4.289v1.446c0.657-1.066,1.426-1.601,2.305-1.601c0.247,0,0.636,0.043,1.165,0.128
					l-0.256,3.637c-0.785-0.086-1.259-0.128-1.421-0.128c-0.589,0-1.035,0.181-1.338,0.544c-0.304,0.362-0.455,0.881-0.455,1.556
					V220.6h-4.289V203.803z"/>
				<path fill="#828282" d="M158.604,197.555h4.314V220.6h-4.314V197.555z"/>
				<path fill="#828282" d="M171.663,218.872c-0.248,0.777-0.653,1.321-1.217,1.633s-1.263,0.467-2.1,0.467
					c-0.614,0-1.152-0.119-1.613-0.358c-0.461-0.238-0.821-0.561-1.082-0.967c-0.26-0.405-0.452-0.84-0.576-1.306
					c-0.123-0.465-0.186-0.954-0.186-1.466c0-0.58,0.06-1.118,0.18-1.613c0.119-0.495,0.271-0.933,0.454-1.312
					c0.184-0.379,0.439-0.744,0.769-1.095c0.328-0.35,0.648-0.646,0.96-0.89s0.711-0.494,1.197-0.755s0.922-0.479,1.306-0.653
					s0.866-0.382,1.447-0.621v-1.408c0-0.589-0.073-1.028-0.218-1.318c-0.146-0.29-0.393-0.436-0.743-0.436
					c-0.238,0-0.433,0.05-0.582,0.147c-0.149,0.099-0.254,0.245-0.313,0.441c-0.061,0.196-0.099,0.374-0.115,0.531
					c-0.018,0.158-0.026,0.369-0.026,0.634v0.947h-4.187c0-1.92,0.482-3.395,1.447-4.423c0.964-1.028,2.364-1.543,4.199-1.543
					c1.28,0,2.402,0.466,3.367,1.396c0.964,0.931,1.446,2.036,1.446,3.316v7.938c0,1.374,0.184,2.854,0.551,4.442h-3.943
					L171.663,218.872z M171.202,212.713c-1.408,1.136-2.113,2.391-2.113,3.765c0,0.341,0.066,0.634,0.199,0.877
					c0.132,0.243,0.355,0.364,0.672,0.364c0.179,0,0.356-0.058,0.531-0.173s0.301-0.215,0.378-0.301
					c0.076-0.085,0.191-0.226,0.346-0.422L171.202,212.713z"/>
				<path fill="#828282" d="M177.757,203.803h4.314v12.508c0,0.939,0.196,1.408,0.589,1.408c0.384,0,0.832-0.315,1.344-0.947
					v-12.969h4.314V220.6h-4.314v-1.446c-0.435,0.529-0.943,0.964-1.523,1.306c-0.58,0.341-1.169,0.512-1.767,0.512
					c-0.879,0-1.592-0.373-2.138-1.12c-0.547-0.747-0.819-1.577-0.819-2.49V203.803z"/>
				<path fill="#828282" d="M190.726,203.803h4.314v1.268c0.41-0.47,0.903-0.846,1.479-1.127c0.576-0.282,1.175-0.423,1.799-0.423
					c0.469,0,0.887,0.111,1.254,0.333c0.367,0.223,0.677,0.506,0.929,0.852s0.443,0.734,0.576,1.165
					c0.132,0.431,0.198,0.852,0.198,1.261V220.6h-4.314v-12.713c0-0.743-0.239-1.114-0.717-1.114c-0.103,0-0.212,0.025-0.327,0.077
					c-0.115,0.051-0.215,0.115-0.301,0.192l-0.269,0.256c-0.051,0.051-0.09,0.092-0.115,0.121c-0.025,0.03-0.09,0.104-0.192,0.225
					V220.6h-4.314V203.803z"/>
				<path fill="#828282" d="M203.388,209.155c0-1.775,0.422-3.16,1.267-4.155c0.846-0.994,2.134-1.491,3.867-1.491
					c1.741,0,3.032,0.495,3.872,1.485c0.841,0.99,1.262,2.377,1.262,4.161v1.459h-4.238v-1.907c0-0.666-0.058-1.154-0.173-1.466
					s-0.356-0.468-0.723-0.468c-0.547,0-0.819,0.423-0.819,1.268v8.271c0,0.939,0.272,1.408,0.819,1.408
					c0.204,0,0.369-0.042,0.492-0.128c0.124-0.085,0.214-0.23,0.27-0.436c0.055-0.204,0.092-0.416,0.108-0.634
					c0.018-0.217,0.025-0.522,0.025-0.915v-1.779h4.238v2.496c0,0.922-0.239,1.743-0.717,2.465
					c-0.479,0.722-1.105,1.266-1.883,1.632c-0.776,0.367-1.621,0.551-2.534,0.551c-1.408,0-2.616-0.429-3.623-1.286
					c-1.008-0.858-1.511-1.979-1.511-3.361V209.155z"/>
				<path fill="#828282" d="M215.473,197.555h4.314v7.528c0.419-0.47,0.916-0.85,1.492-1.14s1.171-0.436,1.786-0.436
					c0.589,0,1.115,0.188,1.581,0.563c0.465,0.376,0.811,0.837,1.037,1.383c0.226,0.546,0.339,1.109,0.339,1.689V220.6h-4.314
					v-12.329c0-0.034,0.002-0.108,0.006-0.224c0.005-0.115,0.005-0.209,0-0.282c-0.004-0.072-0.008-0.166-0.013-0.281
					c-0.004-0.115-0.019-0.207-0.045-0.275c-0.025-0.068-0.06-0.141-0.102-0.218c-0.043-0.077-0.101-0.132-0.173-0.166
					c-0.073-0.034-0.16-0.052-0.263-0.052c-0.171,0-0.354,0.068-0.551,0.205s-0.337,0.252-0.423,0.346
					c-0.085,0.094-0.204,0.23-0.358,0.409V220.6h-4.314V197.555z"/>
			</g>
		</g>
	</g>
</g>
</svg>
