<?xml version="1.0" encoding="utf-8"?>
<!-- Generator: Adobe Illustrator 15.0.2, SVG Export Plug-In . SVG Version: 6.00 Build 0)  -->
<!DOCTYPE svg PUBLIC "-//W3C//DTD SVG 1.1//EN" "http://www.w3.org/Graphics/SVG/1.1/DTD/svg11.dtd">
<svg version="1.1" id="Layer_1" xmlns="http://www.w3.org/2000/svg" xmlns:xlink="http://www.w3.org/1999/xlink" x="0px" y="0px"
	 width="271px" height="223px" viewBox="0 0 271 223" enable-background="new 0 0 271 223" xml:space="preserve">
<g>
	<g>
		<path opacity="0.1" fill="#A5A5A5" d="M269.955,208.834c0.148-5.101-60.922-1.414-136.535-3.615
			c-75.611-2.2-133.27,5.488-133.419,10.588c-0.149,5.101,59.541,4.474,135.155,6.675
			C210.77,224.685,269.808,213.935,269.955,208.834z"/>
		<g>
			<g>
				<path fill="#5E5E5E" d="M103.429,130.246h4.549l2.096,14.383l2.32-14.383h4.482l-4.693,23.73h-4.391L103.429,130.246z"/>
				<path fill="#5E5E5E" d="M118.273,142.19c0-0.914,0.107-1.731,0.323-2.452c0.215-0.721,0.542-1.329,0.982-1.826
					c0.438-0.496,0.988-0.876,1.647-1.14s1.437-0.396,2.333-0.396s1.677,0.13,2.341,0.389c0.663,0.259,1.213,0.637,1.647,1.134
					c0.436,0.497,0.761,1.105,0.976,1.826c0.216,0.721,0.323,1.542,0.323,2.465v3.56h-6.131v3.81c0,0.967,0.281,1.45,0.844,1.45
					c0.615,0,0.924-0.519,0.924-1.556v-1.885h4.363v1.938c0,0.721-0.141,1.377-0.422,1.971c-0.281,0.593-0.664,1.103-1.146,1.529
					c-0.484,0.426-1.047,0.758-1.688,0.995c-0.643,0.237-1.318,0.356-2.031,0.356c-0.711,0-1.389-0.119-2.029-0.356
					c-0.643-0.237-1.205-0.569-1.688-0.995c-0.484-0.426-0.866-0.938-1.147-1.536s-0.422-1.252-0.422-1.964V142.19z
					 M124.443,143.417v-2.373c0-0.87-0.295-1.305-0.884-1.305c-0.562,0-0.844,0.435-0.844,1.305v2.373H124.443z"/>
				<path fill="#5E5E5E" d="M130.877,130.246h4.442v7.752c0.431-0.483,0.943-0.875,1.536-1.173c0.594-0.299,1.206-0.448,1.839-0.448
					c0.607,0,1.149,0.193,1.629,0.58c0.479,0.387,0.835,0.861,1.067,1.424c0.233,0.562,0.35,1.143,0.35,1.74v13.856h-4.442v-12.696
					c0-0.035,0.002-0.112,0.006-0.231c0.005-0.118,0.005-0.215,0-0.29c-0.004-0.074-0.009-0.171-0.013-0.29
					c-0.005-0.118-0.021-0.213-0.046-0.283c-0.027-0.07-0.062-0.145-0.105-0.224c-0.045-0.079-0.104-0.136-0.179-0.171
					c-0.074-0.035-0.165-0.053-0.271-0.053c-0.176,0-0.364,0.07-0.566,0.211s-0.348,0.259-0.436,0.356s-0.211,0.237-0.369,0.422
					v13.25h-4.442V130.246z"/>
				<path fill="#5E5E5E" d="M144.153,131.024h4.443v4.153h-4.443V131.024z M144.153,136.68h4.443v17.297h-4.443V136.68z"/>
				<path fill="#5E5E5E" d="M150.891,142.19c0-1.828,0.435-3.254,1.306-4.278c0.869-1.023,2.196-1.536,3.98-1.536
					c1.793,0,3.123,0.51,3.988,1.529c0.866,1.02,1.299,2.448,1.299,4.285v1.503h-4.363v-1.964c0-0.686-0.06-1.188-0.179-1.509
					c-0.118-0.321-0.367-0.481-0.745-0.481c-0.562,0-0.844,0.435-0.844,1.305v8.517c0,0.967,0.281,1.45,0.844,1.45
					c0.211,0,0.381-0.044,0.508-0.132c0.128-0.088,0.22-0.237,0.277-0.448c0.057-0.211,0.094-0.428,0.111-0.653
					c0.018-0.224,0.027-0.538,0.027-0.942v-1.833h4.363v2.571c0,0.949-0.246,1.795-0.738,2.538s-1.139,1.303-1.938,1.681
					c-0.801,0.378-1.671,0.567-2.611,0.567c-1.449,0-2.693-0.442-3.73-1.325c-1.037-0.884-1.556-2.037-1.556-3.461V142.19z"/>
				<path fill="#5E5E5E" d="M163.362,130.246h4.443v23.73h-4.443V130.246z"/>
				<path fill="#5E5E5E" d="M170.1,142.19c0-0.914,0.107-1.731,0.323-2.452c0.215-0.721,0.542-1.329,0.982-1.826
					c0.438-0.496,0.988-0.876,1.647-1.14s1.437-0.396,2.333-0.396s1.677,0.13,2.341,0.389c0.663,0.259,1.213,0.637,1.647,1.134
					c0.436,0.497,0.761,1.105,0.976,1.826c0.216,0.721,0.323,1.542,0.323,2.465v3.56h-6.131v3.81c0,0.967,0.281,1.45,0.844,1.45
					c0.615,0,0.924-0.519,0.924-1.556v-1.885h4.363v1.938c0,0.721-0.141,1.377-0.422,1.971c-0.281,0.593-0.664,1.103-1.146,1.529
					c-0.484,0.426-1.047,0.758-1.688,0.995c-0.643,0.237-1.318,0.356-2.031,0.356c-0.711,0-1.389-0.119-2.029-0.356
					c-0.643-0.237-1.205-0.569-1.688-0.995c-0.484-0.426-0.866-0.938-1.147-1.536s-0.422-1.252-0.422-1.964V142.19z M176.27,143.417
					v-2.373c0-0.87-0.295-1.305-0.884-1.305c-0.562,0-0.844,0.435-0.844,1.305v2.373H176.27z"/>
				<path fill="#5E5E5E" d="M185.538,148.611l0.211,0.62c0.069,0.202,0.155,0.413,0.257,0.633c0.101,0.22,0.222,0.422,0.362,0.606
					s0.299,0.336,0.475,0.455c0.176,0.118,0.378,0.178,0.606,0.178c0.554,0,0.831-0.325,0.831-0.976
					c0-0.343-0.091-0.672-0.271-0.989c-0.181-0.316-0.404-0.62-0.673-0.91c-0.268-0.29-0.556-0.564-0.863-0.824
					c-0.308-0.259-0.585-0.499-0.83-0.718l-0.726-0.62c-0.475-0.404-0.898-0.804-1.272-1.2c-0.373-0.396-0.689-0.797-0.949-1.207
					c-0.259-0.408-0.457-0.83-0.593-1.266c-0.137-0.435-0.204-0.894-0.204-1.377c0-0.765,0.155-1.435,0.468-2.01
					c0.312-0.576,0.725-1.059,1.239-1.45c0.514-0.391,1.107-0.684,1.779-0.877c0.673-0.193,1.365-0.29,2.076-0.29
					c0.668,0,1.286,0.136,1.853,0.409c0.567,0.272,1.077,0.633,1.529,1.081c0.453,0.448,0.842,0.962,1.167,1.542
					s0.575,1.173,0.752,1.78l-3.191,1.094l-0.264-0.646c-0.229-0.554-0.503-1.011-0.823-1.371c-0.321-0.36-0.706-0.562-1.153-0.606
					c-0.309,0-0.548,0.11-0.719,0.33c-0.172,0.22-0.258,0.47-0.258,0.751c0,0.396,0.214,0.829,0.64,1.298
					c0.427,0.471,1.013,1.022,1.761,1.655l0.816,0.725c0.413,0.369,0.807,0.754,1.181,1.153c0.373,0.4,0.703,0.817,0.988,1.253
					c0.286,0.435,0.512,0.879,0.679,1.331c0.167,0.453,0.251,0.917,0.251,1.391c0,0.686-0.132,1.323-0.396,1.912
					s-0.624,1.097-1.081,1.522c-0.457,0.427-0.991,0.761-1.602,1.002c-0.611,0.242-1.259,0.363-1.944,0.363
					c-0.669,0-1.297-0.11-1.886-0.33s-1.12-0.529-1.595-0.93c-0.475-0.399-0.886-0.876-1.233-1.43
					c-0.347-0.554-0.612-1.169-0.798-1.846L185.538,148.611z"/>
				<path fill="#5E5E5E" d="M200.726,148.611l0.211,0.62c0.069,0.202,0.155,0.413,0.257,0.633c0.101,0.22,0.222,0.422,0.362,0.606
					s0.299,0.336,0.475,0.455c0.176,0.118,0.378,0.178,0.606,0.178c0.554,0,0.831-0.325,0.831-0.976
					c0-0.343-0.091-0.672-0.271-0.989c-0.181-0.316-0.404-0.62-0.673-0.91c-0.268-0.29-0.556-0.564-0.863-0.824
					c-0.308-0.259-0.585-0.499-0.83-0.718l-0.726-0.62c-0.475-0.404-0.898-0.804-1.272-1.2c-0.373-0.396-0.689-0.797-0.949-1.207
					c-0.259-0.408-0.457-0.83-0.593-1.266c-0.137-0.435-0.204-0.894-0.204-1.377c0-0.765,0.155-1.435,0.468-2.01
					c0.312-0.576,0.725-1.059,1.239-1.45c0.514-0.391,1.107-0.684,1.779-0.877c0.673-0.193,1.365-0.29,2.076-0.29
					c0.668,0,1.286,0.136,1.853,0.409c0.567,0.272,1.077,0.633,1.529,1.081c0.453,0.448,0.842,0.962,1.167,1.542
					s0.575,1.173,0.752,1.78l-3.191,1.094l-0.264-0.646c-0.229-0.554-0.503-1.011-0.823-1.371c-0.321-0.36-0.706-0.562-1.153-0.606
					c-0.309,0-0.548,0.11-0.719,0.33c-0.172,0.22-0.258,0.47-0.258,0.751c0,0.396,0.214,0.829,0.64,1.298
					c0.427,0.471,1.013,1.022,1.761,1.655l0.816,0.725c0.413,0.369,0.807,0.754,1.181,1.153c0.373,0.4,0.703,0.817,0.988,1.253
					c0.286,0.435,0.512,0.879,0.679,1.331c0.167,0.453,0.251,0.917,0.251,1.391c0,0.686-0.132,1.323-0.396,1.912
					s-0.624,1.097-1.081,1.522c-0.457,0.427-0.991,0.761-1.602,1.002c-0.611,0.242-1.259,0.363-1.944,0.363
					c-0.669,0-1.297-0.11-1.886-0.33s-1.12-0.529-1.595-0.93c-0.475-0.399-0.886-0.876-1.233-1.43
					c-0.347-0.554-0.612-1.169-0.798-1.846L200.726,148.611z"/>
				<path fill="#5E5E5E" d="M209.202,142.19c0-0.914,0.105-1.729,0.316-2.445s0.536-1.323,0.976-1.819s0.995-0.877,1.668-1.141
					c0.672-0.264,1.47-0.396,2.393-0.396s1.723,0.13,2.399,0.389c0.677,0.26,1.239,0.638,1.688,1.134
					c0.448,0.497,0.782,1.104,1.002,1.819c0.22,0.717,0.329,1.536,0.329,2.459v7.317c0,0.721-0.145,1.377-0.435,1.971
					c-0.29,0.593-0.682,1.103-1.173,1.529c-0.493,0.426-1.066,0.758-1.721,0.995c-0.655,0.237-1.352,0.356-2.09,0.356
					c-0.694,0-1.364-0.11-2.011-0.33c-0.646-0.22-1.215-0.538-1.707-0.956c-0.492-0.417-0.888-0.927-1.187-1.529
					c-0.299-0.602-0.448-1.281-0.448-2.037V142.19z M215.57,141.043c0-0.87-0.339-1.305-1.016-1.305c-0.606,0-0.91,0.435-0.91,1.305
					v8.517c0,0.158,0.007,0.323,0.021,0.495c0.013,0.171,0.048,0.327,0.105,0.468c0.057,0.141,0.146,0.257,0.271,0.35
					c0.122,0.092,0.294,0.138,0.514,0.138c0.677,0,1.016-0.483,1.016-1.45V141.043z"/>
				<path fill="#5E5E5E" d="M222.267,130.246h4.443v23.73h-4.443V130.246z"/>
				<path fill="#5E5E5E" d="M229.017,140.516c0-1.09,0.344-2.052,1.029-2.887s1.533-1.252,2.544-1.252
					c0.554,0,1.079,0.143,1.575,0.428c0.497,0.286,0.925,0.662,1.285,1.127v-7.686h4.443v23.73h-4.443v-1.292
					c-0.352,0.519-0.791,0.927-1.318,1.226s-1.085,0.448-1.674,0.448c-0.976,0-1.793-0.367-2.452-1.101
					c-0.659-0.733-0.989-1.593-0.989-2.577V140.516z M235.45,140.727c-0.5-0.659-0.918-0.989-1.252-0.989
					c-0.492,0-0.738,0.378-0.738,1.134v8.899c0,0.237,0.011,0.433,0.033,0.586c0.021,0.154,0.092,0.301,0.211,0.442
					c0.118,0.141,0.283,0.211,0.494,0.211c0.378,0,0.795-0.316,1.252-0.949V140.727z"/>
				<path fill="#5E5E5E" d="M104.603,168.646h-1.266v-2.966h1.266v-5.563h4.442v5.563h2.136v2.966h-2.136v9.492
					c0,0.475,0.088,0.829,0.264,1.061c0.176,0.233,0.487,0.35,0.937,0.35c0.509,0,0.939-0.026,1.291-0.079l-0.264,3.441
					c-0.58,0.176-1.428,0.264-2.544,0.264c-0.519,0-0.986-0.062-1.404-0.185c-0.417-0.123-0.769-0.288-1.055-0.495
					c-0.285-0.206-0.531-0.468-0.738-0.784c-0.206-0.316-0.369-0.64-0.487-0.969c-0.119-0.33-0.211-0.714-0.277-1.154
					c-0.065-0.439-0.109-0.848-0.132-1.226c-0.021-0.378-0.032-0.809-0.032-1.292V168.646z"/>
				<path fill="#5E5E5E" d="M113.105,159.246h4.442v7.752c0.431-0.483,0.943-0.875,1.536-1.173c0.594-0.299,1.206-0.448,1.839-0.448
					c0.607,0,1.149,0.193,1.629,0.58c0.479,0.387,0.835,0.861,1.067,1.424c0.233,0.562,0.35,1.143,0.35,1.74v13.856h-4.442v-12.696
					c0-0.035,0.002-0.112,0.006-0.231c0.005-0.118,0.005-0.215,0-0.29c-0.004-0.074-0.009-0.171-0.013-0.29
					c-0.005-0.118-0.021-0.213-0.046-0.283c-0.027-0.07-0.062-0.145-0.105-0.224c-0.045-0.079-0.104-0.136-0.179-0.171
					c-0.074-0.035-0.165-0.053-0.271-0.053c-0.176,0-0.364,0.07-0.566,0.211s-0.348,0.259-0.436,0.356s-0.211,0.237-0.369,0.422
					v13.25h-4.442V159.246z"/>
				<path fill="#5E5E5E" d="M126.145,171.19c0-0.914,0.107-1.731,0.323-2.452c0.215-0.721,0.542-1.329,0.982-1.826
					c0.438-0.496,0.988-0.876,1.647-1.14s1.437-0.396,2.333-0.396s1.677,0.13,2.341,0.389c0.663,0.259,1.213,0.637,1.647,1.134
					c0.436,0.497,0.761,1.105,0.976,1.826c0.216,0.721,0.323,1.542,0.323,2.465v3.56h-6.131v3.81c0,0.967,0.281,1.45,0.844,1.45
					c0.615,0,0.924-0.519,0.924-1.556v-1.885h4.363v1.938c0,0.721-0.141,1.377-0.422,1.971c-0.281,0.593-0.664,1.103-1.146,1.529
					c-0.484,0.426-1.047,0.758-1.688,0.995c-0.643,0.237-1.318,0.356-2.031,0.356c-0.711,0-1.389-0.119-2.029-0.356
					c-0.643-0.237-1.205-0.569-1.688-0.995c-0.484-0.426-0.866-0.938-1.147-1.536s-0.422-1.252-0.422-1.964V171.19z
					 M132.314,172.417v-2.373c0-0.87-0.295-1.305-0.884-1.305c-0.562,0-0.844,0.435-0.844,1.305v2.373H132.314z"/>
				<path fill="#5E5E5E" d="M143.033,168.646h-1.002v-2.966h1.002v-0.026c0.008-0.466,0.03-0.901,0.065-1.305
					s0.099-0.835,0.191-1.292c0.092-0.457,0.229-0.85,0.408-1.18c0.181-0.329,0.406-0.635,0.679-0.916s0.62-0.494,1.042-0.64
					c0.422-0.145,0.905-0.217,1.45-0.217c0.835,0,1.767,0.062,2.795,0.185v3.322l-1.16-0.079c-0.369,0-0.633,0.104-0.791,0.31
					s-0.237,0.582-0.237,1.127v0.712h2.149v2.966h-2.149v14.331h-4.442V168.646z"/>
				<path fill="#5E5E5E" d="M150.97,160.024h4.443v4.153h-4.443V160.024z M150.97,165.68h4.443v17.297h-4.443V165.68z"/>
				<path fill="#5E5E5E" d="M157.918,165.68h4.417v1.49c0.676-1.099,1.467-1.648,2.373-1.648c0.254,0,0.654,0.044,1.199,0.132
					l-0.264,3.744c-0.809-0.088-1.297-0.132-1.463-0.132c-0.607,0-1.066,0.187-1.378,0.561c-0.312,0.374-0.468,0.907-0.468,1.602
					v11.549h-4.417V165.68z"/>
				<path fill="#5E5E5E" d="M170.166,177.611l0.211,0.62c0.069,0.202,0.155,0.413,0.257,0.633c0.101,0.22,0.222,0.422,0.362,0.606
					s0.299,0.336,0.475,0.455c0.176,0.118,0.378,0.178,0.606,0.178c0.554,0,0.831-0.325,0.831-0.976
					c0-0.343-0.091-0.672-0.271-0.989c-0.181-0.316-0.404-0.62-0.673-0.91c-0.268-0.29-0.556-0.564-0.863-0.824
					c-0.308-0.259-0.585-0.499-0.83-0.718l-0.726-0.62c-0.475-0.404-0.898-0.804-1.272-1.2c-0.373-0.396-0.689-0.797-0.949-1.207
					c-0.259-0.408-0.457-0.83-0.593-1.266c-0.137-0.435-0.204-0.894-0.204-1.377c0-0.765,0.155-1.435,0.468-2.01
					c0.312-0.576,0.725-1.059,1.239-1.45c0.514-0.391,1.107-0.684,1.779-0.877c0.673-0.193,1.365-0.29,2.076-0.29
					c0.668,0,1.286,0.136,1.853,0.409c0.567,0.272,1.077,0.633,1.529,1.081c0.453,0.448,0.842,0.962,1.167,1.542
					s0.575,1.173,0.752,1.78l-3.191,1.094l-0.264-0.646c-0.229-0.554-0.503-1.011-0.823-1.371c-0.321-0.36-0.706-0.562-1.153-0.606
					c-0.309,0-0.548,0.11-0.719,0.33c-0.172,0.22-0.258,0.47-0.258,0.751c0,0.396,0.214,0.829,0.64,1.298
					c0.427,0.471,1.013,1.022,1.761,1.655l0.816,0.725c0.413,0.369,0.807,0.754,1.181,1.153c0.373,0.4,0.703,0.817,0.988,1.253
					c0.286,0.435,0.512,0.879,0.679,1.331c0.167,0.453,0.251,0.917,0.251,1.391c0,0.686-0.132,1.323-0.396,1.912
					s-0.624,1.097-1.081,1.522c-0.457,0.427-0.991,0.761-1.602,1.002c-0.611,0.242-1.259,0.363-1.944,0.363
					c-0.669,0-1.297-0.11-1.886-0.33s-1.12-0.529-1.595-0.93c-0.475-0.399-0.886-0.876-1.233-1.43
					c-0.347-0.554-0.612-1.169-0.798-1.846L170.166,177.611z"/>
				<path fill="#5E5E5E" d="M179.157,168.646h-1.266v-2.966h1.266v-5.563h4.442v5.563h2.136v2.966H183.6v9.492
					c0,0.475,0.088,0.829,0.264,1.061c0.176,0.233,0.487,0.35,0.937,0.35c0.509,0,0.939-0.026,1.291-0.079l-0.264,3.441
					c-0.58,0.176-1.428,0.264-2.544,0.264c-0.519,0-0.986-0.062-1.404-0.185c-0.417-0.123-0.769-0.288-1.055-0.495
					c-0.285-0.206-0.531-0.468-0.738-0.784c-0.206-0.316-0.369-0.64-0.487-0.969c-0.119-0.33-0.211-0.714-0.277-1.154
					c-0.065-0.439-0.109-0.848-0.132-1.226c-0.021-0.378-0.032-0.809-0.032-1.292V168.646z"/>
				<path fill="#5E5E5E" d="M190.441,165.68h3.705l1.371,10.705l1.424-10.705h3.349l1.292,10.916l1.503-10.916h3.428l-2.544,17.297
					h-3.824l-1.621-10.165l-1.74,10.165h-3.823L190.441,165.68z"/>
				<path fill="#5E5E5E" d="M207.896,171.19c0-0.914,0.107-1.731,0.323-2.452c0.215-0.721,0.542-1.329,0.982-1.826
					c0.438-0.496,0.988-0.876,1.647-1.14s1.437-0.396,2.333-0.396s1.677,0.13,2.341,0.389c0.663,0.259,1.213,0.637,1.647,1.134
					c0.436,0.497,0.761,1.105,0.976,1.826c0.216,0.721,0.323,1.542,0.323,2.465v3.56h-6.131v3.81c0,0.967,0.281,1.45,0.844,1.45
					c0.615,0,0.924-0.519,0.924-1.556v-1.885h4.363v1.938c0,0.721-0.141,1.377-0.422,1.971c-0.281,0.593-0.664,1.103-1.146,1.529
					c-0.484,0.426-1.047,0.758-1.688,0.995c-0.643,0.237-1.318,0.356-2.031,0.356c-0.711,0-1.389-0.119-2.029-0.356
					c-0.643-0.237-1.205-0.569-1.688-0.995c-0.484-0.426-0.866-0.938-1.147-1.536s-0.422-1.252-0.422-1.964V171.19z
					 M214.066,172.417v-2.373c0-0.87-0.295-1.305-0.884-1.305c-0.562,0-0.844,0.435-0.844,1.305v2.373H214.066z"/>
				<path fill="#5E5E5E" d="M220.289,171.19c0-0.914,0.107-1.731,0.323-2.452c0.215-0.721,0.542-1.329,0.982-1.826
					c0.438-0.496,0.988-0.876,1.647-1.14s1.437-0.396,2.333-0.396s1.677,0.13,2.341,0.389c0.663,0.259,1.213,0.637,1.647,1.134
					c0.436,0.497,0.761,1.105,0.976,1.826c0.216,0.721,0.323,1.542,0.323,2.465v3.56h-6.131v3.81c0,0.967,0.281,1.45,0.844,1.45
					c0.615,0,0.924-0.519,0.924-1.556v-1.885h4.363v1.938c0,0.721-0.141,1.377-0.422,1.971c-0.281,0.593-0.664,1.103-1.146,1.529
					c-0.484,0.426-1.047,0.758-1.688,0.995c-0.643,0.237-1.318,0.356-2.031,0.356c-0.711,0-1.389-0.119-2.029-0.356
					c-0.643-0.237-1.205-0.569-1.688-0.995c-0.484-0.426-0.866-0.938-1.147-1.536s-0.422-1.252-0.422-1.964V171.19z
					 M226.459,172.417v-2.373c0-0.87-0.295-1.305-0.884-1.305c-0.562,0-0.844,0.435-0.844,1.305v2.373H226.459z"/>
				<path fill="#5E5E5E" d="M232.958,159.246h4.443v12.498l2.716-6.064h4.759l-4.231,7.356l4.219,9.94h-4.601l-2.268-7.673
					l-0.594,1.002v6.671h-4.443V159.246z"/>
			</g>
			<g>
				<path fill="#828282" d="M103.83,129.949h4.549l2.096,14.383l2.32-14.383h4.482l-4.693,23.73h-4.391L103.83,129.949z"/>
				<path fill="#828282" d="M118.675,141.894c0-0.914,0.107-1.731,0.323-2.452c0.215-0.721,0.542-1.329,0.982-1.826
					c0.438-0.496,0.988-0.876,1.647-1.14s1.437-0.396,2.333-0.396s1.677,0.13,2.341,0.389c0.663,0.259,1.213,0.637,1.647,1.134
					c0.436,0.497,0.761,1.105,0.976,1.826c0.216,0.721,0.323,1.542,0.323,2.465v3.56h-6.131v3.81c0,0.967,0.281,1.45,0.844,1.45
					c0.615,0,0.924-0.519,0.924-1.556v-1.885h4.363v1.938c0,0.721-0.141,1.377-0.422,1.971c-0.281,0.593-0.664,1.103-1.146,1.529
					c-0.484,0.426-1.047,0.758-1.688,0.995c-0.643,0.237-1.318,0.356-2.031,0.356c-0.711,0-1.389-0.119-2.029-0.356
					c-0.643-0.237-1.205-0.569-1.688-0.995c-0.484-0.426-0.866-0.938-1.147-1.536s-0.422-1.252-0.422-1.964V141.894z
					 M124.845,143.12v-2.373c0-0.87-0.295-1.305-0.884-1.305c-0.562,0-0.844,0.435-0.844,1.305v2.373H124.845z"/>
				<path fill="#828282" d="M131.278,129.949h4.442v7.752c0.431-0.483,0.943-0.875,1.536-1.173c0.594-0.299,1.206-0.448,1.839-0.448
					c0.607,0,1.149,0.193,1.629,0.58c0.479,0.387,0.835,0.861,1.067,1.424c0.233,0.562,0.35,1.143,0.35,1.74v13.856h-4.442v-12.696
					c0-0.035,0.002-0.112,0.006-0.231c0.005-0.118,0.005-0.215,0-0.29c-0.004-0.074-0.009-0.171-0.013-0.29
					c-0.005-0.118-0.021-0.213-0.046-0.283c-0.027-0.07-0.062-0.145-0.105-0.224c-0.045-0.079-0.104-0.136-0.179-0.171
					c-0.074-0.035-0.165-0.053-0.271-0.053c-0.176,0-0.364,0.07-0.566,0.211s-0.348,0.259-0.436,0.356s-0.211,0.237-0.369,0.422
					v13.25h-4.442V129.949z"/>
				<path fill="#828282" d="M144.555,130.727h4.443v4.153h-4.443V130.727z M144.555,136.383h4.443v17.297h-4.443V136.383z"/>
				<path fill="#828282" d="M151.291,141.894c0-1.828,0.435-3.254,1.306-4.278c0.869-1.023,2.196-1.536,3.98-1.536
					c1.793,0,3.123,0.51,3.988,1.529c0.866,1.02,1.299,2.448,1.299,4.285v1.503h-4.363v-1.964c0-0.686-0.06-1.188-0.179-1.509
					c-0.118-0.321-0.367-0.481-0.745-0.481c-0.562,0-0.844,0.435-0.844,1.305v8.517c0,0.967,0.281,1.45,0.844,1.45
					c0.211,0,0.381-0.044,0.508-0.132c0.128-0.088,0.22-0.237,0.277-0.448c0.057-0.211,0.094-0.428,0.111-0.653
					c0.018-0.224,0.027-0.538,0.027-0.942v-1.833h4.363v2.571c0,0.949-0.246,1.795-0.738,2.538s-1.139,1.303-1.938,1.681
					c-0.801,0.378-1.671,0.567-2.611,0.567c-1.449,0-2.693-0.442-3.73-1.325c-1.037-0.884-1.556-2.037-1.556-3.461V141.894z"/>
				<path fill="#828282" d="M163.763,129.949h4.443v23.73h-4.443V129.949z"/>
				<path fill="#828282" d="M170.499,141.894c0-0.914,0.107-1.731,0.323-2.452c0.215-0.721,0.542-1.329,0.982-1.826
					c0.438-0.496,0.988-0.876,1.647-1.14s1.437-0.396,2.333-0.396s1.677,0.13,2.341,0.389c0.663,0.259,1.213,0.637,1.647,1.134
					c0.436,0.497,0.761,1.105,0.976,1.826c0.216,0.721,0.323,1.542,0.323,2.465v3.56h-6.131v3.81c0,0.967,0.281,1.45,0.844,1.45
					c0.615,0,0.924-0.519,0.924-1.556v-1.885h4.363v1.938c0,0.721-0.141,1.377-0.422,1.971c-0.281,0.593-0.664,1.103-1.146,1.529
					c-0.484,0.426-1.047,0.758-1.688,0.995c-0.643,0.237-1.318,0.356-2.031,0.356c-0.711,0-1.389-0.119-2.029-0.356
					c-0.643-0.237-1.205-0.569-1.688-0.995c-0.484-0.426-0.866-0.938-1.147-1.536s-0.422-1.252-0.422-1.964V141.894z
					 M176.669,143.12v-2.373c0-0.87-0.295-1.305-0.884-1.305c-0.562,0-0.844,0.435-0.844,1.305v2.373H176.669z"/>
				<path fill="#828282" d="M185.938,148.314l0.211,0.62c0.069,0.202,0.155,0.413,0.257,0.633c0.101,0.22,0.222,0.422,0.362,0.606
					s0.299,0.336,0.475,0.455c0.176,0.118,0.378,0.178,0.606,0.178c0.554,0,0.831-0.325,0.831-0.976
					c0-0.343-0.091-0.672-0.271-0.989c-0.181-0.316-0.404-0.62-0.673-0.91c-0.268-0.29-0.556-0.564-0.863-0.824
					c-0.308-0.259-0.585-0.499-0.83-0.718l-0.726-0.62c-0.475-0.404-0.898-0.804-1.272-1.2c-0.373-0.396-0.689-0.797-0.949-1.207
					c-0.259-0.408-0.457-0.83-0.593-1.266c-0.137-0.435-0.204-0.894-0.204-1.377c0-0.765,0.155-1.435,0.468-2.01
					c0.312-0.576,0.725-1.059,1.239-1.45c0.514-0.391,1.107-0.684,1.779-0.877c0.673-0.193,1.365-0.29,2.076-0.29
					c0.668,0,1.286,0.136,1.853,0.409c0.567,0.272,1.077,0.633,1.529,1.081c0.453,0.448,0.842,0.962,1.167,1.542
					s0.575,1.173,0.752,1.78l-3.191,1.094l-0.264-0.646c-0.229-0.554-0.503-1.011-0.823-1.371c-0.321-0.36-0.706-0.562-1.153-0.606
					c-0.309,0-0.548,0.11-0.719,0.33c-0.172,0.22-0.258,0.47-0.258,0.751c0,0.396,0.214,0.829,0.64,1.298
					c0.427,0.471,1.013,1.022,1.761,1.655l0.816,0.725c0.413,0.369,0.807,0.754,1.181,1.153c0.373,0.4,0.703,0.817,0.988,1.253
					c0.286,0.435,0.512,0.879,0.679,1.331c0.167,0.453,0.251,0.917,0.251,1.391c0,0.686-0.132,1.323-0.396,1.912
					s-0.624,1.097-1.081,1.522c-0.457,0.427-0.991,0.761-1.602,1.002c-0.611,0.242-1.259,0.363-1.944,0.363
					c-0.669,0-1.297-0.11-1.886-0.33s-1.12-0.529-1.595-0.93c-0.475-0.399-0.886-0.876-1.233-1.43
					c-0.347-0.554-0.612-1.169-0.798-1.846L185.938,148.314z"/>
				<path fill="#828282" d="M201.125,148.314l0.211,0.62c0.069,0.202,0.155,0.413,0.257,0.633c0.101,0.22,0.222,0.422,0.362,0.606
					s0.299,0.336,0.475,0.455c0.176,0.118,0.378,0.178,0.606,0.178c0.554,0,0.831-0.325,0.831-0.976
					c0-0.343-0.091-0.672-0.271-0.989c-0.181-0.316-0.404-0.62-0.673-0.91c-0.268-0.29-0.556-0.564-0.863-0.824
					c-0.308-0.259-0.585-0.499-0.83-0.718l-0.726-0.62c-0.475-0.404-0.898-0.804-1.272-1.2c-0.373-0.396-0.689-0.797-0.949-1.207
					c-0.259-0.408-0.457-0.83-0.593-1.266c-0.137-0.435-0.204-0.894-0.204-1.377c0-0.765,0.155-1.435,0.468-2.01
					c0.312-0.576,0.725-1.059,1.239-1.45c0.514-0.391,1.107-0.684,1.779-0.877c0.673-0.193,1.365-0.29,2.076-0.29
					c0.668,0,1.286,0.136,1.853,0.409c0.567,0.272,1.077,0.633,1.529,1.081c0.453,0.448,0.842,0.962,1.167,1.542
					s0.575,1.173,0.752,1.78l-3.191,1.094l-0.264-0.646c-0.229-0.554-0.503-1.011-0.823-1.371c-0.321-0.36-0.706-0.562-1.153-0.606
					c-0.309,0-0.548,0.11-0.719,0.33c-0.172,0.22-0.258,0.47-0.258,0.751c0,0.396,0.214,0.829,0.64,1.298
					c0.427,0.471,1.013,1.022,1.761,1.655l0.816,0.725c0.413,0.369,0.807,0.754,1.181,1.153c0.373,0.4,0.703,0.817,0.988,1.253
					c0.286,0.435,0.512,0.879,0.679,1.331c0.167,0.453,0.251,0.917,0.251,1.391c0,0.686-0.132,1.323-0.396,1.912
					s-0.624,1.097-1.081,1.522c-0.457,0.427-0.991,0.761-1.602,1.002c-0.611,0.242-1.259,0.363-1.944,0.363
					c-0.669,0-1.297-0.11-1.886-0.33s-1.12-0.529-1.595-0.93c-0.475-0.399-0.886-0.876-1.233-1.43
					c-0.347-0.554-0.612-1.169-0.798-1.846L201.125,148.314z"/>
				<path fill="#828282" d="M209.603,141.894c0-0.914,0.105-1.729,0.316-2.445s0.536-1.323,0.976-1.819s0.995-0.877,1.668-1.141
					c0.672-0.264,1.47-0.396,2.393-0.396s1.723,0.13,2.399,0.389c0.677,0.26,1.239,0.638,1.688,1.134
					c0.448,0.497,0.782,1.104,1.002,1.819c0.22,0.717,0.329,1.536,0.329,2.459v7.317c0,0.721-0.145,1.377-0.435,1.971
					c-0.29,0.593-0.682,1.103-1.173,1.529c-0.493,0.426-1.066,0.758-1.721,0.995c-0.655,0.237-1.352,0.356-2.09,0.356
					c-0.694,0-1.364-0.11-2.011-0.33c-0.646-0.22-1.215-0.538-1.707-0.956c-0.492-0.417-0.888-0.927-1.187-1.529
					c-0.299-0.602-0.448-1.281-0.448-2.037V141.894z M215.971,140.747c0-0.87-0.339-1.305-1.016-1.305
					c-0.606,0-0.91,0.435-0.91,1.305v8.517c0,0.158,0.007,0.323,0.021,0.495c0.013,0.171,0.048,0.327,0.105,0.468
					c0.057,0.141,0.146,0.257,0.271,0.35c0.122,0.092,0.294,0.138,0.514,0.138c0.677,0,1.016-0.483,1.016-1.45V140.747z"/>
				<path fill="#828282" d="M222.667,129.949h4.443v23.73h-4.443V129.949z"/>
				<path fill="#828282" d="M229.416,140.219c0-1.09,0.344-2.052,1.029-2.887s1.533-1.252,2.544-1.252
					c0.554,0,1.079,0.143,1.575,0.428c0.497,0.286,0.925,0.662,1.285,1.127v-7.686h4.443v23.73h-4.443v-1.292
					c-0.352,0.519-0.791,0.927-1.318,1.226s-1.085,0.448-1.674,0.448c-0.976,0-1.793-0.367-2.452-1.101
					c-0.659-0.733-0.989-1.593-0.989-2.577V140.219z M235.85,140.43c-0.5-0.659-0.918-0.989-1.252-0.989
					c-0.492,0-0.738,0.378-0.738,1.134v8.899c0,0.237,0.011,0.433,0.033,0.586c0.021,0.154,0.092,0.301,0.211,0.442
					c0.118,0.141,0.283,0.211,0.494,0.211c0.378,0,0.795-0.316,1.252-0.949V140.43z"/>
				<path fill="#828282" d="M105.004,168.349h-1.266v-2.966h1.266v-5.563h4.442v5.563h2.136v2.966h-2.136v9.492
					c0,0.475,0.088,0.829,0.264,1.061c0.176,0.233,0.487,0.35,0.937,0.35c0.509,0,0.939-0.026,1.291-0.079l-0.264,3.441
					c-0.58,0.176-1.428,0.264-2.544,0.264c-0.519,0-0.986-0.062-1.404-0.185c-0.417-0.123-0.769-0.288-1.055-0.495
					c-0.285-0.206-0.531-0.468-0.738-0.784c-0.206-0.316-0.369-0.64-0.487-0.969c-0.119-0.33-0.211-0.714-0.277-1.154
					c-0.065-0.439-0.109-0.848-0.132-1.226c-0.021-0.378-0.032-0.809-0.032-1.292V168.349z"/>
				<path fill="#828282" d="M113.507,158.949h4.442v7.752c0.431-0.483,0.943-0.875,1.536-1.173c0.594-0.299,1.206-0.448,1.839-0.448
					c0.607,0,1.149,0.193,1.629,0.58c0.479,0.387,0.835,0.861,1.067,1.424c0.233,0.562,0.35,1.143,0.35,1.74v13.856h-4.442v-12.696
					c0-0.035,0.002-0.112,0.006-0.231c0.005-0.118,0.005-0.215,0-0.29c-0.004-0.074-0.009-0.171-0.013-0.29
					c-0.005-0.118-0.021-0.213-0.046-0.283c-0.027-0.07-0.062-0.145-0.105-0.224c-0.045-0.079-0.104-0.136-0.179-0.171
					c-0.074-0.035-0.165-0.053-0.271-0.053c-0.176,0-0.364,0.07-0.566,0.211s-0.348,0.259-0.436,0.356s-0.211,0.237-0.369,0.422
					v13.25h-4.442V158.949z"/>
				<path fill="#828282" d="M126.546,170.894c0-0.914,0.107-1.731,0.323-2.452c0.215-0.721,0.542-1.329,0.982-1.826
					c0.438-0.496,0.988-0.876,1.647-1.14s1.437-0.396,2.333-0.396s1.677,0.13,2.341,0.389c0.663,0.259,1.213,0.637,1.647,1.134
					c0.436,0.497,0.761,1.105,0.976,1.826c0.216,0.721,0.323,1.542,0.323,2.465v3.56h-6.131v3.81c0,0.967,0.281,1.45,0.844,1.45
					c0.615,0,0.924-0.519,0.924-1.556v-1.885h4.363v1.938c0,0.721-0.141,1.377-0.422,1.971c-0.281,0.593-0.664,1.103-1.146,1.529
					c-0.484,0.426-1.047,0.758-1.688,0.995c-0.643,0.237-1.318,0.356-2.031,0.356c-0.711,0-1.389-0.119-2.029-0.356
					c-0.643-0.237-1.205-0.569-1.688-0.995c-0.484-0.426-0.866-0.938-1.147-1.536s-0.422-1.252-0.422-1.964V170.894z
					 M132.716,172.12v-2.373c0-0.87-0.295-1.305-0.884-1.305c-0.562,0-0.844,0.435-0.844,1.305v2.373H132.716z"/>
				<path fill="#828282" d="M143.434,168.349h-1.002v-2.966h1.002v-0.026c0.008-0.466,0.03-0.901,0.065-1.305
					s0.099-0.835,0.191-1.292c0.092-0.457,0.229-0.85,0.408-1.18c0.181-0.329,0.406-0.635,0.679-0.916s0.62-0.494,1.042-0.64
					c0.422-0.145,0.905-0.217,1.45-0.217c0.835,0,1.767,0.062,2.795,0.185v3.322l-1.16-0.079c-0.369,0-0.633,0.104-0.791,0.31
					s-0.237,0.582-0.237,1.127v0.712h2.149v2.966h-2.149v14.331h-4.442V168.349z"/>
				<path fill="#828282" d="M151.37,159.727h4.443v4.153h-4.443V159.727z M151.37,165.383h4.443v17.297h-4.443V165.383z"/>
				<path fill="#828282" d="M158.317,165.383h4.417v1.49c0.676-1.099,1.467-1.648,2.373-1.648c0.254,0,0.654,0.044,1.199,0.132
					l-0.264,3.744c-0.809-0.088-1.297-0.132-1.463-0.132c-0.607,0-1.066,0.187-1.378,0.561c-0.312,0.374-0.468,0.907-0.468,1.602
					v11.549h-4.417V165.383z"/>
				<path fill="#828282" d="M170.566,177.314l0.211,0.62c0.069,0.202,0.155,0.413,0.257,0.633c0.101,0.22,0.222,0.422,0.362,0.606
					s0.299,0.336,0.475,0.455c0.176,0.118,0.378,0.178,0.606,0.178c0.554,0,0.831-0.325,0.831-0.976
					c0-0.343-0.091-0.672-0.271-0.989c-0.181-0.316-0.404-0.62-0.673-0.91c-0.268-0.29-0.556-0.564-0.863-0.824
					c-0.308-0.259-0.585-0.499-0.83-0.718l-0.726-0.62c-0.475-0.404-0.898-0.804-1.272-1.2c-0.373-0.396-0.689-0.797-0.949-1.207
					c-0.259-0.408-0.457-0.83-0.593-1.266c-0.137-0.435-0.204-0.894-0.204-1.377c0-0.765,0.155-1.435,0.468-2.01
					c0.312-0.576,0.725-1.059,1.239-1.45c0.514-0.391,1.107-0.684,1.779-0.877c0.673-0.193,1.365-0.29,2.076-0.29
					c0.668,0,1.286,0.136,1.853,0.409c0.567,0.272,1.077,0.633,1.529,1.081c0.453,0.448,0.842,0.962,1.167,1.542
					s0.575,1.173,0.752,1.78l-3.191,1.094l-0.264-0.646c-0.229-0.554-0.503-1.011-0.823-1.371c-0.321-0.36-0.706-0.562-1.153-0.606
					c-0.309,0-0.548,0.11-0.719,0.33c-0.172,0.22-0.258,0.47-0.258,0.751c0,0.396,0.214,0.829,0.64,1.298
					c0.427,0.471,1.013,1.022,1.761,1.655l0.816,0.725c0.413,0.369,0.807,0.754,1.181,1.153c0.373,0.4,0.703,0.817,0.988,1.253
					c0.286,0.435,0.512,0.879,0.679,1.331c0.167,0.453,0.251,0.917,0.251,1.391c0,0.686-0.132,1.323-0.396,1.912
					s-0.624,1.097-1.081,1.522c-0.457,0.427-0.991,0.761-1.602,1.002c-0.611,0.242-1.259,0.363-1.944,0.363
					c-0.669,0-1.297-0.11-1.886-0.33s-1.12-0.529-1.595-0.93c-0.475-0.399-0.886-0.876-1.233-1.43
					c-0.347-0.554-0.612-1.169-0.798-1.846L170.566,177.314z"/>
				<path fill="#828282" d="M179.557,168.349h-1.266v-2.966h1.266v-5.563h4.442v5.563h2.136v2.966h-2.136v9.492
					c0,0.475,0.088,0.829,0.264,1.061c0.176,0.233,0.487,0.35,0.937,0.35c0.509,0,0.939-0.026,1.291-0.079l-0.264,3.441
					c-0.58,0.176-1.428,0.264-2.544,0.264c-0.519,0-0.986-0.062-1.404-0.185c-0.417-0.123-0.769-0.288-1.055-0.495
					c-0.285-0.206-0.531-0.468-0.738-0.784c-0.206-0.316-0.369-0.64-0.487-0.969c-0.119-0.33-0.211-0.714-0.277-1.154
					c-0.065-0.439-0.109-0.848-0.132-1.226c-0.021-0.378-0.032-0.809-0.032-1.292V168.349z"/>
				<path fill="#828282" d="M190.842,165.383h3.705l1.371,10.705l1.424-10.705h3.349l1.292,10.916l1.503-10.916h3.428l-2.544,17.297
					h-3.824l-1.621-10.165l-1.74,10.165h-3.823L190.842,165.383z"/>
				<path fill="#828282" d="M208.297,170.894c0-0.914,0.107-1.731,0.323-2.452c0.215-0.721,0.542-1.329,0.982-1.826
					c0.438-0.496,0.988-0.876,1.647-1.14s1.437-0.396,2.333-0.396s1.677,0.13,2.341,0.389c0.663,0.259,1.213,0.637,1.647,1.134
					c0.436,0.497,0.761,1.105,0.976,1.826c0.216,0.721,0.323,1.542,0.323,2.465v3.56h-6.131v3.81c0,0.967,0.281,1.45,0.844,1.45
					c0.615,0,0.924-0.519,0.924-1.556v-1.885h4.363v1.938c0,0.721-0.141,1.377-0.422,1.971c-0.281,0.593-0.664,1.103-1.146,1.529
					c-0.484,0.426-1.047,0.758-1.688,0.995c-0.643,0.237-1.318,0.356-2.031,0.356c-0.711,0-1.389-0.119-2.029-0.356
					c-0.643-0.237-1.205-0.569-1.688-0.995c-0.484-0.426-0.866-0.938-1.147-1.536s-0.422-1.252-0.422-1.964V170.894z
					 M214.467,172.12v-2.373c0-0.87-0.295-1.305-0.884-1.305c-0.562,0-0.844,0.435-0.844,1.305v2.373H214.467z"/>
				<path fill="#828282" d="M220.689,170.894c0-0.914,0.107-1.731,0.323-2.452c0.215-0.721,0.542-1.329,0.982-1.826
					c0.438-0.496,0.988-0.876,1.647-1.14s1.437-0.396,2.333-0.396s1.677,0.13,2.341,0.389c0.663,0.259,1.213,0.637,1.647,1.134
					c0.436,0.497,0.761,1.105,0.976,1.826c0.216,0.721,0.323,1.542,0.323,2.465v3.56h-6.131v3.81c0,0.967,0.281,1.45,0.844,1.45
					c0.615,0,0.924-0.519,0.924-1.556v-1.885h4.363v1.938c0,0.721-0.141,1.377-0.422,1.971c-0.281,0.593-0.664,1.103-1.146,1.529
					c-0.484,0.426-1.047,0.758-1.688,0.995c-0.643,0.237-1.318,0.356-2.031,0.356c-0.711,0-1.389-0.119-2.029-0.356
					c-0.643-0.237-1.205-0.569-1.688-0.995c-0.484-0.426-0.866-0.938-1.147-1.536s-0.422-1.252-0.422-1.964V170.894z
					 M226.859,172.12v-2.373c0-0.87-0.295-1.305-0.884-1.305c-0.562,0-0.844,0.435-0.844,1.305v2.373H226.859z"/>
				<path fill="#828282" d="M233.358,158.949h4.443v12.498l2.716-6.064h4.759l-4.231,7.356l4.219,9.94h-4.601l-2.268-7.673
					l-0.594,1.002v6.671h-4.443V158.949z"/>
			</g>
		</g>
		<g>
			<g>
				<linearGradient id="SVGID_1_" gradientUnits="userSpaceOnUse" x1="60.001" y1="183.3403" x2="60.001" y2="2.0039">
					<stop  offset="0.5059" style="stop-color:#828282"/>
					<stop  offset="0.6235" style="stop-color:#646464"/>
				</linearGradient>
				<polygon fill="url(#SVGID_1_)" points="23.322,183.333 96.658,183.34 96.67,80.113 120.002,80.113 60.002,2.004 0,80.102 
					23.334,80.121 				"/>
				<linearGradient id="SVGID_2_" gradientUnits="userSpaceOnUse" x1="63.001" y1="183.5" x2="63.001" y2="1.705303e-13">
					<stop  offset="0.5059" style="stop-color:#BF2C54"/>
					<stop  offset="0.6235" style="stop-color:#961E3C"/>
				</linearGradient>
				<polygon fill="url(#SVGID_2_)" points="26.322,183.5 99.684,183.333 99.67,78.109 123.002,78.109 63.002,0 3,78.098 
					26.332,78.117 				"/>
			</g>
			<g>
				<g>
					<path fill="#828282" d="M59.878,51.242v-4.949c4.949-0.275,4.51-2.09,4.51-7.204c0-2.31,0-5.224-1.87-5.224
						c-1.484,0-1.705,1.43-1.76,6.874h-5.829c0-4.564,0.165-12.098,7.589-12.098s7.699,7.644,7.699,8.688
						c0,5.994-1.045,8.854-2.859,10.669l-0.056,0.055c2.859,2.255,3.41,6.434,3.41,11.108c0,1.045-0.275,10.779-7.699,10.779
						s-7.864-7.534-7.864-12.098h5.829c0.056,5.444,0.55,6.874,2.035,6.874c1.869,0,1.869-2.805,1.869-5.114
						c0-5.115,0.66-8.084-4.509-8.359H59.878z"/>
				</g>
				<g>
					<path fill="#FFFFFF" d="M60.854,50.556v-4.949c4.949-0.275,4.51-2.09,4.51-7.204c0-2.31,0-5.224-1.87-5.224
						c-1.484,0-1.705,1.43-1.76,6.874h-5.829c0-4.564,0.165-12.098,7.589-12.098s7.699,7.644,7.699,8.688
						c0,5.994-1.045,8.854-2.859,10.669l-0.056,0.055c2.859,2.255,3.41,6.434,3.41,11.108c0,1.045-0.275,10.779-7.699,10.779
						s-7.864-7.534-7.864-12.098h5.829c0.056,5.444,0.55,6.874,2.035,6.874c1.869,0,1.869-2.805,1.869-5.114
						c0-5.115,0.66-8.084-4.509-8.359H60.854z"/>
				</g>
			</g>
		</g>
	</g>
	<g>
		<g>
			<g>
				<path fill="#FFFFFF" d="M45.134,102.801c-2.496,0-4.521,2.024-4.521,4.521c0,2.496,2.024,4.519,4.521,4.519
					s4.521-2.022,4.521-4.519C49.654,104.825,47.63,102.801,45.134,102.801z M45.134,109.256c-1.07,0-1.937-0.866-1.937-1.935
					c0-1.07,0.866-1.936,1.937-1.936c1.068,0,1.936,0.865,1.936,1.936C47.069,108.39,46.202,109.256,45.134,109.256z
					 M78.051,102.801c-2.495,0-4.521,2.024-4.521,4.521c0,2.496,2.025,4.519,4.521,4.519c2.496,0,4.522-2.022,4.522-4.519
					C82.573,104.825,80.547,102.801,78.051,102.801z M78.051,109.256c-1.068,0-1.936-0.866-1.936-1.935
					c0-1.07,0.867-1.936,1.936-1.936c1.069,0,1.937,0.865,1.937,1.936C79.987,108.39,79.12,109.256,78.051,109.256z"/>
				<path fill="#FFFFFF" d="M89.179,105.002h-1.784c0.396-0.681,0.625-1.472,0.625-2.317v-2.318c0-2.491-1.965-4.523-4.43-4.631
					c-2.496-8.446-10.309-14.61-19.563-14.61c-9.253,0-17.065,6.162-19.562,14.604h-4.198c-2.561,0-4.636,2.077-4.636,4.637v2.318
					c0,2.202,1.534,4.045,3.596,4.516c0.063-3.209,2.684-5.791,5.908-5.791c3.264,0,5.911,2.645,5.911,5.912H72.14
					c0-3.267,2.647-5.912,5.911-5.912c2.553,0,4.72,1.62,5.547,3.884c0.036,0.096,0.072,0.191,0.103,0.288
					c0.027,0.089,0.047,0.181,0.071,0.27c0.023,0.095,0.05,0.188,0.069,0.284c0.021,0.105,0.035,0.212,0.051,0.319
					c0.013,0.085,0.03,0.167,0.038,0.252c0.013,0.123,0.016,0.249,0.021,0.375c0.003,0.081,0.012,0.158,0.012,0.24h5.216
					c0.64,0,1.158-0.52,1.158-1.16S89.818,105.002,89.179,105.002z M46.286,95.729c2.449-7.493,9.516-12.864,17.74-12.864
					c1.693,0,3.336,0.23,4.899,0.657c-0.031,0.089-0.052,0.184-0.052,0.283v11.925H46.286z M70.634,95.729V84.073
					c3.095,1.177,5.805,3.157,7.868,5.69c-0.126,0.107-0.223,0.251-0.271,0.422l-1.599,5.544H70.634z M78.461,95.729l1.243-4.313
					c0.862,1.33,1.561,2.777,2.062,4.313H78.461z"/>
			</g>
		</g>
		<g>
			<g>
				<path fill="#FFFFFF" d="M45.134,133.516c-2.496,0-4.521,2.024-4.521,4.521c0,2.496,2.024,4.519,4.521,4.519
					s4.521-2.022,4.521-4.519C49.654,135.54,47.63,133.516,45.134,133.516z M45.134,139.972c-1.07,0-1.937-0.866-1.937-1.935
					c0-1.07,0.866-1.936,1.937-1.936c1.068,0,1.936,0.865,1.936,1.936C47.069,139.105,46.202,139.972,45.134,139.972z
					 M78.051,133.516c-2.495,0-4.521,2.024-4.521,4.521c0,2.496,2.025,4.519,4.521,4.519c2.496,0,4.522-2.022,4.522-4.519
					C82.573,135.54,80.547,133.516,78.051,133.516z M78.051,139.972c-1.068,0-1.936-0.866-1.936-1.935
					c0-1.07,0.867-1.936,1.936-1.936c1.069,0,1.937,0.865,1.937,1.936C79.987,139.105,79.12,139.972,78.051,139.972z"/>
				<path fill="#FFFFFF" d="M89.179,135.717h-1.784c0.396-0.681,0.625-1.472,0.625-2.317v-2.318c0-2.491-1.965-4.523-4.43-4.631
					c-2.496-8.446-10.309-14.61-19.563-14.61c-9.253,0-17.065,6.162-19.562,14.604h-4.198c-2.561,0-4.636,2.077-4.636,4.637v2.318
					c0,2.202,1.534,4.045,3.596,4.516c0.063-3.209,2.684-5.791,5.908-5.791c3.264,0,5.911,2.645,5.911,5.912H72.14
					c0-3.267,2.647-5.912,5.911-5.912c2.553,0,4.72,1.62,5.547,3.884c0.036,0.096,0.072,0.191,0.103,0.288
					c0.027,0.089,0.047,0.181,0.071,0.27c0.023,0.095,0.05,0.188,0.069,0.284c0.021,0.105,0.035,0.212,0.051,0.319
					c0.013,0.085,0.03,0.167,0.038,0.252c0.013,0.123,0.016,0.249,0.021,0.375c0.003,0.081,0.012,0.158,0.012,0.24h5.216
					c0.64,0,1.158-0.52,1.158-1.16S89.818,135.717,89.179,135.717z M46.286,126.444c2.449-7.493,9.516-12.864,17.74-12.864
					c1.693,0,3.336,0.23,4.899,0.657c-0.031,0.089-0.052,0.184-0.052,0.283v11.925H46.286z M70.634,126.444v-11.656
					c3.095,1.177,5.805,3.157,7.868,5.69c-0.126,0.107-0.223,0.251-0.271,0.422l-1.599,5.544H70.634z M78.461,126.444l1.243-4.313
					c0.862,1.33,1.561,2.777,2.062,4.313H78.461z"/>
			</g>
		</g>
		<g>
			<g>
				<path fill="#FFFFFF" d="M45.134,164.231c-2.496,0-4.521,2.024-4.521,4.521c0,2.496,2.024,4.519,4.521,4.519
					s4.521-2.022,4.521-4.519C49.654,166.255,47.63,164.231,45.134,164.231z M45.134,170.687c-1.07,0-1.937-0.866-1.937-1.935
					c0-1.07,0.866-1.936,1.937-1.936c1.068,0,1.936,0.865,1.936,1.936C47.069,169.821,46.202,170.687,45.134,170.687z
					 M78.051,164.231c-2.495,0-4.521,2.024-4.521,4.521c0,2.496,2.025,4.519,4.521,4.519c2.496,0,4.522-2.022,4.522-4.519
					C82.573,166.255,80.547,164.231,78.051,164.231z M78.051,170.687c-1.068,0-1.936-0.866-1.936-1.935
					c0-1.07,0.867-1.936,1.936-1.936c1.069,0,1.937,0.865,1.937,1.936C79.987,169.821,79.12,170.687,78.051,170.687z"/>
				<path fill="#FFFFFF" d="M89.179,166.433h-1.784c0.396-0.681,0.625-1.472,0.625-2.317v-2.318c0-2.491-1.965-4.523-4.43-4.631
					c-2.496-8.446-10.309-14.61-19.563-14.61c-9.253,0-17.065,6.162-19.562,14.604h-4.198c-2.561,0-4.636,2.077-4.636,4.637v2.318
					c0,2.202,1.534,4.045,3.596,4.516c0.063-3.209,2.684-5.791,5.908-5.791c3.264,0,5.911,2.645,5.911,5.912H72.14
					c0-3.267,2.647-5.912,5.911-5.912c2.553,0,4.72,1.62,5.547,3.884c0.036,0.096,0.072,0.191,0.103,0.288
					c0.027,0.089,0.047,0.181,0.071,0.27c0.023,0.095,0.05,0.188,0.069,0.284c0.021,0.105,0.035,0.212,0.051,0.319
					c0.013,0.085,0.03,0.167,0.038,0.252c0.013,0.123,0.016,0.249,0.021,0.375c0.003,0.081,0.012,0.158,0.012,0.24h5.216
					c0.64,0,1.158-0.52,1.158-1.16S89.818,166.433,89.179,166.433z M46.286,157.16c2.449-7.493,9.516-12.864,17.74-12.864
					c1.693,0,3.336,0.23,4.899,0.657c-0.031,0.089-0.052,0.184-0.052,0.283v11.925H46.286z M70.634,157.16v-11.656
					c3.095,1.177,5.805,3.157,7.868,5.69c-0.126,0.107-0.223,0.251-0.271,0.422l-1.599,5.544H70.634z M78.461,157.16l1.243-4.313
					c0.862,1.33,1.561,2.777,2.062,4.313H78.461z"/>
			</g>
		</g>
	</g>
</g>
</svg>
