<?xml version="1.0" encoding="utf-8"?>
<!-- Generator: Adobe Illustrator 15.0.2, SVG Export Plug-In . SVG Version: 6.00 Build 0)  -->
<!DOCTYPE svg PUBLIC "-//W3C//DTD SVG 1.1//EN" "http://www.w3.org/Graphics/SVG/1.1/DTD/svg11.dtd">
<svg version="1.1" id="Layer_1" xmlns="http://www.w3.org/2000/svg" xmlns:xlink="http://www.w3.org/1999/xlink" x="0px" y="0px"
	 width="270px" height="300px" viewBox="0 0 270 300" enable-background="new 0 0 270 300" xml:space="preserve">
<g>
	<g>
		<path opacity="0.1" fill="#A5A5A5" d="M269.711,286.011c0.147-5.093-60.834-1.412-136.337-3.61
			C57.87,280.204,0.295,287.882,0.146,292.974c-0.15,5.093,59.455,4.467,134.958,6.666
			C210.61,301.837,269.562,291.104,269.711,286.011z"/>
		<g>
			<g>
				<path fill="#5E5E5E" d="M103.461,190.192h4.548l2.096,14.383l2.32-14.383h4.482l-4.693,23.73h-4.39L103.461,190.192z"/>
				<path fill="#5E5E5E" d="M118.306,202.136c0-0.914,0.107-1.731,0.323-2.452c0.215-0.721,0.542-1.329,0.982-1.826
					c0.439-0.496,0.989-0.876,1.648-1.14s1.437-0.396,2.333-0.396s1.676,0.13,2.34,0.389c0.663,0.259,1.213,0.637,1.647,1.134
					c0.436,0.497,0.76,1.105,0.976,1.826s0.323,1.542,0.323,2.465v3.56h-6.13v3.81c0,0.967,0.281,1.45,0.844,1.45
					c0.615,0,0.923-0.519,0.923-1.556v-1.885h4.364v1.938c0,0.721-0.141,1.377-0.422,1.971c-0.281,0.593-0.664,1.103-1.147,1.529
					s-1.046,0.758-1.688,0.995s-1.318,0.356-2.03,0.356s-1.389-0.119-2.03-0.356s-1.204-0.569-1.688-0.995s-0.866-0.938-1.147-1.536
					s-0.422-1.252-0.422-1.964V202.136z M124.476,203.362v-2.373c0-0.87-0.294-1.305-0.883-1.305c-0.562,0-0.844,0.435-0.844,1.305
					v2.373H124.476z"/>
				<path fill="#5E5E5E" d="M130.91,190.192h4.443v7.752c0.431-0.483,0.943-0.875,1.536-1.173c0.594-0.299,1.207-0.448,1.839-0.448
					c0.606,0,1.149,0.193,1.628,0.58c0.479,0.387,0.834,0.861,1.067,1.424s0.35,1.143,0.35,1.74v13.856h-4.443v-12.696
					c0-0.035,0.002-0.112,0.006-0.231c0.004-0.118,0.004-0.215,0-0.29c-0.004-0.074-0.009-0.171-0.013-0.29
					c-0.005-0.118-0.02-0.213-0.046-0.283s-0.062-0.145-0.105-0.224s-0.104-0.136-0.178-0.171s-0.165-0.053-0.27-0.053
					c-0.176,0-0.365,0.07-0.567,0.211s-0.347,0.259-0.435,0.356s-0.211,0.237-0.369,0.422v13.25h-4.443V190.192z"/>
				<path fill="#5E5E5E" d="M144.186,190.97h4.443v4.153h-4.443V190.97z M144.186,196.625h4.443v17.297h-4.443V196.625z"/>
				<path fill="#5E5E5E" d="M150.922,202.136c0-1.828,0.435-3.254,1.305-4.278c0.87-1.023,2.197-1.536,3.981-1.536
					c1.793,0,3.122,0.51,3.988,1.529s1.299,2.448,1.299,4.285v1.503h-4.364v-1.964c0-0.686-0.059-1.188-0.178-1.509
					c-0.118-0.321-0.367-0.481-0.745-0.481c-0.562,0-0.844,0.435-0.844,1.305v8.517c0,0.967,0.281,1.45,0.844,1.45
					c0.211,0,0.38-0.044,0.507-0.132s0.22-0.237,0.277-0.448c0.057-0.211,0.094-0.428,0.112-0.653
					c0.018-0.224,0.026-0.538,0.026-0.942v-1.833h4.364v2.571c0,0.949-0.246,1.795-0.738,2.538s-1.138,1.303-1.938,1.681
					s-1.67,0.567-2.61,0.567c-1.45,0-2.694-0.442-3.731-1.325c-1.037-0.884-1.556-2.037-1.556-3.461V202.136z"/>
				<path fill="#5E5E5E" d="M163.394,190.192h4.443v23.73h-4.443V190.192z"/>
				<path fill="#5E5E5E" d="M170.131,202.136c0-0.914,0.107-1.731,0.323-2.452c0.215-0.721,0.542-1.329,0.982-1.826
					c0.439-0.496,0.989-0.876,1.648-1.14s1.437-0.396,2.333-0.396s1.676,0.13,2.34,0.389c0.663,0.259,1.213,0.637,1.647,1.134
					c0.436,0.497,0.76,1.105,0.976,1.826s0.323,1.542,0.323,2.465v3.56h-6.13v3.81c0,0.967,0.281,1.45,0.844,1.45
					c0.615,0,0.923-0.519,0.923-1.556v-1.885h4.364v1.938c0,0.721-0.141,1.377-0.422,1.971c-0.281,0.593-0.664,1.103-1.147,1.529
					s-1.046,0.758-1.688,0.995s-1.318,0.356-2.03,0.356s-1.389-0.119-2.03-0.356s-1.204-0.569-1.688-0.995s-0.866-0.938-1.147-1.536
					s-0.422-1.252-0.422-1.964V202.136z M176.301,203.362v-2.373c0-0.87-0.294-1.305-0.883-1.305c-0.562,0-0.844,0.435-0.844,1.305
					v2.373H176.301z"/>
				<path fill="#5E5E5E" d="M185.569,208.557l0.211,0.62c0.07,0.202,0.156,0.413,0.257,0.633c0.101,0.22,0.222,0.422,0.362,0.606
					s0.299,0.336,0.475,0.455c0.176,0.118,0.378,0.178,0.606,0.178c0.554,0,0.831-0.325,0.831-0.976c0-0.343-0.09-0.672-0.27-0.989
					c-0.181-0.316-0.405-0.62-0.673-0.91s-0.556-0.564-0.863-0.824c-0.308-0.259-0.584-0.499-0.831-0.718l-0.725-0.62
					c-0.475-0.404-0.899-0.804-1.272-1.2s-0.69-0.797-0.949-1.207c-0.259-0.408-0.457-0.83-0.593-1.266
					c-0.137-0.435-0.205-0.894-0.205-1.377c0-0.765,0.156-1.435,0.468-2.01c0.312-0.576,0.725-1.059,1.239-1.45
					c0.514-0.391,1.107-0.684,1.779-0.877c0.673-0.193,1.365-0.29,2.077-0.29c0.668,0,1.286,0.136,1.852,0.409
					c0.567,0.272,1.077,0.633,1.529,1.081s0.842,0.962,1.167,1.542s0.576,1.173,0.751,1.78l-3.19,1.094l-0.264-0.646
					c-0.229-0.554-0.503-1.011-0.824-1.371c-0.321-0.36-0.706-0.562-1.154-0.606c-0.308,0-0.547,0.11-0.718,0.33
					c-0.172,0.22-0.257,0.47-0.257,0.751c0,0.396,0.213,0.829,0.639,1.298c0.426,0.471,1.013,1.022,1.76,1.655l0.817,0.725
					c0.413,0.369,0.806,0.754,1.18,1.153c0.373,0.4,0.703,0.817,0.988,1.253c0.286,0.435,0.512,0.879,0.679,1.331
					c0.167,0.453,0.25,0.917,0.25,1.391c0,0.686-0.132,1.323-0.396,1.912s-0.624,1.097-1.081,1.522
					c-0.457,0.427-0.991,0.761-1.602,1.002c-0.611,0.242-1.259,0.363-1.945,0.363c-0.668,0-1.296-0.11-1.885-0.33
					s-1.121-0.529-1.595-0.93c-0.475-0.399-0.886-0.876-1.233-1.43s-0.613-1.169-0.797-1.846L185.569,208.557z"/>
				<path fill="#5E5E5E" d="M200.756,208.557l0.211,0.62c0.07,0.202,0.156,0.413,0.257,0.633c0.101,0.22,0.222,0.422,0.362,0.606
					s0.299,0.336,0.475,0.455c0.176,0.118,0.378,0.178,0.606,0.178c0.554,0,0.831-0.325,0.831-0.976c0-0.343-0.09-0.672-0.27-0.989
					c-0.181-0.316-0.405-0.62-0.673-0.91s-0.556-0.564-0.863-0.824c-0.308-0.259-0.584-0.499-0.831-0.718l-0.725-0.62
					c-0.475-0.404-0.899-0.804-1.272-1.2s-0.69-0.797-0.949-1.207c-0.259-0.408-0.457-0.83-0.593-1.266
					c-0.137-0.435-0.205-0.894-0.205-1.377c0-0.765,0.156-1.435,0.468-2.01c0.312-0.576,0.725-1.059,1.239-1.45
					c0.514-0.391,1.107-0.684,1.779-0.877c0.673-0.193,1.365-0.29,2.077-0.29c0.668,0,1.286,0.136,1.852,0.409
					c0.567,0.272,1.077,0.633,1.529,1.081s0.842,0.962,1.167,1.542s0.576,1.173,0.751,1.78l-3.19,1.094l-0.264-0.646
					c-0.229-0.554-0.503-1.011-0.824-1.371c-0.321-0.36-0.706-0.562-1.154-0.606c-0.308,0-0.547,0.11-0.718,0.33
					c-0.172,0.22-0.257,0.47-0.257,0.751c0,0.396,0.213,0.829,0.639,1.298c0.426,0.471,1.013,1.022,1.76,1.655l0.817,0.725
					c0.413,0.369,0.806,0.754,1.18,1.153c0.373,0.4,0.703,0.817,0.988,1.253c0.286,0.435,0.512,0.879,0.679,1.331
					c0.167,0.453,0.25,0.917,0.25,1.391c0,0.686-0.132,1.323-0.396,1.912s-0.624,1.097-1.081,1.522
					c-0.457,0.427-0.991,0.761-1.602,1.002c-0.611,0.242-1.259,0.363-1.945,0.363c-0.668,0-1.296-0.11-1.885-0.33
					s-1.121-0.529-1.595-0.93c-0.475-0.399-0.886-0.876-1.233-1.43s-0.613-1.169-0.797-1.846L200.756,208.557z"/>
				<path fill="#5E5E5E" d="M209.233,202.136c0-0.914,0.105-1.729,0.316-2.445s0.536-1.323,0.976-1.819s0.995-0.877,1.668-1.141
					c0.672-0.264,1.47-0.396,2.393-0.396s1.723,0.13,2.399,0.389c0.677,0.26,1.239,0.638,1.688,1.134
					c0.448,0.497,0.782,1.104,1.002,1.819c0.22,0.717,0.33,1.536,0.33,2.459v7.317c0,0.721-0.145,1.377-0.435,1.971
					c-0.29,0.593-0.681,1.103-1.173,1.529s-1.066,0.758-1.72,0.995c-0.655,0.237-1.352,0.356-2.09,0.356
					c-0.694,0-1.364-0.11-2.011-0.33c-0.646-0.22-1.215-0.538-1.707-0.956c-0.492-0.417-0.888-0.927-1.187-1.529
					c-0.299-0.602-0.448-1.281-0.448-2.037V202.136z M215.601,200.989c0-0.87-0.338-1.305-1.015-1.305
					c-0.606,0-0.91,0.435-0.91,1.305v8.517c0,0.158,0.006,0.323,0.02,0.495c0.013,0.171,0.048,0.327,0.105,0.468
					c0.057,0.141,0.147,0.257,0.27,0.35c0.123,0.092,0.294,0.138,0.514,0.138c0.677,0,1.015-0.483,1.015-1.45V200.989z"/>
				<path fill="#5E5E5E" d="M222.298,190.192h4.443v23.73h-4.443V190.192z"/>
				<path fill="#5E5E5E" d="M229.048,200.462c0-1.09,0.343-2.052,1.028-2.887s1.534-1.252,2.544-1.252
					c0.554,0,1.079,0.143,1.575,0.428c0.497,0.286,0.925,0.662,1.286,1.127v-7.686h4.443v23.73h-4.443v-1.292
					c-0.352,0.519-0.791,0.927-1.318,1.226s-1.085,0.448-1.674,0.448c-0.976,0-1.793-0.367-2.452-1.101
					c-0.659-0.733-0.989-1.593-0.989-2.577V200.462z M235.482,200.673c-0.501-0.659-0.918-0.989-1.252-0.989
					c-0.492,0-0.738,0.378-0.738,1.134v8.899c0,0.237,0.011,0.433,0.033,0.586c0.021,0.154,0.092,0.301,0.211,0.442
					c0.118,0.141,0.283,0.211,0.494,0.211c0.378,0,0.795-0.316,1.252-0.949V200.673z"/>
				<path fill="#5E5E5E" d="M104.358,219.97h4.443v4.153h-4.443V219.97z M104.358,225.625h4.443v17.297h-4.443V225.625z"/>
				<path fill="#5E5E5E" d="M111.306,225.625h4.443v1.305c0.422-0.483,0.929-0.87,1.523-1.16c0.593-0.29,1.21-0.435,1.852-0.435
					c0.483,0,0.914,0.114,1.292,0.343s0.696,0.521,0.956,0.877c0.259,0.355,0.457,0.756,0.594,1.199
					c0.136,0.444,0.204,0.877,0.204,1.299v13.869h-4.443v-13.091c0-0.765-0.246-1.147-0.738-1.147c-0.105,0-0.217,0.026-0.336,0.079
					c-0.118,0.053-0.222,0.119-0.31,0.198l-0.277,0.264c-0.053,0.053-0.092,0.095-0.119,0.125s-0.092,0.107-0.198,0.23v13.342
					h-4.443V225.625z"/>
				<path fill="#5E5E5E" d="M128.523,228.592h-1.266v-2.966h1.266v-5.563h4.443v5.563h2.136v2.966h-2.136v9.492
					c0,0.475,0.088,0.829,0.264,1.061c0.176,0.233,0.488,0.35,0.936,0.35c0.51,0,0.94-0.026,1.292-0.079l-0.264,3.441
					c-0.58,0.176-1.428,0.264-2.544,0.264c-0.519,0-0.987-0.062-1.404-0.185s-0.769-0.288-1.055-0.495
					c-0.286-0.206-0.532-0.468-0.738-0.784s-0.369-0.64-0.487-0.969c-0.119-0.33-0.211-0.714-0.277-1.154
					c-0.065-0.439-0.11-0.848-0.132-1.226s-0.033-0.809-0.033-1.292V228.592z"/>
				<path fill="#5E5E5E" d="M137.027,219.192h4.443v7.752c0.431-0.483,0.943-0.875,1.536-1.173c0.594-0.299,1.207-0.448,1.839-0.448
					c0.606,0,1.149,0.193,1.628,0.58c0.479,0.387,0.834,0.861,1.067,1.424s0.35,1.143,0.35,1.74v13.856h-4.443v-12.696
					c0-0.035,0.002-0.112,0.006-0.231c0.004-0.118,0.004-0.215,0-0.29c-0.004-0.074-0.009-0.171-0.013-0.29
					c-0.005-0.118-0.02-0.213-0.046-0.283s-0.062-0.145-0.105-0.224s-0.104-0.136-0.178-0.171s-0.165-0.053-0.27-0.053
					c-0.176,0-0.365,0.07-0.567,0.211s-0.347,0.259-0.435,0.356s-0.211,0.237-0.369,0.422v13.25h-4.443V219.192z"/>
				<path fill="#5E5E5E" d="M150.065,231.136c0-0.914,0.107-1.731,0.323-2.452c0.215-0.721,0.542-1.329,0.982-1.826
					c0.439-0.496,0.989-0.876,1.648-1.14s1.437-0.396,2.333-0.396s1.676,0.13,2.34,0.389c0.663,0.259,1.213,0.637,1.647,1.134
					c0.436,0.497,0.76,1.105,0.976,1.826s0.323,1.542,0.323,2.465v3.56h-6.13v3.81c0,0.967,0.281,1.45,0.844,1.45
					c0.615,0,0.923-0.519,0.923-1.556v-1.885h4.364v1.938c0,0.721-0.141,1.377-0.422,1.971c-0.281,0.593-0.664,1.103-1.147,1.529
					s-1.046,0.758-1.688,0.995s-1.318,0.356-2.03,0.356s-1.389-0.119-2.03-0.356s-1.204-0.569-1.688-0.995s-0.866-0.938-1.147-1.536
					s-0.422-1.252-0.422-1.964V231.136z M156.235,232.362v-2.373c0-0.87-0.294-1.305-0.883-1.305c-0.562,0-0.844,0.435-0.844,1.305
					v2.373H156.235z"/>
				<path fill="#5E5E5E" d="M166.954,228.592h-1.002v-2.966h1.002v-0.026c0.009-0.466,0.031-0.901,0.066-1.305
					s0.099-0.835,0.191-1.292c0.092-0.457,0.228-0.85,0.408-1.18c0.18-0.329,0.407-0.635,0.679-0.916s0.62-0.494,1.042-0.64
					c0.422-0.145,0.905-0.217,1.45-0.217c0.835,0,1.767,0.062,2.795,0.185v3.322l-1.16-0.079c-0.369,0-0.633,0.104-0.791,0.31
					s-0.237,0.582-0.237,1.127v0.712h2.149v2.966h-2.149v14.331h-4.443V228.592z"/>
				<path fill="#5E5E5E" d="M174.89,219.97h4.443v4.153h-4.443V219.97z M174.89,225.625h4.443v17.297h-4.443V225.625z"/>
				<path fill="#5E5E5E" d="M181.838,225.625h4.417v1.49c0.677-1.099,1.468-1.648,2.373-1.648c0.255,0,0.655,0.044,1.2,0.132
					l-0.264,3.744c-0.809-0.088-1.296-0.132-1.463-0.132c-0.606,0-1.066,0.187-1.377,0.561c-0.312,0.374-0.468,0.907-0.468,1.602
					v11.549h-4.417V225.625z"/>
				<path fill="#5E5E5E" d="M194.085,237.557l0.211,0.62c0.07,0.202,0.156,0.413,0.257,0.633c0.101,0.22,0.222,0.422,0.362,0.606
					s0.299,0.336,0.475,0.455c0.176,0.118,0.378,0.178,0.606,0.178c0.554,0,0.831-0.325,0.831-0.976c0-0.343-0.09-0.672-0.27-0.989
					c-0.181-0.316-0.405-0.62-0.673-0.91s-0.556-0.564-0.863-0.824c-0.308-0.259-0.584-0.499-0.831-0.718l-0.725-0.62
					c-0.475-0.404-0.899-0.804-1.272-1.2s-0.69-0.797-0.949-1.207c-0.259-0.408-0.457-0.83-0.593-1.266
					c-0.137-0.435-0.205-0.894-0.205-1.377c0-0.765,0.156-1.435,0.468-2.01c0.312-0.576,0.725-1.059,1.239-1.45
					c0.514-0.391,1.107-0.684,1.779-0.877c0.673-0.193,1.365-0.29,2.077-0.29c0.668,0,1.286,0.136,1.852,0.409
					c0.567,0.272,1.077,0.633,1.529,1.081s0.842,0.962,1.167,1.542s0.576,1.173,0.751,1.78l-3.19,1.094l-0.264-0.646
					c-0.229-0.554-0.503-1.011-0.824-1.371c-0.321-0.36-0.706-0.562-1.154-0.606c-0.308,0-0.547,0.11-0.718,0.33
					c-0.172,0.22-0.257,0.47-0.257,0.751c0,0.396,0.213,0.829,0.639,1.298c0.426,0.471,1.013,1.022,1.76,1.655l0.817,0.725
					c0.413,0.369,0.806,0.754,1.18,1.153c0.373,0.4,0.703,0.817,0.988,1.253c0.286,0.435,0.512,0.879,0.679,1.331
					c0.167,0.453,0.25,0.917,0.25,1.391c0,0.686-0.132,1.323-0.396,1.912s-0.624,1.097-1.081,1.522
					c-0.457,0.427-0.991,0.761-1.602,1.002c-0.611,0.242-1.259,0.363-1.945,0.363c-0.668,0-1.296-0.11-1.885-0.33
					s-1.121-0.529-1.595-0.93c-0.475-0.399-0.886-0.876-1.233-1.43s-0.613-1.169-0.797-1.846L194.085,237.557z"/>
				<path fill="#5E5E5E" d="M203.077,228.592h-1.266v-2.966h1.266v-5.563h4.443v5.563h2.136v2.966h-2.136v9.492
					c0,0.475,0.088,0.829,0.264,1.061c0.176,0.233,0.488,0.35,0.936,0.35c0.51,0,0.94-0.026,1.292-0.079l-0.264,3.441
					c-0.58,0.176-1.428,0.264-2.544,0.264c-0.519,0-0.987-0.062-1.404-0.185s-0.769-0.288-1.055-0.495
					c-0.286-0.206-0.532-0.468-0.738-0.784s-0.369-0.64-0.487-0.969c-0.119-0.33-0.211-0.714-0.277-1.154
					c-0.065-0.439-0.11-0.848-0.132-1.226s-0.033-0.809-0.033-1.292V228.592z"/>
				<path fill="#5E5E5E" d="M103.883,267.849l5.774-8.266l0.831-1.239c0.202-0.299,0.393-0.62,0.574-0.962
					c0.18-0.343,0.336-0.69,0.468-1.042s0.235-0.703,0.31-1.055s0.112-0.69,0.112-1.015c0-0.255-0.033-0.532-0.099-0.831
					c-0.066-0.299-0.167-0.573-0.304-0.824c-0.136-0.25-0.314-0.459-0.534-0.626s-0.488-0.25-0.804-0.25
					c-0.308,0-0.562,0.077-0.765,0.231s-0.369,0.358-0.501,0.613s-0.233,0.545-0.303,0.87s-0.119,0.655-0.145,0.989
					s-0.042,0.662-0.046,0.982c-0.005,0.321-0.007,0.604-0.007,0.85v0.316h-4.548v-1.49c0-1.055,0.112-2.032,0.336-2.934
					c0.224-0.9,0.586-1.681,1.087-2.34s1.154-1.173,1.958-1.542c0.805-0.369,1.782-0.554,2.934-0.554
					c1.002,0,1.894,0.154,2.676,0.461s1.441,0.745,1.978,1.312c0.536,0.567,0.945,1.253,1.226,2.057
					c0.281,0.805,0.422,1.708,0.422,2.709c0,0.809-0.101,1.602-0.303,2.379c-0.202,0.778-0.514,1.58-0.936,2.406
					s-0.96,1.694-1.615,2.604c-0.655,0.91-1.435,1.905-2.34,2.986c-0.536,0.642-0.984,1.189-1.345,1.642s-0.642,0.811-0.844,1.074
					h7.383v4.562h-12.63V267.849z"/>
				<path fill="#5E5E5E" d="M122.156,254.625h4.443v1.318c0.413-0.483,0.905-0.875,1.477-1.173s1.16-0.448,1.767-0.448
					c0.571,0,1.099,0.185,1.582,0.554s0.848,0.831,1.094,1.384c0.431-0.58,0.96-1.048,1.589-1.404
					c0.628-0.355,1.294-0.534,1.997-0.534c0.606,0,1.151,0.193,1.635,0.58s0.846,0.864,1.088,1.43
					c0.241,0.567,0.362,1.145,0.362,1.734v13.856h-4.443V258.95c0-0.158-0.004-0.288-0.013-0.389s-0.031-0.231-0.066-0.389
					s-0.101-0.279-0.198-0.363c-0.097-0.083-0.22-0.125-0.369-0.125c-0.316,0-0.721,0.325-1.213,0.976v13.263h-4.443v-12.999
					c0-0.826-0.202-1.239-0.606-1.239c-0.334,0-0.751,0.33-1.252,0.989l0.013,13.25h-4.443V254.625z"/>
				<path fill="#5E5E5E" d="M141.364,260.136c0-0.914,0.105-1.729,0.316-2.445s0.536-1.323,0.976-1.819s0.995-0.877,1.668-1.141
					c0.672-0.264,1.47-0.396,2.393-0.396s1.723,0.13,2.399,0.389c0.677,0.26,1.239,0.638,1.688,1.134
					c0.448,0.497,0.782,1.104,1.002,1.819c0.22,0.717,0.33,1.536,0.33,2.459v7.317c0,0.721-0.145,1.377-0.435,1.971
					c-0.29,0.593-0.681,1.103-1.173,1.529s-1.066,0.758-1.72,0.995c-0.655,0.237-1.352,0.356-2.09,0.356
					c-0.694,0-1.364-0.11-2.011-0.33c-0.646-0.22-1.215-0.538-1.707-0.956c-0.492-0.417-0.888-0.927-1.187-1.529
					c-0.299-0.602-0.448-1.281-0.448-2.037V260.136z M147.732,258.989c0-0.87-0.338-1.305-1.015-1.305
					c-0.606,0-0.91,0.435-0.91,1.305v8.517c0,0.158,0.006,0.323,0.02,0.495c0.013,0.171,0.048,0.327,0.105,0.468
					c0.057,0.141,0.147,0.257,0.27,0.35c0.123,0.092,0.294,0.138,0.514,0.138c0.677,0,1.015-0.483,1.015-1.45V258.989z"/>
				<path fill="#5E5E5E" d="M154.403,254.625h4.443v1.305c0.422-0.483,0.929-0.87,1.523-1.16c0.593-0.29,1.21-0.435,1.852-0.435
					c0.483,0,0.914,0.114,1.292,0.343s0.696,0.521,0.956,0.877c0.259,0.355,0.457,0.756,0.594,1.199
					c0.136,0.444,0.204,0.877,0.204,1.299v13.869h-4.443v-13.091c0-0.765-0.246-1.147-0.738-1.147c-0.105,0-0.217,0.026-0.336,0.079
					c-0.118,0.053-0.222,0.119-0.31,0.198l-0.277,0.264c-0.053,0.053-0.092,0.095-0.119,0.125s-0.092,0.107-0.198,0.23v13.342
					h-4.443V254.625z"/>
				<path fill="#5E5E5E" d="M167.956,257.592h-1.266v-2.966h1.266v-5.563h4.443v5.563h2.136v2.966h-2.136v9.492
					c0,0.475,0.088,0.829,0.264,1.061c0.176,0.233,0.488,0.35,0.936,0.35c0.51,0,0.94-0.026,1.292-0.079l-0.264,3.441
					c-0.58,0.176-1.428,0.264-2.544,0.264c-0.519,0-0.987-0.062-1.404-0.185s-0.769-0.288-1.055-0.495
					c-0.286-0.206-0.532-0.468-0.738-0.784s-0.369-0.64-0.487-0.969c-0.119-0.33-0.211-0.714-0.277-1.154
					c-0.065-0.439-0.11-0.848-0.132-1.226s-0.033-0.809-0.033-1.292V257.592z"/>
				<path fill="#5E5E5E" d="M176.459,248.192h4.443v7.752c0.431-0.483,0.943-0.875,1.536-1.173c0.594-0.299,1.207-0.448,1.839-0.448
					c0.606,0,1.149,0.193,1.628,0.58c0.479,0.387,0.834,0.861,1.067,1.424s0.35,1.143,0.35,1.74v13.856h-4.443v-12.696
					c0-0.035,0.002-0.112,0.006-0.231c0.004-0.118,0.004-0.215,0-0.29c-0.004-0.074-0.009-0.171-0.013-0.29
					c-0.005-0.118-0.02-0.213-0.046-0.283s-0.062-0.145-0.105-0.224s-0.104-0.136-0.178-0.171s-0.165-0.053-0.27-0.053
					c-0.176,0-0.365,0.07-0.567,0.211s-0.347,0.259-0.435,0.356s-0.211,0.237-0.369,0.422v13.25h-4.443V248.192z"/>
				<path fill="#5E5E5E" d="M192.543,266.557l0.211,0.62c0.07,0.202,0.156,0.413,0.257,0.633c0.101,0.22,0.222,0.422,0.362,0.606
					s0.299,0.336,0.475,0.455c0.176,0.118,0.378,0.178,0.606,0.178c0.554,0,0.831-0.325,0.831-0.976c0-0.343-0.09-0.672-0.27-0.989
					c-0.181-0.316-0.405-0.62-0.673-0.91s-0.556-0.564-0.863-0.824c-0.308-0.259-0.584-0.499-0.831-0.718l-0.725-0.62
					c-0.475-0.404-0.899-0.804-1.272-1.2s-0.69-0.797-0.949-1.207c-0.259-0.408-0.457-0.83-0.593-1.266
					c-0.137-0.435-0.205-0.894-0.205-1.377c0-0.765,0.156-1.435,0.468-2.01c0.312-0.576,0.725-1.059,1.239-1.45
					c0.514-0.391,1.107-0.684,1.779-0.877c0.673-0.193,1.365-0.29,2.077-0.29c0.668,0,1.286,0.136,1.852,0.409
					c0.567,0.272,1.077,0.633,1.529,1.081s0.842,0.962,1.167,1.542s0.576,1.173,0.751,1.78l-3.19,1.094l-0.264-0.646
					c-0.229-0.554-0.503-1.011-0.824-1.371c-0.321-0.36-0.706-0.562-1.154-0.606c-0.308,0-0.547,0.11-0.718,0.33
					c-0.172,0.22-0.257,0.47-0.257,0.751c0,0.396,0.213,0.829,0.639,1.298c0.426,0.471,1.013,1.022,1.76,1.655l0.817,0.725
					c0.413,0.369,0.806,0.754,1.18,1.153c0.373,0.4,0.703,0.817,0.988,1.253c0.286,0.435,0.512,0.879,0.679,1.331
					c0.167,0.453,0.25,0.917,0.25,1.391c0,0.686-0.132,1.323-0.396,1.912s-0.624,1.097-1.081,1.522
					c-0.457,0.427-0.991,0.761-1.602,1.002c-0.611,0.242-1.259,0.363-1.945,0.363c-0.668,0-1.296-0.11-1.885-0.33
					s-1.121-0.529-1.595-0.93c-0.475-0.399-0.886-0.876-1.233-1.43s-0.613-1.169-0.797-1.846L192.543,266.557z"/>
			</g>
			<g>
				<path fill="#828282" d="M103.863,189.895h4.548l2.096,14.383l2.32-14.383h4.482l-4.693,23.73h-4.39L103.863,189.895z"/>
				<path fill="#828282" d="M118.708,201.839c0-0.914,0.107-1.731,0.323-2.452c0.215-0.721,0.542-1.329,0.982-1.826
					c0.439-0.496,0.989-0.876,1.648-1.14s1.437-0.396,2.333-0.396s1.676,0.13,2.34,0.389c0.663,0.259,1.213,0.637,1.647,1.134
					c0.436,0.497,0.76,1.105,0.976,1.826s0.323,1.542,0.323,2.465v3.56h-6.13v3.81c0,0.967,0.281,1.45,0.844,1.45
					c0.615,0,0.923-0.519,0.923-1.556v-1.885h4.364v1.938c0,0.721-0.141,1.377-0.422,1.971c-0.281,0.593-0.664,1.103-1.147,1.529
					s-1.046,0.758-1.688,0.995s-1.318,0.356-2.03,0.356s-1.389-0.119-2.03-0.356s-1.204-0.569-1.688-0.995s-0.866-0.938-1.147-1.536
					s-0.422-1.252-0.422-1.964V201.839z M124.877,203.065v-2.373c0-0.87-0.294-1.305-0.883-1.305c-0.562,0-0.844,0.435-0.844,1.305
					v2.373H124.877z"/>
				<path fill="#828282" d="M131.311,189.895h4.443v7.752c0.431-0.483,0.943-0.875,1.536-1.173c0.594-0.299,1.207-0.448,1.839-0.448
					c0.606,0,1.149,0.193,1.628,0.58c0.479,0.387,0.834,0.861,1.067,1.424s0.35,1.143,0.35,1.74v13.856h-4.443V200.93
					c0-0.035,0.002-0.112,0.006-0.231c0.004-0.118,0.004-0.215,0-0.29c-0.004-0.074-0.009-0.171-0.013-0.29
					c-0.005-0.118-0.02-0.213-0.046-0.283s-0.062-0.145-0.105-0.224s-0.104-0.136-0.178-0.171s-0.165-0.053-0.27-0.053
					c-0.176,0-0.365,0.07-0.567,0.211s-0.347,0.259-0.435,0.356s-0.211,0.237-0.369,0.422v13.25h-4.443V189.895z"/>
				<path fill="#828282" d="M144.587,190.673h4.443v4.153h-4.443V190.673z M144.587,196.329h4.443v17.297h-4.443V196.329z"/>
				<path fill="#828282" d="M151.324,201.839c0-1.828,0.435-3.254,1.305-4.278c0.87-1.023,2.197-1.536,3.981-1.536
					c1.793,0,3.122,0.51,3.988,1.529s1.299,2.448,1.299,4.285v1.503h-4.364v-1.964c0-0.686-0.059-1.188-0.178-1.509
					c-0.118-0.321-0.367-0.481-0.745-0.481c-0.562,0-0.844,0.435-0.844,1.305v8.517c0,0.967,0.281,1.45,0.844,1.45
					c0.211,0,0.38-0.044,0.507-0.132s0.22-0.237,0.277-0.448c0.057-0.211,0.094-0.428,0.112-0.653
					c0.018-0.224,0.026-0.538,0.026-0.942v-1.833h4.364v2.571c0,0.949-0.246,1.795-0.738,2.538s-1.138,1.303-1.938,1.681
					s-1.67,0.567-2.61,0.567c-1.45,0-2.694-0.442-3.731-1.325c-1.037-0.884-1.556-2.037-1.556-3.461V201.839z"/>
				<path fill="#828282" d="M163.795,189.895h4.443v23.73h-4.443V189.895z"/>
				<path fill="#828282" d="M170.532,201.839c0-0.914,0.107-1.731,0.323-2.452c0.215-0.721,0.542-1.329,0.982-1.826
					c0.439-0.496,0.989-0.876,1.648-1.14s1.437-0.396,2.333-0.396s1.676,0.13,2.34,0.389c0.663,0.259,1.213,0.637,1.647,1.134
					c0.436,0.497,0.76,1.105,0.976,1.826s0.323,1.542,0.323,2.465v3.56h-6.13v3.81c0,0.967,0.281,1.45,0.844,1.45
					c0.615,0,0.923-0.519,0.923-1.556v-1.885h4.364v1.938c0,0.721-0.141,1.377-0.422,1.971c-0.281,0.593-0.664,1.103-1.147,1.529
					s-1.046,0.758-1.688,0.995s-1.318,0.356-2.03,0.356s-1.389-0.119-2.03-0.356s-1.204-0.569-1.688-0.995s-0.866-0.938-1.147-1.536
					s-0.422-1.252-0.422-1.964V201.839z M176.702,203.065v-2.373c0-0.87-0.294-1.305-0.883-1.305c-0.562,0-0.844,0.435-0.844,1.305
					v2.373H176.702z"/>
				<path fill="#828282" d="M185.97,208.26l0.211,0.62c0.07,0.202,0.156,0.413,0.257,0.633c0.101,0.22,0.222,0.422,0.362,0.606
					s0.299,0.336,0.475,0.455c0.176,0.118,0.378,0.178,0.606,0.178c0.554,0,0.831-0.325,0.831-0.976c0-0.343-0.09-0.672-0.27-0.989
					c-0.181-0.316-0.405-0.62-0.673-0.91s-0.556-0.564-0.863-0.824c-0.308-0.259-0.584-0.499-0.831-0.718l-0.725-0.62
					c-0.475-0.404-0.899-0.804-1.272-1.2s-0.69-0.797-0.949-1.207c-0.259-0.408-0.457-0.83-0.593-1.266
					c-0.137-0.435-0.205-0.894-0.205-1.377c0-0.765,0.156-1.435,0.468-2.01c0.312-0.576,0.725-1.059,1.239-1.45
					c0.514-0.391,1.107-0.684,1.779-0.877c0.673-0.193,1.365-0.29,2.077-0.29c0.668,0,1.286,0.136,1.852,0.409
					c0.567,0.272,1.077,0.633,1.529,1.081s0.842,0.962,1.167,1.542s0.576,1.173,0.751,1.78l-3.19,1.094l-0.264-0.646
					c-0.229-0.554-0.503-1.011-0.824-1.371c-0.321-0.36-0.706-0.562-1.154-0.606c-0.308,0-0.547,0.11-0.718,0.33
					c-0.172,0.22-0.257,0.47-0.257,0.751c0,0.396,0.213,0.829,0.639,1.298c0.426,0.471,1.013,1.022,1.76,1.655l0.817,0.725
					c0.413,0.369,0.806,0.754,1.18,1.153c0.373,0.4,0.703,0.817,0.988,1.253c0.286,0.435,0.512,0.879,0.679,1.331
					c0.167,0.453,0.25,0.917,0.25,1.391c0,0.686-0.132,1.323-0.396,1.912s-0.624,1.097-1.081,1.522
					c-0.457,0.427-0.991,0.761-1.602,1.002c-0.611,0.242-1.259,0.363-1.945,0.363c-0.668,0-1.296-0.11-1.885-0.33
					s-1.121-0.529-1.595-0.93c-0.475-0.399-0.886-0.876-1.233-1.43s-0.613-1.169-0.797-1.846L185.97,208.26z"/>
				<path fill="#828282" d="M201.158,208.26l0.211,0.62c0.07,0.202,0.156,0.413,0.257,0.633c0.101,0.22,0.222,0.422,0.362,0.606
					s0.299,0.336,0.475,0.455c0.176,0.118,0.378,0.178,0.606,0.178c0.554,0,0.831-0.325,0.831-0.976c0-0.343-0.09-0.672-0.27-0.989
					c-0.181-0.316-0.405-0.62-0.673-0.91s-0.556-0.564-0.863-0.824c-0.308-0.259-0.584-0.499-0.831-0.718l-0.725-0.62
					c-0.475-0.404-0.899-0.804-1.272-1.2s-0.69-0.797-0.949-1.207c-0.259-0.408-0.457-0.83-0.593-1.266
					c-0.137-0.435-0.205-0.894-0.205-1.377c0-0.765,0.156-1.435,0.468-2.01c0.312-0.576,0.725-1.059,1.239-1.45
					c0.514-0.391,1.107-0.684,1.779-0.877c0.673-0.193,1.365-0.29,2.077-0.29c0.668,0,1.286,0.136,1.852,0.409
					c0.567,0.272,1.077,0.633,1.529,1.081s0.842,0.962,1.167,1.542s0.576,1.173,0.751,1.78l-3.19,1.094l-0.264-0.646
					c-0.229-0.554-0.503-1.011-0.824-1.371c-0.321-0.36-0.706-0.562-1.154-0.606c-0.308,0-0.547,0.11-0.718,0.33
					c-0.172,0.22-0.257,0.47-0.257,0.751c0,0.396,0.213,0.829,0.639,1.298c0.426,0.471,1.013,1.022,1.76,1.655l0.817,0.725
					c0.413,0.369,0.806,0.754,1.18,1.153c0.373,0.4,0.703,0.817,0.988,1.253c0.286,0.435,0.512,0.879,0.679,1.331
					c0.167,0.453,0.25,0.917,0.25,1.391c0,0.686-0.132,1.323-0.396,1.912s-0.624,1.097-1.081,1.522
					c-0.457,0.427-0.991,0.761-1.602,1.002c-0.611,0.242-1.259,0.363-1.945,0.363c-0.668,0-1.296-0.11-1.885-0.33
					s-1.121-0.529-1.595-0.93c-0.475-0.399-0.886-0.876-1.233-1.43s-0.613-1.169-0.797-1.846L201.158,208.26z"/>
				<path fill="#828282" d="M209.635,201.839c0-0.914,0.105-1.729,0.316-2.445s0.536-1.323,0.976-1.819s0.995-0.877,1.668-1.141
					c0.672-0.264,1.47-0.396,2.393-0.396s1.723,0.13,2.399,0.389c0.677,0.26,1.239,0.638,1.688,1.134
					c0.448,0.497,0.782,1.104,1.002,1.819c0.22,0.717,0.33,1.536,0.33,2.459v7.317c0,0.721-0.145,1.377-0.435,1.971
					c-0.29,0.593-0.681,1.103-1.173,1.529s-1.066,0.758-1.72,0.995c-0.655,0.237-1.352,0.356-2.09,0.356
					c-0.694,0-1.364-0.11-2.011-0.33c-0.646-0.22-1.215-0.538-1.707-0.956c-0.492-0.417-0.888-0.927-1.187-1.529
					c-0.299-0.602-0.448-1.281-0.448-2.037V201.839z M216.002,200.692c0-0.87-0.338-1.305-1.015-1.305
					c-0.606,0-0.91,0.435-0.91,1.305v8.517c0,0.158,0.006,0.323,0.02,0.495c0.013,0.171,0.048,0.327,0.105,0.468
					c0.057,0.141,0.147,0.257,0.27,0.35c0.123,0.092,0.294,0.138,0.514,0.138c0.677,0,1.015-0.483,1.015-1.45V200.692z"/>
				<path fill="#828282" d="M222.7,189.895h4.443v23.73H222.7V189.895z"/>
				<path fill="#828282" d="M229.45,200.165c0-1.09,0.343-2.052,1.028-2.887s1.534-1.252,2.544-1.252
					c0.554,0,1.079,0.143,1.575,0.428c0.497,0.286,0.925,0.662,1.286,1.127v-7.686h4.443v23.73h-4.443v-1.292
					c-0.352,0.519-0.791,0.927-1.318,1.226s-1.085,0.448-1.674,0.448c-0.976,0-1.793-0.367-2.452-1.101
					c-0.659-0.733-0.989-1.593-0.989-2.577V200.165z M235.883,200.376c-0.501-0.659-0.918-0.989-1.252-0.989
					c-0.492,0-0.738,0.378-0.738,1.134v8.899c0,0.237,0.011,0.433,0.033,0.586c0.021,0.154,0.092,0.301,0.211,0.442
					c0.118,0.141,0.283,0.211,0.494,0.211c0.378,0,0.795-0.316,1.252-0.949V200.376z"/>
				<path fill="#828282" d="M104.759,219.673h4.443v4.153h-4.443V219.673z M104.759,225.329h4.443v17.297h-4.443V225.329z"/>
				<path fill="#828282" d="M111.707,225.329h4.443v1.305c0.422-0.483,0.929-0.87,1.523-1.16c0.593-0.29,1.21-0.435,1.852-0.435
					c0.483,0,0.914,0.114,1.292,0.343s0.696,0.521,0.956,0.877c0.259,0.355,0.457,0.756,0.594,1.199
					c0.136,0.444,0.204,0.877,0.204,1.299v13.869h-4.443v-13.091c0-0.765-0.246-1.147-0.738-1.147c-0.105,0-0.217,0.026-0.336,0.079
					c-0.118,0.053-0.222,0.119-0.31,0.198l-0.277,0.264c-0.053,0.053-0.092,0.095-0.119,0.125s-0.092,0.107-0.198,0.23v13.342
					h-4.443V225.329z"/>
				<path fill="#828282" d="M128.925,228.295h-1.266v-2.966h1.266v-5.563h4.443v5.563h2.136v2.966h-2.136v9.492
					c0,0.475,0.088,0.829,0.264,1.061c0.176,0.233,0.488,0.35,0.936,0.35c0.51,0,0.94-0.026,1.292-0.079l-0.264,3.441
					c-0.58,0.176-1.428,0.264-2.544,0.264c-0.519,0-0.987-0.062-1.404-0.185s-0.769-0.288-1.055-0.495
					c-0.286-0.206-0.532-0.468-0.738-0.784s-0.369-0.64-0.487-0.969c-0.119-0.33-0.211-0.714-0.277-1.154
					c-0.065-0.439-0.11-0.848-0.132-1.226s-0.033-0.809-0.033-1.292V228.295z"/>
				<path fill="#828282" d="M137.428,218.895h4.443v7.752c0.431-0.483,0.943-0.875,1.536-1.173c0.594-0.299,1.207-0.448,1.839-0.448
					c0.606,0,1.149,0.193,1.628,0.58c0.479,0.387,0.834,0.861,1.067,1.424s0.35,1.143,0.35,1.74v13.856h-4.443V229.93
					c0-0.035,0.002-0.112,0.006-0.231c0.004-0.118,0.004-0.215,0-0.29c-0.004-0.074-0.009-0.171-0.013-0.29
					c-0.005-0.118-0.02-0.213-0.046-0.283s-0.062-0.145-0.105-0.224s-0.104-0.136-0.178-0.171s-0.165-0.053-0.27-0.053
					c-0.176,0-0.365,0.07-0.567,0.211s-0.347,0.259-0.435,0.356s-0.211,0.237-0.369,0.422v13.25h-4.443V218.895z"/>
				<path fill="#828282" d="M150.467,230.839c0-0.914,0.107-1.731,0.323-2.452c0.215-0.721,0.542-1.329,0.982-1.826
					c0.439-0.496,0.989-0.876,1.648-1.14s1.437-0.396,2.333-0.396s1.676,0.13,2.34,0.389c0.663,0.259,1.213,0.637,1.647,1.134
					c0.436,0.497,0.76,1.105,0.976,1.826s0.323,1.542,0.323,2.465v3.56h-6.13v3.81c0,0.967,0.281,1.45,0.844,1.45
					c0.615,0,0.923-0.519,0.923-1.556v-1.885h4.364v1.938c0,0.721-0.141,1.377-0.422,1.971c-0.281,0.593-0.664,1.103-1.147,1.529
					s-1.046,0.758-1.688,0.995s-1.318,0.356-2.03,0.356s-1.389-0.119-2.03-0.356s-1.204-0.569-1.688-0.995s-0.866-0.938-1.147-1.536
					s-0.422-1.252-0.422-1.964V230.839z M156.637,232.065v-2.373c0-0.87-0.294-1.305-0.883-1.305c-0.562,0-0.844,0.435-0.844,1.305
					v2.373H156.637z"/>
				<path fill="#828282" d="M167.355,228.295h-1.002v-2.966h1.002v-0.026c0.009-0.466,0.031-0.901,0.066-1.305
					s0.099-0.835,0.191-1.292c0.092-0.457,0.228-0.85,0.408-1.18c0.18-0.329,0.407-0.635,0.679-0.916s0.62-0.494,1.042-0.64
					c0.422-0.145,0.905-0.217,1.45-0.217c0.835,0,1.767,0.062,2.795,0.185v3.322l-1.16-0.079c-0.369,0-0.633,0.104-0.791,0.31
					s-0.237,0.582-0.237,1.127v0.712h2.149v2.966h-2.149v14.331h-4.443V228.295z"/>
				<path fill="#828282" d="M175.292,219.673h4.443v4.153h-4.443V219.673z M175.292,225.329h4.443v17.297h-4.443V225.329z"/>
				<path fill="#828282" d="M182.239,225.329h4.417v1.49c0.677-1.099,1.468-1.648,2.373-1.648c0.255,0,0.655,0.044,1.2,0.132
					l-0.264,3.744c-0.809-0.088-1.296-0.132-1.463-0.132c-0.606,0-1.066,0.187-1.377,0.561c-0.312,0.374-0.468,0.907-0.468,1.602
					v11.549h-4.417V225.329z"/>
				<path fill="#828282" d="M194.487,237.26l0.211,0.62c0.07,0.202,0.156,0.413,0.257,0.633c0.101,0.22,0.222,0.422,0.362,0.606
					s0.299,0.336,0.475,0.455c0.176,0.118,0.378,0.178,0.606,0.178c0.554,0,0.831-0.325,0.831-0.976c0-0.343-0.09-0.672-0.27-0.989
					c-0.181-0.316-0.405-0.62-0.673-0.91s-0.556-0.564-0.863-0.824c-0.308-0.259-0.584-0.499-0.831-0.718l-0.725-0.62
					c-0.475-0.404-0.899-0.804-1.272-1.2s-0.69-0.797-0.949-1.207c-0.259-0.408-0.457-0.83-0.593-1.266
					c-0.137-0.435-0.205-0.894-0.205-1.377c0-0.765,0.156-1.435,0.468-2.01c0.312-0.576,0.725-1.059,1.239-1.45
					c0.514-0.391,1.107-0.684,1.779-0.877c0.673-0.193,1.365-0.29,2.077-0.29c0.668,0,1.286,0.136,1.852,0.409
					c0.567,0.272,1.077,0.633,1.529,1.081s0.842,0.962,1.167,1.542s0.576,1.173,0.751,1.78l-3.19,1.094l-0.264-0.646
					c-0.229-0.554-0.503-1.011-0.824-1.371c-0.321-0.36-0.706-0.562-1.154-0.606c-0.308,0-0.547,0.11-0.718,0.33
					c-0.172,0.22-0.257,0.47-0.257,0.751c0,0.396,0.213,0.829,0.639,1.298c0.426,0.471,1.013,1.022,1.76,1.655l0.817,0.725
					c0.413,0.369,0.806,0.754,1.18,1.153c0.373,0.4,0.703,0.817,0.988,1.253c0.286,0.435,0.512,0.879,0.679,1.331
					c0.167,0.453,0.25,0.917,0.25,1.391c0,0.686-0.132,1.323-0.396,1.912s-0.624,1.097-1.081,1.522
					c-0.457,0.427-0.991,0.761-1.602,1.002c-0.611,0.242-1.259,0.363-1.945,0.363c-0.668,0-1.296-0.11-1.885-0.33
					s-1.121-0.529-1.595-0.93c-0.475-0.399-0.886-0.876-1.233-1.43s-0.613-1.169-0.797-1.846L194.487,237.26z"/>
				<path fill="#828282" d="M203.478,228.295h-1.266v-2.966h1.266v-5.563h4.443v5.563h2.136v2.966h-2.136v9.492
					c0,0.475,0.088,0.829,0.264,1.061c0.176,0.233,0.488,0.35,0.936,0.35c0.51,0,0.94-0.026,1.292-0.079l-0.264,3.441
					c-0.58,0.176-1.428,0.264-2.544,0.264c-0.519,0-0.987-0.062-1.404-0.185s-0.769-0.288-1.055-0.495
					c-0.286-0.206-0.532-0.468-0.738-0.784s-0.369-0.64-0.487-0.969c-0.119-0.33-0.211-0.714-0.277-1.154
					c-0.065-0.439-0.11-0.848-0.132-1.226s-0.033-0.809-0.033-1.292V228.295z"/>
				<path fill="#828282" d="M104.285,267.552l5.774-8.266l0.831-1.239c0.202-0.299,0.393-0.62,0.574-0.962
					c0.18-0.343,0.336-0.69,0.468-1.042s0.235-0.703,0.31-1.055s0.112-0.69,0.112-1.015c0-0.255-0.033-0.532-0.099-0.831
					c-0.066-0.299-0.167-0.573-0.304-0.824c-0.136-0.25-0.314-0.459-0.534-0.626s-0.488-0.25-0.804-0.25
					c-0.308,0-0.562,0.077-0.765,0.231s-0.369,0.358-0.501,0.613s-0.233,0.545-0.303,0.87s-0.119,0.655-0.145,0.989
					s-0.042,0.662-0.046,0.982c-0.005,0.321-0.007,0.604-0.007,0.85v0.316h-4.548v-1.49c0-1.055,0.112-2.032,0.336-2.934
					c0.224-0.9,0.586-1.681,1.087-2.34s1.154-1.173,1.958-1.542c0.805-0.369,1.782-0.554,2.934-0.554
					c1.002,0,1.894,0.154,2.676,0.461s1.441,0.745,1.978,1.312c0.536,0.567,0.945,1.253,1.226,2.057
					c0.281,0.805,0.422,1.708,0.422,2.709c0,0.809-0.101,1.602-0.303,2.379c-0.202,0.778-0.514,1.58-0.936,2.406
					s-0.96,1.694-1.615,2.604c-0.655,0.91-1.435,1.905-2.34,2.986c-0.536,0.642-0.984,1.189-1.345,1.642s-0.642,0.811-0.844,1.074
					h7.383v4.562h-12.63V267.552z"/>
				<path fill="#828282" d="M122.557,254.329H127v1.318c0.413-0.483,0.905-0.875,1.477-1.173s1.16-0.448,1.767-0.448
					c0.571,0,1.099,0.185,1.582,0.554s0.848,0.831,1.094,1.384c0.431-0.58,0.96-1.048,1.589-1.404
					c0.628-0.355,1.294-0.534,1.997-0.534c0.606,0,1.151,0.193,1.635,0.58s0.846,0.864,1.088,1.43
					c0.241,0.567,0.362,1.145,0.362,1.734v13.856h-4.443v-12.973c0-0.158-0.004-0.288-0.013-0.389s-0.031-0.231-0.066-0.389
					s-0.101-0.279-0.198-0.363c-0.097-0.083-0.22-0.125-0.369-0.125c-0.316,0-0.721,0.325-1.213,0.976v13.263h-4.443v-12.999
					c0-0.826-0.202-1.239-0.606-1.239c-0.334,0-0.751,0.33-1.252,0.989l0.013,13.25h-4.443V254.329z"/>
				<path fill="#828282" d="M141.766,259.839c0-0.914,0.105-1.729,0.316-2.445s0.536-1.323,0.976-1.819s0.995-0.877,1.668-1.141
					c0.672-0.264,1.47-0.396,2.393-0.396s1.723,0.13,2.399,0.389c0.677,0.26,1.239,0.638,1.688,1.134
					c0.448,0.497,0.782,1.104,1.002,1.819c0.22,0.717,0.33,1.536,0.33,2.459v7.317c0,0.721-0.145,1.377-0.435,1.971
					c-0.29,0.593-0.681,1.103-1.173,1.529s-1.066,0.758-1.72,0.995c-0.655,0.237-1.352,0.356-2.09,0.356
					c-0.694,0-1.364-0.11-2.011-0.33c-0.646-0.22-1.215-0.538-1.707-0.956c-0.492-0.417-0.888-0.927-1.187-1.529
					c-0.299-0.602-0.448-1.281-0.448-2.037V259.839z M148.133,258.692c0-0.87-0.338-1.305-1.015-1.305
					c-0.606,0-0.91,0.435-0.91,1.305v8.517c0,0.158,0.006,0.323,0.02,0.495c0.013,0.171,0.048,0.327,0.105,0.468
					c0.057,0.141,0.147,0.257,0.27,0.35c0.123,0.092,0.294,0.138,0.514,0.138c0.677,0,1.015-0.483,1.015-1.45V258.692z"/>
				<path fill="#828282" d="M154.804,254.329h4.443v1.305c0.422-0.483,0.929-0.87,1.523-1.16c0.593-0.29,1.21-0.435,1.852-0.435
					c0.483,0,0.914,0.114,1.292,0.343s0.696,0.521,0.956,0.877c0.259,0.355,0.457,0.756,0.594,1.199
					c0.136,0.444,0.204,0.877,0.204,1.299v13.869h-4.443v-13.091c0-0.765-0.246-1.147-0.738-1.147c-0.105,0-0.217,0.026-0.336,0.079
					c-0.118,0.053-0.222,0.119-0.31,0.198l-0.277,0.264c-0.053,0.053-0.092,0.095-0.119,0.125s-0.092,0.107-0.198,0.23v13.342
					h-4.443V254.329z"/>
				<path fill="#828282" d="M168.357,257.295h-1.266v-2.966h1.266v-5.563h4.443v5.563h2.136v2.966H172.8v9.492
					c0,0.475,0.088,0.829,0.264,1.061c0.176,0.233,0.488,0.35,0.936,0.35c0.51,0,0.94-0.026,1.292-0.079l-0.264,3.441
					c-0.58,0.176-1.428,0.264-2.544,0.264c-0.519,0-0.987-0.062-1.404-0.185s-0.769-0.288-1.055-0.495
					c-0.286-0.206-0.532-0.468-0.738-0.784s-0.369-0.64-0.487-0.969c-0.119-0.33-0.211-0.714-0.277-1.154
					c-0.065-0.439-0.11-0.848-0.132-1.226s-0.033-0.809-0.033-1.292V257.295z"/>
				<path fill="#828282" d="M176.86,247.895h4.443v7.752c0.431-0.483,0.943-0.875,1.536-1.173c0.594-0.299,1.207-0.448,1.839-0.448
					c0.606,0,1.149,0.193,1.628,0.58c0.479,0.387,0.834,0.861,1.067,1.424s0.35,1.143,0.35,1.74v13.856h-4.443V258.93
					c0-0.035,0.002-0.112,0.006-0.231c0.004-0.118,0.004-0.215,0-0.29c-0.004-0.074-0.009-0.171-0.013-0.29
					c-0.005-0.118-0.02-0.213-0.046-0.283s-0.062-0.145-0.105-0.224s-0.104-0.136-0.178-0.171s-0.165-0.053-0.27-0.053
					c-0.176,0-0.365,0.07-0.567,0.211s-0.347,0.259-0.435,0.356s-0.211,0.237-0.369,0.422v13.25h-4.443V247.895z"/>
				<path fill="#828282" d="M192.944,266.26l0.211,0.62c0.07,0.202,0.156,0.413,0.257,0.633c0.101,0.22,0.222,0.422,0.362,0.606
					s0.299,0.336,0.475,0.455c0.176,0.118,0.378,0.178,0.606,0.178c0.554,0,0.831-0.325,0.831-0.976c0-0.343-0.09-0.672-0.27-0.989
					c-0.181-0.316-0.405-0.62-0.673-0.91s-0.556-0.564-0.863-0.824c-0.308-0.259-0.584-0.499-0.831-0.718l-0.725-0.62
					c-0.475-0.404-0.899-0.804-1.272-1.2s-0.69-0.797-0.949-1.207c-0.259-0.408-0.457-0.83-0.593-1.266
					c-0.137-0.435-0.205-0.894-0.205-1.377c0-0.765,0.156-1.435,0.468-2.01c0.312-0.576,0.725-1.059,1.239-1.45
					c0.514-0.391,1.107-0.684,1.779-0.877c0.673-0.193,1.365-0.29,2.077-0.29c0.668,0,1.286,0.136,1.852,0.409
					c0.567,0.272,1.077,0.633,1.529,1.081s0.842,0.962,1.167,1.542s0.576,1.173,0.751,1.78l-3.19,1.094l-0.264-0.646
					c-0.229-0.554-0.503-1.011-0.824-1.371c-0.321-0.36-0.706-0.562-1.154-0.606c-0.308,0-0.547,0.11-0.718,0.33
					c-0.172,0.22-0.257,0.47-0.257,0.751c0,0.396,0.213,0.829,0.639,1.298c0.426,0.471,1.013,1.022,1.76,1.655l0.817,0.725
					c0.413,0.369,0.806,0.754,1.18,1.153c0.373,0.4,0.703,0.817,0.988,1.253c0.286,0.435,0.512,0.879,0.679,1.331
					c0.167,0.453,0.25,0.917,0.25,1.391c0,0.686-0.132,1.323-0.396,1.912s-0.624,1.097-1.081,1.522
					c-0.457,0.427-0.991,0.761-1.602,1.002c-0.611,0.242-1.259,0.363-1.945,0.363c-0.668,0-1.296-0.11-1.885-0.33
					s-1.121-0.529-1.595-0.93c-0.475-0.399-0.886-0.876-1.233-1.43s-0.613-1.169-0.797-1.846L192.944,266.26z"/>
			</g>
		</g>
		<g>
			<g>
				<linearGradient id="SVGID_1_" gradientUnits="userSpaceOnUse" x1="60.0376" y1="272.3013" x2="60.0376" y2="1.9668">
					<stop  offset="0.5059" style="stop-color:#828282"/>
					<stop  offset="0.6235" style="stop-color:#646464"/>
				</linearGradient>
				<polygon fill="url(#SVGID_1_)" points="23.361,272.301 96.692,272.301 96.704,80.07 120.034,80.07 60.039,1.967 0.041,80.058 
					23.373,80.078 				"/>
				<linearGradient id="SVGID_2_" gradientUnits="userSpaceOnUse" x1="63.0376" y1="272.3013" x2="63.0376" y2="-0.0371">
					<stop  offset="0.5059" style="stop-color:#BF2C54"/>
					<stop  offset="0.6235" style="stop-color:#961E3C"/>
				</linearGradient>
				<polygon fill="url(#SVGID_2_)" points="26.361,272.301 99.717,272.301 99.703,78.066 123.034,78.066 63.038,-0.037 
					3.041,78.055 26.371,78.074 				"/>
			</g>
			<g>
				<g>
					<path fill="#828282" d="M48.062,67.779v-3.794c4.95-0.99,6.324-4.949,6.324-4.949h3.575v40.419h-5.939V67.779H48.062z"/>
					<path fill="#828282" d="M70.005,90.656h-9.184v-5.224l8.689-26.396h5.939v26.396h2.75v5.224h-2.75v8.799h-5.444V90.656z
						 M65.881,85.432h4.125V72.783v-1.21h-0.33l-0.33,1.21L65.881,85.432z"/>
				</g>
				<g>
					<path fill="#FFFFFF" d="M49.038,67.092v-3.794c4.95-0.99,6.324-4.949,6.324-4.949h3.575v40.419h-5.939V67.092H49.038z"/>
					<path fill="#FFFFFF" d="M70.982,89.969h-9.184v-5.224l8.689-26.396h5.939v26.396h2.75v5.224h-2.75v8.799h-5.444V89.969z
						 M66.857,84.745h4.125V72.097v-1.21h-0.33l-0.33,1.21L66.857,84.745z"/>
				</g>
			</g>
		</g>
	</g>
	<g>
		<g>
			<g>
				<g>
					<path fill="#FFFFFF" d="M35.039,139.78c-1.493,0-2.704,1.211-2.704,2.704c0,1.493,1.211,2.702,2.704,2.702
						c1.493,0,2.704-1.209,2.704-2.702C37.742,140.991,36.531,139.78,35.039,139.78z M35.039,143.642
						c-0.641,0-1.158-0.518-1.158-1.157c0-0.641,0.518-1.157,1.158-1.157c0.638,0,1.158,0.517,1.158,1.157
						C36.196,143.124,35.677,143.642,35.039,143.642z M54.725,139.78c-1.492,0-2.704,1.211-2.704,2.704
						c0,1.493,1.212,2.702,2.704,2.702c1.493,0,2.705-1.209,2.705-2.702C57.429,140.991,56.217,139.78,54.725,139.78z
						 M54.725,143.642c-0.639,0-1.158-0.518-1.158-1.157c0-0.641,0.52-1.157,1.158-1.157c0.639,0,1.159,0.517,1.159,1.157
						C55.883,143.124,55.364,143.642,54.725,143.642z"/>
					<path fill="#FFFFFF" d="M61.38,141.097h-1.066c0.234-0.406,0.374-0.881,0.374-1.386v-1.387c0-1.49-1.177-2.706-2.65-2.77
						c-1.493-5.05-6.166-8.738-11.699-8.738s-10.208,3.687-11.701,8.735h-2.51c-1.532,0-2.773,1.242-2.773,2.773v1.387
						c0,1.316,0.918,2.42,2.151,2.701c0.037-1.92,1.604-3.464,3.533-3.464c1.951,0,3.535,1.582,3.535,3.536h12.616
						c0-1.954,1.584-3.536,3.535-3.536c1.527,0,2.823,0.969,3.317,2.323c0.021,0.059,0.044,0.115,0.062,0.172
						c0.016,0.053,0.027,0.108,0.042,0.161c0.014,0.057,0.03,0.112,0.042,0.171c0.013,0.062,0.021,0.126,0.03,0.189
						c0.008,0.053,0.019,0.101,0.022,0.152c0.007,0.073,0.009,0.147,0.013,0.223c0.001,0.048,0.006,0.096,0.006,0.145h3.121
						c0.382,0,0.692-0.311,0.692-0.693C62.072,141.407,61.762,141.097,61.38,141.097z M35.728,135.551
						c1.465-4.481,5.691-7.694,10.611-7.694c1.013,0,1.995,0.139,2.928,0.394c-0.018,0.054-0.029,0.109-0.029,0.168v7.132H35.728z
						 M50.289,135.551v-6.971c1.852,0.703,3.471,1.888,4.706,3.404c-0.075,0.064-0.134,0.15-0.163,0.252l-0.955,3.315H50.289z
						 M54.969,135.551l0.744-2.581c0.517,0.797,0.934,1.662,1.232,2.581H54.969z"/>
				</g>
			</g>
			<g>
				<g>
					<path fill="#FFFFFF" d="M35.039,158.15c-1.493,0-2.704,1.211-2.704,2.703c0,1.494,1.211,2.703,2.704,2.703
						c1.493,0,2.704-1.208,2.704-2.703C37.742,159.361,36.531,158.15,35.039,158.15z M35.039,162.011
						c-0.641,0-1.158-0.519-1.158-1.158s0.518-1.156,1.158-1.156c0.638,0,1.158,0.517,1.158,1.156S35.677,162.011,35.039,162.011z
						 M54.725,158.15c-1.492,0-2.704,1.211-2.704,2.703c0,1.494,1.212,2.703,2.704,2.703c1.493,0,2.705-1.208,2.705-2.703
						C57.429,159.361,56.217,158.15,54.725,158.15z M54.725,162.011c-0.639,0-1.158-0.519-1.158-1.158s0.52-1.156,1.158-1.156
						c0.639,0,1.159,0.517,1.159,1.156S55.364,162.011,54.725,162.011z"/>
					<path fill="#FFFFFF" d="M61.38,159.466h-1.066c0.234-0.407,0.374-0.881,0.374-1.387v-1.386c0-1.49-1.177-2.707-2.65-2.77
						c-1.493-5.05-6.166-8.738-11.699-8.738s-10.208,3.687-11.701,8.735h-2.51c-1.532,0-2.773,1.241-2.773,2.773v1.386
						c0,1.318,0.918,2.42,2.151,2.702c0.037-1.92,1.604-3.464,3.533-3.464c1.951,0,3.535,1.583,3.535,3.535h12.616
						c0-1.952,1.584-3.535,3.535-3.535c1.527,0,2.823,0.97,3.317,2.323c0.021,0.058,0.044,0.113,0.062,0.172
						c0.016,0.053,0.027,0.108,0.042,0.161c0.014,0.057,0.03,0.112,0.042,0.171c0.013,0.062,0.021,0.126,0.03,0.189
						c0.008,0.053,0.019,0.1,0.022,0.15c0.007,0.074,0.009,0.149,0.013,0.225c0.001,0.049,0.006,0.096,0.006,0.144h3.121
						c0.382,0,0.692-0.311,0.692-0.693C62.072,159.776,61.762,159.466,61.38,159.466z M35.728,153.921
						c1.465-4.482,5.691-7.695,10.611-7.695c1.013,0,1.995,0.14,2.928,0.394c-0.018,0.055-0.029,0.109-0.029,0.169v7.132H35.728z
						 M50.289,153.921v-6.972c1.852,0.705,3.471,1.889,4.706,3.403c-0.075,0.065-0.134,0.152-0.163,0.253l-0.955,3.316H50.289z
						 M54.969,153.921l0.744-2.581c0.517,0.797,0.934,1.661,1.232,2.581H54.969z"/>
				</g>
			</g>
			<g>
				<g>
					<path fill="#FFFFFF" d="M35.039,176.521c-1.493,0-2.704,1.21-2.704,2.702c0,1.494,1.211,2.704,2.704,2.704
						c1.493,0,2.704-1.21,2.704-2.704C37.742,177.73,36.531,176.521,35.039,176.521z M35.039,180.381
						c-0.641,0-1.158-0.518-1.158-1.158s0.518-1.156,1.158-1.156c0.638,0,1.158,0.516,1.158,1.156S35.677,180.381,35.039,180.381z
						 M54.725,176.521c-1.492,0-2.704,1.21-2.704,2.702c0,1.494,1.212,2.704,2.704,2.704c1.493,0,2.705-1.21,2.705-2.704
						C57.429,177.73,56.217,176.521,54.725,176.521z M54.725,180.381c-0.639,0-1.158-0.518-1.158-1.158s0.52-1.156,1.158-1.156
						c0.639,0,1.159,0.516,1.159,1.156S55.364,180.381,54.725,180.381z"/>
					<path fill="#FFFFFF" d="M61.38,177.837h-1.066c0.234-0.407,0.374-0.882,0.374-1.388v-1.385c0-1.489-1.177-2.706-2.65-2.77
						c-1.493-5.051-6.166-8.739-11.699-8.739s-10.208,3.687-11.701,8.735h-2.51c-1.532,0-2.773,1.242-2.773,2.773v1.385
						c0,1.318,0.918,2.42,2.151,2.702c0.037-1.92,1.604-3.464,3.533-3.464c1.951,0,3.535,1.582,3.535,3.535h12.616
						c0-1.953,1.584-3.535,3.535-3.535c1.527,0,2.823,0.969,3.317,2.323c0.021,0.058,0.044,0.114,0.062,0.173
						c0.016,0.052,0.027,0.107,0.042,0.16c0.014,0.057,0.03,0.112,0.042,0.171c0.013,0.062,0.021,0.126,0.03,0.188
						c0.008,0.054,0.019,0.101,0.022,0.153c0.007,0.073,0.009,0.147,0.013,0.223c0.001,0.049,0.006,0.095,0.006,0.144h3.121
						c0.382,0,0.692-0.311,0.692-0.693C62.072,178.146,61.762,177.837,61.38,177.837z M35.728,172.291
						c1.465-4.482,5.691-7.695,10.611-7.695c1.013,0,1.995,0.14,2.928,0.394c-0.018,0.054-0.029,0.109-0.029,0.169v7.132H35.728z
						 M50.289,172.291v-6.971c1.852,0.704,3.471,1.889,4.706,3.403c-0.075,0.063-0.134,0.15-0.163,0.253l-0.955,3.315H50.289z
						 M54.969,172.291l0.744-2.58c0.517,0.796,0.934,1.66,1.232,2.58H54.969z"/>
				</g>
			</g>
		</g>
		<g>
			<g>
				<g>
					<path fill="#FFFFFF" d="M35.039,194.89c-1.493,0-2.704,1.209-2.704,2.704c0,1.492,1.211,2.701,2.704,2.701
						c1.493,0,2.704-1.209,2.704-2.701C37.742,196.099,36.531,194.89,35.039,194.89z M35.039,198.75
						c-0.641,0-1.158-0.518-1.158-1.156c0-0.642,0.518-1.158,1.158-1.158c0.638,0,1.158,0.517,1.158,1.158
						C36.196,198.233,35.677,198.75,35.039,198.75z M54.725,194.89c-1.492,0-2.704,1.209-2.704,2.704
						c0,1.492,1.212,2.701,2.704,2.701c1.493,0,2.705-1.209,2.705-2.701C57.429,196.099,56.217,194.89,54.725,194.89z
						 M54.725,198.75c-0.639,0-1.158-0.518-1.158-1.156c0-0.642,0.52-1.158,1.158-1.158c0.639,0,1.159,0.517,1.159,1.158
						C55.883,198.233,55.364,198.75,54.725,198.75z"/>
					<path fill="#FFFFFF" d="M61.38,196.206h-1.066c0.234-0.406,0.374-0.881,0.374-1.387v-1.385c0-1.489-1.177-2.706-2.65-2.77
						c-1.493-5.051-6.166-8.738-11.699-8.738s-10.208,3.686-11.701,8.734h-2.51c-1.532,0-2.773,1.243-2.773,2.773v1.385
						c0,1.318,0.918,2.421,2.151,2.701c0.037-1.918,1.604-3.462,3.533-3.462c1.951,0,3.535,1.581,3.535,3.537h12.616
						c0-1.956,1.584-3.537,3.535-3.537c1.527,0,2.823,0.967,3.317,2.324c0.021,0.057,0.044,0.113,0.062,0.172
						c0.016,0.052,0.027,0.107,0.042,0.16c0.014,0.058,0.03,0.112,0.042,0.171c0.013,0.062,0.021,0.126,0.03,0.19
						c0.008,0.051,0.019,0.099,0.022,0.15c0.007,0.074,0.009,0.148,0.013,0.226c0.001,0.048,0.006,0.094,0.006,0.144h3.121
						c0.382,0,0.692-0.312,0.692-0.694C62.072,196.516,61.762,196.206,61.38,196.206z M35.728,190.66
						c1.465-4.481,5.691-7.693,10.611-7.693c1.013,0,1.995,0.137,2.928,0.393c-0.018,0.054-0.029,0.108-0.029,0.17v7.13H35.728z
						 M50.289,190.66v-6.971c1.852,0.704,3.471,1.889,4.706,3.403c-0.075,0.064-0.134,0.15-0.163,0.253l-0.955,3.315H50.289z
						 M54.969,190.66l0.744-2.58c0.517,0.795,0.934,1.661,1.232,2.58H54.969z"/>
				</g>
			</g>
			<g>
				<g>
					<path fill="#FFFFFF" d="M35.039,213.259c-1.493,0-2.704,1.209-2.704,2.705c0,1.491,1.211,2.701,2.704,2.701
						c1.493,0,2.704-1.21,2.704-2.701C37.742,214.469,36.531,213.259,35.039,213.259z M35.039,217.12
						c-0.641,0-1.158-0.518-1.158-1.156c0-0.642,0.518-1.158,1.158-1.158c0.638,0,1.158,0.517,1.158,1.158
						C36.196,216.603,35.677,217.12,35.039,217.12z M54.725,213.259c-1.492,0-2.704,1.209-2.704,2.705
						c0,1.491,1.212,2.701,2.704,2.701c1.493,0,2.705-1.21,2.705-2.701C57.429,214.469,56.217,213.259,54.725,213.259z
						 M54.725,217.12c-0.639,0-1.158-0.518-1.158-1.156c0-0.642,0.52-1.158,1.158-1.158c0.639,0,1.159,0.517,1.159,1.158
						C55.883,216.603,55.364,217.12,54.725,217.12z"/>
					<path fill="#FFFFFF" d="M61.38,214.575h-1.066c0.234-0.406,0.374-0.881,0.374-1.386v-1.387c0-1.488-1.177-2.705-2.65-2.769
						c-1.493-5.052-6.166-8.738-11.699-8.738s-10.208,3.686-11.701,8.734h-2.51c-1.532,0-2.773,1.243-2.773,2.772v1.387
						c0,1.317,0.918,2.419,2.151,2.701c0.037-1.918,1.604-3.462,3.533-3.462c1.951,0,3.535,1.581,3.535,3.537h12.616
						c0-1.956,1.584-3.537,3.535-3.537c1.527,0,2.823,0.968,3.317,2.323c0.021,0.058,0.044,0.114,0.062,0.172
						c0.016,0.053,0.027,0.108,0.042,0.161c0.014,0.058,0.03,0.112,0.042,0.17c0.013,0.062,0.021,0.127,0.03,0.191
						c0.008,0.051,0.019,0.099,0.022,0.15c0.007,0.074,0.009,0.15,0.013,0.224c0.001,0.048,0.006,0.096,0.006,0.146h3.121
						c0.382,0,0.692-0.312,0.692-0.694C62.072,214.886,61.762,214.575,61.38,214.575z M35.728,209.03
						c1.465-4.482,5.691-7.695,10.611-7.695c1.013,0,1.995,0.139,2.928,0.395c-0.018,0.054-0.029,0.108-0.029,0.168v7.132H35.728z
						 M50.289,209.03v-6.971c1.852,0.704,3.471,1.887,4.706,3.403c-0.075,0.064-0.134,0.15-0.163,0.252l-0.955,3.316H50.289z
						 M54.969,209.03l0.744-2.58c0.517,0.795,0.934,1.661,1.232,2.58H54.969z"/>
				</g>
			</g>
			<g>
				<g>
					<path fill="#FFFFFF" d="M35.039,231.629c-1.493,0-2.704,1.212-2.704,2.703c0,1.493,1.211,2.703,2.704,2.703
						c1.493,0,2.704-1.21,2.704-2.703C37.742,232.841,36.531,231.629,35.039,231.629z M35.039,235.49
						c-0.641,0-1.158-0.52-1.158-1.158c0-0.64,0.518-1.156,1.158-1.156c0.638,0,1.158,0.517,1.158,1.156
						C36.196,234.97,35.677,235.49,35.039,235.49z M54.725,231.629c-1.492,0-2.704,1.212-2.704,2.703
						c0,1.493,1.212,2.703,2.704,2.703c1.493,0,2.705-1.21,2.705-2.703C57.429,232.841,56.217,231.629,54.725,231.629z
						 M54.725,235.49c-0.639,0-1.158-0.52-1.158-1.158c0-0.64,0.52-1.156,1.158-1.156c0.639,0,1.159,0.517,1.159,1.156
						C55.883,234.97,55.364,235.49,54.725,235.49z"/>
					<path fill="#FFFFFF" d="M61.38,232.945h-1.066c0.234-0.407,0.374-0.881,0.374-1.387v-1.387c0-1.488-1.177-2.705-2.65-2.77
						c-1.493-5.051-6.166-8.737-11.699-8.737s-10.208,3.686-11.701,8.734h-2.51c-1.532,0-2.773,1.241-2.773,2.772v1.387
						c0,1.318,0.918,2.419,2.151,2.701c0.037-1.918,1.604-3.462,3.533-3.462c1.951,0,3.535,1.583,3.535,3.535h12.616
						c0-1.952,1.584-3.535,3.535-3.535c1.527,0,2.823,0.97,3.317,2.323c0.021,0.058,0.044,0.114,0.062,0.172
						c0.016,0.053,0.027,0.108,0.042,0.161c0.014,0.058,0.03,0.112,0.042,0.17c0.013,0.062,0.021,0.127,0.03,0.191
						c0.008,0.051,0.019,0.099,0.022,0.148c0.007,0.074,0.009,0.151,0.013,0.226c0.001,0.049,0.006,0.096,0.006,0.144h3.121
						c0.382,0,0.692-0.31,0.692-0.694C62.072,233.253,61.762,232.945,61.38,232.945z M35.728,227.399
						c1.465-4.482,5.691-7.694,10.611-7.694c1.013,0,1.995,0.139,2.928,0.395c-0.018,0.054-0.029,0.108-0.029,0.167v7.133H35.728z
						 M50.289,227.399v-6.971c1.852,0.703,3.471,1.887,4.706,3.403c-0.075,0.064-0.134,0.15-0.163,0.252l-0.955,3.316H50.289z
						 M54.969,227.399l0.744-2.58c0.517,0.795,0.934,1.661,1.232,2.58H54.969z"/>
				</g>
			</g>
			<g>
				<g>
					<path fill="#FFFFFF" d="M35.039,249.998c-1.493,0-2.704,1.213-2.704,2.704c0,1.493,1.211,2.704,2.704,2.704
						c1.493,0,2.704-1.211,2.704-2.704C37.742,251.21,36.531,249.998,35.039,249.998z M35.039,253.859
						c-0.641,0-1.158-0.518-1.158-1.158c0-0.64,0.518-1.156,1.158-1.156c0.638,0,1.158,0.516,1.158,1.156
						C36.196,253.342,35.677,253.859,35.039,253.859z M54.725,249.998c-1.492,0-2.704,1.213-2.704,2.704
						c0,1.493,1.212,2.704,2.704,2.704c1.493,0,2.705-1.211,2.705-2.704C57.429,251.21,56.217,249.998,54.725,249.998z
						 M54.725,253.859c-0.639,0-1.158-0.518-1.158-1.158c0-0.64,0.52-1.156,1.158-1.156c0.639,0,1.159,0.516,1.159,1.156
						C55.883,253.342,55.364,253.859,54.725,253.859z"/>
					<path fill="#FFFFFF" d="M61.38,251.315h-1.066c0.234-0.407,0.374-0.881,0.374-1.387v-1.387c0-1.488-1.177-2.705-2.65-2.769
						c-1.493-5.05-6.166-8.738-11.699-8.738s-10.208,3.686-11.701,8.735h-2.51c-1.532,0-2.773,1.242-2.773,2.772v1.387
						c0,1.318,0.918,2.419,2.151,2.701c0.037-1.918,1.604-3.463,3.533-3.463c1.951,0,3.535,1.584,3.535,3.536h12.616
						c0-1.952,1.584-3.536,3.535-3.536c1.527,0,2.823,0.971,3.317,2.324c0.021,0.058,0.044,0.114,0.062,0.173
						c0.016,0.052,0.027,0.107,0.042,0.16c0.014,0.057,0.03,0.111,0.042,0.17c0.013,0.062,0.021,0.126,0.03,0.191
						c0.008,0.051,0.019,0.099,0.022,0.15c0.007,0.074,0.009,0.149,0.013,0.224c0.001,0.049,0.006,0.096,0.006,0.144h3.121
						c0.382,0,0.692-0.31,0.692-0.692C62.072,251.625,61.762,251.315,61.38,251.315z M35.728,245.77
						c1.465-4.482,5.691-7.695,10.611-7.695c1.013,0,1.995,0.139,2.928,0.395c-0.018,0.054-0.029,0.108-0.029,0.167v7.133H35.728z
						 M50.289,245.77v-6.971c1.852,0.703,3.471,1.888,4.706,3.403c-0.075,0.064-0.134,0.15-0.163,0.252l-0.955,3.316H50.289z
						 M54.969,245.77l0.744-2.581c0.517,0.796,0.934,1.662,1.232,2.581H54.969z"/>
				</g>
			</g>
		</g>
		<g>
			<g>
				<g>
					<path fill="#FFFFFF" d="M69.641,139.78c-1.491,0-2.703,1.211-2.703,2.704c0,1.493,1.211,2.702,2.703,2.702
						c1.493,0,2.705-1.209,2.705-2.702C72.346,140.991,71.134,139.78,69.641,139.78z M69.641,143.642
						c-0.639,0-1.158-0.518-1.158-1.157c0-0.641,0.52-1.157,1.158-1.157s1.159,0.517,1.159,1.157
						C70.8,143.124,70.28,143.642,69.641,143.642z M89.327,139.78c-1.491,0-2.702,1.211-2.702,2.704c0,1.493,1.21,2.702,2.702,2.702
						c1.494,0,2.705-1.209,2.705-2.702C92.032,140.991,90.821,139.78,89.327,139.78z M89.327,143.642
						c-0.638,0-1.156-0.518-1.156-1.157c0-0.641,0.519-1.157,1.156-1.157c0.641,0,1.159,0.517,1.159,1.157
						C90.486,143.124,89.968,143.642,89.327,143.642z"/>
					<path fill="#FFFFFF" d="M95.983,141.097h-1.065c0.235-0.406,0.373-0.881,0.373-1.386v-1.387c0-1.49-1.176-2.706-2.649-2.77
						c-1.494-5.05-6.166-8.738-11.701-8.738c-5.534,0-10.207,3.687-11.7,8.735h-2.509c-1.533,0-2.773,1.242-2.773,2.773v1.387
						c0,1.316,0.918,2.42,2.15,2.701c0.037-1.92,1.605-3.464,3.533-3.464c1.952,0,3.536,1.582,3.536,3.536h12.615
						c0-1.954,1.583-3.536,3.535-3.536c1.527,0,2.823,0.969,3.318,2.323c0.021,0.059,0.043,0.115,0.062,0.172
						c0.017,0.053,0.028,0.108,0.043,0.161c0.014,0.057,0.029,0.112,0.041,0.171c0.013,0.062,0.021,0.126,0.03,0.189
						c0.008,0.053,0.019,0.101,0.023,0.152c0.007,0.073,0.009,0.147,0.013,0.223c0.002,0.048,0.007,0.096,0.007,0.145h3.119
						c0.383,0,0.693-0.311,0.693-0.693C96.676,141.407,96.366,141.097,95.983,141.097z M70.332,135.551
						c1.465-4.481,5.691-7.694,10.609-7.694c1.013,0,1.995,0.139,2.93,0.394c-0.02,0.054-0.03,0.109-0.03,0.168v7.132H70.332z
						 M84.892,135.551v-6.971c1.852,0.703,3.472,1.888,4.706,3.404c-0.075,0.064-0.132,0.15-0.163,0.252l-0.954,3.315H84.892z
						 M89.574,135.551l0.744-2.581c0.515,0.797,0.932,1.662,1.231,2.581H89.574z"/>
				</g>
			</g>
			<g>
				<g>
					<path fill="#FFFFFF" d="M69.641,158.15c-1.491,0-2.703,1.211-2.703,2.703c0,1.494,1.211,2.703,2.703,2.703
						c1.493,0,2.705-1.208,2.705-2.703C72.346,159.361,71.134,158.15,69.641,158.15z M69.641,162.011
						c-0.639,0-1.158-0.519-1.158-1.158s0.52-1.156,1.158-1.156s1.159,0.517,1.159,1.156S70.28,162.011,69.641,162.011z
						 M89.327,158.15c-1.491,0-2.702,1.211-2.702,2.703c0,1.494,1.21,2.703,2.702,2.703c1.494,0,2.705-1.208,2.705-2.703
						C92.032,159.361,90.821,158.15,89.327,158.15z M89.327,162.011c-0.638,0-1.156-0.519-1.156-1.158s0.519-1.156,1.156-1.156
						c0.641,0,1.159,0.517,1.159,1.156S89.968,162.011,89.327,162.011z"/>
					<path fill="#FFFFFF" d="M95.983,159.466h-1.065c0.235-0.407,0.373-0.881,0.373-1.387v-1.386c0-1.49-1.176-2.707-2.649-2.77
						c-1.494-5.05-6.166-8.738-11.701-8.738c-5.534,0-10.207,3.687-11.7,8.735h-2.509c-1.533,0-2.773,1.241-2.773,2.773v1.386
						c0,1.318,0.918,2.42,2.15,2.702c0.037-1.92,1.605-3.464,3.533-3.464c1.952,0,3.536,1.583,3.536,3.535h12.615
						c0-1.952,1.583-3.535,3.535-3.535c1.527,0,2.823,0.97,3.318,2.323c0.021,0.058,0.043,0.113,0.062,0.172
						c0.017,0.053,0.028,0.108,0.043,0.161c0.014,0.057,0.029,0.112,0.041,0.171c0.013,0.062,0.021,0.126,0.03,0.189
						c0.008,0.053,0.019,0.1,0.023,0.15c0.007,0.074,0.009,0.149,0.013,0.225c0.002,0.049,0.007,0.096,0.007,0.144h3.119
						c0.383,0,0.693-0.311,0.693-0.693C96.676,159.776,96.366,159.466,95.983,159.466z M70.332,153.921
						c1.465-4.482,5.691-7.695,10.609-7.695c1.013,0,1.995,0.14,2.93,0.394c-0.02,0.055-0.03,0.109-0.03,0.169v7.132H70.332z
						 M84.892,153.921v-6.972c1.852,0.705,3.472,1.889,4.706,3.403c-0.075,0.065-0.132,0.152-0.163,0.253l-0.954,3.316H84.892z
						 M89.574,153.921l0.744-2.581c0.515,0.797,0.932,1.661,1.231,2.581H89.574z"/>
				</g>
			</g>
			<g>
				<g>
					<path fill="#FFFFFF" d="M69.641,176.521c-1.491,0-2.703,1.21-2.703,2.702c0,1.494,1.211,2.704,2.703,2.704
						c1.493,0,2.705-1.21,2.705-2.704C72.346,177.73,71.134,176.521,69.641,176.521z M69.641,180.381
						c-0.639,0-1.158-0.518-1.158-1.158s0.52-1.156,1.158-1.156s1.159,0.516,1.159,1.156S70.28,180.381,69.641,180.381z
						 M89.327,176.521c-1.491,0-2.702,1.21-2.702,2.702c0,1.494,1.21,2.704,2.702,2.704c1.494,0,2.705-1.21,2.705-2.704
						C92.032,177.73,90.821,176.521,89.327,176.521z M89.327,180.381c-0.638,0-1.156-0.518-1.156-1.158s0.519-1.156,1.156-1.156
						c0.641,0,1.159,0.516,1.159,1.156S89.968,180.381,89.327,180.381z"/>
					<path fill="#FFFFFF" d="M95.983,177.837h-1.065c0.235-0.407,0.373-0.882,0.373-1.388v-1.385c0-1.489-1.176-2.706-2.649-2.77
						c-1.494-5.051-6.166-8.739-11.701-8.739c-5.534,0-10.207,3.687-11.7,8.735h-2.509c-1.533,0-2.773,1.242-2.773,2.773v1.385
						c0,1.318,0.918,2.42,2.15,2.702c0.037-1.92,1.605-3.464,3.533-3.464c1.952,0,3.536,1.582,3.536,3.535h12.615
						c0-1.953,1.583-3.535,3.535-3.535c1.527,0,2.823,0.969,3.318,2.323c0.021,0.058,0.043,0.114,0.062,0.173
						c0.017,0.052,0.028,0.107,0.043,0.16c0.014,0.057,0.029,0.112,0.041,0.171c0.013,0.062,0.021,0.126,0.03,0.188
						c0.008,0.054,0.019,0.101,0.023,0.153c0.007,0.073,0.009,0.147,0.013,0.223c0.002,0.049,0.007,0.095,0.007,0.144h3.119
						c0.383,0,0.693-0.311,0.693-0.693C96.676,178.146,96.366,177.837,95.983,177.837z M70.332,172.291
						c1.465-4.482,5.691-7.695,10.609-7.695c1.013,0,1.995,0.14,2.93,0.394c-0.02,0.054-0.03,0.109-0.03,0.169v7.132H70.332z
						 M84.892,172.291v-6.971c1.852,0.704,3.472,1.889,4.706,3.403c-0.075,0.063-0.132,0.15-0.163,0.253l-0.954,3.315H84.892z
						 M89.574,172.291l0.744-2.58c0.515,0.796,0.932,1.66,1.231,2.58H89.574z"/>
				</g>
			</g>
		</g>
		<g>
			<g>
				<g>
					<path fill="#FFFFFF" d="M69.641,194.89c-1.491,0-2.703,1.209-2.703,2.704c0,1.492,1.211,2.701,2.703,2.701
						c1.493,0,2.705-1.209,2.705-2.701C72.346,196.099,71.134,194.89,69.641,194.89z M69.641,198.75
						c-0.639,0-1.158-0.518-1.158-1.156c0-0.642,0.52-1.158,1.158-1.158s1.159,0.517,1.159,1.158
						C70.8,198.233,70.28,198.75,69.641,198.75z M89.327,194.89c-1.491,0-2.702,1.209-2.702,2.704c0,1.492,1.21,2.701,2.702,2.701
						c1.494,0,2.705-1.209,2.705-2.701C92.032,196.099,90.821,194.89,89.327,194.89z M89.327,198.75
						c-0.638,0-1.156-0.518-1.156-1.156c0-0.642,0.519-1.158,1.156-1.158c0.641,0,1.159,0.517,1.159,1.158
						C90.486,198.233,89.968,198.75,89.327,198.75z"/>
					<path fill="#FFFFFF" d="M95.983,196.206h-1.065c0.235-0.406,0.373-0.881,0.373-1.387v-1.385c0-1.489-1.176-2.706-2.649-2.77
						c-1.494-5.051-6.166-8.738-11.701-8.738c-5.534,0-10.207,3.686-11.7,8.734h-2.509c-1.533,0-2.773,1.243-2.773,2.773v1.385
						c0,1.318,0.918,2.421,2.15,2.701c0.037-1.918,1.605-3.462,3.533-3.462c1.952,0,3.536,1.581,3.536,3.537h12.615
						c0-1.956,1.583-3.537,3.535-3.537c1.527,0,2.823,0.967,3.318,2.324c0.021,0.057,0.043,0.113,0.062,0.172
						c0.017,0.052,0.028,0.107,0.043,0.16c0.014,0.058,0.029,0.112,0.041,0.171c0.013,0.062,0.021,0.126,0.03,0.19
						c0.008,0.051,0.019,0.099,0.023,0.15c0.007,0.074,0.009,0.148,0.013,0.226c0.002,0.048,0.007,0.094,0.007,0.144h3.119
						c0.383,0,0.693-0.312,0.693-0.694C96.676,196.516,96.366,196.206,95.983,196.206z M70.332,190.66
						c1.465-4.481,5.691-7.693,10.609-7.693c1.013,0,1.995,0.137,2.93,0.393c-0.02,0.054-0.03,0.108-0.03,0.17v7.13H70.332z
						 M84.892,190.66v-6.971c1.852,0.704,3.472,1.889,4.706,3.403c-0.075,0.064-0.132,0.15-0.163,0.253l-0.954,3.315H84.892z
						 M89.574,190.66l0.744-2.58c0.515,0.795,0.932,1.661,1.231,2.58H89.574z"/>
				</g>
			</g>
			<g>
				<g>
					<path fill="#FFFFFF" d="M69.641,213.259c-1.491,0-2.703,1.209-2.703,2.705c0,1.491,1.211,2.701,2.703,2.701
						c1.493,0,2.705-1.21,2.705-2.701C72.346,214.469,71.134,213.259,69.641,213.259z M69.641,217.12
						c-0.639,0-1.158-0.518-1.158-1.156c0-0.642,0.52-1.158,1.158-1.158s1.159,0.517,1.159,1.158
						C70.8,216.603,70.28,217.12,69.641,217.12z M89.327,213.259c-1.491,0-2.702,1.209-2.702,2.705c0,1.491,1.21,2.701,2.702,2.701
						c1.494,0,2.705-1.21,2.705-2.701C92.032,214.469,90.821,213.259,89.327,213.259z M89.327,217.12
						c-0.638,0-1.156-0.518-1.156-1.156c0-0.642,0.519-1.158,1.156-1.158c0.641,0,1.159,0.517,1.159,1.158
						C90.486,216.603,89.968,217.12,89.327,217.12z"/>
					<path fill="#FFFFFF" d="M95.983,214.575h-1.065c0.235-0.406,0.373-0.881,0.373-1.386v-1.387c0-1.488-1.176-2.705-2.649-2.769
						c-1.494-5.052-6.166-8.738-11.701-8.738c-5.534,0-10.207,3.686-11.7,8.734h-2.509c-1.533,0-2.773,1.243-2.773,2.772v1.387
						c0,1.317,0.918,2.419,2.15,2.701c0.037-1.918,1.605-3.462,3.533-3.462c1.952,0,3.536,1.581,3.536,3.537h12.615
						c0-1.956,1.583-3.537,3.535-3.537c1.527,0,2.823,0.968,3.318,2.323c0.021,0.058,0.043,0.114,0.062,0.172
						c0.017,0.053,0.028,0.108,0.043,0.161c0.014,0.058,0.029,0.112,0.041,0.17c0.013,0.062,0.021,0.127,0.03,0.191
						c0.008,0.051,0.019,0.099,0.023,0.15c0.007,0.074,0.009,0.15,0.013,0.224c0.002,0.048,0.007,0.096,0.007,0.146h3.119
						c0.383,0,0.693-0.312,0.693-0.694C96.676,214.886,96.366,214.575,95.983,214.575z M70.332,209.03
						c1.465-4.482,5.691-7.695,10.609-7.695c1.013,0,1.995,0.139,2.93,0.395c-0.02,0.054-0.03,0.108-0.03,0.168v7.132H70.332z
						 M84.892,209.03v-6.971c1.852,0.704,3.472,1.887,4.706,3.403c-0.075,0.064-0.132,0.15-0.163,0.252l-0.954,3.316H84.892z
						 M89.574,209.03l0.744-2.58c0.515,0.795,0.932,1.661,1.231,2.58H89.574z"/>
				</g>
			</g>
			<g>
				<g>
					<path fill="#FFFFFF" d="M69.641,231.629c-1.491,0-2.703,1.212-2.703,2.703c0,1.493,1.211,2.703,2.703,2.703
						c1.493,0,2.705-1.21,2.705-2.703C72.346,232.841,71.134,231.629,69.641,231.629z M69.641,235.49
						c-0.639,0-1.158-0.52-1.158-1.158c0-0.64,0.52-1.156,1.158-1.156s1.159,0.517,1.159,1.156
						C70.8,234.97,70.28,235.49,69.641,235.49z M89.327,231.629c-1.491,0-2.702,1.212-2.702,2.703c0,1.493,1.21,2.703,2.702,2.703
						c1.494,0,2.705-1.21,2.705-2.703C92.032,232.841,90.821,231.629,89.327,231.629z M89.327,235.49
						c-0.638,0-1.156-0.52-1.156-1.158c0-0.64,0.519-1.156,1.156-1.156c0.641,0,1.159,0.517,1.159,1.156
						C90.486,234.97,89.968,235.49,89.327,235.49z"/>
					<path fill="#FFFFFF" d="M95.983,232.945h-1.065c0.235-0.407,0.373-0.881,0.373-1.387v-1.387c0-1.488-1.176-2.705-2.649-2.77
						c-1.494-5.051-6.166-8.737-11.701-8.737c-5.534,0-10.207,3.686-11.7,8.734h-2.509c-1.533,0-2.773,1.241-2.773,2.772v1.387
						c0,1.318,0.918,2.419,2.15,2.701c0.037-1.918,1.605-3.462,3.533-3.462c1.952,0,3.536,1.583,3.536,3.535h12.615
						c0-1.952,1.583-3.535,3.535-3.535c1.527,0,2.823,0.97,3.318,2.323c0.021,0.058,0.043,0.114,0.062,0.172
						c0.017,0.053,0.028,0.108,0.043,0.161c0.014,0.058,0.029,0.112,0.041,0.17c0.013,0.062,0.021,0.127,0.03,0.191
						c0.008,0.051,0.019,0.099,0.023,0.148c0.007,0.074,0.009,0.151,0.013,0.226c0.002,0.049,0.007,0.096,0.007,0.144h3.119
						c0.383,0,0.693-0.31,0.693-0.694C96.676,233.253,96.366,232.945,95.983,232.945z M70.332,227.399
						c1.465-4.482,5.691-7.694,10.609-7.694c1.013,0,1.995,0.139,2.93,0.395c-0.02,0.054-0.03,0.108-0.03,0.167v7.133H70.332z
						 M84.892,227.399v-6.971c1.852,0.703,3.472,1.887,4.706,3.403c-0.075,0.064-0.132,0.15-0.163,0.252l-0.954,3.316H84.892z
						 M89.574,227.399l0.744-2.58c0.515,0.795,0.932,1.661,1.231,2.58H89.574z"/>
				</g>
			</g>
			<g>
				<g>
					<path fill="#FFFFFF" d="M69.641,249.998c-1.491,0-2.703,1.213-2.703,2.704c0,1.493,1.211,2.704,2.703,2.704
						c1.493,0,2.705-1.211,2.705-2.704C72.346,251.21,71.134,249.998,69.641,249.998z M69.641,253.859
						c-0.639,0-1.158-0.518-1.158-1.158c0-0.64,0.52-1.156,1.158-1.156s1.159,0.516,1.159,1.156
						C70.8,253.342,70.28,253.859,69.641,253.859z M89.327,249.998c-1.491,0-2.702,1.213-2.702,2.704
						c0,1.493,1.21,2.704,2.702,2.704c1.494,0,2.705-1.211,2.705-2.704C92.032,251.21,90.821,249.998,89.327,249.998z
						 M89.327,253.859c-0.638,0-1.156-0.518-1.156-1.158c0-0.64,0.519-1.156,1.156-1.156c0.641,0,1.159,0.516,1.159,1.156
						C90.486,253.342,89.968,253.859,89.327,253.859z"/>
					<path fill="#FFFFFF" d="M95.983,251.315h-1.065c0.235-0.407,0.373-0.881,0.373-1.387v-1.387c0-1.488-1.176-2.705-2.649-2.769
						c-1.494-5.05-6.166-8.738-11.701-8.738c-5.534,0-10.207,3.686-11.7,8.735h-2.509c-1.533,0-2.773,1.242-2.773,2.772v1.387
						c0,1.318,0.918,2.419,2.15,2.701c0.037-1.918,1.605-3.463,3.533-3.463c1.952,0,3.536,1.584,3.536,3.536h12.615
						c0-1.952,1.583-3.536,3.535-3.536c1.527,0,2.823,0.971,3.318,2.324c0.021,0.058,0.043,0.114,0.062,0.173
						c0.017,0.052,0.028,0.107,0.043,0.16c0.014,0.057,0.029,0.111,0.041,0.17c0.013,0.062,0.021,0.126,0.03,0.191
						c0.008,0.051,0.019,0.099,0.023,0.15c0.007,0.074,0.009,0.149,0.013,0.224c0.002,0.049,0.007,0.096,0.007,0.144h3.119
						c0.383,0,0.693-0.31,0.693-0.692C96.676,251.625,96.366,251.315,95.983,251.315z M70.332,245.77
						c1.465-4.482,5.691-7.695,10.609-7.695c1.013,0,1.995,0.139,2.93,0.395c-0.02,0.054-0.03,0.108-0.03,0.167v7.133H70.332z
						 M84.892,245.77v-6.971c1.852,0.703,3.472,1.888,4.706,3.403c-0.075,0.064-0.132,0.15-0.163,0.252l-0.954,3.316H84.892z
						 M89.574,245.77l0.744-2.581c0.515,0.796,0.932,1.662,1.231,2.581H89.574z"/>
				</g>
			</g>
		</g>
	</g>
</g>
</svg>
