<?xml version="1.0" encoding="utf-8"?>
<!-- Generator: Adobe Illustrator 15.0.2, SVG Export Plug-In . SVG Version: 6.00 Build 0)  -->
<!DOCTYPE svg PUBLIC "-//W3C//DTD SVG 1.1//EN" "http://www.w3.org/Graphics/SVG/1.1/DTD/svg11.dtd">
<svg version="1.1" id="Layer_1" xmlns="http://www.w3.org/2000/svg" xmlns:xlink="http://www.w3.org/1999/xlink" x="0px" y="0px"
	 width="271px" height="250px" viewBox="0 0 271 250" enable-background="new 0 0 271 250" xml:space="preserve">
<g>
	<path opacity="0.1" fill="#A5A5A5" d="M269.922,236.197c0.148-5.101-60.915-1.413-136.518-3.614
		C57.8,230.382,0.149,238.07,0,243.169c-0.148,5.1,59.535,4.473,135.138,6.674C210.744,252.045,269.775,241.296,269.922,236.197z"/>
	<g>
		<g>
			<path fill="#5E5E5E" d="M106.718,160.989h-3.416v-3.586h11.478v3.586h-3.352v20.145h-4.71V160.989z"/>
			<path fill="#5E5E5E" d="M116.216,163.836h4.335v1.49c0.665-1.099,1.441-1.648,2.33-1.648c0.25,0,0.643,0.044,1.177,0.132
				l-0.259,3.744c-0.793-0.088-1.272-0.132-1.436-0.132c-0.595,0-1.046,0.187-1.353,0.561s-0.459,0.907-0.459,1.602v11.549h-4.335
				V163.836z"/>
			<path fill="#5E5E5E" d="M131.835,179.354c-0.25,0.8-0.66,1.36-1.229,1.681c-0.569,0.32-1.277,0.481-2.122,0.481
				c-0.621,0-1.165-0.123-1.631-0.369c-0.466-0.246-0.83-0.578-1.093-0.996c-0.263-0.417-0.458-0.865-0.583-1.345
				c-0.125-0.479-0.188-0.982-0.188-1.509c0-0.598,0.061-1.151,0.181-1.661s0.274-0.96,0.459-1.351s0.444-0.767,0.776-1.127
				s0.656-0.666,0.971-0.917c0.315-0.25,0.718-0.509,1.21-0.777s0.932-0.492,1.32-0.673c0.388-0.18,0.875-0.393,1.462-0.639v-1.45
				c0-0.606-0.074-1.059-0.22-1.358c-0.147-0.299-0.397-0.448-0.75-0.448c-0.242,0-0.438,0.051-0.589,0.151
				c-0.151,0.102-0.257,0.253-0.317,0.455c-0.061,0.202-0.099,0.385-0.117,0.547c-0.017,0.163-0.026,0.38-0.026,0.653v0.976h-4.231
				c0-1.978,0.487-3.496,1.462-4.555c0.975-1.059,2.39-1.588,4.245-1.588c1.294,0,2.428,0.479,3.403,1.437
				c0.975,0.958,1.462,2.096,1.462,3.415v8.174c0,1.415,0.186,2.94,0.557,4.575h-3.986L131.835,179.354z M131.37,173.012
				c-1.424,1.169-2.135,2.461-2.135,3.876c0,0.352,0.066,0.652,0.201,0.903c0.133,0.25,0.36,0.375,0.679,0.375
				c0.181,0,0.36-0.059,0.537-0.178c0.177-0.118,0.304-0.222,0.382-0.31s0.194-0.233,0.349-0.435L131.37,173.012z"/>
			<path fill="#5E5E5E" d="M138.694,166.803h-0.983v-2.966h0.983v-0.026c0.008-0.466,0.03-0.901,0.064-1.305
				s0.097-0.835,0.188-1.292c0.09-0.457,0.224-0.85,0.401-1.18c0.177-0.329,0.399-0.635,0.667-0.916
				c0.267-0.281,0.608-0.494,1.022-0.64c0.414-0.145,0.888-0.217,1.423-0.217c0.819,0,1.734,0.062,2.743,0.185v3.322l-1.139-0.079
				c-0.362,0-0.621,0.104-0.776,0.31s-0.233,0.582-0.233,1.127v0.712h2.109v2.966h-2.109v14.331h-4.361V166.803z"/>
			<path fill="#5E5E5E" d="M147.066,166.803h-0.983v-2.966h0.983v-0.026c0.008-0.466,0.03-0.901,0.064-1.305
				s0.097-0.835,0.188-1.292c0.09-0.457,0.224-0.85,0.401-1.18c0.177-0.329,0.399-0.635,0.667-0.916
				c0.267-0.281,0.608-0.494,1.022-0.64c0.414-0.145,0.888-0.217,1.423-0.217c0.819,0,1.734,0.062,2.743,0.185v3.322l-1.139-0.079
				c-0.362,0-0.621,0.104-0.776,0.31s-0.233,0.582-0.233,1.127v0.712h2.109v2.966h-2.109v14.331h-4.361V166.803z"/>
			<path fill="#5E5E5E" d="M154.856,158.181h4.361v4.153h-4.361V158.181z M154.856,163.836h4.361v17.297h-4.361V163.836z"/>
			<path fill="#5E5E5E" d="M161.469,169.347c0-1.828,0.427-3.254,1.281-4.278c0.854-1.023,2.157-1.536,3.908-1.536
				c1.76,0,3.064,0.51,3.914,1.529s1.275,2.448,1.275,4.285v1.503h-4.283v-1.964c0-0.686-0.059-1.188-0.175-1.509
				c-0.117-0.321-0.36-0.481-0.731-0.481c-0.552,0-0.829,0.435-0.829,1.305v8.517c0,0.967,0.276,1.45,0.829,1.45
				c0.207,0,0.373-0.044,0.498-0.132s0.215-0.237,0.271-0.448s0.093-0.428,0.11-0.653c0.017-0.224,0.026-0.538,0.026-0.942v-1.833
				h4.283v2.571c0,0.949-0.242,1.795-0.725,2.538c-0.483,0.743-1.118,1.303-1.902,1.681c-0.785,0.378-1.639,0.567-2.562,0.567
				c-1.424,0-2.645-0.442-3.663-1.325c-1.018-0.884-1.527-2.037-1.527-3.461V169.347z"/>
			<path fill="#5E5E5E" d="M177.309,158.181h4.361v4.153h-4.361V158.181z M177.309,163.836h4.361v17.297h-4.361V163.836z"/>
			<path fill="#5E5E5E" d="M184.128,163.836h4.361v1.305c0.414-0.483,0.913-0.87,1.495-1.16c0.583-0.29,1.188-0.435,1.818-0.435
				c0.474,0,0.897,0.114,1.268,0.343s0.684,0.521,0.938,0.877c0.254,0.355,0.448,0.756,0.582,1.199
				c0.134,0.444,0.201,0.877,0.201,1.299v13.869h-4.361v-13.091c0-0.765-0.242-1.147-0.725-1.147c-0.104,0-0.214,0.026-0.33,0.079
				c-0.117,0.053-0.218,0.119-0.304,0.198l-0.272,0.264c-0.052,0.053-0.09,0.095-0.116,0.125s-0.091,0.107-0.194,0.23v13.342h-4.361
				V163.836z"/>
			<path fill="#5E5E5E" d="M196.927,169.347c0-1.828,0.427-3.254,1.281-4.278c0.854-1.023,2.157-1.536,3.908-1.536
				c1.76,0,3.064,0.51,3.914,1.529s1.275,2.448,1.275,4.285v1.503h-4.283v-1.964c0-0.686-0.059-1.188-0.175-1.509
				c-0.117-0.321-0.36-0.481-0.731-0.481c-0.552,0-0.829,0.435-0.829,1.305v8.517c0,0.967,0.276,1.45,0.829,1.45
				c0.207,0,0.373-0.044,0.498-0.132s0.215-0.237,0.271-0.448s0.093-0.428,0.11-0.653c0.017-0.224,0.026-0.538,0.026-0.942v-1.833
				h4.283v2.571c0,0.949-0.242,1.795-0.725,2.538c-0.483,0.743-1.118,1.303-1.902,1.681c-0.785,0.378-1.639,0.567-2.562,0.567
				c-1.424,0-2.645-0.442-3.663-1.325c-1.018-0.884-1.527-2.037-1.527-3.461V169.347z"/>
			<path fill="#5E5E5E" d="M209.143,163.836h4.335v1.49c0.665-1.099,1.441-1.648,2.33-1.648c0.25,0,0.643,0.044,1.177,0.132
				l-0.259,3.744c-0.793-0.088-1.272-0.132-1.436-0.132c-0.595,0-1.046,0.187-1.353,0.561s-0.459,0.907-0.459,1.602v11.549h-4.335
				V163.836z"/>
			<path fill="#5E5E5E" d="M218.175,169.347c0-0.914,0.105-1.731,0.317-2.452s0.533-1.329,0.964-1.826
				c0.431-0.496,0.971-0.876,1.618-1.14s1.41-0.396,2.291-0.396c0.88,0,1.645,0.13,2.297,0.389c0.651,0.259,1.19,0.637,1.617,1.134
				c0.427,0.497,0.746,1.105,0.958,1.826c0.211,0.721,0.317,1.542,0.317,2.465v3.56h-6.018v3.81c0,0.967,0.276,1.45,0.829,1.45
				c0.604,0,0.906-0.519,0.906-1.556v-1.885h4.283v1.938c0,0.721-0.138,1.377-0.414,1.971c-0.276,0.593-0.651,1.103-1.126,1.529
				s-1.027,0.758-1.656,0.995c-0.63,0.237-1.294,0.356-1.993,0.356c-0.699,0-1.363-0.119-1.993-0.356s-1.182-0.569-1.656-0.995
				c-0.475-0.426-0.85-0.938-1.126-1.536s-0.414-1.252-0.414-1.964V169.347z M224.231,170.573V168.2c0-0.87-0.289-1.305-0.867-1.305
				c-0.552,0-0.829,0.435-0.829,1.305v2.373H224.231z"/>
			<path fill="#5E5E5E" d="M236.926,179.354c-0.25,0.8-0.66,1.36-1.229,1.681c-0.569,0.32-1.277,0.481-2.122,0.481
				c-0.621,0-1.165-0.123-1.631-0.369c-0.466-0.246-0.83-0.578-1.093-0.996c-0.263-0.417-0.458-0.865-0.583-1.345
				c-0.125-0.479-0.188-0.982-0.188-1.509c0-0.598,0.061-1.151,0.181-1.661s0.274-0.96,0.459-1.351s0.444-0.767,0.776-1.127
				s0.656-0.666,0.971-0.917c0.315-0.25,0.718-0.509,1.21-0.777s0.932-0.492,1.32-0.673c0.388-0.18,0.875-0.393,1.462-0.639v-1.45
				c0-0.606-0.074-1.059-0.22-1.358c-0.147-0.299-0.397-0.448-0.75-0.448c-0.242,0-0.438,0.051-0.589,0.151
				c-0.151,0.102-0.257,0.253-0.317,0.455c-0.061,0.202-0.099,0.385-0.117,0.547c-0.017,0.163-0.026,0.38-0.026,0.653v0.976h-4.231
				c0-1.978,0.487-3.496,1.462-4.555c0.975-1.059,2.39-1.588,4.245-1.588c1.294,0,2.428,0.479,3.403,1.437
				c0.975,0.958,1.462,2.096,1.462,3.415v8.174c0,1.415,0.186,2.94,0.557,4.575h-3.986L236.926,179.354z M236.46,173.012
				c-1.424,1.169-2.135,2.461-2.135,3.876c0,0.352,0.066,0.652,0.201,0.903c0.133,0.25,0.36,0.375,0.679,0.375
				c0.181,0,0.36-0.059,0.537-0.178c0.177-0.118,0.304-0.222,0.382-0.31s0.194-0.233,0.349-0.435L236.46,173.012z"/>
			<path fill="#5E5E5E" d="M245.958,175.768l0.207,0.62c0.069,0.202,0.153,0.413,0.252,0.633s0.218,0.422,0.356,0.606
				c0.138,0.185,0.293,0.336,0.466,0.455c0.172,0.118,0.371,0.178,0.595,0.178c0.543,0,0.815-0.325,0.815-0.976
				c0-0.343-0.089-0.672-0.266-0.989s-0.397-0.62-0.66-0.91c-0.263-0.29-0.546-0.564-0.848-0.824
				c-0.302-0.259-0.574-0.499-0.815-0.718l-0.711-0.62c-0.466-0.404-0.882-0.804-1.249-1.2s-0.677-0.797-0.932-1.207
				c-0.254-0.408-0.449-0.83-0.583-1.266c-0.134-0.435-0.2-0.894-0.2-1.377c0-0.765,0.153-1.435,0.459-2.01s0.712-1.059,1.217-1.45
				c0.504-0.391,1.087-0.684,1.747-0.877c0.66-0.193,1.339-0.29,2.038-0.29c0.656,0,1.262,0.136,1.818,0.409
				s1.057,0.633,1.501,1.081s0.826,0.962,1.146,1.542c0.319,0.58,0.565,1.173,0.737,1.78l-3.131,1.094l-0.259-0.646
				c-0.225-0.554-0.494-1.011-0.809-1.371s-0.692-0.562-1.132-0.606c-0.302,0-0.537,0.11-0.705,0.33
				c-0.168,0.22-0.252,0.47-0.252,0.751c0,0.396,0.209,0.829,0.628,1.298c0.418,0.471,0.994,1.022,1.728,1.655l0.802,0.725
				c0.405,0.369,0.792,0.754,1.158,1.153c0.366,0.4,0.69,0.817,0.97,1.253c0.28,0.435,0.502,0.879,0.667,1.331
				c0.164,0.453,0.246,0.917,0.246,1.391c0,0.686-0.129,1.323-0.388,1.912s-0.613,1.097-1.061,1.522
				c-0.449,0.427-0.973,0.761-1.572,1.002c-0.6,0.242-1.236,0.363-1.909,0.363c-0.655,0-1.272-0.11-1.85-0.33
				c-0.578-0.22-1.1-0.529-1.566-0.93c-0.466-0.399-0.869-0.876-1.21-1.43s-0.602-1.169-0.783-1.846L245.958,175.768z"/>
			<path fill="#5E5E5E" d="M254.279,169.347c0-0.914,0.105-1.731,0.317-2.452s0.533-1.329,0.964-1.826
				c0.431-0.496,0.971-0.876,1.618-1.14s1.41-0.396,2.291-0.396c0.88,0,1.645,0.13,2.297,0.389c0.651,0.259,1.19,0.637,1.617,1.134
				c0.427,0.497,0.746,1.105,0.958,1.826c0.211,0.721,0.317,1.542,0.317,2.465v3.56h-6.018v3.81c0,0.967,0.276,1.45,0.829,1.45
				c0.604,0,0.906-0.519,0.906-1.556v-1.885h4.283v1.938c0,0.721-0.138,1.377-0.414,1.971c-0.276,0.593-0.651,1.103-1.126,1.529
				s-1.027,0.758-1.656,0.995c-0.63,0.237-1.294,0.356-1.993,0.356c-0.699,0-1.363-0.119-1.993-0.356s-1.182-0.569-1.656-0.995
				c-0.475-0.426-0.85-0.938-1.126-1.536s-0.414-1.252-0.414-1.964V169.347z M260.335,170.573V168.2c0-0.87-0.289-1.305-0.867-1.305
				c-0.552,0-0.829,0.435-0.829,1.305v2.373H260.335z"/>
			<path fill="#5E5E5E" d="M104.596,195.803h-1.242v-2.966h1.242v-5.563h4.361v5.563h2.096v2.966h-2.096v9.492
				c0,0.475,0.086,0.829,0.259,1.061c0.172,0.233,0.479,0.35,0.919,0.35c0.5,0,0.923-0.026,1.268-0.079l-0.259,3.441
				c-0.569,0.176-1.402,0.264-2.498,0.264c-0.509,0-0.969-0.062-1.378-0.185s-0.755-0.288-1.035-0.495
				c-0.28-0.206-0.522-0.468-0.725-0.784s-0.362-0.64-0.479-0.969c-0.117-0.33-0.207-0.714-0.272-1.154
				c-0.064-0.439-0.108-0.848-0.129-1.226s-0.032-0.809-0.032-1.292V195.803z"/>
			<path fill="#5E5E5E" d="M112.942,186.403h4.361v7.752c0.423-0.483,0.925-0.875,1.508-1.173s1.184-0.448,1.805-0.448
				c0.595,0,1.128,0.193,1.598,0.58s0.819,0.861,1.048,1.424c0.229,0.562,0.343,1.143,0.343,1.74v13.856h-4.361v-12.696
				c0-0.035,0.002-0.112,0.006-0.231c0.004-0.118,0.004-0.215,0-0.29c-0.004-0.074-0.009-0.171-0.013-0.29
				c-0.004-0.118-0.019-0.213-0.045-0.283s-0.061-0.145-0.104-0.224c-0.043-0.079-0.102-0.136-0.175-0.171s-0.162-0.053-0.265-0.053
				c-0.173,0-0.358,0.07-0.557,0.211c-0.199,0.141-0.341,0.259-0.427,0.356c-0.086,0.097-0.207,0.237-0.362,0.422v13.25h-4.361
				V186.403z"/>
			<path fill="#5E5E5E" d="M125.741,198.347c0-0.914,0.105-1.731,0.317-2.452s0.533-1.329,0.964-1.826
				c0.431-0.496,0.971-0.876,1.618-1.14s1.41-0.396,2.291-0.396c0.88,0,1.645,0.13,2.297,0.389c0.651,0.259,1.19,0.637,1.617,1.134
				c0.427,0.497,0.746,1.105,0.958,1.826c0.211,0.721,0.317,1.542,0.317,2.465v3.56h-6.018v3.81c0,0.967,0.276,1.45,0.829,1.45
				c0.604,0,0.906-0.519,0.906-1.556v-1.885h4.283v1.938c0,0.721-0.138,1.377-0.414,1.971c-0.276,0.593-0.651,1.103-1.126,1.529
				s-1.027,0.758-1.656,0.995c-0.63,0.237-1.294,0.356-1.993,0.356c-0.699,0-1.363-0.119-1.993-0.356s-1.182-0.569-1.656-0.995
				c-0.475-0.426-0.85-0.938-1.126-1.536s-0.414-1.252-0.414-1.964V198.347z M131.797,199.573V197.2c0-0.87-0.289-1.305-0.867-1.305
				c-0.552,0-0.829,0.435-0.829,1.305v2.373H131.797z"/>
			<path fill="#5E5E5E" d="M142.318,195.803h-0.983v-2.966h0.983v-0.026c0.008-0.466,0.03-0.901,0.064-1.305
				s0.097-0.835,0.188-1.292c0.09-0.457,0.224-0.85,0.401-1.18c0.177-0.329,0.399-0.635,0.667-0.916
				c0.267-0.281,0.608-0.494,1.022-0.64c0.414-0.145,0.888-0.217,1.423-0.217c0.819,0,1.734,0.062,2.743,0.185v3.322l-1.139-0.079
				c-0.362,0-0.621,0.104-0.776,0.31s-0.233,0.582-0.233,1.127v0.712h2.109v2.966h-2.109v14.331h-4.361V195.803z"/>
			<path fill="#5E5E5E" d="M150.108,187.181h4.361v4.153h-4.361V187.181z M150.108,192.836h4.361v17.297h-4.361V192.836z"/>
			<path fill="#5E5E5E" d="M156.928,192.836h4.335v1.49c0.665-1.099,1.441-1.648,2.33-1.648c0.25,0,0.643,0.044,1.177,0.132
				l-0.259,3.744c-0.793-0.088-1.272-0.132-1.436-0.132c-0.595,0-1.046,0.187-1.353,0.561s-0.459,0.907-0.459,1.602v11.549h-4.335
				V192.836z"/>
			<path fill="#5E5E5E" d="M168.95,204.768l0.207,0.62c0.069,0.202,0.153,0.413,0.252,0.633s0.218,0.422,0.356,0.606
				c0.138,0.185,0.293,0.336,0.466,0.455c0.172,0.118,0.371,0.178,0.595,0.178c0.543,0,0.815-0.325,0.815-0.976
				c0-0.343-0.089-0.672-0.266-0.989s-0.397-0.62-0.66-0.91c-0.263-0.29-0.546-0.564-0.848-0.824
				c-0.302-0.259-0.574-0.499-0.815-0.718l-0.711-0.62c-0.466-0.404-0.882-0.804-1.249-1.2s-0.677-0.797-0.932-1.207
				c-0.254-0.408-0.449-0.83-0.583-1.266c-0.134-0.435-0.2-0.894-0.2-1.377c0-0.765,0.153-1.435,0.459-2.01s0.712-1.059,1.217-1.45
				c0.504-0.391,1.087-0.684,1.747-0.877c0.66-0.193,1.339-0.29,2.038-0.29c0.656,0,1.262,0.136,1.818,0.409
				s1.057,0.633,1.501,1.081s0.826,0.962,1.146,1.542c0.319,0.58,0.565,1.173,0.737,1.78l-3.131,1.094l-0.259-0.646
				c-0.225-0.554-0.494-1.011-0.809-1.371s-0.692-0.562-1.132-0.606c-0.302,0-0.537,0.11-0.705,0.33
				c-0.168,0.22-0.252,0.47-0.252,0.751c0,0.396,0.209,0.829,0.628,1.298c0.418,0.471,0.994,1.022,1.728,1.655l0.802,0.725
				c0.405,0.369,0.792,0.754,1.158,1.153c0.366,0.4,0.69,0.817,0.97,1.253c0.28,0.435,0.502,0.879,0.667,1.331
				c0.164,0.453,0.246,0.917,0.246,1.391c0,0.686-0.129,1.323-0.388,1.912s-0.613,1.097-1.061,1.522
				c-0.449,0.427-0.973,0.761-1.572,1.002c-0.6,0.242-1.236,0.363-1.909,0.363c-0.655,0-1.272-0.11-1.85-0.33
				c-0.578-0.22-1.1-0.529-1.566-0.93c-0.466-0.399-0.869-0.876-1.21-1.43s-0.602-1.169-0.783-1.846L168.95,204.768z"/>
			<path fill="#5E5E5E" d="M177.775,195.803h-1.242v-2.966h1.242v-5.563h4.361v5.563h2.096v2.966h-2.096v9.492
				c0,0.475,0.086,0.829,0.259,1.061c0.172,0.233,0.479,0.35,0.919,0.35c0.5,0,0.923-0.026,1.268-0.079l-0.259,3.441
				c-0.569,0.176-1.402,0.264-2.498,0.264c-0.509,0-0.969-0.062-1.378-0.185s-0.755-0.288-1.035-0.495
				c-0.28-0.206-0.522-0.468-0.725-0.784s-0.362-0.64-0.479-0.969c-0.117-0.33-0.207-0.714-0.272-1.154
				c-0.064-0.439-0.108-0.848-0.129-1.226s-0.032-0.809-0.032-1.292V195.803z"/>
			<path fill="#5E5E5E" d="M189.719,192.836h4.361v1.318c0.406-0.483,0.889-0.875,1.45-1.173c0.561-0.299,1.139-0.448,1.734-0.448
				c0.561,0,1.078,0.185,1.553,0.554s0.833,0.831,1.074,1.384c0.422-0.58,0.942-1.048,1.559-1.404
				c0.617-0.355,1.271-0.534,1.96-0.534c0.596,0,1.13,0.193,1.605,0.58c0.474,0.387,0.83,0.864,1.067,1.43
				c0.237,0.567,0.356,1.145,0.356,1.734v13.856h-4.361v-12.973c0-0.158-0.004-0.288-0.013-0.389s-0.03-0.231-0.064-0.389
				c-0.035-0.158-0.1-0.279-0.194-0.363c-0.095-0.083-0.216-0.125-0.362-0.125c-0.311,0-0.708,0.325-1.19,0.976v13.263h-4.361
				v-12.999c0-0.826-0.199-1.239-0.595-1.239c-0.328,0-0.738,0.33-1.229,0.989l0.013,13.25h-4.361V192.836z"/>
			<path fill="#5E5E5E" d="M208.574,198.347c0-0.914,0.104-1.729,0.311-2.445s0.526-1.323,0.958-1.819
				c0.432-0.497,0.977-0.877,1.637-1.141c0.66-0.264,1.443-0.396,2.349-0.396s1.691,0.13,2.355,0.389
				c0.665,0.26,1.217,0.638,1.657,1.134c0.44,0.497,0.768,1.104,0.983,1.819c0.215,0.717,0.323,1.536,0.323,2.459v7.317
				c0,0.721-0.142,1.377-0.427,1.971c-0.285,0.593-0.669,1.103-1.152,1.529c-0.483,0.426-1.046,0.758-1.688,0.995
				c-0.643,0.237-1.327,0.356-2.051,0.356c-0.682,0-1.339-0.11-1.974-0.33c-0.634-0.22-1.192-0.538-1.676-0.956
				c-0.483-0.417-0.871-0.927-1.165-1.529c-0.293-0.602-0.44-1.281-0.44-2.037V198.347z M214.824,197.2
				c0-0.87-0.333-1.305-0.997-1.305c-0.595,0-0.893,0.435-0.893,1.305v8.517c0,0.158,0.007,0.323,0.02,0.495
				c0.013,0.171,0.047,0.327,0.104,0.468s0.145,0.257,0.265,0.35c0.121,0.092,0.289,0.138,0.505,0.138
				c0.664,0,0.997-0.483,0.997-1.45V197.2z"/>
			<path fill="#5E5E5E" d="M221.372,192.836h4.361v1.305c0.414-0.483,0.913-0.87,1.495-1.16c0.583-0.29,1.188-0.435,1.818-0.435
				c0.474,0,0.897,0.114,1.268,0.343s0.684,0.521,0.938,0.877c0.254,0.355,0.448,0.756,0.582,1.199
				c0.134,0.444,0.201,0.877,0.201,1.299v13.869h-4.361v-13.091c0-0.765-0.242-1.147-0.725-1.147c-0.104,0-0.214,0.026-0.33,0.079
				c-0.117,0.053-0.218,0.119-0.304,0.198l-0.272,0.264c-0.052,0.053-0.09,0.095-0.116,0.125s-0.091,0.107-0.194,0.23v13.342h-4.361
				V192.836z"/>
			<path fill="#5E5E5E" d="M234.675,195.803h-1.242v-2.966h1.242v-5.563h4.361v5.563h2.096v2.966h-2.096v9.492
				c0,0.475,0.086,0.829,0.259,1.061c0.172,0.233,0.479,0.35,0.919,0.35c0.5,0,0.923-0.026,1.268-0.079l-0.259,3.441
				c-0.569,0.176-1.402,0.264-2.498,0.264c-0.509,0-0.969-0.062-1.378-0.185s-0.755-0.288-1.035-0.495
				c-0.28-0.206-0.522-0.468-0.725-0.784s-0.362-0.64-0.479-0.969c-0.117-0.33-0.207-0.714-0.272-1.154
				c-0.064-0.439-0.108-0.848-0.129-1.226s-0.032-0.809-0.032-1.292V195.803z"/>
			<path fill="#5E5E5E" d="M243.021,186.403h4.361v7.752c0.423-0.483,0.925-0.875,1.508-1.173s1.184-0.448,1.805-0.448
				c0.595,0,1.128,0.193,1.598,0.58s0.819,0.861,1.048,1.424c0.229,0.562,0.343,1.143,0.343,1.74v13.856h-4.361v-12.696
				c0-0.035,0.002-0.112,0.006-0.231c0.004-0.118,0.004-0.215,0-0.29c-0.004-0.074-0.009-0.171-0.013-0.29
				c-0.004-0.118-0.019-0.213-0.045-0.283s-0.061-0.145-0.104-0.224c-0.043-0.079-0.102-0.136-0.175-0.171s-0.162-0.053-0.265-0.053
				c-0.173,0-0.358,0.07-0.557,0.211c-0.199,0.141-0.341,0.259-0.427,0.356c-0.086,0.097-0.207,0.237-0.362,0.422v13.25h-4.361
				V186.403z"/>
		</g>
		<g>
			<path fill="#828282" d="M107.112,160.692h-3.416v-3.586h11.478v3.586h-3.352v20.145h-4.71V160.692z"/>
			<path fill="#828282" d="M116.61,163.54h4.335v1.49c0.665-1.099,1.441-1.648,2.33-1.648c0.25,0,0.643,0.044,1.177,0.132
				l-0.259,3.744c-0.793-0.088-1.272-0.132-1.436-0.132c-0.595,0-1.046,0.187-1.353,0.561s-0.459,0.907-0.459,1.602v11.549h-4.335
				V163.54z"/>
			<path fill="#828282" d="M132.23,179.057c-0.25,0.8-0.66,1.36-1.229,1.681c-0.569,0.32-1.277,0.481-2.122,0.481
				c-0.621,0-1.165-0.123-1.631-0.369c-0.466-0.246-0.83-0.578-1.093-0.996c-0.263-0.417-0.458-0.865-0.583-1.345
				c-0.125-0.479-0.188-0.982-0.188-1.509c0-0.598,0.061-1.151,0.181-1.661s0.274-0.96,0.459-1.351s0.444-0.767,0.776-1.127
				s0.656-0.666,0.971-0.917c0.315-0.25,0.718-0.509,1.21-0.777s0.932-0.492,1.32-0.673c0.388-0.18,0.875-0.393,1.462-0.639v-1.45
				c0-0.606-0.074-1.059-0.22-1.358c-0.147-0.299-0.397-0.448-0.75-0.448c-0.242,0-0.438,0.051-0.589,0.151
				c-0.151,0.102-0.257,0.253-0.317,0.455c-0.061,0.202-0.099,0.385-0.117,0.547c-0.017,0.163-0.026,0.38-0.026,0.653v0.976h-4.231
				c0-1.978,0.487-3.496,1.462-4.555c0.975-1.059,2.39-1.588,4.245-1.588c1.294,0,2.428,0.479,3.403,1.437
				c0.975,0.958,1.462,2.096,1.462,3.415v8.174c0,1.415,0.186,2.94,0.557,4.575h-3.986L132.23,179.057z M131.764,172.715
				c-1.424,1.169-2.135,2.461-2.135,3.876c0,0.352,0.066,0.652,0.201,0.903c0.133,0.25,0.36,0.375,0.679,0.375
				c0.181,0,0.36-0.059,0.537-0.178c0.177-0.118,0.304-0.222,0.382-0.31s0.194-0.233,0.349-0.435L131.764,172.715z"/>
			<path fill="#828282" d="M139.088,166.506h-0.983v-2.966h0.983v-0.026c0.008-0.466,0.03-0.901,0.064-1.305
				s0.097-0.835,0.188-1.292c0.09-0.457,0.224-0.85,0.401-1.18c0.177-0.329,0.399-0.635,0.667-0.916
				c0.267-0.281,0.608-0.494,1.022-0.64c0.414-0.145,0.888-0.217,1.423-0.217c0.819,0,1.734,0.062,2.743,0.185v3.322l-1.139-0.079
				c-0.362,0-0.621,0.104-0.776,0.31s-0.233,0.582-0.233,1.127v0.712h2.109v2.966h-2.109v14.331h-4.361V166.506z"/>
			<path fill="#828282" d="M147.461,166.506h-0.983v-2.966h0.983v-0.026c0.008-0.466,0.03-0.901,0.064-1.305
				s0.097-0.835,0.188-1.292c0.09-0.457,0.224-0.85,0.401-1.18c0.177-0.329,0.399-0.635,0.667-0.916
				c0.267-0.281,0.608-0.494,1.022-0.64c0.414-0.145,0.888-0.217,1.423-0.217c0.819,0,1.734,0.062,2.743,0.185v3.322l-1.139-0.079
				c-0.362,0-0.621,0.104-0.776,0.31s-0.233,0.582-0.233,1.127v0.712h2.109v2.966h-2.109v14.331h-4.361V166.506z"/>
			<path fill="#828282" d="M155.251,157.884h4.361v4.153h-4.361V157.884z M155.251,163.54h4.361v17.297h-4.361V163.54z"/>
			<path fill="#828282" d="M161.864,169.05c0-1.828,0.427-3.254,1.281-4.278c0.854-1.023,2.157-1.536,3.908-1.536
				c1.76,0,3.064,0.51,3.914,1.529s1.275,2.448,1.275,4.285v1.503h-4.283v-1.964c0-0.686-0.059-1.188-0.175-1.509
				c-0.117-0.321-0.36-0.481-0.731-0.481c-0.552,0-0.829,0.435-0.829,1.305v8.517c0,0.967,0.276,1.45,0.829,1.45
				c0.207,0,0.373-0.044,0.498-0.132s0.215-0.237,0.271-0.448s0.093-0.428,0.11-0.653c0.017-0.224,0.026-0.538,0.026-0.942v-1.833
				h4.283v2.571c0,0.949-0.242,1.795-0.725,2.538c-0.483,0.743-1.118,1.303-1.902,1.681c-0.785,0.378-1.639,0.567-2.562,0.567
				c-1.424,0-2.645-0.442-3.663-1.325c-1.018-0.884-1.527-2.037-1.527-3.461V169.05z"/>
			<path fill="#828282" d="M177.703,157.884h4.361v4.153h-4.361V157.884z M177.703,163.54h4.361v17.297h-4.361V163.54z"/>
			<path fill="#828282" d="M184.523,163.54h4.361v1.305c0.414-0.483,0.913-0.87,1.495-1.16c0.583-0.29,1.188-0.435,1.818-0.435
				c0.474,0,0.897,0.114,1.268,0.343s0.684,0.521,0.938,0.877c0.254,0.355,0.448,0.756,0.582,1.199
				c0.134,0.444,0.201,0.877,0.201,1.299v13.869h-4.361v-13.091c0-0.765-0.242-1.147-0.725-1.147c-0.104,0-0.214,0.026-0.33,0.079
				c-0.117,0.053-0.218,0.119-0.304,0.198l-0.272,0.264c-0.052,0.053-0.09,0.095-0.116,0.125s-0.091,0.107-0.194,0.23v13.342h-4.361
				V163.54z"/>
			<path fill="#828282" d="M197.321,169.05c0-1.828,0.427-3.254,1.281-4.278c0.854-1.023,2.157-1.536,3.908-1.536
				c1.76,0,3.064,0.51,3.914,1.529s1.275,2.448,1.275,4.285v1.503h-4.283v-1.964c0-0.686-0.059-1.188-0.175-1.509
				c-0.117-0.321-0.36-0.481-0.731-0.481c-0.552,0-0.829,0.435-0.829,1.305v8.517c0,0.967,0.276,1.45,0.829,1.45
				c0.207,0,0.373-0.044,0.498-0.132s0.215-0.237,0.271-0.448s0.093-0.428,0.11-0.653c0.017-0.224,0.026-0.538,0.026-0.942v-1.833
				h4.283v2.571c0,0.949-0.242,1.795-0.725,2.538c-0.483,0.743-1.118,1.303-1.902,1.681c-0.785,0.378-1.639,0.567-2.562,0.567
				c-1.424,0-2.645-0.442-3.663-1.325c-1.018-0.884-1.527-2.037-1.527-3.461V169.05z"/>
			<path fill="#828282" d="M209.537,163.54h4.335v1.49c0.665-1.099,1.441-1.648,2.33-1.648c0.25,0,0.643,0.044,1.177,0.132
				l-0.259,3.744c-0.793-0.088-1.272-0.132-1.436-0.132c-0.595,0-1.046,0.187-1.353,0.561s-0.459,0.907-0.459,1.602v11.549h-4.335
				V163.54z"/>
			<path fill="#828282" d="M218.57,169.05c0-0.914,0.105-1.731,0.317-2.452s0.533-1.329,0.964-1.826
				c0.431-0.496,0.971-0.876,1.618-1.14s1.41-0.396,2.291-0.396c0.88,0,1.645,0.13,2.297,0.389c0.651,0.259,1.19,0.637,1.617,1.134
				c0.427,0.497,0.746,1.105,0.958,1.826c0.211,0.721,0.317,1.542,0.317,2.465v3.56h-6.018v3.81c0,0.967,0.276,1.45,0.829,1.45
				c0.604,0,0.906-0.519,0.906-1.556v-1.885h4.283v1.938c0,0.721-0.138,1.377-0.414,1.971c-0.276,0.593-0.651,1.103-1.126,1.529
				s-1.027,0.758-1.656,0.995c-0.63,0.237-1.294,0.356-1.993,0.356c-0.699,0-1.363-0.119-1.993-0.356s-1.182-0.569-1.656-0.995
				c-0.475-0.426-0.85-0.938-1.126-1.536s-0.414-1.252-0.414-1.964V169.05z M224.626,170.276v-2.373c0-0.87-0.289-1.305-0.867-1.305
				c-0.552,0-0.829,0.435-0.829,1.305v2.373H224.626z"/>
			<path fill="#828282" d="M237.321,179.057c-0.25,0.8-0.66,1.36-1.229,1.681c-0.569,0.32-1.277,0.481-2.122,0.481
				c-0.621,0-1.165-0.123-1.631-0.369c-0.466-0.246-0.83-0.578-1.093-0.996c-0.263-0.417-0.458-0.865-0.583-1.345
				c-0.125-0.479-0.188-0.982-0.188-1.509c0-0.598,0.061-1.151,0.181-1.661s0.274-0.96,0.459-1.351s0.444-0.767,0.776-1.127
				s0.656-0.666,0.971-0.917c0.315-0.25,0.718-0.509,1.21-0.777s0.932-0.492,1.32-0.673c0.388-0.18,0.875-0.393,1.462-0.639v-1.45
				c0-0.606-0.074-1.059-0.22-1.358c-0.147-0.299-0.397-0.448-0.75-0.448c-0.242,0-0.438,0.051-0.589,0.151
				c-0.151,0.102-0.257,0.253-0.317,0.455c-0.061,0.202-0.099,0.385-0.117,0.547c-0.017,0.163-0.026,0.38-0.026,0.653v0.976h-4.231
				c0-1.978,0.487-3.496,1.462-4.555c0.975-1.059,2.39-1.588,4.245-1.588c1.294,0,2.428,0.479,3.403,1.437
				c0.975,0.958,1.462,2.096,1.462,3.415v8.174c0,1.415,0.186,2.94,0.557,4.575h-3.986L237.321,179.057z M236.855,172.715
				c-1.424,1.169-2.135,2.461-2.135,3.876c0,0.352,0.066,0.652,0.201,0.903c0.133,0.25,0.36,0.375,0.679,0.375
				c0.181,0,0.36-0.059,0.537-0.178c0.177-0.118,0.304-0.222,0.382-0.31s0.194-0.233,0.349-0.435L236.855,172.715z"/>
			<path fill="#828282" d="M246.353,175.471l0.207,0.62c0.069,0.202,0.153,0.413,0.252,0.633s0.218,0.422,0.356,0.606
				c0.138,0.185,0.293,0.336,0.466,0.455c0.172,0.118,0.371,0.178,0.595,0.178c0.543,0,0.815-0.325,0.815-0.976
				c0-0.343-0.089-0.672-0.266-0.989s-0.397-0.62-0.66-0.91c-0.263-0.29-0.546-0.564-0.848-0.824
				c-0.302-0.259-0.574-0.499-0.815-0.718l-0.711-0.62c-0.466-0.404-0.882-0.804-1.249-1.2s-0.677-0.797-0.932-1.207
				c-0.254-0.408-0.449-0.83-0.583-1.266c-0.134-0.435-0.2-0.894-0.2-1.377c0-0.765,0.153-1.435,0.459-2.01s0.712-1.059,1.217-1.45
				c0.504-0.391,1.087-0.684,1.747-0.877c0.66-0.193,1.339-0.29,2.038-0.29c0.656,0,1.262,0.136,1.818,0.409
				s1.057,0.633,1.501,1.081s0.826,0.962,1.146,1.542c0.319,0.58,0.565,1.173,0.737,1.78l-3.131,1.094l-0.259-0.646
				c-0.225-0.554-0.494-1.011-0.809-1.371s-0.692-0.562-1.132-0.606c-0.302,0-0.537,0.11-0.705,0.33
				c-0.168,0.22-0.252,0.47-0.252,0.751c0,0.396,0.209,0.829,0.628,1.298c0.418,0.471,0.994,1.022,1.728,1.655l0.802,0.725
				c0.405,0.369,0.792,0.754,1.158,1.153c0.366,0.4,0.69,0.817,0.97,1.253c0.28,0.435,0.502,0.879,0.667,1.331
				c0.164,0.453,0.246,0.917,0.246,1.391c0,0.686-0.129,1.323-0.388,1.912s-0.613,1.097-1.061,1.522
				c-0.449,0.427-0.973,0.761-1.572,1.002c-0.6,0.242-1.236,0.363-1.909,0.363c-0.655,0-1.272-0.11-1.85-0.33
				c-0.578-0.22-1.1-0.529-1.566-0.93c-0.466-0.399-0.869-0.876-1.21-1.43s-0.602-1.169-0.783-1.846L246.353,175.471z"/>
			<path fill="#828282" d="M254.674,169.05c0-0.914,0.105-1.731,0.317-2.452s0.533-1.329,0.964-1.826
				c0.431-0.496,0.971-0.876,1.618-1.14s1.41-0.396,2.291-0.396c0.88,0,1.645,0.13,2.297,0.389c0.651,0.259,1.19,0.637,1.617,1.134
				c0.427,0.497,0.746,1.105,0.958,1.826c0.211,0.721,0.317,1.542,0.317,2.465v3.56h-6.018v3.81c0,0.967,0.276,1.45,0.829,1.45
				c0.604,0,0.906-0.519,0.906-1.556v-1.885h4.283v1.938c0,0.721-0.138,1.377-0.414,1.971c-0.276,0.593-0.651,1.103-1.126,1.529
				s-1.027,0.758-1.656,0.995c-0.63,0.237-1.294,0.356-1.993,0.356c-0.699,0-1.363-0.119-1.993-0.356s-1.182-0.569-1.656-0.995
				c-0.475-0.426-0.85-0.938-1.126-1.536s-0.414-1.252-0.414-1.964V169.05z M260.73,170.276v-2.373c0-0.87-0.289-1.305-0.867-1.305
				c-0.552,0-0.829,0.435-0.829,1.305v2.373H260.73z"/>
			<path fill="#828282" d="M104.99,195.506h-1.242v-2.966h1.242v-5.563h4.361v5.563h2.096v2.966h-2.096v9.492
				c0,0.475,0.086,0.829,0.259,1.061c0.172,0.233,0.479,0.35,0.919,0.35c0.5,0,0.923-0.026,1.268-0.079l-0.259,3.441
				c-0.569,0.176-1.402,0.264-2.498,0.264c-0.509,0-0.969-0.062-1.378-0.185s-0.755-0.288-1.035-0.495
				c-0.28-0.206-0.522-0.468-0.725-0.784s-0.362-0.64-0.479-0.969c-0.117-0.33-0.207-0.714-0.272-1.154
				c-0.064-0.439-0.108-0.848-0.129-1.226s-0.032-0.809-0.032-1.292V195.506z"/>
			<path fill="#828282" d="M113.336,186.106h4.361v7.752c0.423-0.483,0.925-0.875,1.508-1.173s1.184-0.448,1.805-0.448
				c0.595,0,1.128,0.193,1.598,0.58s0.819,0.861,1.048,1.424c0.229,0.562,0.343,1.143,0.343,1.74v13.856h-4.361v-12.696
				c0-0.035,0.002-0.112,0.006-0.231c0.004-0.118,0.004-0.215,0-0.29c-0.004-0.074-0.009-0.171-0.013-0.29
				c-0.004-0.118-0.019-0.213-0.045-0.283s-0.061-0.145-0.104-0.224c-0.043-0.079-0.102-0.136-0.175-0.171s-0.162-0.053-0.265-0.053
				c-0.173,0-0.358,0.07-0.557,0.211c-0.199,0.141-0.341,0.259-0.427,0.356c-0.086,0.097-0.207,0.237-0.362,0.422v13.25h-4.361
				V186.106z"/>
			<path fill="#828282" d="M126.135,198.05c0-0.914,0.105-1.731,0.317-2.452s0.533-1.329,0.964-1.826
				c0.431-0.496,0.971-0.876,1.618-1.14s1.41-0.396,2.291-0.396c0.88,0,1.645,0.13,2.297,0.389c0.651,0.259,1.19,0.637,1.617,1.134
				c0.427,0.497,0.746,1.105,0.958,1.826c0.211,0.721,0.317,1.542,0.317,2.465v3.56h-6.018v3.81c0,0.967,0.276,1.45,0.829,1.45
				c0.604,0,0.906-0.519,0.906-1.556v-1.885h4.283v1.938c0,0.721-0.138,1.377-0.414,1.971c-0.276,0.593-0.651,1.103-1.126,1.529
				s-1.027,0.758-1.656,0.995c-0.63,0.237-1.294,0.356-1.993,0.356c-0.699,0-1.363-0.119-1.993-0.356s-1.182-0.569-1.656-0.995
				c-0.475-0.426-0.85-0.938-1.126-1.536s-0.414-1.252-0.414-1.964V198.05z M132.191,199.276v-2.373c0-0.87-0.289-1.305-0.867-1.305
				c-0.552,0-0.829,0.435-0.829,1.305v2.373H132.191z"/>
			<path fill="#828282" d="M142.712,195.506h-0.983v-2.966h0.983v-0.026c0.008-0.466,0.03-0.901,0.064-1.305
				s0.097-0.835,0.188-1.292c0.09-0.457,0.224-0.85,0.401-1.18c0.177-0.329,0.399-0.635,0.667-0.916
				c0.267-0.281,0.608-0.494,1.022-0.64c0.414-0.145,0.888-0.217,1.423-0.217c0.819,0,1.734,0.062,2.743,0.185v3.322l-1.139-0.079
				c-0.362,0-0.621,0.104-0.776,0.31s-0.233,0.582-0.233,1.127v0.712h2.109v2.966h-2.109v14.331h-4.361V195.506z"/>
			<path fill="#828282" d="M150.502,186.884h4.361v4.153h-4.361V186.884z M150.502,192.54h4.361v17.297h-4.361V192.54z"/>
			<path fill="#828282" d="M157.322,192.54h4.335v1.49c0.665-1.099,1.441-1.648,2.33-1.648c0.25,0,0.643,0.044,1.177,0.132
				l-0.259,3.744c-0.793-0.088-1.272-0.132-1.436-0.132c-0.595,0-1.046,0.187-1.353,0.561s-0.459,0.907-0.459,1.602v11.549h-4.335
				V192.54z"/>
			<path fill="#828282" d="M169.343,204.471l0.207,0.62c0.069,0.202,0.153,0.413,0.252,0.633s0.218,0.422,0.356,0.606
				c0.138,0.185,0.293,0.336,0.466,0.455c0.172,0.118,0.371,0.178,0.595,0.178c0.543,0,0.815-0.325,0.815-0.976
				c0-0.343-0.089-0.672-0.266-0.989s-0.397-0.62-0.66-0.91c-0.263-0.29-0.546-0.564-0.848-0.824
				c-0.302-0.259-0.574-0.499-0.815-0.718l-0.711-0.62c-0.466-0.404-0.882-0.804-1.249-1.2s-0.677-0.797-0.932-1.207
				c-0.254-0.408-0.449-0.83-0.583-1.266c-0.134-0.435-0.2-0.894-0.2-1.377c0-0.765,0.153-1.435,0.459-2.01s0.712-1.059,1.217-1.45
				c0.504-0.391,1.087-0.684,1.747-0.877c0.66-0.193,1.339-0.29,2.038-0.29c0.656,0,1.262,0.136,1.818,0.409
				s1.057,0.633,1.501,1.081s0.826,0.962,1.146,1.542c0.319,0.58,0.565,1.173,0.737,1.78l-3.131,1.094l-0.259-0.646
				c-0.225-0.554-0.494-1.011-0.809-1.371s-0.692-0.562-1.132-0.606c-0.302,0-0.537,0.11-0.705,0.33
				c-0.168,0.22-0.252,0.47-0.252,0.751c0,0.396,0.209,0.829,0.628,1.298c0.418,0.471,0.994,1.022,1.728,1.655l0.802,0.725
				c0.405,0.369,0.792,0.754,1.158,1.153c0.366,0.4,0.69,0.817,0.97,1.253c0.28,0.435,0.502,0.879,0.667,1.331
				c0.164,0.453,0.246,0.917,0.246,1.391c0,0.686-0.129,1.323-0.388,1.912s-0.613,1.097-1.061,1.522
				c-0.449,0.427-0.973,0.761-1.572,1.002c-0.6,0.242-1.236,0.363-1.909,0.363c-0.655,0-1.272-0.11-1.85-0.33
				c-0.578-0.22-1.1-0.529-1.566-0.93c-0.466-0.399-0.869-0.876-1.21-1.43s-0.602-1.169-0.783-1.846L169.343,204.471z"/>
			<path fill="#828282" d="M178.169,195.506h-1.242v-2.966h1.242v-5.563h4.361v5.563h2.096v2.966h-2.096v9.492
				c0,0.475,0.086,0.829,0.259,1.061c0.172,0.233,0.479,0.35,0.919,0.35c0.5,0,0.923-0.026,1.268-0.079l-0.259,3.441
				c-0.569,0.176-1.402,0.264-2.498,0.264c-0.509,0-0.969-0.062-1.378-0.185s-0.755-0.288-1.035-0.495
				c-0.28-0.206-0.522-0.468-0.725-0.784s-0.362-0.64-0.479-0.969c-0.117-0.33-0.207-0.714-0.272-1.154
				c-0.064-0.439-0.108-0.848-0.129-1.226s-0.032-0.809-0.032-1.292V195.506z"/>
			<path fill="#828282" d="M190.113,192.54h4.361v1.318c0.406-0.483,0.889-0.875,1.45-1.173c0.561-0.299,1.139-0.448,1.734-0.448
				c0.561,0,1.078,0.185,1.553,0.554s0.833,0.831,1.074,1.384c0.422-0.58,0.942-1.048,1.559-1.404
				c0.617-0.355,1.271-0.534,1.96-0.534c0.596,0,1.13,0.193,1.605,0.58c0.474,0.387,0.83,0.864,1.067,1.43
				c0.237,0.567,0.356,1.145,0.356,1.734v13.856h-4.361v-12.973c0-0.158-0.004-0.288-0.013-0.389s-0.03-0.231-0.064-0.389
				c-0.035-0.158-0.1-0.279-0.194-0.363c-0.095-0.083-0.216-0.125-0.362-0.125c-0.311,0-0.708,0.325-1.19,0.976v13.263h-4.361
				v-12.999c0-0.826-0.199-1.239-0.595-1.239c-0.328,0-0.738,0.33-1.229,0.989l0.013,13.25h-4.361V192.54z"/>
			<path fill="#828282" d="M208.967,198.05c0-0.914,0.104-1.729,0.311-2.445s0.526-1.323,0.958-1.819
				c0.432-0.497,0.977-0.877,1.637-1.141c0.66-0.264,1.443-0.396,2.349-0.396s1.691,0.13,2.355,0.389
				c0.665,0.26,1.217,0.638,1.657,1.134c0.44,0.497,0.768,1.104,0.983,1.819c0.215,0.717,0.323,1.536,0.323,2.459v7.317
				c0,0.721-0.142,1.377-0.427,1.971c-0.285,0.593-0.669,1.103-1.152,1.529c-0.483,0.426-1.046,0.758-1.688,0.995
				c-0.643,0.237-1.327,0.356-2.051,0.356c-0.682,0-1.339-0.11-1.974-0.33c-0.634-0.22-1.192-0.538-1.676-0.956
				c-0.483-0.417-0.871-0.927-1.165-1.529c-0.293-0.602-0.44-1.281-0.44-2.037V198.05z M215.218,196.903
				c0-0.87-0.333-1.305-0.997-1.305c-0.595,0-0.893,0.435-0.893,1.305v8.517c0,0.158,0.007,0.323,0.02,0.495
				c0.013,0.171,0.047,0.327,0.104,0.468s0.145,0.257,0.265,0.35c0.121,0.092,0.289,0.138,0.505,0.138
				c0.664,0,0.997-0.483,0.997-1.45V196.903z"/>
			<path fill="#828282" d="M221.766,192.54h4.361v1.305c0.414-0.483,0.913-0.87,1.495-1.16c0.583-0.29,1.188-0.435,1.818-0.435
				c0.474,0,0.897,0.114,1.268,0.343s0.684,0.521,0.938,0.877c0.254,0.355,0.448,0.756,0.582,1.199
				c0.134,0.444,0.201,0.877,0.201,1.299v13.869h-4.361v-13.091c0-0.765-0.242-1.147-0.725-1.147c-0.104,0-0.214,0.026-0.33,0.079
				c-0.117,0.053-0.218,0.119-0.304,0.198l-0.272,0.264c-0.052,0.053-0.09,0.095-0.116,0.125s-0.091,0.107-0.194,0.23v13.342h-4.361
				V192.54z"/>
			<path fill="#828282" d="M235.069,195.506h-1.242v-2.966h1.242v-5.563h4.361v5.563h2.096v2.966h-2.096v9.492
				c0,0.475,0.086,0.829,0.259,1.061c0.172,0.233,0.479,0.35,0.919,0.35c0.5,0,0.923-0.026,1.268-0.079l-0.259,3.441
				c-0.569,0.176-1.402,0.264-2.498,0.264c-0.509,0-0.969-0.062-1.378-0.185s-0.755-0.288-1.035-0.495
				c-0.28-0.206-0.522-0.468-0.725-0.784s-0.362-0.64-0.479-0.969c-0.117-0.33-0.207-0.714-0.272-1.154
				c-0.064-0.439-0.108-0.848-0.129-1.226s-0.032-0.809-0.032-1.292V195.506z"/>
			<path fill="#828282" d="M243.415,186.106h4.361v7.752c0.423-0.483,0.925-0.875,1.508-1.173s1.184-0.448,1.805-0.448
				c0.595,0,1.128,0.193,1.598,0.58s0.819,0.861,1.048,1.424c0.229,0.562,0.343,1.143,0.343,1.74v13.856h-4.361v-12.696
				c0-0.035,0.002-0.112,0.006-0.231c0.004-0.118,0.004-0.215,0-0.29c-0.004-0.074-0.009-0.171-0.013-0.29
				c-0.004-0.118-0.019-0.213-0.045-0.283s-0.061-0.145-0.104-0.224c-0.043-0.079-0.102-0.136-0.175-0.171s-0.162-0.053-0.265-0.053
				c-0.173,0-0.358,0.07-0.557,0.211c-0.199,0.141-0.341,0.259-0.427,0.356c-0.086,0.097-0.207,0.237-0.362,0.422v13.25h-4.361
				V186.106z"/>
		</g>
	</g>
	<g>
		<g>
			<linearGradient id="SVGID_1_" gradientUnits="userSpaceOnUse" x1="60.0244" y1="210.4902" x2="60.0244" y2="2.1606">
				<stop  offset="0.5059" style="stop-color:#828282"/>
				<stop  offset="0.6235" style="stop-color:#646464"/>
			</linearGradient>
			<polygon fill="url(#SVGID_1_)" points="23.346,210.49 96.682,210.49 96.693,80.27 120.025,80.27 60.024,2.161 0.023,80.259 
				23.357,80.277 			"/>
			<linearGradient id="SVGID_2_" gradientUnits="userSpaceOnUse" x1="63.0239" y1="210.4902" x2="63.0239" y2="0.1567">
				<stop  offset="0.5059" style="stop-color:#BF2C54"/>
				<stop  offset="0.6235" style="stop-color:#961E3C"/>
			</linearGradient>
			<polygon fill="url(#SVGID_2_)" points="26.346,210.49 99.707,210.49 99.693,78.266 123.025,78.266 63.024,0.157 3.022,78.255 
				26.355,78.273 			"/>
		</g>
		<g>
			<g>
				<path fill="#828282" d="M41.525,72.577c0.848,0,1.217-0.885,1.217-3.614v-6.048c0-1.106-0.406-1.992-1.254-1.992
					c-0.885,0-1.549,1.365-1.549,1.992h-3.356V48.642h9.625v3.946h-6.196v5.643c0,0,1.254-0.996,2.287-0.922
					c4.094,0,4.426,4.721,4.426,5.606v6.048c0,2.508-0.332,7.081-5.2,7.081s-5.2-4.573-5.2-8.188h3.983v1.07
					C40.308,71.692,40.603,72.577,41.525,72.577z"/>
				<path fill="#828282" d="M48.79,57.235v-1.881c0-3.651,0.959-7.007,5.311-7.007c4.057,0,5.311,3.024,5.311,6.75
					c0,5.532-4.205,13.24-6.233,16.707h6.307v3.946H48.679v-3.946c0,0,6.565-9.81,6.75-16.449c0-1.475-0.148-3.319-1.328-3.319
					c-1.106,0-1.328,1.586-1.328,3.319v1.881H48.79z"/>
				<path fill="#828282" d="M64.98,63.505v-3.319c3.319-0.185,3.024-1.401,3.024-4.832c0-1.549,0-3.503-1.254-3.503
					c-0.996,0-1.143,0.959-1.18,4.61h-3.909c0-3.061,0.11-8.114,5.089-8.114s5.163,5.126,5.163,5.827
					c0,4.02-0.701,5.938-1.917,7.155l-0.037,0.037c1.918,1.512,2.287,4.315,2.287,7.45c0,0.701-0.185,7.229-5.163,7.229
					c-4.979,0-5.274-5.053-5.274-8.114h3.909c0.037,3.651,0.369,4.61,1.365,4.61c1.254,0,1.254-1.881,1.254-3.43
					c0-3.43,0.442-5.421-3.024-5.605H64.98z"/>
				<path fill="#828282" d="M77.077,62.509c-2.914,0-2.877-3.171-2.877-3.171v-7.856c0,0-0.037-3.135,2.877-3.135
					c2.84,0,2.84,3.135,2.84,3.135v7.856C79.917,59.337,79.917,62.509,77.077,62.509z M76.044,75.749l9.958-27.107h2.36
					l-9.847,27.107H76.044z M77.077,50.486c-0.738,0-0.664,0.996-0.664,0.996v7.856c0,0-0.074,0.996,0.664,0.996
					c0.664,0,0.627-0.996,0.627-0.996v-7.856C77.704,51.481,77.74,50.486,77.077,50.486z M87.44,76.044
					c-2.914,0-2.876-3.135-2.876-3.135v-7.855c0,0-0.037-3.172,2.876-3.172c2.84,0,2.84,3.172,2.84,3.172v7.855
					C90.28,72.909,90.28,76.044,87.44,76.044z M87.44,64.058c-0.738,0-0.664,0.996-0.664,0.996v7.855c0,0-0.074,1.033,0.664,1.033
					c0.664,0,0.627-1.033,0.627-1.033v-7.855C88.067,65.054,88.104,64.058,87.44,64.058z"/>
			</g>
			<g>
				<path fill="#FFFFFF" d="M42.172,72.122c0.848,0,1.217-0.885,1.217-3.614v-6.048c0-1.106-0.406-1.992-1.254-1.992
					c-0.885,0-1.549,1.365-1.549,1.992H37.23V48.187h9.626v3.946H40.66v5.643c0,0,1.254-0.996,2.287-0.922
					c4.094,0,4.426,4.721,4.426,5.606v6.048c0,2.508-0.332,7.081-5.2,7.081s-5.2-4.573-5.2-8.188h3.983v1.07
					C40.955,71.237,41.25,72.122,42.172,72.122z"/>
				<path fill="#FFFFFF" d="M49.437,56.779v-1.881c0-3.651,0.959-7.007,5.311-7.007c4.057,0,5.311,3.024,5.311,6.749
					c0,5.532-4.205,13.24-6.233,16.707h6.307v3.946H49.326v-3.946c0,0,6.565-9.81,6.75-16.449c0-1.475-0.148-3.319-1.328-3.319
					c-1.106,0-1.328,1.586-1.328,3.319v1.881H49.437z"/>
				<path fill="#FFFFFF" d="M65.627,63.049V59.73c3.319-0.185,3.024-1.401,3.024-4.832c0-1.549,0-3.503-1.254-3.503
					c-0.996,0-1.143,0.959-1.18,4.61h-3.909c0-3.061,0.11-8.114,5.089-8.114s5.163,5.126,5.163,5.827
					c0,4.02-0.701,5.938-1.917,7.155l-0.037,0.037c1.918,1.512,2.287,4.315,2.287,7.45c0,0.701-0.184,7.229-5.163,7.229
					s-5.274-5.053-5.274-8.114h3.909c0.037,3.651,0.369,4.61,1.365,4.61c1.254,0,1.254-1.881,1.254-3.43
					c0-3.43,0.442-5.421-3.024-5.605H65.627z"/>
				<path fill="#FFFFFF" d="M77.724,62.053c-2.914,0-2.877-3.171-2.877-3.171v-7.856c0,0-0.037-3.135,2.877-3.135
					c2.84,0,2.84,3.135,2.84,3.135v7.856C80.563,58.882,80.563,62.053,77.724,62.053z M76.691,75.293l9.958-27.107h2.36
					l-9.847,27.107H76.691z M77.724,50.03c-0.738,0-0.664,0.996-0.664,0.996v7.856c0,0-0.074,0.996,0.664,0.996
					c0.664,0,0.627-0.996,0.627-0.996v-7.856C78.351,51.026,78.387,50.03,77.724,50.03z M88.087,75.588
					c-2.914,0-2.876-3.135-2.876-3.135v-7.855c0,0-0.037-3.172,2.876-3.172c2.84,0,2.84,3.172,2.84,3.172v7.855
					C90.927,72.454,90.927,75.588,88.087,75.588z M88.087,63.603c-0.738,0-0.664,0.996-0.664,0.996v7.855
					c0,0-0.074,1.033,0.664,1.033c0.664,0,0.627-1.033,0.627-1.033v-7.855C88.714,64.598,88.751,63.603,88.087,63.603z"/>
			</g>
		</g>
	</g>
</g>
</svg>
