<?xml version="1.0" encoding="utf-8"?>
<!-- Generator: Adobe Illustrator 15.0.2, SVG Export Plug-In . SVG Version: 6.00 Build 0)  -->
<!DOCTYPE svg PUBLIC "-//W3C//DTD SVG 1.1//EN" "http://www.w3.org/Graphics/SVG/1.1/DTD/svg11.dtd">
<svg version="1.1" id="Layer_1" xmlns="http://www.w3.org/2000/svg" xmlns:xlink="http://www.w3.org/1999/xlink" x="0px" y="0px"
	 width="271px" height="300px" viewBox="0 0 271 300" enable-background="new 0 0 271 300" xml:space="preserve">
<g>
	<path opacity="0.1" fill="#A5A5A5" d="M269.994,285.822c0.148-5.098-60.894-1.413-136.471-3.611
		c-75.577-2.2-133.208,5.484-133.357,10.582c-0.148,5.098,59.514,4.472,135.09,6.672
		C210.835,301.666,269.845,290.92,269.994,285.822z"/>
	<g>
		<g>
			<g>
				<path fill="#5E5E5E" d="M103.81,157.507h5.08v25.124h-5.08V157.507z"/>
				<path fill="#5E5E5E" d="M111.695,164.318h4.704v1.382c0.446-0.512,0.983-0.921,1.612-1.228c0.627-0.307,1.281-0.46,1.961-0.46
					c0.512,0,0.967,0.121,1.368,0.363c0.4,0.242,0.737,0.551,1.012,0.928c0.274,0.376,0.484,0.8,0.628,1.27
					c0.144,0.47,0.216,0.928,0.216,1.375v14.683h-4.703v-13.86c0-0.81-0.262-1.214-0.783-1.214c-0.112,0-0.229,0.028-0.356,0.083
					c-0.125,0.056-0.234,0.126-0.327,0.209l-0.293,0.279c-0.056,0.056-0.098,0.1-0.125,0.133c-0.028,0.032-0.098,0.114-0.209,0.244
					v14.125h-4.704V164.318z"/>
				<path fill="#5E5E5E" d="M125.5,170.152c0-1.935,0.46-3.446,1.382-4.529c0.921-1.084,2.326-1.626,4.215-1.626
					c1.898,0,3.305,0.54,4.222,1.619c0.916,1.079,1.375,2.591,1.375,4.536v1.591h-4.62v-2.08c0-0.726-0.062-1.259-0.189-1.598
					c-0.125-0.34-0.388-0.509-0.788-0.509c-0.595,0-0.893,0.461-0.893,1.382v9.016c0,1.024,0.298,1.536,0.893,1.536
					c0.223,0,0.402-0.047,0.537-0.14c0.135-0.092,0.233-0.251,0.295-0.474c0.059-0.224,0.1-0.454,0.118-0.691
					c0.019-0.236,0.028-0.57,0.028-0.998v-1.94h4.62v2.722c0,1.005-0.261,1.901-0.781,2.687c-0.521,0.786-1.206,1.38-2.052,1.779
					c-0.847,0.4-1.768,0.601-2.764,0.601c-1.535,0-2.852-0.468-3.95-1.403c-1.098-0.936-1.647-2.156-1.647-3.664V170.152z"/>
				<path fill="#5E5E5E" d="M138.675,164.318h4.676v1.577c0.716-1.163,1.554-1.745,2.513-1.745c0.27,0,0.693,0.047,1.27,0.14
					l-0.279,3.963c-0.856-0.093-1.373-0.14-1.549-0.14c-0.642,0-1.129,0.198-1.458,0.593c-0.331,0.396-0.496,0.961-0.496,1.696
					v12.227h-4.676V164.318z"/>
				<path fill="#5E5E5E" d="M148.418,170.152c0-0.968,0.113-1.833,0.342-2.596c0.227-0.763,0.574-1.407,1.039-1.933
					c0.466-0.526,1.047-0.928,1.745-1.208c0.698-0.279,1.522-0.418,2.471-0.418c0.949,0,1.774,0.137,2.478,0.412
					c0.701,0.274,1.284,0.674,1.744,1.201c0.462,0.525,0.805,1.17,1.033,1.933c0.228,0.763,0.342,1.634,0.342,2.61v3.768h-6.49
					v4.034c0,1.024,0.297,1.536,0.893,1.536c0.651,0,0.977-0.549,0.977-1.647v-1.996h4.62v2.052c0,0.763-0.149,1.458-0.447,2.087
					c-0.298,0.627-0.703,1.168-1.214,1.619c-0.511,0.451-1.107,0.803-1.787,1.054c-0.679,0.251-1.396,0.377-2.149,0.377
					s-1.47-0.125-2.15-0.377c-0.679-0.251-1.275-0.603-1.787-1.054s-0.917-0.994-1.214-1.626c-0.298-0.633-0.446-1.326-0.446-2.08
					V170.152z M154.951,171.45v-2.512c0-0.921-0.312-1.382-0.935-1.382c-0.596,0-0.893,0.461-0.893,1.382v2.512H154.951z"/>
				<path fill="#5E5E5E" d="M168.643,180.746c-0.27,0.847-0.712,1.439-1.326,1.779c-0.614,0.34-1.376,0.51-2.289,0.51
					c-0.67,0-1.257-0.13-1.759-0.391c-0.502-0.261-0.896-0.612-1.18-1.054c-0.284-0.442-0.494-0.916-0.628-1.424
					c-0.135-0.507-0.202-1.039-0.202-1.598c0-0.633,0.065-1.219,0.195-1.759s0.295-1.017,0.495-1.431
					c0.2-0.414,0.479-0.812,0.838-1.193c0.358-0.382,0.707-0.705,1.048-0.97c0.338-0.266,0.774-0.54,1.304-0.824
					s1.005-0.521,1.424-0.712c0.419-0.191,0.944-0.417,1.577-0.677v-1.536c0-0.642-0.079-1.121-0.237-1.438
					c-0.159-0.316-0.429-0.475-0.81-0.475c-0.26,0-0.473,0.053-0.634,0.161c-0.164,0.106-0.278,0.268-0.343,0.482
					c-0.065,0.213-0.107,0.407-0.125,0.579s-0.027,0.403-0.027,0.691v1.033h-4.564c0-2.094,0.526-3.701,1.577-4.823
					c1.052-1.121,2.578-1.682,4.579-1.682c1.396,0,2.619,0.507,3.671,1.521c1.051,1.014,1.577,2.219,1.577,3.615v8.654
					c0,1.498,0.201,3.113,0.601,4.843h-4.299L168.643,180.746z M168.141,174.032c-1.535,1.238-2.303,2.606-2.303,4.104
					c0,0.373,0.071,0.691,0.216,0.957c0.144,0.265,0.389,0.398,0.733,0.398c0.196,0,0.389-0.063,0.579-0.189
					c0.191-0.125,0.329-0.235,0.412-0.328c0.083-0.093,0.209-0.246,0.377-0.46L168.141,174.032z"/>
				<path fill="#5E5E5E" d="M178.386,176.95l0.223,0.656c0.075,0.214,0.165,0.438,0.273,0.67c0.106,0.233,0.235,0.447,0.384,0.643
					c0.149,0.195,0.316,0.356,0.502,0.481c0.187,0.125,0.4,0.188,0.643,0.188c0.585,0,0.879-0.344,0.879-1.033
					c0-0.363-0.096-0.711-0.286-1.047c-0.191-0.335-0.429-0.656-0.713-0.963c-0.284-0.307-0.588-0.598-0.914-0.872
					c-0.326-0.275-0.619-0.529-0.879-0.761l-0.768-0.656c-0.502-0.428-0.952-0.852-1.347-1.271
					c-0.396-0.418-0.731-0.844-1.005-1.277c-0.275-0.433-0.484-0.879-0.628-1.34c-0.145-0.46-0.216-0.946-0.216-1.458
					c0-0.809,0.165-1.519,0.496-2.129c0.33-0.609,0.767-1.121,1.312-1.535c0.543-0.414,1.172-0.723,1.883-0.928
					c0.712-0.205,1.445-0.307,2.199-0.307c0.707,0,1.361,0.144,1.96,0.433c0.602,0.288,1.14,0.669,1.619,1.144
					c0.479,0.475,0.892,1.019,1.236,1.633c0.344,0.615,0.609,1.243,0.796,1.885l-3.378,1.158l-0.279-0.684
					c-0.241-0.585-0.533-1.07-0.871-1.451c-0.341-0.381-0.747-0.595-1.222-0.642c-0.326,0-0.58,0.116-0.76,0.349
					c-0.182,0.232-0.272,0.498-0.272,0.796c0,0.418,0.225,0.877,0.677,1.375c0.451,0.498,1.072,1.082,1.864,1.751l0.865,0.768
					c0.438,0.391,0.854,0.798,1.25,1.222c0.395,0.423,0.744,0.865,1.046,1.326c0.303,0.46,0.543,0.931,0.719,1.41
					c0.177,0.479,0.266,0.97,0.266,1.472c0,0.727-0.14,1.401-0.419,2.024c-0.279,0.624-0.66,1.161-1.145,1.612
					c-0.483,0.452-1.049,0.806-1.695,1.061c-0.648,0.256-1.333,0.384-2.06,0.384c-0.707,0-1.373-0.116-1.996-0.349
					c-0.623-0.232-1.186-0.561-1.688-0.983c-0.503-0.424-0.938-0.929-1.305-1.515c-0.368-0.586-0.649-1.238-0.844-1.955
					L178.386,176.95z"/>
				<path fill="#5E5E5E" d="M187.361,170.152c0-0.968,0.113-1.833,0.342-2.596c0.228-0.763,0.574-1.407,1.04-1.933
					c0.465-0.526,1.047-0.928,1.745-1.208c0.698-0.279,1.521-0.418,2.471-0.418c0.949,0,1.774,0.137,2.478,0.412
					c0.702,0.274,1.285,0.674,1.744,1.201c0.462,0.525,0.806,1.17,1.033,1.933c0.228,0.763,0.342,1.634,0.342,2.61v3.768h-6.49
					v4.034c0,1.024,0.298,1.536,0.894,1.536c0.651,0,0.977-0.549,0.977-1.647v-1.996h4.62v2.052c0,0.763-0.149,1.458-0.447,2.087
					c-0.298,0.627-0.702,1.168-1.214,1.619c-0.512,0.451-1.107,0.803-1.786,1.054c-0.679,0.251-1.396,0.377-2.149,0.377
					c-0.753,0-1.47-0.125-2.149-0.377c-0.68-0.251-1.275-0.603-1.787-1.054c-0.511-0.451-0.917-0.994-1.214-1.626
					c-0.297-0.633-0.446-1.326-0.446-2.08V170.152z M193.893,171.45v-2.512c0-0.921-0.312-1.382-0.935-1.382
					c-0.596,0-0.894,0.461-0.894,1.382v2.512H193.893z"/>
				<path fill="#5E5E5E" d="M204.612,158.33h4.704v4.397h-4.704V158.33z M204.612,164.318h4.704v18.312h-4.704V164.318z"/>
				<path fill="#5E5E5E" d="M211.968,164.318h4.704v1.382c0.447-0.512,0.983-0.921,1.612-1.228c0.627-0.307,1.281-0.46,1.96-0.46
					c0.512,0,0.969,0.121,1.369,0.363c0.4,0.242,0.737,0.551,1.011,0.928c0.274,0.376,0.484,0.8,0.629,1.27
					c0.144,0.47,0.216,0.928,0.216,1.375v14.683h-4.704v-13.86c0-0.81-0.26-1.214-0.782-1.214c-0.111,0-0.23,0.028-0.356,0.083
					c-0.125,0.056-0.234,0.126-0.327,0.209l-0.294,0.279c-0.056,0.056-0.098,0.1-0.125,0.133c-0.028,0.032-0.098,0.114-0.209,0.244
					v14.125h-4.704V164.318z"/>
				<path fill="#5E5E5E" d="M232.877,176.95l0.223,0.656c0.075,0.214,0.165,0.438,0.273,0.67c0.106,0.233,0.234,0.447,0.383,0.643
					c0.149,0.195,0.316,0.356,0.503,0.481c0.185,0.125,0.399,0.188,0.642,0.188c0.586,0,0.879-0.344,0.879-1.033
					c0-0.363-0.096-0.711-0.286-1.047c-0.192-0.335-0.429-0.656-0.713-0.963s-0.588-0.598-0.914-0.872
					c-0.326-0.275-0.619-0.529-0.88-0.761l-0.768-0.656c-0.502-0.428-0.951-0.852-1.347-1.271c-0.396-0.418-0.73-0.844-1.005-1.277
					c-0.274-0.433-0.484-0.879-0.627-1.34c-0.146-0.46-0.217-0.946-0.217-1.458c0-0.809,0.165-1.519,0.496-2.129
					c0.329-0.609,0.766-1.121,1.312-1.535c0.543-0.414,1.172-0.723,1.883-0.928c0.713-0.205,1.445-0.307,2.199-0.307
					c0.707,0,1.361,0.144,1.961,0.433c0.601,0.288,1.139,0.669,1.619,1.144c0.479,0.475,0.892,1.019,1.236,1.633
					c0.344,0.615,0.609,1.243,0.795,1.885l-3.377,1.158l-0.28-0.684c-0.242-0.585-0.533-1.07-0.872-1.451
					c-0.341-0.381-0.747-0.595-1.222-0.642c-0.325,0-0.58,0.116-0.76,0.349c-0.183,0.232-0.272,0.498-0.272,0.796
					c0,0.418,0.225,0.877,0.676,1.375c0.452,0.498,1.073,1.082,1.864,1.751l0.866,0.768c0.437,0.391,0.853,0.798,1.25,1.222
					c0.395,0.423,0.743,0.865,1.045,1.326s0.542,0.931,0.72,1.41c0.176,0.479,0.265,0.97,0.265,1.472
					c0,0.727-0.14,1.401-0.419,2.024s-0.661,1.161-1.145,1.612c-0.484,0.452-1.05,0.806-1.696,1.061
					c-0.647,0.256-1.333,0.384-2.059,0.384c-0.708,0-1.373-0.116-1.996-0.349c-0.624-0.232-1.187-0.561-1.689-0.983
					c-0.502-0.424-0.938-0.929-1.305-1.515c-0.368-0.586-0.648-1.238-0.844-1.955L232.877,176.95z"/>
				<path fill="#5E5E5E" d="M242.103,158.33h4.704v4.397h-4.704V158.33z M242.103,164.318h4.704v18.312h-4.704V164.318z"/>
				<path fill="#5E5E5E" d="M249.78,167.458h-1.34v-3.141h1.34v-5.89h4.704v5.89h2.261v3.141h-2.261v10.049
					c0,0.502,0.093,0.877,0.279,1.124c0.187,0.247,0.517,0.37,0.991,0.37c0.54,0,0.996-0.028,1.368-0.083l-0.279,3.643
					c-0.614,0.187-1.512,0.279-2.694,0.279c-0.55,0-1.045-0.065-1.487-0.195c-0.442-0.13-0.815-0.305-1.117-0.524
					c-0.303-0.218-0.563-0.495-0.782-0.831c-0.219-0.334-0.391-0.677-0.516-1.026c-0.126-0.349-0.224-0.755-0.293-1.221
					c-0.069-0.465-0.116-0.898-0.14-1.298c-0.023-0.4-0.034-0.856-0.034-1.368V167.458z"/>
				<path fill="#5E5E5E" d="M258.56,170.152c0-0.968,0.113-1.833,0.342-2.596c0.227-0.763,0.574-1.407,1.039-1.933
					c0.466-0.526,1.047-0.928,1.745-1.208c0.698-0.279,1.522-0.418,2.47-0.418c0.95,0,1.775,0.137,2.479,0.412
					c0.702,0.274,1.284,0.674,1.744,1.201c0.461,0.525,0.805,1.17,1.033,1.933c0.228,0.763,0.342,1.634,0.342,2.61v3.768h-6.49
					v4.034c0,1.024,0.298,1.536,0.893,1.536c0.652,0,0.978-0.549,0.978-1.647v-1.996h4.62v2.052c0,0.763-0.149,1.458-0.446,2.087
					c-0.298,0.627-0.703,1.168-1.214,1.619s-1.107,0.803-1.786,1.054c-0.68,0.251-1.396,0.377-2.15,0.377
					c-0.753,0-1.47-0.125-2.149-0.377c-0.679-0.251-1.274-0.603-1.787-1.054c-0.512-0.451-0.916-0.994-1.215-1.626
					c-0.298-0.633-0.446-1.326-0.446-2.08V170.152z M265.091,171.45v-2.512c0-0.921-0.312-1.382-0.936-1.382
					c-0.595,0-0.893,0.461-0.893,1.382v2.512H265.091z"/>
				<path fill="#5E5E5E" d="M103.949,196.043h-1.34v-3.141h1.34v-5.89h4.704v5.89h2.261v3.141h-2.261v10.05
					c0,0.502,0.093,0.876,0.278,1.123c0.187,0.247,0.517,0.37,0.992,0.37c0.54,0,0.996-0.028,1.368-0.083l-0.279,3.643
					c-0.614,0.186-1.512,0.279-2.694,0.279c-0.549,0-1.045-0.065-1.486-0.195c-0.443-0.13-0.815-0.305-1.117-0.524
					c-0.303-0.218-0.563-0.495-0.781-0.83c-0.219-0.335-0.391-0.677-0.516-1.026c-0.126-0.349-0.223-0.756-0.293-1.221
					c-0.069-0.465-0.116-0.898-0.14-1.298c-0.023-0.4-0.035-0.856-0.035-1.368V196.043z"/>
				<path fill="#5E5E5E" d="M112.952,192.903h4.676v1.578c0.717-1.164,1.554-1.745,2.512-1.745c0.27,0,0.694,0.046,1.271,0.14
					l-0.279,3.963c-0.856-0.093-1.373-0.139-1.55-0.139c-0.642,0-1.129,0.197-1.458,0.593c-0.331,0.396-0.496,0.96-0.496,1.696
					v12.227h-4.676V192.903z"/>
				<path fill="#5E5E5E" d="M129.799,209.331c-0.27,0.847-0.711,1.44-1.326,1.78c-0.615,0.339-1.377,0.509-2.289,0.509
					c-0.67,0-1.257-0.13-1.759-0.39c-0.502-0.261-0.896-0.612-1.18-1.055c-0.284-0.441-0.493-0.916-0.627-1.423
					c-0.136-0.508-0.203-1.04-0.203-1.599c0-0.633,0.065-1.218,0.195-1.759c0.13-0.54,0.294-1.016,0.495-1.43
					c0.2-0.414,0.479-0.812,0.837-1.193c0.358-0.382,0.707-0.706,1.047-0.971c0.339-0.265,0.774-0.54,1.305-0.823
					c0.53-0.284,1.004-0.521,1.423-0.712c0.418-0.191,0.944-0.416,1.577-0.677v-1.535c0-0.642-0.08-1.121-0.238-1.438
					c-0.158-0.316-0.428-0.475-0.809-0.475c-0.261,0-0.473,0.054-0.635,0.161c-0.164,0.107-0.277,0.268-0.342,0.482
					c-0.065,0.214-0.107,0.407-0.125,0.579c-0.019,0.172-0.028,0.402-0.028,0.691v1.033h-4.564c0-2.094,0.525-3.701,1.577-4.823
					c1.052-1.121,2.578-1.682,4.578-1.682c1.396,0,2.619,0.507,3.67,1.521c1.052,1.015,1.578,2.219,1.578,3.615v8.654
					c0,1.498,0.2,3.113,0.6,4.844h-4.299L129.799,209.331z M129.296,202.618c-1.535,1.237-2.303,2.605-2.303,4.103
					c0,0.373,0.072,0.692,0.216,0.957c0.144,0.265,0.389,0.397,0.733,0.397c0.195,0,0.387-0.063,0.578-0.188
					c0.19-0.125,0.329-0.235,0.412-0.328c0.084-0.093,0.209-0.246,0.377-0.46L129.296,202.618z"/>
				<path fill="#5E5E5E" d="M137.197,196.043h-1.062v-3.141h1.062v-0.027c0.009-0.493,0.032-0.954,0.069-1.382
					c0.038-0.428,0.105-0.884,0.204-1.368c0.096-0.484,0.241-0.9,0.432-1.249c0.191-0.349,0.431-0.672,0.719-0.97
					c0.288-0.297,0.656-0.523,1.103-0.677c0.447-0.153,0.958-0.23,1.535-0.23c0.884,0,1.87,0.065,2.959,0.196v3.517l-1.228-0.084
					c-0.391,0-0.67,0.11-0.837,0.328c-0.167,0.218-0.251,0.616-0.251,1.193v0.753h2.275v3.141H141.9v15.172h-4.703V196.043z"/>
				<path fill="#5E5E5E" d="M146.227,196.043h-1.061v-3.141h1.061v-0.027c0.009-0.493,0.033-0.954,0.07-1.382
					c0.037-0.428,0.104-0.884,0.203-1.368c0.097-0.484,0.241-0.9,0.432-1.249c0.191-0.349,0.431-0.672,0.719-0.97
					c0.289-0.297,0.656-0.523,1.103-0.677c0.447-0.153,0.958-0.23,1.535-0.23c0.884,0,1.871,0.065,2.96,0.196v3.517l-1.229-0.084
					c-0.391,0-0.67,0.11-0.837,0.328c-0.167,0.218-0.251,0.616-0.251,1.193v0.753h2.276v3.141h-2.276v15.172h-4.704V196.043z"/>
				<path fill="#5E5E5E" d="M154.629,186.916h4.704v4.396h-4.704V186.916z M154.629,192.903h4.704v18.313h-4.704V192.903z"/>
				<path fill="#5E5E5E" d="M161.762,198.737c0-1.936,0.461-3.445,1.382-4.529c0.922-1.084,2.327-1.626,4.215-1.626
					c1.898,0,3.305,0.54,4.222,1.619c0.917,1.08,1.375,2.592,1.375,4.536v1.591h-4.62v-2.08c0-0.726-0.062-1.258-0.189-1.598
					c-0.125-0.34-0.388-0.51-0.788-0.51c-0.596,0-0.894,0.461-0.894,1.382v9.017c0,1.023,0.298,1.535,0.894,1.535
					c0.224,0,0.402-0.047,0.537-0.14s0.232-0.251,0.293-0.474c0.061-0.224,0.1-0.454,0.119-0.691
					c0.019-0.237,0.028-0.57,0.028-0.998v-1.94h4.62v2.722c0,1.005-0.261,1.901-0.781,2.688c-0.521,0.785-1.206,1.378-2.052,1.778
					c-0.847,0.401-1.768,0.601-2.764,0.601c-1.535,0-2.852-0.468-3.95-1.402c-1.098-0.935-1.647-2.157-1.647-3.664V198.737z"/>
				<path fill="#5E5E5E" d="M177.883,192.903h3.922l1.452,11.334l1.508-11.334h3.545l1.368,11.557l1.591-11.557h3.629l-2.693,18.313
					h-4.048l-1.716-10.761l-1.843,10.761h-4.048L177.883,192.903z"/>
				<path fill="#5E5E5E" d="M196.615,186.916h4.704v4.396h-4.704V186.916z M196.615,192.903h4.704v18.313h-4.704V192.903z"/>
				<path fill="#5E5E5E" d="M204.292,196.043h-1.34v-3.141h1.34v-5.89h4.704v5.89h2.261v3.141h-2.261v10.05
					c0,0.502,0.093,0.876,0.279,1.123c0.186,0.247,0.517,0.37,0.991,0.37c0.54,0,0.996-0.028,1.368-0.083l-0.278,3.643
					c-0.615,0.186-1.513,0.279-2.694,0.279c-0.549,0-1.045-0.065-1.487-0.195c-0.441-0.13-0.814-0.305-1.116-0.524
					c-0.302-0.218-0.563-0.495-0.781-0.83c-0.219-0.335-0.391-0.677-0.516-1.026c-0.126-0.349-0.224-0.756-0.294-1.221
					c-0.069-0.465-0.116-0.898-0.14-1.298c-0.023-0.4-0.034-0.856-0.034-1.368V196.043z"/>
				<path fill="#5E5E5E" d="M213.294,186.092h4.704v8.207c0.456-0.512,0.998-0.926,1.625-1.242c0.629-0.317,1.278-0.475,1.948-0.475
					c0.643,0,1.216,0.205,1.724,0.615c0.506,0.409,0.883,0.912,1.13,1.507c0.246,0.595,0.37,1.209,0.37,1.842v14.669h-4.703v-13.441
					c0-0.037,0.001-0.119,0.006-0.244s0.005-0.229,0-0.307c-0.005-0.079-0.01-0.182-0.013-0.307
					c-0.006-0.126-0.021-0.227-0.05-0.301c-0.027-0.075-0.064-0.153-0.111-0.237c-0.047-0.084-0.11-0.145-0.189-0.182
					c-0.078-0.038-0.174-0.056-0.286-0.056c-0.187,0-0.387,0.075-0.6,0.224c-0.214,0.149-0.368,0.274-0.46,0.377
					c-0.093,0.102-0.224,0.251-0.391,0.446v14.028h-4.704V186.092z"/>
				<path fill="#5E5E5E" d="M227.35,186.916h4.704v4.396h-4.704V186.916z M227.35,192.903h4.704v18.313h-4.704V192.903z"/>
				<path fill="#5E5E5E" d="M234.706,192.903h4.704v1.382c0.447-0.512,0.983-0.921,1.612-1.228c0.627-0.308,1.281-0.461,1.96-0.461
					c0.512,0,0.968,0.121,1.368,0.363s0.737,0.551,1.011,0.928c0.274,0.376,0.484,0.801,0.629,1.27
					c0.144,0.47,0.216,0.929,0.216,1.375v14.684h-4.704v-13.86c0-0.81-0.26-1.215-0.782-1.215c-0.111,0-0.229,0.029-0.356,0.084
					c-0.125,0.056-0.234,0.125-0.327,0.209l-0.293,0.279c-0.056,0.056-0.098,0.1-0.125,0.132c-0.028,0.033-0.098,0.114-0.209,0.245
					v14.125h-4.704V192.903z"/>
				<path fill="#5E5E5E" d="M103.949,224.628h-1.34v-3.14h1.34v-5.89h4.704v5.89h2.261v3.14h-2.261v10.05
					c0,0.502,0.093,0.876,0.278,1.124c0.187,0.247,0.517,0.37,0.992,0.37c0.54,0,0.996-0.028,1.368-0.084l-0.279,3.643
					c-0.614,0.186-1.512,0.279-2.694,0.279c-0.549,0-1.045-0.064-1.486-0.195c-0.443-0.131-0.815-0.305-1.117-0.523
					c-0.303-0.219-0.563-0.496-0.781-0.831c-0.219-0.335-0.391-0.676-0.516-1.026c-0.126-0.349-0.223-0.756-0.293-1.221
					c-0.069-0.465-0.116-0.897-0.14-1.298c-0.023-0.4-0.035-0.856-0.035-1.368V224.628z"/>
				<path fill="#5E5E5E" d="M112.952,214.677h4.704v8.208c0.456-0.512,0.999-0.926,1.626-1.242c0.629-0.316,1.277-0.475,1.948-0.475
					c0.642,0,1.216,0.205,1.724,0.614c0.506,0.41,0.883,0.912,1.129,1.508c0.247,0.596,0.371,1.209,0.371,1.842V239.8h-4.704
					v-13.441c0-0.037,0.002-0.119,0.007-0.244s0.004-0.228,0-0.307s-0.009-0.181-0.014-0.307c-0.005-0.126-0.021-0.226-0.049-0.3
					c-0.028-0.074-0.065-0.153-0.112-0.237c-0.046-0.083-0.109-0.145-0.189-0.182c-0.079-0.037-0.174-0.056-0.285-0.056
					c-0.187,0-0.386,0.074-0.601,0.223c-0.213,0.149-0.367,0.274-0.46,0.377c-0.094,0.103-0.224,0.251-0.391,0.447V239.8h-4.704
					V214.677z"/>
				<path fill="#5E5E5E" d="M126.756,227.323c0-0.968,0.113-1.833,0.343-2.596c0.227-0.763,0.573-1.408,1.039-1.934
					c0.465-0.525,1.047-0.928,1.745-1.207c0.698-0.279,1.521-0.419,2.47-0.419c0.949,0,1.774,0.137,2.478,0.412
					c0.702,0.274,1.284,0.675,1.744,1.2c0.461,0.526,0.805,1.17,1.033,1.934c0.228,0.763,0.343,1.633,0.343,2.61v3.769h-6.491v4.034
					c0,1.023,0.298,1.536,0.894,1.536c0.651,0,0.977-0.549,0.977-1.647v-1.996h4.62v2.052c0,0.763-0.149,1.459-0.447,2.087
					c-0.298,0.628-0.703,1.167-1.214,1.619c-0.512,0.452-1.107,0.803-1.787,1.054c-0.679,0.251-1.396,0.377-2.149,0.377
					c-0.753,0-1.47-0.125-2.149-0.377s-1.275-0.603-1.787-1.054c-0.512-0.451-0.917-0.993-1.214-1.626
					c-0.298-0.633-0.447-1.326-0.447-2.08V227.323z M133.288,228.621v-2.512c0-0.921-0.312-1.382-0.935-1.382
					c-0.596,0-0.894,0.46-0.894,1.382v2.512H133.288z"/>
				<path fill="#5E5E5E" d="M144.636,224.628h-1.061v-3.14h1.061v-0.028c0.009-0.494,0.033-0.954,0.069-1.382
					c0.038-0.428,0.104-0.884,0.203-1.368c0.097-0.484,0.241-0.9,0.432-1.249c0.191-0.349,0.431-0.673,0.72-0.97
					c0.289-0.298,0.656-0.524,1.102-0.677c0.447-0.153,0.959-0.229,1.536-0.229c0.884,0,1.87,0.064,2.959,0.195v3.517l-1.228-0.083
					c-0.391,0-0.67,0.109-0.838,0.328c-0.167,0.219-0.251,0.617-0.251,1.193v0.754h2.275v3.14h-2.275V239.8h-4.704V224.628z"/>
				<path fill="#5E5E5E" d="M153.039,215.5h4.704v4.396h-4.704V215.5z M153.039,221.488h4.704V239.8h-4.704V221.488z"/>
				<path fill="#5E5E5E" d="M160.394,221.488h4.676v1.577c0.716-1.163,1.554-1.745,2.513-1.745c0.27,0,0.693,0.046,1.271,0.14
					l-0.28,3.964c-0.856-0.093-1.373-0.14-1.549-0.14c-0.643,0-1.128,0.198-1.458,0.594c-0.331,0.396-0.496,0.961-0.496,1.696V239.8
					h-4.676V221.488z"/>
				<path fill="#5E5E5E" d="M173.361,234.12l0.224,0.656c0.074,0.214,0.165,0.438,0.272,0.67c0.106,0.232,0.234,0.447,0.383,0.642
					s0.316,0.356,0.502,0.481c0.186,0.125,0.4,0.189,0.642,0.189c0.587,0,0.879-0.345,0.879-1.033c0-0.363-0.095-0.712-0.286-1.047
					c-0.191-0.335-0.429-0.656-0.712-0.963c-0.284-0.307-0.588-0.598-0.914-0.872c-0.326-0.274-0.618-0.528-0.879-0.761
					l-0.767-0.656c-0.502-0.428-0.952-0.852-1.348-1.27c-0.396-0.419-0.73-0.845-1.005-1.278c-0.274-0.433-0.484-0.879-0.627-1.339
					c-0.146-0.46-0.217-0.947-0.217-1.458c0-0.81,0.165-1.52,0.496-2.128c0.329-0.61,0.766-1.122,1.312-1.536
					c0.543-0.414,1.173-0.723,1.883-0.928c0.713-0.205,1.445-0.307,2.199-0.307c0.708,0,1.361,0.145,1.961,0.433
					c0.601,0.289,1.14,0.67,1.619,1.145c0.479,0.474,0.891,1.019,1.235,1.633c0.345,0.614,0.61,1.242,0.796,1.884l-3.378,1.158
					l-0.279-0.684c-0.243-0.585-0.534-1.07-0.873-1.451c-0.34-0.381-0.747-0.596-1.221-0.642c-0.326,0-0.58,0.116-0.76,0.349
					c-0.183,0.233-0.273,0.498-0.273,0.796c0,0.418,0.225,0.877,0.676,1.375s1.073,1.081,1.864,1.751l0.865,0.768
					c0.438,0.391,0.854,0.798,1.25,1.221c0.395,0.424,0.744,0.866,1.046,1.327c0.302,0.46,0.542,0.93,0.719,1.41
					c0.177,0.479,0.265,0.969,0.265,1.472c0,0.726-0.139,1.4-0.418,2.023c-0.28,0.624-0.662,1.161-1.145,1.612
					c-0.484,0.451-1.05,0.805-1.696,1.061c-0.647,0.255-1.333,0.384-2.059,0.384c-0.708,0-1.373-0.117-1.996-0.349
					s-1.187-0.561-1.689-0.984c-0.502-0.423-0.938-0.928-1.306-1.514c-0.367-0.586-0.648-1.238-0.844-1.955L173.361,234.12z"/>
				<path fill="#5E5E5E" d="M182.88,224.628h-1.34v-3.14h1.34v-5.89h4.705v5.89h2.261v3.14h-2.261v10.05
					c0,0.502,0.093,0.876,0.279,1.124c0.186,0.247,0.517,0.37,0.991,0.37c0.54,0,0.996-0.028,1.368-0.084l-0.279,3.643
					c-0.614,0.186-1.513,0.279-2.694,0.279c-0.549,0-1.045-0.064-1.487-0.195c-0.442-0.131-0.814-0.305-1.117-0.523
					c-0.302-0.219-0.563-0.496-0.781-0.831c-0.219-0.335-0.391-0.676-0.516-1.026c-0.127-0.349-0.224-0.756-0.294-1.221
					c-0.068-0.465-0.116-0.897-0.139-1.298c-0.024-0.4-0.035-0.856-0.035-1.368V224.628z"/>
				<path fill="#5E5E5E" d="M195.763,221.488h4.704v1.396c0.438-0.512,0.958-0.926,1.563-1.242s1.228-0.475,1.87-0.475
					c0.605,0,1.163,0.196,1.675,0.586c0.512,0.391,0.897,0.879,1.158,1.466c0.456-0.614,1.017-1.11,1.682-1.487
					c0.665-0.377,1.37-0.565,2.114-0.565c0.642,0,1.219,0.205,1.731,0.614c0.512,0.41,0.895,0.914,1.152,1.514
					c0.255,0.601,0.384,1.212,0.384,1.836V239.8h-4.704v-13.734c0-0.167-0.005-0.305-0.014-0.412
					c-0.01-0.106-0.033-0.244-0.07-0.411c-0.038-0.168-0.107-0.295-0.21-0.384c-0.102-0.089-0.232-0.132-0.391-0.132
					c-0.335,0-0.763,0.344-1.284,1.033V239.8h-4.704v-13.762c0-0.875-0.214-1.312-0.642-1.312c-0.354,0-0.796,0.349-1.326,1.047
					l0.014,14.027h-4.704V221.488z"/>
				<path fill="#5E5E5E" d="M216.1,227.323c0-0.968,0.111-1.831,0.335-2.589c0.223-0.759,0.568-1.4,1.033-1.926
					s1.053-0.928,1.766-1.207c0.711-0.279,1.556-0.419,2.534-0.419c0.977,0,1.824,0.137,2.54,0.412
					c0.717,0.274,1.312,0.674,1.786,1.2c0.475,0.526,0.828,1.168,1.061,1.927c0.232,0.758,0.349,1.626,0.349,2.603v7.746
					c0,0.763-0.153,1.459-0.46,2.087c-0.307,0.628-0.722,1.167-1.242,1.619c-0.521,0.452-1.129,0.803-1.821,1.054
					c-0.694,0.251-1.431,0.377-2.212,0.377c-0.735,0-1.444-0.117-2.13-0.349c-0.683-0.232-1.286-0.57-1.807-1.012
					c-0.521-0.442-0.94-0.982-1.257-1.619c-0.316-0.638-0.474-1.356-0.474-2.157V227.323z M222.841,226.108
					c0-0.921-0.358-1.382-1.074-1.382c-0.643,0-0.963,0.46-0.963,1.382v9.017c0,0.167,0.006,0.342,0.021,0.523
					c0.014,0.182,0.05,0.347,0.112,0.496c0.06,0.149,0.155,0.271,0.286,0.369c0.131,0.098,0.312,0.147,0.545,0.147
					c0.716,0,1.074-0.513,1.074-1.536V226.108z"/>
				<path fill="#5E5E5E" d="M229.904,221.488h4.704v1.382c0.447-0.512,0.983-0.921,1.612-1.228c0.627-0.307,1.281-0.461,1.96-0.461
					c0.512,0,0.968,0.121,1.368,0.363c0.4,0.242,0.737,0.551,1.011,0.928c0.275,0.376,0.484,0.801,0.629,1.27
					c0.143,0.47,0.216,0.928,0.216,1.375V239.8h-4.704v-13.859c0-0.81-0.261-1.214-0.782-1.214c-0.111,0-0.229,0.027-0.356,0.083
					c-0.125,0.056-0.234,0.125-0.327,0.209l-0.293,0.279c-0.055,0.056-0.097,0.1-0.125,0.132c-0.027,0.033-0.097,0.114-0.209,0.245
					V239.8h-4.704V221.488z"/>
				<path fill="#5E5E5E" d="M244.252,224.628h-1.339v-3.14h1.339v-5.89h4.704v5.89h2.261v3.14h-2.261v10.05
					c0,0.502,0.093,0.876,0.279,1.124c0.186,0.247,0.516,0.37,0.991,0.37c0.54,0,0.996-0.028,1.368-0.084l-0.279,3.643
					c-0.614,0.186-1.512,0.279-2.694,0.279c-0.549,0-1.044-0.064-1.487-0.195c-0.441-0.131-0.814-0.305-1.116-0.523
					c-0.303-0.219-0.564-0.496-0.782-0.831c-0.218-0.335-0.391-0.676-0.515-1.026c-0.127-0.349-0.224-0.756-0.294-1.221
					c-0.069-0.465-0.117-0.897-0.139-1.298c-0.023-0.4-0.035-0.856-0.035-1.368V224.628z"/>
				<path fill="#5E5E5E" d="M253.255,214.677h4.705v8.208c0.456-0.512,0.998-0.926,1.626-1.242c0.628-0.316,1.277-0.475,1.946-0.475
					c0.643,0,1.216,0.205,1.725,0.614c0.506,0.41,0.882,0.912,1.129,1.508c0.247,0.596,0.37,1.209,0.37,1.842V239.8h-4.704v-13.441
					c0-0.037,0.002-0.119,0.007-0.244c0.004-0.125,0.004-0.228,0-0.307c-0.005-0.079-0.009-0.181-0.013-0.307
					c-0.006-0.126-0.021-0.226-0.049-0.3s-0.065-0.153-0.111-0.237c-0.047-0.083-0.11-0.145-0.189-0.182
					c-0.08-0.037-0.174-0.056-0.286-0.056c-0.186,0-0.386,0.074-0.6,0.223s-0.368,0.274-0.461,0.377
					c-0.093,0.103-0.223,0.251-0.39,0.447V239.8h-4.705V214.677z"/>
				<path fill="#5E5E5E" d="M114.389,266.502c-0.27,0.847-0.712,1.439-1.326,1.779c-0.614,0.339-1.377,0.509-2.29,0.509
					c-0.669,0-1.256-0.13-1.759-0.391c-0.502-0.261-0.896-0.612-1.18-1.054c-0.284-0.442-0.493-0.917-0.627-1.424
					c-0.136-0.508-0.203-1.04-0.203-1.598c0-0.633,0.065-1.219,0.195-1.759c0.131-0.54,0.295-1.017,0.495-1.431
					c0.2-0.414,0.479-0.812,0.837-1.193c0.359-0.382,0.708-0.705,1.048-0.97c0.339-0.265,0.774-0.54,1.305-0.824
					s1.005-0.521,1.424-0.712c0.419-0.191,0.944-0.416,1.577-0.677v-1.535c0-0.642-0.079-1.121-0.237-1.438
					c-0.158-0.317-0.428-0.475-0.81-0.475c-0.26,0-0.473,0.054-0.635,0.161c-0.164,0.107-0.277,0.268-0.342,0.481
					c-0.065,0.214-0.107,0.407-0.126,0.579c-0.018,0.172-0.027,0.402-0.027,0.691v1.033h-4.564c0-2.094,0.525-3.701,1.577-4.822
					c1.052-1.122,2.578-1.683,4.578-1.683c1.396,0,2.62,0.508,3.671,1.522c1.052,1.015,1.577,2.219,1.577,3.615v8.653
					c0,1.498,0.2,3.113,0.601,4.843h-4.299L114.389,266.502z M113.887,259.788c-1.536,1.238-2.303,2.606-2.303,4.104
					c0,0.372,0.071,0.69,0.216,0.956c0.144,0.265,0.389,0.398,0.733,0.398c0.196,0,0.388-0.063,0.579-0.188
					c0.19-0.125,0.329-0.235,0.412-0.327c0.083-0.094,0.209-0.248,0.376-0.461L113.887,259.788z"/>
				<path fill="#5E5E5E" d="M121.787,253.214h-1.061v-3.141h1.061v-0.027c0.01-0.494,0.033-0.954,0.07-1.382
					c0.037-0.427,0.104-0.884,0.203-1.368c0.097-0.484,0.241-0.901,0.432-1.25c0.19-0.349,0.431-0.672,0.72-0.97
					c0.288-0.298,0.656-0.523,1.102-0.677c0.447-0.154,0.958-0.231,1.536-0.231c0.884,0,1.87,0.065,2.959,0.196v3.518l-1.228-0.084
					c-0.392,0-0.67,0.109-0.838,0.328c-0.168,0.219-0.251,0.617-0.251,1.193v0.754h2.275v3.141h-2.275v15.172h-4.704V253.214z"/>
				<path fill="#5E5E5E" d="M130.483,253.214h-1.341v-3.141h1.341v-5.89h4.704v5.89h2.261v3.141h-2.261v10.05
					c0,0.502,0.093,0.877,0.279,1.123c0.186,0.247,0.516,0.37,0.99,0.37c0.541,0,0.996-0.027,1.369-0.083l-0.279,3.643
					c-0.614,0.186-1.512,0.279-2.694,0.279c-0.549,0-1.045-0.065-1.487-0.195c-0.441-0.131-0.814-0.305-1.117-0.523
					c-0.302-0.219-0.563-0.496-0.781-0.831c-0.218-0.334-0.391-0.676-0.515-1.025c-0.127-0.35-0.224-0.757-0.295-1.222
					c-0.068-0.465-0.116-0.897-0.139-1.298c-0.023-0.4-0.034-0.856-0.034-1.368V253.214z"/>
				<path fill="#5E5E5E" d="M139.262,255.908c0-0.968,0.114-1.834,0.343-2.597c0.227-0.763,0.574-1.407,1.04-1.933
					c0.465-0.526,1.046-0.928,1.745-1.208c0.698-0.279,1.521-0.419,2.47-0.419s1.774,0.138,2.478,0.412
					c0.702,0.274,1.284,0.675,1.744,1.2c0.461,0.526,0.805,1.171,1.033,1.934c0.228,0.763,0.342,1.633,0.342,2.61v3.769h-6.49v4.033
					c0,1.023,0.298,1.535,0.893,1.535c0.651,0,0.977-0.548,0.977-1.646v-1.996h4.62v2.052c0,0.763-0.148,1.458-0.446,2.087
					c-0.297,0.628-0.703,1.167-1.214,1.619c-0.512,0.452-1.107,0.803-1.787,1.054c-0.679,0.251-1.396,0.376-2.149,0.376
					c-0.753,0-1.47-0.125-2.149-0.376c-0.68-0.251-1.275-0.603-1.787-1.054c-0.512-0.451-0.917-0.994-1.214-1.626
					c-0.298-0.633-0.447-1.326-0.447-2.08V255.908z M145.794,257.206v-2.512c0-0.921-0.312-1.382-0.936-1.382
					c-0.595,0-0.893,0.46-0.893,1.382v2.512H145.794z"/>
				<path fill="#5E5E5E" d="M152.606,250.073h4.676v1.578c0.716-1.164,1.554-1.745,2.512-1.745c0.27,0,0.693,0.047,1.27,0.14
					l-0.279,3.964c-0.855-0.093-1.372-0.14-1.548-0.14c-0.643,0-1.129,0.197-1.459,0.593c-0.332,0.396-0.496,0.961-0.496,1.696
					v12.227h-4.676V250.073z"/>
				<path fill="#5E5E5E" d="M166.479,243.262h4.704v25.124h-4.704V243.262z"/>
				<path fill="#5E5E5E" d="M180.716,266.502c-0.27,0.847-0.711,1.439-1.326,1.779c-0.614,0.339-1.377,0.509-2.289,0.509
					c-0.67,0-1.256-0.13-1.759-0.391c-0.502-0.261-0.896-0.612-1.18-1.054c-0.284-0.442-0.493-0.917-0.627-1.424
					c-0.136-0.508-0.203-1.04-0.203-1.598c0-0.633,0.065-1.219,0.195-1.759c0.13-0.54,0.295-1.017,0.495-1.431
					c0.2-0.414,0.479-0.812,0.837-1.193c0.358-0.382,0.707-0.705,1.048-0.97c0.338-0.265,0.774-0.54,1.304-0.824
					c0.531-0.284,1.005-0.521,1.424-0.712c0.418-0.191,0.945-0.416,1.577-0.677v-1.535c0-0.642-0.079-1.121-0.237-1.438
					c-0.159-0.317-0.428-0.475-0.81-0.475c-0.261,0-0.472,0.054-0.634,0.161c-0.164,0.107-0.277,0.268-0.343,0.481
					c-0.065,0.214-0.106,0.407-0.125,0.579c-0.019,0.172-0.028,0.402-0.028,0.691v1.033h-4.564c0-2.094,0.526-3.701,1.578-4.822
					c1.051-1.122,2.577-1.683,4.578-1.683c1.396,0,2.62,0.508,3.671,1.522c1.051,1.015,1.577,2.219,1.577,3.615v8.653
					c0,1.498,0.2,3.113,0.6,4.843h-4.299L180.716,266.502z M180.214,259.788c-1.535,1.238-2.303,2.606-2.303,4.104
					c0,0.372,0.072,0.69,0.216,0.956s0.389,0.398,0.733,0.398c0.195,0,0.388-0.063,0.579-0.188c0.191-0.125,0.328-0.235,0.412-0.327
					c0.084-0.094,0.21-0.248,0.377-0.461L180.214,259.788z"/>
				<path fill="#5E5E5E" d="M187.361,250.073h4.704v13.637c0,1.023,0.214,1.535,0.642,1.535c0.419,0,0.908-0.344,1.466-1.033
					v-14.139h4.704v18.312h-4.704v-1.577c-0.474,0.577-1.028,1.052-1.661,1.424c-0.633,0.372-1.275,0.558-1.926,0.558
					c-0.958,0-1.735-0.407-2.331-1.221c-0.595-0.814-0.893-1.72-0.893-2.715V250.073z"/>
				<path fill="#5E5E5E" d="M201.5,250.073h4.704v1.382c0.447-0.512,0.983-0.921,1.612-1.228c0.627-0.307,1.281-0.461,1.961-0.461
					c0.512,0,0.967,0.121,1.367,0.363c0.401,0.242,0.737,0.551,1.012,0.928c0.275,0.377,0.484,0.8,0.629,1.27
					c0.144,0.47,0.216,0.929,0.216,1.375v14.684h-4.703v-13.86c0-0.81-0.261-1.214-0.782-1.214c-0.112,0-0.23,0.028-0.356,0.083
					c-0.125,0.056-0.234,0.125-0.327,0.209l-0.293,0.279c-0.056,0.056-0.098,0.1-0.126,0.133c-0.027,0.033-0.098,0.114-0.209,0.244
					v14.125H201.5V250.073z"/>
				<path fill="#5E5E5E" d="M215.304,255.908c0-1.936,0.46-3.446,1.381-4.53c0.921-1.084,2.326-1.626,4.216-1.626
					c1.898,0,3.305,0.541,4.222,1.62s1.375,2.591,1.375,4.537v1.591h-4.62v-2.08c0-0.726-0.062-1.259-0.189-1.599
					c-0.124-0.339-0.387-0.509-0.788-0.509c-0.596,0-0.893,0.46-0.893,1.382v9.017c0,1.023,0.297,1.535,0.893,1.535
					c0.223,0,0.402-0.047,0.537-0.139c0.135-0.093,0.232-0.251,0.294-0.475c0.06-0.223,0.1-0.453,0.118-0.691
					c0.018-0.237,0.028-0.57,0.028-0.998v-1.94h4.62v2.721c0,1.006-0.261,1.901-0.782,2.687c-0.521,0.787-1.206,1.379-2.052,1.78
					c-0.847,0.4-1.768,0.6-2.764,0.6c-1.536,0-2.853-0.467-3.951-1.403c-1.098-0.935-1.646-2.157-1.646-3.664V255.908z"/>
				<path fill="#5E5E5E" d="M228.48,243.262h4.704v8.207c0.456-0.512,0.999-0.926,1.625-1.242c0.629-0.316,1.278-0.475,1.948-0.475
					c0.642,0,1.216,0.205,1.725,0.615c0.506,0.409,0.883,0.912,1.129,1.508c0.247,0.595,0.371,1.209,0.371,1.842v14.669h-4.704
					v-13.441c0-0.037,0.001-0.119,0.007-0.245c0.004-0.125,0.004-0.228,0-0.307c-0.005-0.079-0.01-0.182-0.013-0.308
					c-0.006-0.125-0.021-0.226-0.049-0.3c-0.028-0.074-0.066-0.153-0.112-0.237c-0.047-0.083-0.11-0.145-0.189-0.181
					c-0.08-0.038-0.174-0.056-0.286-0.056c-0.186,0-0.386,0.075-0.6,0.224c-0.214,0.149-0.368,0.274-0.461,0.377
					c-0.093,0.102-0.224,0.251-0.391,0.446v14.027h-4.704V243.262z"/>
			</g>
			<g>
				<path fill="#828282" d="M104.181,157.159h5.081v25.124h-5.081V157.159z"/>
				<path fill="#828282" d="M112.068,163.97h4.703v1.382c0.447-0.512,0.984-0.921,1.612-1.229c0.628-0.308,1.282-0.46,1.961-0.46
					c0.512,0,0.968,0.121,1.368,0.363c0.401,0.242,0.737,0.551,1.012,0.928c0.274,0.376,0.484,0.8,0.629,1.27
					c0.144,0.47,0.216,0.928,0.216,1.375v14.684h-4.704v-13.86c0-0.81-0.261-1.215-0.782-1.215c-0.111,0-0.23,0.028-0.356,0.084
					c-0.125,0.056-0.235,0.125-0.328,0.209l-0.293,0.279c-0.056,0.056-0.098,0.1-0.125,0.133s-0.098,0.114-0.209,0.244v14.125
					h-4.703V163.97z"/>
				<path fill="#828282" d="M125.872,169.805c0-1.936,0.461-3.445,1.382-4.529c0.922-1.084,2.327-1.626,4.215-1.626
					c1.898,0,3.305,0.54,4.222,1.619c0.917,1.079,1.375,2.592,1.375,4.536v1.591h-4.62v-2.08c0-0.726-0.062-1.258-0.189-1.597
					c-0.125-0.34-0.388-0.51-0.788-0.51c-0.596,0-0.894,0.461-0.894,1.382v9.017c0,1.024,0.298,1.536,0.894,1.536
					c0.224,0,0.402-0.047,0.537-0.14s0.232-0.251,0.293-0.474c0.061-0.224,0.1-0.454,0.119-0.692
					c0.019-0.236,0.028-0.569,0.028-0.998v-1.94h4.62v2.721c0,1.005-0.261,1.901-0.782,2.687c-0.521,0.786-1.205,1.379-2.052,1.779
					c-0.846,0.401-1.768,0.601-2.764,0.601c-1.535,0-2.852-0.468-3.95-1.403c-1.098-0.935-1.647-2.156-1.647-3.664V169.805z"/>
				<path fill="#828282" d="M139.048,163.97h4.676v1.578c0.716-1.164,1.554-1.745,2.512-1.745c0.271,0,0.693,0.046,1.271,0.14
					l-0.279,3.963c-0.857-0.093-1.373-0.139-1.549-0.139c-0.642,0-1.129,0.198-1.458,0.593c-0.332,0.396-0.497,0.96-0.497,1.696
					v12.227h-4.676V163.97z"/>
				<path fill="#828282" d="M148.79,169.805c0-0.968,0.114-1.833,0.343-2.596c0.227-0.763,0.574-1.407,1.039-1.933
					c0.465-0.526,1.047-0.928,1.745-1.208c0.698-0.279,1.522-0.418,2.471-0.418c0.949,0,1.774,0.137,2.478,0.412
					c0.702,0.274,1.285,0.674,1.744,1.2c0.462,0.525,0.805,1.17,1.033,1.933c0.228,0.763,0.342,1.634,0.342,2.61v3.769h-6.491v4.034
					c0,1.024,0.298,1.536,0.894,1.536c0.651,0,0.978-0.549,0.978-1.647V175.5h4.62v2.052c0,0.763-0.149,1.458-0.447,2.086
					c-0.298,0.627-0.702,1.168-1.214,1.619c-0.512,0.452-1.107,0.803-1.786,1.054c-0.679,0.252-1.396,0.377-2.15,0.377
					c-0.753,0-1.47-0.125-2.149-0.377c-0.68-0.251-1.275-0.602-1.788-1.054c-0.512-0.451-0.917-0.993-1.214-1.626
					s-0.447-1.326-0.447-2.079V169.805z M155.323,171.103v-2.513c0-0.921-0.312-1.382-0.935-1.382c-0.596,0-0.894,0.461-0.894,1.382
					v2.513H155.323z"/>
				<path fill="#828282" d="M169.016,180.398c-0.27,0.847-0.712,1.44-1.326,1.78c-0.614,0.339-1.377,0.509-2.289,0.509
					c-0.67,0-1.256-0.13-1.759-0.391c-0.502-0.261-0.896-0.611-1.18-1.054c-0.284-0.441-0.494-0.917-0.627-1.423
					c-0.136-0.508-0.203-1.04-0.203-1.599c0-0.633,0.065-1.219,0.195-1.759c0.13-0.54,0.295-1.016,0.495-1.43
					c0.2-0.414,0.479-0.812,0.837-1.194c0.359-0.381,0.708-0.705,1.048-0.97c0.339-0.265,0.774-0.54,1.305-0.823
					s1.004-0.521,1.423-0.712c0.419-0.191,0.944-0.416,1.577-0.677v-1.536c0-0.642-0.079-1.121-0.237-1.438
					c-0.158-0.316-0.428-0.475-0.81-0.475c-0.26,0-0.473,0.053-0.635,0.161c-0.163,0.107-0.277,0.268-0.342,0.482
					c-0.065,0.214-0.107,0.407-0.126,0.579c-0.018,0.172-0.028,0.403-0.028,0.691v1.033h-4.564c0-2.094,0.525-3.701,1.577-4.823
					c1.052-1.121,2.578-1.682,4.578-1.682c1.396,0,2.62,0.507,3.671,1.521s1.577,2.219,1.577,3.615v8.654
					c0,1.498,0.2,3.113,0.601,4.844h-4.299L169.016,180.398z M168.513,173.685c-1.535,1.237-2.303,2.605-2.303,4.103
					c0,0.373,0.071,0.691,0.216,0.957c0.144,0.265,0.388,0.397,0.733,0.397c0.195,0,0.388-0.063,0.579-0.188
					c0.191-0.125,0.329-0.235,0.413-0.328c0.083-0.093,0.209-0.246,0.376-0.46L168.513,173.685z"/>
				<path fill="#828282" d="M178.757,176.602l0.224,0.656c0.074,0.214,0.165,0.438,0.272,0.67c0.106,0.232,0.235,0.446,0.383,0.642
					c0.149,0.195,0.317,0.356,0.503,0.481c0.187,0.126,0.4,0.188,0.642,0.188c0.586,0,0.879-0.344,0.879-1.033
					c0-0.363-0.096-0.712-0.285-1.047c-0.192-0.335-0.429-0.656-0.713-0.963c-0.283-0.307-0.588-0.598-0.914-0.872
					c-0.325-0.274-0.619-0.528-0.879-0.761l-0.767-0.655c-0.502-0.428-0.952-0.852-1.347-1.271
					c-0.396-0.418-0.731-0.844-1.006-1.277c-0.274-0.433-0.483-0.879-0.627-1.339c-0.145-0.461-0.217-0.947-0.217-1.459
					c0-0.81,0.165-1.519,0.496-2.129c0.329-0.609,0.767-1.121,1.312-1.535c0.544-0.414,1.173-0.723,1.884-0.928
					c0.713-0.205,1.445-0.307,2.198-0.307c0.708,0,1.362,0.144,1.961,0.433c0.602,0.288,1.141,0.67,1.62,1.145
					c0.479,0.475,0.891,1.019,1.236,1.633c0.344,0.614,0.609,1.243,0.795,1.884l-3.378,1.159l-0.279-0.685
					c-0.242-0.585-0.533-1.069-0.872-1.451c-0.34-0.381-0.747-0.595-1.221-0.642c-0.326,0-0.58,0.117-0.76,0.349
					c-0.182,0.232-0.273,0.498-0.273,0.796c0,0.418,0.226,0.877,0.677,1.375c0.451,0.498,1.073,1.081,1.863,1.751l0.866,0.768
					c0.438,0.391,0.854,0.798,1.25,1.221c0.394,0.423,0.743,0.865,1.045,1.326c0.303,0.461,0.543,0.931,0.719,1.41
					c0.177,0.479,0.266,0.97,0.266,1.472c0,0.726-0.14,1.401-0.419,2.024c-0.279,0.624-0.661,1.161-1.145,1.612
					c-0.484,0.452-1.049,0.806-1.695,1.061c-0.648,0.256-1.334,0.384-2.06,0.384c-0.708,0-1.373-0.116-1.996-0.349
					c-0.624-0.233-1.187-0.561-1.689-0.984c-0.502-0.423-0.938-0.929-1.305-1.515c-0.368-0.586-0.649-1.237-0.844-1.954
					L178.757,176.602z"/>
				<path fill="#828282" d="M187.733,169.805c0-0.968,0.113-1.833,0.342-2.596c0.228-0.763,0.575-1.407,1.04-1.933
					c0.465-0.526,1.046-0.928,1.744-1.208c0.698-0.279,1.521-0.418,2.471-0.418s1.774,0.137,2.478,0.412
					c0.701,0.274,1.284,0.674,1.744,1.2c0.461,0.525,0.805,1.17,1.033,1.933c0.229,0.763,0.342,1.634,0.342,2.61v3.769h-6.49v4.034
					c0,1.024,0.298,1.536,0.893,1.536c0.651,0,0.977-0.549,0.977-1.647V175.5h4.62v2.052c0,0.763-0.149,1.458-0.446,2.086
					c-0.298,0.627-0.703,1.168-1.214,1.619c-0.512,0.452-1.108,0.803-1.787,1.054c-0.679,0.252-1.396,0.377-2.149,0.377
					c-0.754,0-1.471-0.125-2.15-0.377c-0.679-0.251-1.274-0.602-1.786-1.054c-0.512-0.451-0.917-0.993-1.214-1.626
					s-0.446-1.326-0.446-2.079V169.805z M194.266,171.103v-2.513c0-0.921-0.312-1.382-0.936-1.382c-0.595,0-0.893,0.461-0.893,1.382
					v2.513H194.266z"/>
				<path fill="#828282" d="M204.985,157.983h4.704v4.396h-4.704V157.983z M204.985,163.97h4.704v18.313h-4.704V163.97z"/>
				<path fill="#828282" d="M212.34,163.97h4.704v1.382c0.447-0.512,0.983-0.921,1.612-1.229c0.627-0.308,1.282-0.46,1.961-0.46
					c0.512,0,0.968,0.121,1.367,0.363c0.4,0.242,0.737,0.551,1.012,0.928c0.274,0.376,0.483,0.8,0.629,1.27
					c0.143,0.47,0.216,0.928,0.216,1.375v14.684h-4.705v-13.86c0-0.81-0.26-1.215-0.781-1.215c-0.111,0-0.23,0.028-0.356,0.084
					c-0.125,0.056-0.234,0.125-0.328,0.209l-0.293,0.279c-0.056,0.056-0.098,0.1-0.126,0.133c-0.028,0.033-0.098,0.114-0.209,0.244
					v14.125h-4.704V163.97z"/>
				<path fill="#828282" d="M233.249,176.602l0.224,0.656c0.074,0.214,0.165,0.438,0.272,0.67c0.106,0.232,0.234,0.446,0.383,0.642
					c0.148,0.195,0.316,0.356,0.502,0.481c0.186,0.126,0.4,0.188,0.642,0.188c0.586,0,0.879-0.344,0.879-1.033
					c0-0.363-0.096-0.712-0.285-1.047c-0.192-0.335-0.429-0.656-0.712-0.963s-0.588-0.598-0.914-0.872
					c-0.327-0.274-0.619-0.528-0.879-0.761l-0.768-0.655c-0.503-0.428-0.952-0.852-1.348-1.271c-0.396-0.418-0.73-0.844-1.005-1.277
					c-0.274-0.433-0.484-0.879-0.627-1.339c-0.145-0.461-0.217-0.947-0.217-1.459c0-0.81,0.165-1.519,0.496-2.129
					c0.33-0.609,0.767-1.121,1.312-1.535c0.544-0.414,1.173-0.723,1.884-0.928c0.713-0.205,1.445-0.307,2.199-0.307
					c0.707,0,1.361,0.144,1.961,0.433c0.6,0.288,1.139,0.67,1.619,1.145c0.479,0.475,0.891,1.019,1.236,1.633
					c0.344,0.614,0.609,1.243,0.795,1.884l-3.377,1.159l-0.279-0.685c-0.242-0.585-0.533-1.069-0.872-1.451
					c-0.34-0.381-0.748-0.595-1.222-0.642c-0.326,0-0.58,0.117-0.76,0.349c-0.183,0.232-0.273,0.498-0.273,0.796
					c0,0.418,0.226,0.877,0.676,1.375c0.452,0.498,1.074,1.081,1.864,1.751l0.866,0.768c0.437,0.391,0.853,0.798,1.249,1.221
					c0.395,0.423,0.744,0.865,1.046,1.326c0.302,0.461,0.542,0.931,0.719,1.41c0.177,0.479,0.265,0.97,0.265,1.472
					c0,0.726-0.14,1.401-0.419,2.024c-0.279,0.624-0.661,1.161-1.144,1.612c-0.484,0.452-1.05,0.806-1.696,1.061
					c-0.647,0.256-1.333,0.384-2.059,0.384c-0.708,0-1.373-0.116-1.996-0.349c-0.624-0.233-1.187-0.561-1.689-0.984
					c-0.503-0.423-0.938-0.929-1.306-1.515c-0.367-0.586-0.648-1.237-0.844-1.954L233.249,176.602z"/>
				<path fill="#828282" d="M242.475,157.983h4.704v4.396h-4.704V157.983z M242.475,163.97h4.704v18.313h-4.704V163.97z"/>
				<path fill="#828282" d="M250.152,167.111h-1.34v-3.141h1.34v-5.89h4.703v5.89h2.261v3.141h-2.261v10.049
					c0,0.503,0.094,0.877,0.28,1.124c0.186,0.247,0.517,0.37,0.991,0.37c0.539,0,0.995-0.028,1.368-0.083l-0.28,3.643
					c-0.614,0.186-1.512,0.279-2.693,0.279c-0.549,0-1.046-0.065-1.487-0.195c-0.442-0.13-0.814-0.305-1.117-0.524
					c-0.303-0.218-0.563-0.495-0.782-0.83c-0.218-0.335-0.39-0.677-0.515-1.026c-0.126-0.349-0.223-0.756-0.294-1.221
					c-0.069-0.465-0.116-0.898-0.139-1.298c-0.023-0.4-0.034-0.856-0.034-1.368V167.111z"/>
				<path fill="#828282" d="M258.931,169.805c0-0.968,0.114-1.833,0.343-2.596c0.227-0.763,0.574-1.407,1.04-1.933
					c0.465-0.526,1.047-0.928,1.745-1.208c0.698-0.279,1.521-0.418,2.47-0.418c0.95,0,1.775,0.137,2.478,0.412
					c0.702,0.274,1.284,0.674,1.744,1.2c0.461,0.525,0.804,1.17,1.033,1.933c0.228,0.763,0.342,1.634,0.342,2.61v3.769h-6.49v4.034
					c0,1.024,0.298,1.536,0.893,1.536c0.652,0,0.977-0.549,0.977-1.647V175.5h4.62v2.052c0,0.763-0.149,1.458-0.447,2.086
					c-0.297,0.627-0.703,1.168-1.214,1.619c-0.511,0.452-1.107,0.803-1.786,1.054c-0.679,0.252-1.396,0.377-2.15,0.377
					s-1.47-0.125-2.149-0.377c-0.679-0.251-1.274-0.602-1.787-1.054c-0.512-0.451-0.917-0.993-1.214-1.626
					c-0.298-0.633-0.447-1.326-0.447-2.079V169.805z M265.464,171.103v-2.513c0-0.921-0.312-1.382-0.936-1.382
					c-0.595,0-0.893,0.461-0.893,1.382v2.513H265.464z"/>
				<path fill="#828282" d="M104.321,195.696h-1.34v-3.14h1.34v-5.89h4.704v5.89h2.261v3.14h-2.261v10.05
					c0,0.502,0.093,0.876,0.279,1.123c0.187,0.247,0.517,0.371,0.991,0.371c0.54,0,0.996-0.028,1.368-0.084l-0.279,3.643
					c-0.614,0.186-1.512,0.279-2.693,0.279c-0.549,0-1.045-0.065-1.487-0.195c-0.442-0.13-0.814-0.305-1.116-0.524
					c-0.303-0.219-0.563-0.495-0.782-0.831c-0.219-0.335-0.391-0.676-0.516-1.026c-0.126-0.349-0.224-0.756-0.294-1.221
					c-0.069-0.465-0.116-0.897-0.14-1.298c-0.023-0.4-0.034-0.856-0.034-1.368V195.696z"/>
				<path fill="#828282" d="M113.324,192.556h4.675v1.577c0.717-1.163,1.555-1.745,2.513-1.745c0.27,0,0.693,0.046,1.271,0.14
					l-0.28,3.963c-0.855-0.092-1.373-0.139-1.549-0.139c-0.643,0-1.128,0.197-1.458,0.593c-0.332,0.396-0.497,0.96-0.497,1.696
					v12.227h-4.675V192.556z"/>
				<path fill="#828282" d="M130.171,208.983c-0.27,0.847-0.712,1.44-1.327,1.78c-0.614,0.339-1.377,0.51-2.289,0.51
					c-0.67,0-1.256-0.13-1.758-0.391c-0.503-0.261-0.896-0.612-1.18-1.055c-0.284-0.441-0.493-0.916-0.626-1.423
					c-0.136-0.508-0.204-1.041-0.204-1.598c0-0.633,0.065-1.22,0.196-1.759c0.13-0.54,0.295-1.016,0.495-1.43
					c0.2-0.414,0.479-0.812,0.837-1.193c0.358-0.382,0.707-0.706,1.047-0.971c0.339-0.265,0.774-0.539,1.305-0.823
					c0.531-0.284,1.005-0.521,1.424-0.711c0.419-0.191,0.944-0.417,1.577-0.677v-1.535c0-0.642-0.079-1.121-0.237-1.438
					s-0.428-0.475-0.81-0.475c-0.261,0-0.473,0.054-0.634,0.16c-0.164,0.107-0.278,0.268-0.342,0.482
					c-0.065,0.215-0.107,0.408-0.126,0.58c-0.019,0.171-0.027,0.402-0.027,0.69v1.033h-4.564c0-2.094,0.525-3.701,1.577-4.823
					c1.051-1.121,2.578-1.682,4.578-1.682c1.396,0,2.619,0.508,3.671,1.521c1.052,1.015,1.578,2.219,1.578,3.615v8.653
					c0,1.499,0.2,3.113,0.6,4.844h-4.299L130.171,208.983z M129.668,202.27c-1.536,1.238-2.303,2.605-2.303,4.104
					c0,0.372,0.072,0.691,0.216,0.957c0.145,0.265,0.389,0.397,0.733,0.397c0.196,0,0.388-0.063,0.579-0.188
					c0.191-0.125,0.329-0.235,0.413-0.328c0.084-0.094,0.209-0.247,0.377-0.461L129.668,202.27z"/>
				<path fill="#828282" d="M137.568,195.696h-1.061v-3.14h1.061v-0.028c0.01-0.494,0.033-0.954,0.07-1.382
					c0.038-0.428,0.104-0.884,0.203-1.368c0.097-0.484,0.241-0.9,0.432-1.249c0.191-0.349,0.431-0.673,0.719-0.97
					c0.289-0.298,0.657-0.524,1.104-0.677c0.446-0.153,0.958-0.23,1.535-0.23c0.884,0,1.87,0.065,2.958,0.196v3.517l-1.228-0.084
					c-0.391,0-0.67,0.109-0.837,0.328c-0.167,0.218-0.251,0.616-0.251,1.193v0.754h2.275v3.14h-2.275v15.172h-4.704V195.696z"/>
				<path fill="#828282" d="M146.599,195.696h-1.061v-3.14h1.061v-0.028c0.01-0.494,0.033-0.954,0.07-1.382
					c0.038-0.428,0.104-0.884,0.203-1.368c0.097-0.484,0.241-0.9,0.432-1.249c0.191-0.349,0.431-0.673,0.72-0.97
					c0.288-0.298,0.656-0.524,1.103-0.677c0.446-0.153,0.958-0.23,1.535-0.23c0.884,0,1.87,0.065,2.959,0.196v3.517l-1.228-0.084
					c-0.392,0-0.671,0.109-0.838,0.328c-0.167,0.218-0.251,0.616-0.251,1.193v0.754h2.275v3.14h-2.275v15.172h-4.704V195.696z"/>
				<path fill="#828282" d="M155.002,186.568h4.704v4.396h-4.704V186.568z M155.002,192.556h4.704v18.312h-4.704V192.556z"/>
				<path fill="#828282" d="M162.134,198.39c0-1.936,0.46-3.445,1.382-4.529c0.921-1.084,2.326-1.626,4.215-1.626
					c1.898,0,3.305,0.54,4.222,1.62c0.917,1.079,1.375,2.591,1.375,4.536v1.591h-4.62v-2.08c0-0.726-0.062-1.258-0.188-1.598
					c-0.125-0.339-0.388-0.51-0.788-0.51c-0.596,0-0.894,0.461-0.894,1.382v9.017c0,1.023,0.298,1.535,0.894,1.535
					c0.223,0,0.402-0.047,0.537-0.14c0.135-0.093,0.232-0.251,0.293-0.474c0.06-0.224,0.1-0.454,0.119-0.691
					c0.019-0.237,0.027-0.569,0.027-0.998v-1.94h4.62v2.722c0,1.005-0.26,1.901-0.782,2.687c-0.521,0.787-1.205,1.379-2.051,1.779
					s-1.769,0.601-2.764,0.601c-1.535,0-2.852-0.468-3.95-1.402c-1.098-0.936-1.647-2.157-1.647-3.665V198.39z"/>
				<path fill="#828282" d="M178.255,192.556h3.922l1.452,11.334l1.507-11.334h3.546l1.368,11.557l1.591-11.557h3.629l-2.694,18.312
					h-4.047l-1.717-10.762l-1.843,10.762h-4.047L178.255,192.556z"/>
				<path fill="#828282" d="M196.987,186.568h4.704v4.396h-4.704V186.568z M196.987,192.556h4.704v18.312h-4.704V192.556z"/>
				<path fill="#828282" d="M204.664,195.696h-1.34v-3.14h1.34v-5.89h4.704v5.89h2.261v3.14h-2.261v10.05
					c0,0.502,0.093,0.876,0.279,1.123c0.187,0.247,0.517,0.371,0.992,0.371c0.539,0,0.995-0.028,1.367-0.084l-0.279,3.643
					c-0.614,0.186-1.512,0.279-2.694,0.279c-0.549,0-1.045-0.065-1.486-0.195c-0.442-0.13-0.814-0.305-1.117-0.524
					s-0.563-0.495-0.782-0.831c-0.219-0.335-0.391-0.676-0.516-1.026c-0.126-0.349-0.223-0.756-0.294-1.221
					c-0.068-0.465-0.116-0.897-0.14-1.298c-0.023-0.4-0.034-0.856-0.034-1.368V195.696z"/>
				<path fill="#828282" d="M213.666,185.744h4.704v8.208c0.456-0.512,0.998-0.926,1.625-1.242c0.629-0.317,1.278-0.475,1.948-0.475
					c0.642,0,1.216,0.205,1.724,0.614c0.506,0.41,0.883,0.913,1.13,1.508c0.246,0.595,0.37,1.209,0.37,1.842v14.669h-4.704v-13.441
					c0-0.037,0.002-0.119,0.007-0.244s0.005-0.228,0-0.307s-0.01-0.181-0.013-0.307c-0.006-0.126-0.021-0.226-0.05-0.3
					c-0.028-0.075-0.065-0.154-0.111-0.237c-0.047-0.083-0.109-0.145-0.189-0.182c-0.079-0.038-0.174-0.056-0.285-0.056
					c-0.187,0-0.387,0.075-0.601,0.224s-0.368,0.274-0.46,0.377s-0.223,0.251-0.391,0.447v14.027h-4.704V185.744z"/>
				<path fill="#828282" d="M227.722,186.568h4.704v4.396h-4.704V186.568z M227.722,192.556h4.704v18.312h-4.704V192.556z"/>
				<path fill="#828282" d="M235.078,192.556h4.704v1.382c0.446-0.512,0.983-0.921,1.612-1.228c0.627-0.307,1.282-0.461,1.961-0.461
					c0.512,0,0.968,0.121,1.368,0.363c0.399,0.241,0.736,0.551,1.011,0.928c0.274,0.376,0.484,0.801,0.629,1.27
					c0.143,0.47,0.216,0.928,0.216,1.375v14.684h-4.704v-13.86c0-0.81-0.26-1.215-0.782-1.215c-0.111,0-0.23,0.028-0.356,0.084
					c-0.125,0.056-0.234,0.126-0.328,0.209l-0.293,0.28c-0.056,0.056-0.098,0.1-0.125,0.132c-0.028,0.033-0.098,0.114-0.209,0.245
					v14.125h-4.704V192.556z"/>
				<path fill="#828282" d="M104.321,224.281h-1.34v-3.141h1.34v-5.89h4.704v5.89h2.261v3.141h-2.261v10.05
					c0,0.502,0.093,0.877,0.279,1.123c0.187,0.247,0.517,0.37,0.991,0.37c0.54,0,0.996-0.028,1.368-0.084l-0.279,3.644
					c-0.614,0.186-1.512,0.279-2.693,0.279c-0.549,0-1.045-0.065-1.487-0.195c-0.442-0.131-0.814-0.305-1.116-0.523
					c-0.303-0.219-0.563-0.496-0.782-0.831c-0.219-0.334-0.391-0.676-0.516-1.026c-0.126-0.349-0.224-0.756-0.294-1.221
					c-0.069-0.465-0.116-0.898-0.14-1.298s-0.034-0.856-0.034-1.368V224.281z"/>
				<path fill="#828282" d="M113.324,214.33h4.704v8.207c0.457-0.512,0.999-0.926,1.626-1.242c0.629-0.316,1.277-0.475,1.947-0.475
					c0.642,0,1.216,0.205,1.724,0.615c0.506,0.409,0.883,0.912,1.129,1.508c0.247,0.595,0.371,1.209,0.371,1.842v14.669h-4.704
					v-13.441c0-0.037,0.001-0.118,0.006-0.244c0.005-0.125,0.005-0.228,0-0.307c-0.005-0.08-0.009-0.182-0.013-0.308
					c-0.005-0.125-0.021-0.226-0.049-0.3c-0.028-0.074-0.065-0.153-0.112-0.237c-0.047-0.083-0.11-0.145-0.189-0.181
					c-0.079-0.038-0.174-0.056-0.286-0.056c-0.187,0-0.386,0.075-0.601,0.224s-0.368,0.274-0.46,0.377
					c-0.093,0.102-0.223,0.251-0.391,0.446v14.027h-4.704V214.33z"/>
				<path fill="#828282" d="M127.128,226.975c0-0.968,0.113-1.833,0.342-2.596c0.227-0.763,0.575-1.407,1.04-1.933
					c0.465-0.526,1.047-0.928,1.745-1.208s1.521-0.419,2.471-0.419c0.949,0,1.774,0.138,2.478,0.412
					c0.702,0.274,1.284,0.675,1.744,1.2c0.461,0.526,0.805,1.17,1.032,1.934c0.229,0.763,0.343,1.633,0.343,2.61v3.769h-6.49v4.034
					c0,1.023,0.298,1.535,0.894,1.535c0.651,0,0.977-0.548,0.977-1.647v-1.996h4.62v2.051c0,0.763-0.148,1.458-0.446,2.087
					c-0.298,0.628-0.703,1.167-1.215,1.619s-1.107,0.803-1.787,1.054c-0.679,0.251-1.396,0.376-2.149,0.376
					c-0.754,0-1.471-0.125-2.15-0.376c-0.679-0.251-1.274-0.603-1.786-1.054s-0.917-0.994-1.215-1.626
					c-0.297-0.633-0.446-1.326-0.446-2.08V226.975z M133.66,228.273v-2.512c0-0.921-0.312-1.382-0.935-1.382
					c-0.596,0-0.894,0.46-0.894,1.382v2.512H133.66z"/>
				<path fill="#828282" d="M145.008,224.281h-1.061v-3.141h1.061v-0.027c0.01-0.494,0.033-0.954,0.07-1.382
					c0.038-0.428,0.104-0.884,0.203-1.368c0.096-0.484,0.241-0.901,0.432-1.25c0.19-0.349,0.431-0.672,0.719-0.97
					c0.288-0.298,0.656-0.523,1.103-0.677c0.447-0.154,0.958-0.231,1.536-0.231c0.883,0,1.87,0.065,2.959,0.196v3.518l-1.229-0.084
					c-0.39,0-0.669,0.109-0.837,0.328c-0.167,0.219-0.251,0.617-0.251,1.193v0.754h2.275v3.141h-2.275v15.171h-4.704V224.281z"/>
				<path fill="#828282" d="M153.411,215.153h4.704v4.397h-4.704V215.153z M153.411,221.141h4.704v18.312h-4.704V221.141z"/>
				<path fill="#828282" d="M160.766,221.141h4.676v1.578c0.716-1.164,1.553-1.745,2.512-1.745c0.27,0,0.693,0.047,1.27,0.14
					l-0.279,3.963c-0.856-0.093-1.373-0.14-1.549-0.14c-0.642,0-1.129,0.198-1.458,0.593c-0.332,0.396-0.496,0.961-0.496,1.696
					v12.226h-4.676V221.141z"/>
				<path fill="#828282" d="M173.733,233.772l0.223,0.657c0.075,0.213,0.165,0.437,0.273,0.669c0.105,0.233,0.234,0.447,0.383,0.642
					c0.148,0.195,0.316,0.356,0.501,0.482c0.187,0.125,0.4,0.188,0.643,0.188c0.586,0,0.879-0.345,0.879-1.033
					c0-0.363-0.096-0.712-0.286-1.046c-0.191-0.335-0.429-0.657-0.712-0.963c-0.285-0.308-0.588-0.598-0.915-0.873
					c-0.325-0.274-0.618-0.528-0.879-0.761l-0.768-0.656c-0.503-0.429-0.952-0.852-1.348-1.27c-0.396-0.419-0.73-0.844-1.004-1.277
					c-0.275-0.433-0.484-0.88-0.627-1.34c-0.146-0.461-0.216-0.946-0.216-1.458c0-0.81,0.165-1.519,0.496-2.128
					c0.329-0.61,0.767-1.122,1.312-1.536c0.543-0.414,1.172-0.723,1.883-0.928c0.713-0.205,1.445-0.307,2.199-0.307
					c0.707,0,1.361,0.145,1.96,0.433c0.601,0.289,1.14,0.67,1.619,1.145c0.48,0.475,0.892,1.019,1.236,1.633
					c0.345,0.614,0.61,1.242,0.796,1.884l-3.378,1.158l-0.279-0.684c-0.242-0.586-0.534-1.07-0.872-1.451
					c-0.341-0.381-0.747-0.596-1.222-0.642c-0.326,0-0.58,0.116-0.76,0.349c-0.183,0.232-0.272,0.498-0.272,0.795
					c0,0.418,0.225,0.877,0.676,1.375c0.451,0.498,1.073,1.082,1.864,1.751l0.865,0.768c0.438,0.391,0.853,0.798,1.25,1.222
					c0.395,0.423,0.744,0.865,1.046,1.326s0.542,0.93,0.719,1.41c0.177,0.479,0.265,0.97,0.265,1.472
					c0,0.726-0.14,1.401-0.418,2.024c-0.279,0.624-0.661,1.161-1.145,1.612c-0.484,0.451-1.05,0.805-1.695,1.061
					c-0.647,0.256-1.333,0.384-2.06,0.384c-0.707,0-1.372-0.116-1.996-0.349c-0.623-0.232-1.186-0.561-1.688-0.984
					c-0.502-0.423-0.938-0.928-1.305-1.515c-0.368-0.586-0.648-1.237-0.844-1.954L173.733,233.772z"/>
				<path fill="#828282" d="M183.252,224.281h-1.34v-3.141h1.34v-5.89h4.704v5.89h2.261v3.141h-2.261v10.05
					c0,0.502,0.093,0.877,0.28,1.123c0.186,0.247,0.516,0.37,0.991,0.37c0.539,0,0.996-0.028,1.367-0.084l-0.278,3.644
					c-0.615,0.186-1.513,0.279-2.694,0.279c-0.549,0-1.046-0.065-1.487-0.195c-0.442-0.131-0.814-0.305-1.117-0.523
					c-0.302-0.219-0.563-0.496-0.781-0.831c-0.219-0.334-0.391-0.676-0.516-1.026c-0.126-0.349-0.223-0.756-0.293-1.221
					c-0.069-0.465-0.116-0.898-0.14-1.298c-0.023-0.4-0.034-0.856-0.034-1.368V224.281z"/>
				<path fill="#828282" d="M196.135,221.141h4.704v1.396c0.437-0.512,0.958-0.926,1.563-1.242c0.604-0.316,1.228-0.475,1.87-0.475
					c0.604,0,1.163,0.196,1.675,0.586s0.897,0.879,1.158,1.466c0.456-0.614,1.016-1.11,1.683-1.487
					c0.664-0.377,1.37-0.565,2.114-0.565c0.642,0,1.218,0.205,1.73,0.615c0.512,0.409,0.895,0.914,1.152,1.514
					c0.255,0.601,0.383,1.212,0.383,1.836v14.669h-4.704v-13.734c0-0.167-0.004-0.305-0.014-0.412s-0.033-0.244-0.07-0.412
					c-0.037-0.168-0.106-0.295-0.209-0.384c-0.103-0.088-0.233-0.132-0.391-0.132c-0.335,0-0.763,0.344-1.284,1.033v14.041h-4.704
					v-13.762c0-0.875-0.214-1.312-0.642-1.312c-0.354,0-0.795,0.349-1.327,1.047l0.015,14.027h-4.704V221.141z"/>
				<path fill="#828282" d="M216.471,226.975c0-0.968,0.112-1.831,0.335-2.589c0.224-0.759,0.567-1.401,1.033-1.926
					c0.465-0.526,1.053-0.929,1.766-1.208c0.711-0.279,1.556-0.419,2.533-0.419c0.977,0,1.823,0.138,2.54,0.412
					c0.717,0.274,1.312,0.674,1.787,1.2c0.474,0.526,0.828,1.168,1.061,1.926c0.233,0.759,0.349,1.627,0.349,2.604v7.746
					c0,0.763-0.153,1.458-0.46,2.087c-0.308,0.628-0.722,1.167-1.243,1.619s-1.129,0.803-1.821,1.054
					c-0.694,0.251-1.431,0.376-2.212,0.376c-0.735,0-1.445-0.116-2.13-0.349c-0.683-0.232-1.286-0.57-1.807-1.012
					c-0.521-0.442-0.939-0.982-1.256-1.62c-0.316-0.637-0.475-1.356-0.475-2.156V226.975z M223.214,225.761
					c0-0.921-0.358-1.382-1.075-1.382c-0.642,0-0.963,0.46-0.963,1.382v9.017c0,0.167,0.006,0.342,0.021,0.523
					c0.013,0.182,0.05,0.347,0.111,0.496c0.06,0.149,0.156,0.271,0.286,0.37c0.13,0.098,0.312,0.146,0.544,0.146
					c0.716,0,1.075-0.512,1.075-1.535V225.761z"/>
				<path fill="#828282" d="M230.276,221.141h4.704v1.382c0.446-0.512,0.984-0.921,1.613-1.228c0.626-0.307,1.281-0.461,1.96-0.461
					c0.512,0,0.968,0.121,1.368,0.363c0.4,0.242,0.737,0.551,1.012,0.928c0.274,0.377,0.484,0.8,0.629,1.27
					c0.143,0.47,0.216,0.928,0.216,1.375v14.683h-4.704v-13.859c0-0.81-0.261-1.214-0.782-1.214c-0.111,0-0.229,0.027-0.356,0.083
					c-0.125,0.056-0.234,0.125-0.328,0.209l-0.293,0.279c-0.056,0.056-0.098,0.1-0.126,0.133c-0.028,0.032-0.098,0.114-0.209,0.244
					v14.125h-4.704V221.141z"/>
				<path fill="#828282" d="M244.624,224.281h-1.339v-3.141h1.339v-5.89h4.704v5.89h2.261v3.141h-2.261v10.05
					c0,0.502,0.093,0.877,0.279,1.123c0.186,0.247,0.516,0.37,0.991,0.37c0.54,0,0.996-0.028,1.368-0.084l-0.279,3.644
					c-0.614,0.186-1.512,0.279-2.694,0.279c-0.549,0-1.045-0.065-1.487-0.195c-0.442-0.131-0.814-0.305-1.117-0.523
					c-0.302-0.219-0.562-0.496-0.782-0.831c-0.218-0.334-0.391-0.676-0.515-1.026c-0.126-0.349-0.223-0.756-0.294-1.221
					c-0.069-0.465-0.116-0.898-0.14-1.298c-0.022-0.4-0.035-0.856-0.035-1.368V224.281z"/>
				<path fill="#828282" d="M253.627,214.33h4.704v8.207c0.457-0.512,0.999-0.926,1.625-1.242c0.629-0.316,1.277-0.475,1.948-0.475
					c0.642,0,1.216,0.205,1.724,0.615c0.506,0.409,0.883,0.912,1.129,1.508c0.247,0.595,0.371,1.209,0.371,1.842v14.669h-4.704
					v-13.441c0-0.037,0.001-0.118,0.006-0.244c0.004-0.125,0.004-0.228,0-0.307c-0.005-0.08-0.009-0.182-0.013-0.308
					c-0.005-0.125-0.021-0.226-0.049-0.3c-0.028-0.074-0.065-0.153-0.111-0.237c-0.047-0.083-0.11-0.145-0.189-0.181
					c-0.08-0.038-0.174-0.056-0.286-0.056c-0.186,0-0.386,0.075-0.6,0.224c-0.214,0.149-0.368,0.274-0.461,0.377
					c-0.093,0.102-0.224,0.251-0.391,0.446v14.027h-4.704V214.33z"/>
				<path fill="#828282" d="M114.761,266.154c-0.27,0.847-0.712,1.44-1.326,1.78c-0.614,0.339-1.377,0.509-2.289,0.509
					c-0.67,0-1.256-0.13-1.759-0.391c-0.502-0.261-0.896-0.612-1.18-1.054s-0.494-0.917-0.627-1.423
					c-0.136-0.507-0.203-1.041-0.203-1.599c0-0.633,0.065-1.219,0.195-1.759c0.13-0.54,0.295-1.016,0.495-1.43
					c0.2-0.414,0.479-0.812,0.838-1.193c0.358-0.381,0.707-0.705,1.048-0.97c0.338-0.265,0.774-0.54,1.304-0.824
					s1.005-0.521,1.424-0.712c0.419-0.191,0.944-0.416,1.578-0.677v-1.535c0-0.642-0.08-1.122-0.238-1.438s-0.428-0.475-0.81-0.475
					c-0.26,0-0.473,0.054-0.635,0.161c-0.163,0.107-0.277,0.268-0.342,0.481c-0.065,0.214-0.107,0.407-0.125,0.579
					c-0.019,0.173-0.028,0.402-0.028,0.691v1.033h-4.564c0-2.094,0.526-3.701,1.578-4.822c1.051-1.122,2.577-1.682,4.578-1.682
					c1.396,0,2.619,0.507,3.671,1.521c1.051,1.015,1.577,2.219,1.577,3.615v8.654c0,1.498,0.201,3.112,0.601,4.843h-4.299
					L114.761,266.154z M114.259,259.44c-1.536,1.237-2.304,2.605-2.304,4.104c0,0.373,0.072,0.691,0.216,0.956
					s0.389,0.397,0.733,0.397c0.196,0,0.388-0.063,0.579-0.188c0.191-0.126,0.329-0.235,0.413-0.328
					c0.083-0.093,0.209-0.247,0.377-0.461L114.259,259.44z"/>
				<path fill="#828282" d="M122.159,252.866h-1.061v-3.141h1.061v-0.027c0.009-0.494,0.033-0.954,0.07-1.382
					c0.037-0.428,0.104-0.884,0.203-1.368c0.097-0.484,0.241-0.9,0.432-1.25c0.19-0.349,0.431-0.672,0.719-0.97
					s0.656-0.523,1.103-0.677c0.447-0.153,0.958-0.23,1.536-0.23c0.883,0,1.87,0.065,2.958,0.196v3.517l-1.228-0.083
					c-0.391,0-0.67,0.109-0.837,0.328c-0.168,0.219-0.251,0.617-0.251,1.193v0.754h2.275v3.141h-2.275v15.172h-4.704V252.866z"/>
				<path fill="#828282" d="M130.854,252.866h-1.34v-3.141h1.34v-5.89h4.704v5.89h2.261v3.141h-2.261v10.05
					c0,0.502,0.093,0.877,0.279,1.123c0.186,0.247,0.516,0.37,0.991,0.37c0.54,0,0.996-0.028,1.368-0.083l-0.279,3.643
					c-0.614,0.186-1.512,0.279-2.694,0.279c-0.549,0-1.045-0.065-1.486-0.196c-0.442-0.13-0.814-0.305-1.117-0.523
					c-0.302-0.219-0.563-0.496-0.782-0.831s-0.391-0.677-0.515-1.025c-0.127-0.35-0.223-0.757-0.294-1.222
					c-0.069-0.465-0.116-0.898-0.14-1.298c-0.022-0.4-0.035-0.856-0.035-1.368V252.866z"/>
				<path fill="#828282" d="M139.634,255.561c0-0.968,0.114-1.833,0.342-2.597c0.227-0.763,0.575-1.407,1.04-1.933
					c0.465-0.526,1.047-0.928,1.744-1.207c0.698-0.279,1.522-0.419,2.471-0.419c0.949,0,1.774,0.137,2.478,0.412
					c0.701,0.274,1.284,0.675,1.743,1.2c0.462,0.526,0.805,1.171,1.033,1.934c0.229,0.763,0.343,1.633,0.343,2.61v3.769h-6.49v4.034
					c0,1.023,0.297,1.535,0.893,1.535c0.651,0,0.977-0.549,0.977-1.646v-1.996h4.62v2.052c0,0.763-0.149,1.458-0.447,2.087
					c-0.298,0.628-0.703,1.167-1.214,1.619c-0.512,0.452-1.108,0.803-1.787,1.054c-0.679,0.251-1.396,0.376-2.149,0.376
					c-0.754,0-1.471-0.125-2.15-0.376c-0.679-0.251-1.275-0.603-1.786-1.054c-0.512-0.451-0.917-0.993-1.214-1.626
					c-0.298-0.632-0.447-1.326-0.447-2.08V255.561z M146.167,256.858v-2.512c0-0.921-0.312-1.382-0.935-1.382
					c-0.596,0-0.893,0.461-0.893,1.382v2.512H146.167z"/>
				<path fill="#828282" d="M152.978,249.726h4.676v1.578c0.716-1.164,1.553-1.745,2.512-1.745c0.269,0,0.693,0.047,1.27,0.14
					l-0.279,3.964c-0.856-0.093-1.372-0.14-1.549-0.14c-0.642,0-1.129,0.198-1.458,0.593c-0.332,0.396-0.496,0.96-0.496,1.696
					v12.227h-4.676V249.726z"/>
				<path fill="#828282" d="M166.852,242.915h4.704v25.124h-4.704V242.915z"/>
				<path fill="#828282" d="M181.089,266.154c-0.27,0.847-0.712,1.44-1.326,1.78c-0.614,0.339-1.377,0.509-2.29,0.509
					c-0.669,0-1.255-0.13-1.758-0.391c-0.502-0.261-0.896-0.612-1.18-1.054c-0.284-0.442-0.493-0.917-0.627-1.423
					c-0.136-0.507-0.204-1.041-0.204-1.599c0-0.633,0.065-1.219,0.196-1.759c0.13-0.54,0.295-1.016,0.495-1.43
					c0.2-0.414,0.479-0.812,0.837-1.193c0.358-0.381,0.708-0.705,1.047-0.97c0.339-0.265,0.775-0.54,1.305-0.824
					s1.005-0.521,1.424-0.712c0.418-0.191,0.944-0.416,1.577-0.677v-1.535c0-0.642-0.079-1.122-0.237-1.438
					c-0.158-0.316-0.428-0.475-0.809-0.475c-0.261,0-0.473,0.054-0.635,0.161c-0.164,0.107-0.277,0.268-0.342,0.481
					c-0.065,0.214-0.107,0.407-0.126,0.579c-0.019,0.173-0.028,0.402-0.028,0.691v1.033h-4.564c0-2.094,0.526-3.701,1.577-4.822
					c1.052-1.122,2.578-1.682,4.578-1.682c1.396,0,2.62,0.507,3.671,1.521c1.052,1.015,1.578,2.219,1.578,3.615v8.654
					c0,1.498,0.2,3.112,0.6,4.843h-4.299L181.089,266.154z M180.586,259.44c-1.535,1.237-2.303,2.605-2.303,4.104
					c0,0.373,0.072,0.691,0.216,0.956c0.145,0.265,0.389,0.397,0.734,0.397c0.195,0,0.387-0.063,0.579-0.188
					c0.19-0.126,0.328-0.235,0.412-0.328c0.084-0.093,0.209-0.247,0.377-0.461L180.586,259.44z"/>
				<path fill="#828282" d="M187.733,249.726h4.704v13.637c0,1.023,0.214,1.535,0.642,1.535c0.419,0,0.907-0.344,1.466-1.033
					v-14.139h4.703v18.312h-4.703v-1.577c-0.475,0.577-1.028,1.052-1.661,1.424c-0.633,0.372-1.275,0.558-1.926,0.558
					c-0.959,0-1.736-0.407-2.331-1.221c-0.596-0.814-0.893-1.719-0.893-2.715V249.726z"/>
				<path fill="#828282" d="M201.872,249.726h4.704v1.382c0.447-0.512,0.983-0.921,1.612-1.228c0.627-0.308,1.282-0.461,1.961-0.461
					c0.512,0,0.968,0.122,1.368,0.363c0.4,0.242,0.737,0.551,1.011,0.928s0.484,0.8,0.629,1.27c0.143,0.47,0.216,0.929,0.216,1.375
					v14.684h-4.704v-13.859c0-0.81-0.261-1.215-0.782-1.215c-0.111,0-0.23,0.028-0.356,0.084c-0.125,0.056-0.234,0.125-0.328,0.209
					l-0.293,0.278c-0.056,0.056-0.098,0.1-0.125,0.133c-0.028,0.033-0.098,0.115-0.209,0.245v14.125h-4.704V249.726z"/>
				<path fill="#828282" d="M215.676,255.561c0-1.936,0.461-3.445,1.382-4.53c0.921-1.083,2.327-1.626,4.216-1.626
					c1.898,0,3.305,0.54,4.222,1.619c0.917,1.079,1.375,2.592,1.375,4.537v1.591h-4.62v-2.08c0-0.726-0.062-1.258-0.189-1.598
					c-0.125-0.339-0.388-0.51-0.788-0.51c-0.596,0-0.894,0.461-0.894,1.382v9.017c0,1.023,0.298,1.535,0.894,1.535
					c0.224,0,0.402-0.046,0.537-0.139c0.135-0.093,0.232-0.251,0.293-0.475c0.061-0.223,0.1-0.454,0.119-0.691
					c0.019-0.237,0.028-0.569,0.028-0.998v-1.94h4.62v2.722c0,1.005-0.261,1.901-0.782,2.687s-1.205,1.379-2.052,1.779
					s-1.769,0.6-2.764,0.6c-1.536,0-2.853-0.467-3.951-1.403c-1.098-0.935-1.647-2.157-1.647-3.664V255.561z"/>
				<path fill="#828282" d="M228.853,242.915h4.704v8.207c0.456-0.512,0.999-0.926,1.625-1.242c0.629-0.316,1.278-0.475,1.948-0.475
					c0.642,0,1.216,0.205,1.725,0.614c0.506,0.41,0.883,0.912,1.129,1.507s0.371,1.21,0.371,1.843v14.669h-4.704v-13.44
					c0-0.038,0.002-0.119,0.006-0.245c0.004-0.125,0.004-0.228,0-0.307c-0.004-0.079-0.009-0.182-0.013-0.307
					c-0.006-0.125-0.021-0.226-0.049-0.3c-0.027-0.074-0.065-0.153-0.111-0.237c-0.046-0.084-0.11-0.145-0.189-0.182
					c-0.079-0.037-0.174-0.056-0.286-0.056c-0.186,0-0.385,0.074-0.6,0.223c-0.214,0.149-0.368,0.275-0.461,0.377
					c-0.093,0.102-0.223,0.251-0.391,0.447v14.027h-4.704V242.915z"/>
			</g>
		</g>
		<linearGradient id="SVGID_1_" gradientUnits="userSpaceOnUse" x1="60.1265" y1="268.541" x2="60.1265" y2="1.7949">
			<stop  offset="0.5059" style="stop-color:#828282"/>
			<stop  offset="0.6235" style="stop-color:#646464"/>
		</linearGradient>
		<polygon fill="url(#SVGID_1_)" points="23.448,268.541 96.784,268.541 96.795,79.904 120.127,79.904 60.126,1.795 0.125,79.893 
			23.459,79.912 		"/>
		<linearGradient id="SVGID_2_" gradientUnits="userSpaceOnUse" x1="63.126" y1="268.541" x2="63.126" y2="-0.209">
			<stop  offset="0.5059" style="stop-color:#BF2C54"/>
			<stop  offset="0.6235" style="stop-color:#961E3C"/>
		</linearGradient>
		<polygon fill="url(#SVGID_2_)" points="26.448,268.541 99.81,268.541 99.795,77.9 123.127,77.9 63.126,-0.209 3.125,77.889 
			26.458,77.908 		"/>
		<g>
			<path fill="#828282" d="M27.66,58.357v-1.549c0-3.008,0.79-5.772,4.375-5.772c3.342,0,4.375,2.491,4.375,5.56
				c0,4.557-3.464,10.906-5.135,13.762h5.195v3.25h-8.902v-3.25c0,0,5.408-8.082,5.56-13.55c0-1.215-0.122-2.734-1.094-2.734
				c-0.911,0-1.094,1.307-1.094,2.734v1.549H27.66z"/>
			<path fill="#828282" d="M47.136,68.838c0,0.607-0.091,5.013-4.375,5.013s-4.375-4.405-4.375-5.013v-2.613
				c0-1.641,0.577-3.342,1.701-4.405c-1.002-1.002-1.519-2.582-1.519-4.101v-1.884c0-0.577,0.091-4.8,4.192-4.8
				c4.102,0,4.192,4.223,4.192,4.8v1.884c0,1.519-0.516,3.099-1.519,4.101c1.125,1.063,1.702,2.765,1.702,4.405V68.838z
				 M42.761,63.583c-1.124,0-1.185,1.276-1.185,3.949c0.03,2.4,0.243,3.312,1.185,3.312c1.124,0,1.185-1.246,1.185-3.312
				C43.946,64.858,43.885,63.583,42.761,63.583z M42.761,53.921c-0.729,0-0.942,0.76-0.972,3.068c0,2.339,0.122,3.373,0.972,3.373
				s0.972-1.033,0.972-3.373C43.733,54.955,43.612,53.921,42.761,53.921z"/>
			<path fill="#828282" d="M51.786,73.608l-1.671,3.949h-1.519l1.063-3.949h-1.063v-3.372h3.19V73.608z"/>
			<path fill="#828282" d="M53.427,58.357v-1.549c0-3.008,0.79-5.772,4.375-5.772c3.342,0,4.375,2.491,4.375,5.56
				c0,4.557-3.463,10.906-5.134,13.762h5.195v3.25h-8.901v-3.25c0,0,5.408-8.082,5.56-13.55c0-1.215-0.122-2.734-1.094-2.734
				c-0.911,0-1.094,1.307-1.094,2.734v1.549H53.427z"/>
			<path fill="#828282" d="M72.903,68.838c0,0.607-0.091,5.013-4.375,5.013s-4.375-4.405-4.375-5.013v-2.613
				c0-1.641,0.577-3.342,1.701-4.405c-1.002-1.002-1.519-2.582-1.519-4.101v-1.884c0-0.577,0.091-4.8,4.192-4.8
				c4.102,0,4.192,4.223,4.192,4.8v1.884c0,1.519-0.516,3.099-1.519,4.101c1.125,1.063,1.702,2.765,1.702,4.405V68.838z
				 M68.528,63.583c-1.124,0-1.185,1.276-1.185,3.949c0.03,2.4,0.243,3.312,1.185,3.312c1.124,0,1.185-1.246,1.185-3.312
				C69.713,64.858,69.652,63.583,68.528,63.583z M68.528,53.921c-0.729,0-0.942,0.76-0.972,3.068c0,2.339,0.122,3.373,0.972,3.373
				S69.5,59.329,69.5,56.99C69.5,54.955,69.378,53.921,68.528,53.921z"/>
			<path fill="#828282" d="M77.097,63.521v-2.734c2.734-0.152,2.491-1.155,2.491-3.98c0-1.276,0-2.886-1.033-2.886
				c-0.82,0-0.942,0.79-0.972,3.798h-3.22c0-2.522,0.091-6.684,4.192-6.684s4.253,4.223,4.253,4.8c0,3.312-0.578,4.891-1.58,5.894
				l-0.03,0.031c1.58,1.246,1.884,3.554,1.884,6.137c0,0.577-0.152,5.955-4.253,5.955c-4.102,0-4.344-4.162-4.344-6.684h3.22
				c0.03,3.007,0.304,3.797,1.124,3.797c1.033,0,1.033-1.549,1.033-2.825c0-2.826,0.365-4.466-2.491-4.618H77.097z"/>
			<path fill="#828282" d="M87.064,62.701c-2.4,0-2.37-2.612-2.37-2.612v-6.471c0,0-0.03-2.583,2.37-2.583
				c2.339,0,2.339,2.583,2.339,2.583v6.471C89.403,60.089,89.403,62.701,87.064,62.701z M86.213,73.608l8.203-22.33h1.944
				l-8.112,22.33H86.213z M87.064,52.797c-0.607,0-0.547,0.82-0.547,0.82v6.471c0,0-0.061,0.82,0.547,0.82
				c0.547,0,0.517-0.82,0.517-0.82v-6.471C87.581,53.618,87.611,52.797,87.064,52.797z M95.601,73.851c-2.4,0-2.37-2.583-2.37-2.583
				v-6.471c0,0-0.03-2.613,2.37-2.613c2.339,0,2.339,2.613,2.339,2.613v6.471C97.94,71.269,97.94,73.851,95.601,73.851z
				 M95.601,63.978c-0.607,0-0.546,0.82-0.546,0.82v6.471c0,0-0.061,0.851,0.546,0.851c0.547,0,0.517-0.851,0.517-0.851v-6.471
				C96.117,64.798,96.147,63.978,95.601,63.978z"/>
		</g>
		<g>
			<path fill="#FFFFFF" d="M28.276,57.898v-1.549c0-3.008,0.79-5.772,4.375-5.772c3.342,0,4.375,2.491,4.375,5.56
				c0,4.557-3.464,10.907-5.135,13.763h5.195v3.25h-8.902v-3.25c0,0,5.408-8.082,5.56-13.55c0-1.215-0.122-2.734-1.094-2.734
				c-0.912,0-1.094,1.307-1.094,2.734v1.549H28.276z"/>
			<path fill="#FFFFFF" d="M47.752,68.38c0,0.607-0.091,5.013-4.375,5.013s-4.375-4.405-4.375-5.013v-2.613
				c0-1.641,0.577-3.342,1.701-4.405c-1.002-1.002-1.519-2.582-1.519-4.101v-1.884c0-0.577,0.091-4.8,4.192-4.8
				c4.102,0,4.192,4.223,4.192,4.8v1.884c0,1.519-0.516,3.099-1.519,4.101c1.125,1.063,1.702,2.765,1.702,4.405V68.38z
				 M43.377,63.124c-1.124,0-1.185,1.276-1.185,3.949c0.03,2.4,0.243,3.312,1.185,3.312c1.124,0,1.185-1.246,1.185-3.312
				C44.562,64.4,44.501,63.124,43.377,63.124z M43.377,53.463c-0.729,0-0.942,0.76-0.972,3.068c0,2.339,0.122,3.373,0.972,3.373
				s0.972-1.033,0.972-3.373C44.35,54.496,44.228,53.463,43.377,53.463z"/>
			<path fill="#FFFFFF" d="M52.402,73.149l-1.671,3.949h-1.519l1.063-3.949h-1.063v-3.372h3.19V73.149z"/>
			<path fill="#FFFFFF" d="M54.043,57.898v-1.549c0-3.008,0.79-5.772,4.375-5.772c3.342,0,4.375,2.491,4.375,5.56
				c0,4.557-3.463,10.907-5.134,13.763h5.195v3.25h-8.901v-3.25c0,0,5.408-8.082,5.56-13.55c0-1.215-0.122-2.734-1.094-2.734
				c-0.912,0-1.094,1.307-1.094,2.734v1.549H54.043z"/>
			<path fill="#FFFFFF" d="M73.519,68.38c0,0.607-0.091,5.013-4.375,5.013s-4.375-4.405-4.375-5.013v-2.613
				c0-1.641,0.577-3.342,1.701-4.405c-1.002-1.002-1.519-2.582-1.519-4.101v-1.884c0-0.577,0.091-4.8,4.192-4.8
				c4.102,0,4.192,4.223,4.192,4.8v1.884c0,1.519-0.516,3.099-1.519,4.101c1.125,1.063,1.702,2.765,1.702,4.405V68.38z
				 M69.144,63.124c-1.124,0-1.185,1.276-1.185,3.949c0.03,2.4,0.243,3.312,1.185,3.312c1.124,0,1.185-1.246,1.185-3.312
				C70.329,64.4,70.268,63.124,69.144,63.124z M69.144,53.463c-0.729,0-0.942,0.76-0.972,3.068c0,2.339,0.122,3.373,0.972,3.373
				s0.972-1.033,0.972-3.373C70.116,54.496,69.995,53.463,69.144,53.463z"/>
			<path fill="#FFFFFF" d="M77.713,63.063v-2.734c2.734-0.152,2.491-1.155,2.491-3.98c0-1.276,0-2.886-1.033-2.886
				c-0.82,0-0.942,0.79-0.972,3.798h-3.22c0-2.522,0.091-6.684,4.192-6.684s4.253,4.223,4.253,4.8c0,3.312-0.578,4.891-1.58,5.894
				l-0.03,0.031c1.58,1.246,1.884,3.554,1.884,6.137c0,0.577-0.152,5.955-4.253,5.955s-4.344-4.162-4.344-6.684h3.22
				c0.03,3.007,0.304,3.797,1.124,3.797c1.033,0,1.033-1.549,1.033-2.825c0-2.826,0.365-4.466-2.491-4.618H77.713z"/>
			<path fill="#FFFFFF" d="M87.68,62.243c-2.4,0-2.37-2.612-2.37-2.612v-6.471c0,0-0.03-2.583,2.37-2.583
				c2.339,0,2.339,2.583,2.339,2.583v6.471C90.02,59.63,90.02,62.243,87.68,62.243z M86.83,73.149l8.203-22.33h1.944l-8.111,22.33
				H86.83z M87.68,52.339c-0.607,0-0.547,0.82-0.547,0.82v6.471c0,0-0.061,0.82,0.547,0.82c0.547,0,0.517-0.82,0.517-0.82v-6.471
				C88.197,53.159,88.227,52.339,87.68,52.339z M96.217,73.393c-2.4,0-2.37-2.583-2.37-2.583v-6.471c0,0-0.03-2.613,2.37-2.613
				c2.339,0,2.339,2.613,2.339,2.613v6.471C98.556,70.81,98.556,73.393,96.217,73.393z M96.217,63.519
				c-0.607,0-0.547,0.82-0.547,0.82v6.471c0,0-0.061,0.851,0.547,0.851c0.547,0,0.517-0.851,0.517-0.851v-6.471
				C96.733,64.339,96.764,63.519,96.217,63.519z"/>
		</g>
	</g>
</g>
</svg>
